<svg fill="none" height="40" viewBox="0 0 144 40" width="144" xmlns="http://www.w3.org/2000/svg" xmlns:xlink="http://www.w3.org/1999/xlink"><clipPath id="a"><path d="m13.3203 8h117.103v24h-117.103z"/></clipPath><g clip-path="url(#a)"><g fill="#015487"><path d="m84.6268 15.0627h-5.3669v-3.2648h-3.5214v3.2855h-2.0276v2.8676h2.0276v10.4441h3.5214v-10.4441h5.3669z"/><path d="m97.3066 16.1508c-1.054-.7366-2.52-1.1035-4.3986-1.1007h-7.6676v2.9544h7.862c.5669-.0326 1.1338.068 1.6552.2938.3641.1987.5462.4138.5462.6166h-9.1696c-.8342-.0077-1.6668.0755-2.4828.2483-.6807.1406-1.3357.3863-1.9407.7282-.5135.2867-.9509.6926-1.2745 1.1835-.3087.4885-.4667 1.0569-.4551 1.6345v1.6841c-.0029.5804.1717 1.1479.5006 1.6262.3555.507.8173.9306 1.3532 1.2414.6136.3739 1.2806.6529 1.9779.8276.7821.2028 1.5877.303 2.3959.2979h6.6868c3.9832 0 5.9765-1.3793 5.9794-4.1379v-4.9655c.0252-.6122-.1056-1.2209-.3799-1.7688-.2739-.5479-.6832-1.0171-1.1884-1.3636zm-1.92 6.5379c.0062.4851-.017.9702-.0704 1.4524-.0202.2849-.1225.5578-.2938.7862-.1733.1849-.4096.2986-.662.3186-.3915.0436-.7854.063-1.1793.058h-7.0469c-1.7421 0-2.6111-.4138-2.6111-1.1835v-1.0469c0-.8938.8483-1.3407 2.5449-1.3407h9.3227z"/><path d="m103.174 11.4995h-3.6623v16.891h3.6623z"/><path d="m126.478 15.0627v9.8069h-7.78c-2.027 0-3.045-.3849-3.045-1.1586v-8.6483h-3.501-2.681v-3.2648h-3.526v3.2772h-2.019v2.8634h2.023v10.4566h3.526v-10.4566h2.681v5.8842c-.037.6035.092 1.2056.373 1.741s.703.9837 1.22 1.2962c1.06.6455 2.715.9669 4.966.9642h7.779c-.033.1696-.269.3558-.708.571-.644.2477-1.334.3563-2.023.3186h-3.658v3h2.408c1.158.0158 2.315-.0756 3.456-.2731.818-.1399 1.606-.4198 2.329-.8276.556-.3114 1.014-.7732 1.32-1.3324.289-.5771.432-1.2167.414-1.8621v-12.3558z"/><path d="m56.6415 25.8831c-1.589-1.2413-5.4125-3.3103-13.2001-3.3103v-3.1448c8.2759 0 12.8028 2.1683 15.1284 3.9848z"/></g><path d="m27.4157 25.7672c-.5205-.0862-1.0544-.0354-1.5493.1474-.4948.1828-.9335.4915-1.2728.8954-.7738.662-1.3241 1.0841-2.9214 1.0841h-.1945c-.3494-.0024-.6918-.0979-.992-.2766-.3002-.1788-.5474-.4343-.716-.7404-.1686-.306-.2526-.6515-.2433-1.0007.0093-.3493.1115-.6898.2962-.9864l.0207-.0331c.8896-1.4235 1.6055-1.8911 2.6234-1.9449h-.0207c.4389-.0788.8551-.2533 1.2191-.5109.3641-.2577.6669-.5922.8873-.9799.2203-.3878.3526-.8192.3876-1.2638.035-.4445-.0281-.8914-.185-1.3088-.1283-.9104-.1366-1.5973.6579-2.8676.7945-1.2704 1.4235-1.7586 2.2511-1.9035.1075 0 .2151-.0124.3227-.0372h.0455c.6095-.1127 1.1702-.4086 1.607-.8483s.7291-1.0023.8378-1.6125.0286-1.239-.2296-1.80254c-.2582-.5635-.6821-1.0348-1.2152-1.35096-.5332-.31617-1.1501-.46213-1.7684-.41841-.6182.04372-1.2085.27505-1.6918.6631-.4833.38804-.8367.91432-1.013 1.50851-.1763.5942-.1672 1.2281.0263 1.817.0707.1721.1288.3491.1738.5296.1482.9209-.0751 1.8629-.6207 2.6193-.4378.7775-1.1578 1.3568-2.011 1.618-.1768.0533-.3583.0893-.5421.1075-.4374.05-.8587.1945-1.2348.4234-.376.229-.6978.537-.943.9026-.2452.3657-.408.7803-.4771 1.2151s-.0428.8794.077 1.3031v.0579c0 .0207.0331.1076.0538.1614.2648.8276.3228 1.7959-.5007 3.1034-.3541.6125-.8789 1.1086-1.5103 1.4276-.3147.1558-.6531.2579-1.0014.3021-.6322.0682-1.2271.333-1.7007.7572l-.0248.0249c-.0421.0365-.0821.0751-.12.1158-.4348.4204-.7247.9682-.8276 1.5642-.1171.613-.0476 1.2472.1996 1.8203.2471.5732.6604 1.059 1.1866 1.3948.584.3485 1.2677.4918 1.9425.407.6748-.0847 1.3019-.3925 1.7816-.8745.1216-.1194.2336-.2481.3352-.3849.5669-.6455 1.3448-1.171 2.8469-1.171.5476-.0254 1.0937.0756 1.596.2951.5023.2196.9473.5519 1.3005.9711.3107.3822.7096.6832 1.1623.8771.4527.194.9458.2751 1.4368.2363.4909-.0387.9652-.1961 1.3819-.4586.4168-.2625.7635-.6223 1.0104-1.0484.247-.4262.3867-.9059.4073-1.398.0205-.4921-.0787-.9818-.2893-1.4271-.2105-.4452-.5261-.8327-.9194-1.129-.3934-.2964-.8529-.4928-1.3389-.5723z" fill="#fd551d"/><path d="m69.7241 20.094h-4.5517c-.5917 0-1.08 0-1.469-.0331-.3103-.0111-.619-.0485-.9227-.1118-.1763-.0287-.3414-.1061-.4759-.2234-.089-.0937-.1382-.2184-.1365-.3476v-.6455c0-.389.9393-.5835 2.8179-.5835h7.9655v-3.0993h-8.1062c-2.2291 0-3.821.2869-4.7752.8607-.4647.2756-.8441.674-1.0969 1.1516-.2529.4775-.3687 1.0154-.3348 1.5546v.8276c0 2.5324 2.1749 3.7973 6.5255 3.7945h4.4193c1.2911 0 1.9324.2524 1.9324.7531v.4759c0 .5517-.72.8275-2.16.8275h-7.5269c-.5275-.0004-1.0473-.1299-1.5132-.3773s-.864-.6052-1.1599-1.042l-7.6304-11.2593c-.2393-.3436-.5552-.6269-.9227-.8276-.5414-.2894-1.1724-.3623-1.7655-.2041-.5931.1583-1.1039.5359-1.429 1.0565l-7.9449 11.4704c-.1881.2676-.4392.4848-.7312.6325-.2919.1477-.6156.2213-.9427.2144-.3271-.007-.6474-.0943-.9328-.2542-.2853-.16-.527-.3877-.7036-.6631-.8276-1.3075-.7614-2.2634-.4966-3.1034 0-.0538.0373-.1076.0497-.1614.0011-.0193.0011-.0386 0-.0579.1702-.5909.1573-1.2194-.0369-1.8028-.1943-.5834-.5609-1.0942-1.0513-1.4651-.4905-.3708-1.0818-.5843-1.696-.6123-.6143-.0279-1.2226.131-1.7447.4557-.5221.3248-.9335.8002-1.18 1.3635s-.3164 1.1881-.2006 1.792c.1159.6039.412 1.1585.8494 1.5906.4374.4322.9955.7216 1.6008.8301h-.0207c1.0138.0538 1.7297.5214 2.6235 1.9448.8275 1.3531.7862 2.0442.6331 3.0497-.2057.6245-.2034 1.2989.0065 1.922s.616 1.1614 1.1576 1.5343c.5416.3728 1.1893.5601 1.8464.5338.6569-.0263 1.2877-.2648 1.7977-.6798.4981-.3989.8549-.9472 1.018-1.5641.4763-1.9611 1.2583-3.8351 2.3172-5.5531l.1448-.2276 2.1104-3.1614h-.0331l3.48-5.0027 2.1062 2.971 1.44 2.0317h-.029l2.1973 3.1614.7449 1.1214c.7009 1.0536 1.651 1.9176 2.7666 2.5154 1.1152.5977 2.3611.9106 3.6265.9108h7.1751c3.862 0 5.7931-1.3145 5.7931-3.9435v-.5544c.0274-2.5242-1.7809-3.7862-5.4248-3.7862z" fill="#015487"/></g></svg>