<svg fill="none" height="32" viewBox="0 0 144 32" width="144" xmlns="http://www.w3.org/2000/svg" xmlns:xlink="http://www.w3.org/1999/xlink"><mask id="a" height="19" maskUnits="userSpaceOnUse" width="111" x="17" y="7"><path d="m127.024 7.875h-109.7349v17.25h109.7349z" fill="#fff"/></mask><g mask="url(#a)"><path d="m43.672 11.9793c1.2568 0 2.2344.4782 2.9524 1.4745.7183.9762 1.0774 2.3111 1.0774 4.0045 0 1.7535-.3591 3.1084-1.0971 4.0646-.7382.9764-1.7358 1.4345-2.9925 1.4345-1.257 0-2.2147-.4382-2.9328-1.3547h-.1995l-.3791.9362c-.0599.1395-.1995.2193-.3392.2193h-1.5959c-.0471.0003-.0939-.0089-.1376-.0268-.0436-.0179-.0832-.0443-.1167-.0777-.0334-.0334-.0598-.073-.0778-.1166s-.0272-.0904-.0271-.1376v-14.00638c-.0001-.04719.0091-.09394.0271-.13756.018-.04363.0444-.08325.0778-.1166.0335-.03335.0731-.05976.1167-.0777.0437-.01795.0905-.02707.1376-.02685h2.1546c.1995 0 .3591.1594.3591.35871v3.06818c0 .4384-.0399 1.1356-.1197 2.0921h.1197c.6582-1.0361 1.6757-1.5741 2.9926-1.5741zm-.9178 2.3312c-.6983 0-1.237.219-1.5762.6574-.319.4385-.4986 1.1755-.4986 2.1718v.3186c0 1.1358.1596 1.9526.4986 2.4308.3392.4782.8779.7372 1.6161.7372.5786 0 1.0772-.2789 1.4164-.8367.3391-.5381.5188-1.3549.5188-2.371 0-1.036-.1797-1.8131-.5188-2.3312-.359-.5179-.8577-.7769-1.4563-.7769zm9.6958 8.4677h-2.1546c-.0472.0002-.094-.0089-.1376-.0269-.0437-.0179-.0834-.0443-.1167-.0777-.0334-.0333-.0599-.0729-.0779-.1166-.018-.0436-.0271-.0904-.027-.1375v-9.8621c-.0001-.0471.009-.0939.027-.1375s.0445-.0833.0779-.1166c.0333-.0334.073-.0598.1167-.0777.0436-.018.0904-.0271.1376-.0269h2.1546c.1995 0 .3591.1594.3591.3587v9.8423c.02.1794-.1596.3785-.3591.3785zm7.8805-2.132c.4188 0 .9176-.0795 1.5162-.239.1596-.0399.2992.0797.2992.239v1.6538c0 .0997-.0598.1793-.1396.2192-.6784.2789-1.5363.4184-2.4938.4184-1.1572 0-1.995-.2791-2.5137-.8766-.5187-.5778-.7981-1.4547-.7981-2.6102v-5.0807h-1.1373c-.1396 0-.2392-.0995-.2392-.239v-.9364c0-.02.0199-.04.0199-.0597l1.5761-.9365.778-2.0721c.04-.0997.1198-.15937.2196-.15937h1.4363c.1397 0 .2394.09977.2394.23897v2.0127h2.8529c.0599 0 .1197.0596.1197.1195v1.7931c0 .1395-.0997.2391-.2394.2391h-2.7132v5.0607c0 .3986.1196.7172.3391.8965.1996.2193.5188.3186.8779.3186zm13.4265 2.132c-.2793 0-.4988-.1794-.6185-.4385l-2.1147-6.4351c-.1396-.4583-.3192-1.1556-.5586-2.0522h-.0598l-.1996.7173-.419 1.3548-2.1745 6.4355c-.0798.259-.3192.4184-.5986.4184-.2793 0-.5187-.1794-.5985-.4583l-2.6534-9.2647c-.0798-.2789.1397-.5778.4589-.5778h.0599c.1995 0 .379.1395.4389.3388l1.556 5.6385c.3791 1.4743.6385 2.5501.7582 3.2675h.0598c.3592-1.4743.6385-2.4508.8181-2.9487l2.0149-5.8977c.0798-.239.2993-.3984.5786-.3984.2594 0 .4788.1594.5586.3984l1.8753 5.8578c.4589 1.4943.7383 2.4505.838 2.9487h.0598c.0599-.3984.2992-1.5142.758-3.3074l1.4964-5.5587c.0598-.1993.2394-.3388.4389-.3388.0704-.0003.1399.0158.203.0469.063.0311.118.0765.1606.1325.0425.0561.0715.1212.0845.1904.0131.0691.0099.1403-.0093.208l-2.5137 9.2645c-.0798.2789-.3191.4583-.6184.4583zm11.8503 0c-.1795 0-.3391-.1394-.359-.3188l-.1795-1.315h-.0997c-.5187.6574-1.0375 1.1356-1.5962 1.4145-.5386.2789-1.1968.3985-1.935.3985-1.0175 0-1.7955-.259-2.3541-.777-.4988-.4582-.7781-1.0759-.818-1.853-.0798-1.036.3591-2.0321 1.197-2.6099.8577-.5579 2.0549-.8966 3.6707-.8966l1.9553-.0599v-.6775c0-.9961-.1995-1.7134-.6184-2.2113-.4191-.4982-1.0376-.7372-1.9155-.7372-.8377 0-1.6757.1991-2.5536.6175-.1057.0473-.226.0508-.3343.0098-.1084-.0411-.1961-.1234-.2441-.2289-.0997-.2192 0-.478.2193-.5578.9976-.3986 1.9752-.6177 2.9727-.6177 1.1372 0 1.9752.2989 2.5536.8966.5586.5778.8379 1.5143.8379 2.7294v6.4755c-.0199.1194-.1995.3188-.3991.3188zm-4.1295-.6776c1.1171 0 1.975-.3188 2.5935-.9363.6385-.6176.9576-1.5142.9576-2.6101v-.9961l-1.7956.0796c-1.4563.0598-2.4738.2989-3.1123.6775-.6183.3785-.9375.9961-.9375 1.7932 0 .6374.1995 1.1555.5784 1.514.4389.2989.9976.4782 1.7159.4782zm11.8105-9.8225c.2992 0 .5985.02.9375.0599.0592.0086.1162.0289.1672.0597s.096.0715.1312.1197c.0353.0482.0608.103.0743.1611.0142.0581.0165.1184.0067.1774-.0405.239-.2797.3787-.519.3388-.2992-.04-.5985-.0797-.8977-.0797-.8775 0-1.596.3785-2.1547 1.1157-.5584.7372-.8377 1.6936-.8377 2.8092v5.2202c0 .2589-.1995.4582-.4589.4582s-.4589-.1993-.4589-.4582v-9.3643c0-.2191.1796-.3984.3991-.3984.2194 0 .399.1594.399.3784l.0798 1.4744h.0598c.419-.7569.8777-1.2948 1.3565-1.5939.4587-.3188 1.0378-.4782 1.7158-.4782zm7.0227 0c.738 0 1.397.1395 1.935.3986.558.259 1.037.7372 1.457 1.3946h.059c-.04-.8168-.059-1.5739-.059-2.3311v-3.24752c0-.25896.199-.45827.458-.45827s.459.19931.459.45827v13.92682c0 .1793-.139.3188-.319.3188-.159 0-.299-.1196-.319-.2989l-.2-1.295h-.079c-.779 1.1755-1.916 1.7533-3.372 1.7533-1.4365 0-2.494-.4386-3.2717-1.3349-.7388-.8966-1.1378-2.1718-1.1378-3.8653 0-1.7732.3593-3.128 1.1175-4.0845.7583-.8567 1.8353-1.3349 3.272-1.3349zm0 .8569c-1.1375 0-1.9752.3984-2.5535 1.1955-.5587.7768-.8385 1.9126-.8385 3.4269 0 2.9088 1.1378 4.3632 3.412 4.3632 1.177 0 2.015-.3388 2.554-1.0161.558-.6775.818-1.7932.818-3.3471v-.1594c0-1.5941-.26-2.7297-.818-3.407-.519-.7174-1.377-1.056-2.574-1.056zm11.95 9.8224c-1.496 0-2.653-.4581-3.511-1.3946-.838-.9166-1.258-2.2115-1.258-3.8653 0-1.6537.4-2.9686 1.218-3.945.818-.9962 1.895-1.4943 3.272-1.4943 1.197 0 2.174.4185 2.853 1.2553.718.8367 1.057 1.9925 1.057 3.4469v.7571h-7.422c.021 1.4145.34 2.4904.998 3.2476.659.7571 1.576 1.0959 2.793 1.0959.578 0 1.118-.0399 1.556-.1197.32-.0597.699-.1595 1.158-.3189.259-.0995.538.0998.538.3787 0 .1594-.1.3188-.26.3785-.478.1995-.937.3188-1.356.3986-.499.1393-1.038.1792-1.636.1792zm-.279-9.8424c-.998 0-1.796.3189-2.394.9762-.599.6377-.938 1.5941-1.057 2.8093h6.384c0-1.1755-.26-2.1317-.778-2.7891-.519-.6578-1.238-.9964-2.155-.9964zm14.443 9.6632c-.258 0-.458-.1994-.458-.4583v-6.2361c0-1.0361-.22-1.7933-.639-2.2515-.459-.4583-1.117-.7173-2.035-.7173-1.236 0-2.134.2989-2.693.9363-.559.6177-.877 1.634-.877 3.0086v5.2201c0 .2589-.2.4583-.459.4583-.26 0-.459-.1994-.459-.4583v-9.3842c0-.239.179-.4184.419-.4184.219 0 .379.1594.419.3587l.12 1.0361h.059c.678-1.076 1.855-1.614 3.571-1.614 2.334 0 3.512 1.2553 3.512 3.7659v6.2557c-.02.2789-.24.4984-.48.4984zm-75.0323-14.9032c-.9377 0-1.6959.71723-1.6959 1.61381v.15941c0 .87658.7781 1.61378 1.6959 1.61378.9176 0 1.6957-.7372 1.6957-1.61378v-.13946c0-.91653-.7781-1.63376-1.6957-1.63376zm-21.9927 9.404v-7.1243h-4.9869v12.6566c.8833-.4677 1.6734-.9761 2.3711-1.5252 1.7437-1.3654 2.6158-2.7011 2.6158-4.0071zm2.1374-8.54898v8.54898c0 .638-.1243 1.2706-.3731 1.8979-.2486.627-.5565 1.1836-.9238 1.6697-.3672.4859-.8051.9591-1.3135 1.4193-.5083.4599-.9776.8421-1.4081 1.1464-.4358.3077-.8852.5955-1.3469.8627-.4677.2708-.7998.4545-.9964.5509-.1561.0775-.3137.1517-.473.2226-.0899.0448-.1891.0677-.2895.067-.1039 0-.2004-.0223-.2893-.067-.1593-.0708-.317-.145-.4732-.2224-.1966-.0966-.5287-.2803-.9962-.5511-.4616-.2671-.911-.5549-1.3467-.8625-.4306-.3045-.8999-.6867-1.4083-1.1466-.5083-.4602-.9462-.9332-1.3135-1.4195-.3674-.4859-.6754-1.0425-.924-1.6695-.2486-.6273-.3728-1.2599-.3728-1.8979v-8.54898c0-.19308.0706-.35997.2115-.50088.1409-.14111.3078-.21157.5009-.21157h12.8232c.1933 0 .3602.07046.5011.21137.1409.14111.2116.30821.2116.50108z" fill="#151715"/></g></svg>