<svg xmlns="http://www.w3.org/2000/svg" width="420" height="344" fill="none"><rect width="420" height="344" fill="#FCFDFC" rx="16"/><rect width="419" height="343" x=".5" y=".5" stroke="#012201" stroke-opacity=".12" rx="15.5"/><rect width="404" height="328" x="8" y="8" fill="#fff" rx="8" style="filter:drop-shadow(0 1px 1px rgba(21,23,21,.05)) drop-shadow(0 2px 2px rgba(21,23,21,.05)) drop-shadow(0 4px 4px rgba(21,23,21,.05))"/><rect width="405" height="329" x="7.5" y="7.5" stroke="#012201" stroke-opacity=".12" rx="8.5"/><path fill="#141E12" d="M37.337 32.818V43h-1.412l-5.176-7.467h-.094V43h-1.536V32.818h1.422l5.18 7.477h.094v-7.477h1.522Zm5.412 10.336c-.752 0-1.4-.16-1.943-.482a3.271 3.271 0 0 1-1.253-1.367c-.292-.59-.438-1.281-.438-2.074 0-.782.146-1.471.438-2.068a3.398 3.398 0 0 1 1.233-1.397c.53-.334 1.15-.502 1.86-.502.43 0 .847.072 1.252.214.404.142.767.366 1.089.671.321.305.575.701.76 1.188.186.484.279 1.073.279 1.765v.527h-6.07v-1.113h4.613c0-.392-.08-.738-.239-1.04a1.804 1.804 0 0 0-.67-.72 1.875 1.875 0 0 0-1.005-.264 1.94 1.94 0 0 0-1.094.308 2.07 2.07 0 0 0-.716.796 2.296 2.296 0 0 0-.248 1.059v.87c0 .51.09.944.268 1.302.182.358.436.632.76.82.326.186.705.28 1.14.28.281 0 .538-.04.77-.12a1.598 1.598 0 0 0 .99-.97l1.406.254a2.549 2.549 0 0 1-.606 1.089 2.941 2.941 0 0 1-1.089.72c-.434.17-.93.254-1.486.254ZM49.317 43l-2.247-7.636h1.536l1.496 5.608h.075l1.501-5.608h1.537l1.491 5.583h.075l1.486-5.583h1.536L55.561 43h-1.516l-1.551-5.514h-.115L50.83 43h-1.512Zm13.721 0V32.818h1.487v3.784h.09c.086-.16.21-.343.372-.552a2.11 2.11 0 0 1 .677-.547c.288-.16.669-.239 1.143-.239.617 0 1.167.156 1.65.467.485.312.864.761 1.14 1.348.278.587.417 1.292.417 2.118 0 .825-.138 1.533-.413 2.123-.275.586-.653 1.039-1.133 1.357-.481.315-1.03.472-1.646.472-.464 0-.844-.078-1.139-.233a2.156 2.156 0 0 1-.686-.547 4.142 4.142 0 0 1-.382-.557h-.125V43H63.04Zm1.457-3.818c0 .537.078 1.007.234 1.412.156.404.381.72.676.95.295.225.656.337 1.084.337.444 0 .815-.117 1.114-.353.298-.238.523-.561.676-.97.155-.407.233-.866.233-1.376 0-.504-.076-.956-.228-1.357a2.078 2.078 0 0 0-.677-.95c-.298-.232-.67-.348-1.118-.348-.431 0-.796.111-1.094.333-.295.222-.519.532-.671.93-.153.398-.229.861-.229 1.392Zm10.046 3.967a2.959 2.959 0 0 1-1.65-.472c-.48-.318-.858-.77-1.134-1.357-.271-.59-.407-1.298-.407-2.123 0-.826.137-1.532.412-2.118.279-.587.66-1.036 1.144-1.348a2.974 2.974 0 0 1 1.645-.467c.474 0 .856.08 1.144.239.292.156.517.338.676.547.163.209.288.393.378.552h.09v-1.238h1.486V43h-1.452v-1.188h-.124c-.09.162-.219.348-.388.557a2.157 2.157 0 0 1-.686.547c-.292.155-.67.233-1.133.233Zm.329-1.268c.427 0 .788-.112 1.084-.338.298-.228.523-.545.676-.95.155-.404.233-.874.233-1.411 0-.53-.076-.995-.228-1.392-.153-.398-.377-.708-.672-.93-.295-.222-.66-.333-1.093-.333-.448 0-.82.116-1.119.348a2.127 2.127 0 0 0-.676.95c-.15.4-.224.853-.224 1.357 0 .51.076.97.229 1.377.152.408.378.73.676.97.302.235.673.352 1.114.352Zm8.793 1.273c-.739 0-1.375-.167-1.909-.502a3.325 3.325 0 0 1-1.223-1.397c-.285-.593-.428-1.273-.428-2.038 0-.776.146-1.46.438-2.054a3.352 3.352 0 0 1 1.233-1.397c.53-.334 1.155-.502 1.874-.502.58 0 1.097.108 1.551.323.454.212.82.51 1.1.895.28.385.448.834.501 1.348h-1.447a1.733 1.733 0 0 0-.546-.925c-.282-.259-.66-.388-1.134-.388-.414 0-.777.11-1.089.328-.308.216-.548.524-.72.925-.173.398-.26.868-.26 1.412 0 .557.085 1.037.255 1.442.169.404.407.717.715.94.312.221.678.332 1.1.332.28 0 .536-.051.765-.154.232-.106.426-.257.581-.452.16-.196.27-.431.334-.706H86.8a2.81 2.81 0 0 1-.482 1.322 2.775 2.775 0 0 1-1.079.915c-.447.222-.973.333-1.576.333Zm6.094-2.744-.01-1.815h.259l3.042-3.231h1.78l-3.47 3.679h-.234l-1.367 1.367ZM88.39 43V32.818h1.486V43H88.39Zm4.822 0-2.734-3.63 1.024-1.038L95.037 43h-1.825Zm7.808-3.167v-4.47h1.492V43h-1.462v-1.322h-.079a2.386 2.386 0 0 1-.846 1.019c-.384.268-.863.402-1.436.402-.491 0-.925-.107-1.303-.323a2.27 2.27 0 0 1-.885-.97c-.212-.427-.318-.955-.318-1.585v-4.857h1.486v4.678c0 .52.145.935.433 1.243.288.308.663.462 1.123.462.279 0 .556-.07.831-.209.278-.139.509-.35.691-.631.185-.282.277-.64.273-1.074Zm3.489 6.03v-10.5h1.452v1.239h.124c.086-.16.211-.343.373-.552.162-.21.388-.391.676-.547.288-.16.67-.239 1.144-.239.616 0 1.166.156 1.65.467.484.312.863.761 1.139 1.348.278.587.417 1.292.417 2.118 0 .825-.137 1.533-.412 2.123-.276.586-.653 1.039-1.134 1.357a2.936 2.936 0 0 1-1.646.472c-.464 0-.843-.078-1.138-.233a2.154 2.154 0 0 1-.686-.547 4.164 4.164 0 0 1-.383-.557h-.089v4.052h-1.487Zm1.457-6.681c0 .537.078 1.007.233 1.412.156.404.382.72.677.95.295.225.656.337 1.083.337.444 0 .816-.117 1.114-.353.298-.238.524-.561.676-.97.156-.407.234-.866.234-1.376 0-.504-.076-.956-.229-1.357a2.073 2.073 0 0 0-.676-.95c-.298-.232-.671-.348-1.119-.348-.431 0-.795.111-1.093.333-.295.222-.519.532-.672.93-.152.398-.228.861-.228 1.392Zm14.105 3.972c-.739 0-1.375-.167-1.909-.502a3.327 3.327 0 0 1-1.223-1.397c-.285-.593-.427-1.273-.427-2.038 0-.776.146-1.46.437-2.054a3.356 3.356 0 0 1 1.233-1.397c.53-.334 1.155-.502 1.874-.502.58 0 1.098.108 1.552.323.454.212.82.51 1.098.895a2.7 2.7 0 0 1 .502 1.348h-1.446a1.737 1.737 0 0 0-.547-.925c-.282-.259-.66-.388-1.134-.388-.414 0-.777.11-1.088.328-.309.216-.549.524-.721.925-.173.398-.259.868-.259 1.412 0 .557.085 1.037.254 1.442.169.404.407.717.716.94a1.84 1.84 0 0 0 1.098.332c.282 0 .537-.051.766-.154.232-.106.426-.257.582-.452.159-.196.27-.431.333-.706h1.446a2.804 2.804 0 0 1-.482 1.322 2.77 2.77 0 0 1-1.079.915c-.447.222-.972.333-1.576.333Zm7.944 0c-.716 0-1.341-.164-1.875-.492a3.32 3.32 0 0 1-1.242-1.377c-.295-.59-.443-1.28-.443-2.068 0-.792.148-1.485.443-2.078a3.314 3.314 0 0 1 1.242-1.383c.534-.328 1.159-.492 1.875-.492s1.34.164 1.874.492a3.31 3.31 0 0 1 1.243 1.383c.295.593.442 1.285.442 2.078 0 .788-.147 1.478-.442 2.068a3.316 3.316 0 0 1-1.243 1.377c-.534.328-1.158.492-1.874.492Zm.005-1.248c.464 0 .848-.122 1.153-.368.305-.245.53-.571.676-.98.149-.407.224-.856.224-1.346 0-.488-.075-.935-.224-1.343a2.187 2.187 0 0 0-.676-.989c-.305-.249-.689-.373-1.153-.373-.468 0-.855.124-1.164.373a2.22 2.22 0 0 0-.681.99 3.956 3.956 0 0 0-.219 1.342c0 .49.073.94.219 1.347.149.408.376.734.681.98.309.245.696.367 1.164.367Zm6.7-3.44V43h-1.486v-7.636h1.427v1.242h.094c.176-.404.451-.729.825-.974.378-.245.854-.368 1.427-.368.52 0 .976.11 1.367.328.391.216.695.537.91.965.216.427.323.956.323 1.586V43h-1.486v-4.678c0-.554-.144-.986-.433-1.298-.288-.315-.684-.472-1.188-.472-.345 0-.651.074-.92.224a1.61 1.61 0 0 0-.631.656c-.153.285-.229.63-.229 1.034Zm10.515-3.102v1.193h-4.315v-1.193h4.315ZM142.103 43v-8.521c0-.478.104-.874.313-1.188.209-.319.486-.556.83-.711.345-.16.72-.24 1.124-.24.298 0 .554.026.766.075.212.047.369.09.472.13l-.348 1.203a7.006 7.006 0 0 0-.269-.07 1.518 1.518 0 0 0-.397-.044c-.362 0-.62.089-.776.268-.152.179-.229.438-.229.776V43h-1.486Zm4.666 0v-7.636h1.486V43h-1.486Zm.751-8.815a.947.947 0 0 1-.667-.258.841.841 0 0 1-.273-.627c0-.245.091-.454.273-.626a.937.937 0 0 1 .667-.264.92.92 0 0 1 .661.264.825.825 0 0 1 .278.626c0 .242-.093.451-.278.627a.929.929 0 0 1-.661.258Zm5.937 11.838c-.607 0-1.129-.08-1.566-.239-.434-.159-.789-.37-1.064-.631a2.655 2.655 0 0 1-.617-.86l1.278-.527c.09.145.209.3.358.462.153.166.358.307.617.423.261.116.598.174 1.009.174.563 0 1.029-.138 1.397-.413.368-.272.552-.706.552-1.303v-1.501h-.095a3.364 3.364 0 0 1-.388.542 2.086 2.086 0 0 1-.686.517c-.291.146-.671.219-1.138.219-.603 0-1.147-.141-1.631-.423-.48-.285-.862-.704-1.143-1.258-.279-.557-.418-1.241-.418-2.053 0-.812.138-1.508.413-2.088.278-.58.659-1.024 1.143-1.333a2.976 2.976 0 0 1 1.646-.467c.474 0 .857.08 1.148.239.292.156.519.338.681.547.166.209.294.393.383.552h.109v-1.238h1.457v7.805c0 .656-.152 1.195-.457 1.616-.305.42-.718.732-1.238.934-.517.203-1.101.304-1.75.304Zm-.015-4.37c.427 0 .789-.1 1.084-.299.298-.202.523-.49.676-.865.156-.377.234-.83.234-1.357 0-.514-.077-.966-.229-1.357-.153-.391-.376-.696-.671-.915-.295-.222-.66-.333-1.094-.333-.448 0-.82.116-1.119.348-.298.229-.523.54-.676.935a3.718 3.718 0 0 0-.224 1.322c0 .5.077.94.229 1.318.153.377.378.672.676.884.302.213.673.319 1.114.319Zm10.291-1.82v-4.47h1.492V43h-1.462v-1.322h-.08a2.376 2.376 0 0 1-.845 1.019c-.384.268-.863.402-1.437.402-.49 0-.924-.107-1.302-.323a2.265 2.265 0 0 1-.885-.97c-.212-.427-.318-.955-.318-1.585v-4.857h1.486v4.678c0 .52.144.935.433 1.243.288.308.663.462 1.123.462.279 0 .556-.07.831-.209.278-.139.508-.35.691-.631.185-.282.276-.64.273-1.074ZM167.222 43v-7.636h1.437v1.213h.079c.139-.411.385-.734.736-.97a2.09 2.09 0 0 1 1.203-.358c.209 0 .396.025.562.075.166.05.312.117.437.204l-.477 1.243a1.458 1.458 0 0 0-.303-.105 1.524 1.524 0 0 0-.388-.045 1.89 1.89 0 0 0-.925.224 1.685 1.685 0 0 0-.641.607 1.679 1.679 0 0 0-.234.885V43h-1.486Zm8.136.15a2.96 2.96 0 0 1-1.651-.473c-.48-.318-.858-.77-1.133-1.357-.272-.59-.408-1.298-.408-2.123 0-.826.138-1.532.413-2.118.278-.587.659-1.036 1.143-1.348a2.976 2.976 0 0 1 1.646-.467c.474 0 .855.08 1.143.239.292.156.517.338.677.547.162.209.288.393.377.552h.09v-1.238h1.486V43h-1.451v-1.188h-.125a3.883 3.883 0 0 1-.387.557 2.159 2.159 0 0 1-.687.547c-.291.155-.669.233-1.133.233Zm.328-1.269c.428 0 .789-.112 1.084-.338.298-.228.524-.545.676-.95.156-.404.234-.874.234-1.411 0-.53-.077-.995-.229-1.392-.152-.398-.376-.708-.671-.93-.295-.222-.66-.333-1.094-.333-.447 0-.82.116-1.119.348a2.133 2.133 0 0 0-.676.95 3.876 3.876 0 0 0-.223 1.357c0 .51.076.97.228 1.377.153.408.378.73.676.97.302.235.673.352 1.114.352Zm9.142-6.517v1.193h-4.172v-1.193h4.172Zm-3.053-1.83h1.487v7.224c0 .288.043.505.129.651.086.143.197.24.333.293.139.05.29.075.452.075.12 0 .224-.008.314-.025.089-.016.159-.03.208-.04l.269 1.228a2.497 2.497 0 0 1-.368.1 2.916 2.916 0 0 1-.597.06 2.612 2.612 0 0 1-1.093-.21 1.874 1.874 0 0 1-.821-.675c-.209-.305-.313-.688-.313-1.149v-7.532ZM186.472 43v-7.636h1.486V43h-1.486Zm.751-8.815a.947.947 0 0 1-.667-.258.841.841 0 0 1-.273-.627c0-.245.091-.454.273-.626a.937.937 0 0 1 .667-.264c.258 0 .479.088.661.264a.825.825 0 0 1 .278.626c0 .242-.093.451-.278.627a.927.927 0 0 1-.661.258Zm5.952 8.97c-.716 0-1.341-.165-1.874-.493a3.316 3.316 0 0 1-1.243-1.377c-.295-.59-.443-1.28-.443-2.068 0-.792.148-1.485.443-2.078a3.31 3.31 0 0 1 1.243-1.383c.533-.328 1.158-.492 1.874-.492.716 0 1.341.164 1.874.492a3.31 3.31 0 0 1 1.243 1.383c.295.593.443 1.285.443 2.078 0 .788-.148 1.478-.443 2.068a3.316 3.316 0 0 1-1.243 1.377c-.533.328-1.158.492-1.874.492Zm.005-1.249c.464 0 .848-.122 1.153-.368.305-.245.531-.571.676-.98.15-.407.224-.856.224-1.346a3.86 3.86 0 0 0-.224-1.343 2.18 2.18 0 0 0-.676-.989c-.305-.249-.689-.373-1.153-.373-.467 0-.855.124-1.163.373a2.23 2.23 0 0 0-.682.99 3.98 3.98 0 0 0-.218 1.342c0 .49.073.94.218 1.347.15.408.377.734.682.98.308.245.696.367 1.163.367Zm6.7-3.44V43h-1.486v-7.636h1.427v1.242h.094c.176-.404.451-.729.825-.974.378-.245.854-.368 1.427-.368.521 0 .976.11 1.367.328.392.216.695.537.91.965.216.427.323.956.323 1.586V43h-1.486v-4.678c0-.554-.144-.986-.433-1.298-.288-.315-.684-.472-1.188-.472-.345 0-.651.074-.92.224a1.61 1.61 0 0 0-.631.656c-.152.285-.229.63-.229 1.034Z"/><path fill="#6B716A" d="M29.039 87v-9.454h5.863v1.227h-4.437v2.881h4.016v1.224h-4.016V87H29.04Zm7.417 0v-7.09h1.334v1.126h.074c.13-.382.357-.682.684-.9a1.941 1.941 0 0 1 1.117-.333c.194 0 .367.023.521.07.154.045.29.108.407.188l-.444 1.155a1.367 1.367 0 0 0-.281-.097 1.412 1.412 0 0 0-.36-.042c-.32 0-.607.07-.859.208-.25.135-.448.323-.596.563-.144.24-.216.514-.216.822V87h-1.38Zm7.957.143c-.699 0-1.3-.15-1.805-.448a3.037 3.037 0 0 1-1.164-1.27c-.27-.547-.406-1.189-.406-1.924 0-.727.136-1.367.406-1.92a3.155 3.155 0 0 1 1.145-1.298c.493-.31 1.068-.466 1.727-.466.4 0 .788.066 1.163.198.376.133.713.34 1.011.623.299.284.534.651.706 1.104.173.45.259.995.259 1.639v.489h-5.637v-1.034h4.284c0-.363-.073-.685-.221-.965a1.675 1.675 0 0 0-.623-.67 1.741 1.741 0 0 0-.933-.244c-.388 0-.726.095-1.016.286a1.921 1.921 0 0 0-.664.739c-.154.302-.231.63-.231.983v.808c0 .474.083.877.25 1.21.168.332.404.586.705.761.302.173.654.259 1.058.259.261 0 .5-.037.715-.111a1.484 1.484 0 0 0 .919-.9l1.306.235a2.367 2.367 0 0 1-.563 1.011c-.268.287-.605.51-1.01.67a3.785 3.785 0 0 1-1.381.235Zm9.36 2.516v-3.762h-.082a3.65 3.65 0 0 1-.36.517 2 2 0 0 1-.638.507c-.27.145-.621.217-1.052.217a2.748 2.748 0 0 1-1.533-.438c-.446-.296-.797-.716-1.052-1.26-.253-.548-.379-1.205-.379-1.972 0-.766.128-1.422.383-1.966.259-.545.613-.962 1.062-1.251a2.76 2.76 0 0 1 1.528-.434c.44 0 .794.074 1.062.221.27.145.48.314.628.508.15.194.268.365.35.513h.116v-1.15h1.348v9.75h-1.38Zm-1.827-3.698c.397 0 .732-.104 1.006-.314.277-.212.486-.506.628-.881.145-.376.217-.813.217-1.312 0-.492-.07-.923-.212-1.292a1.899 1.899 0 0 0-.624-.863c-.274-.207-.612-.31-1.015-.31-.416 0-.762.108-1.039.323-.277.216-.486.51-.628.882a3.596 3.596 0 0 0-.208 1.26c0 .475.071.9.213 1.28.141.378.35.678.628.9.28.218.624.327 1.034.327Zm9.556-1.902v-4.15h1.385V87h-1.358v-1.228h-.073a2.213 2.213 0 0 1-.785.946c-.357.25-.802.374-1.334.374a2.4 2.4 0 0 1-1.21-.3 2.109 2.109 0 0 1-.822-.9c-.197-.397-.295-.888-.295-1.473v-4.51h1.38v4.344c0 .483.134.868.402 1.154.268.287.615.43 1.043.43.259 0 .516-.065.771-.194.259-.13.473-.325.642-.587.172-.261.257-.593.254-.997Zm6.295 3.084c-.698 0-1.3-.15-1.804-.448a3.037 3.037 0 0 1-1.164-1.27c-.27-.547-.406-1.189-.406-1.924 0-.727.135-1.367.406-1.92a3.155 3.155 0 0 1 1.145-1.298c.492-.31 1.068-.466 1.727-.466.4 0 .787.066 1.163.198.375.133.712.34 1.01.623.3.284.535.651.707 1.104.173.45.259.995.259 1.639v.489h-5.637v-1.034h4.284c0-.363-.074-.685-.221-.965a1.674 1.674 0 0 0-.624-.67 1.742 1.742 0 0 0-.932-.244c-.388 0-.726.095-1.016.286a1.92 1.92 0 0 0-.665.739c-.153.302-.23.63-.23.983v.808c0 .474.083.877.249 1.21.17.332.405.586.706.761.302.173.654.259 1.057.259.262 0 .5-.037.716-.111a1.484 1.484 0 0 0 .919-.9l1.306.235a2.365 2.365 0 0 1-.563 1.011 2.73 2.73 0 0 1-1.011.67 3.785 3.785 0 0 1-1.38.235Zm5.955-4.353V87h-1.38v-7.09h1.324v1.153h.088c.163-.375.418-.677.766-.905.351-.227.793-.341 1.325-.341.483 0 .906.101 1.27.304.363.2.645.499.845.896.2.397.3.888.3 1.473V87h-1.38v-4.344c0-.514-.135-.916-.402-1.205-.268-.292-.636-.439-1.104-.439-.32 0-.605.07-.854.208a1.494 1.494 0 0 0-.586.61c-.142.264-.212.584-.212.96Zm9.376 4.353c-.687 0-1.278-.155-1.773-.466a3.087 3.087 0 0 1-1.136-1.297c-.264-.551-.397-1.182-.397-1.893 0-.72.136-1.356.406-1.907.271-.554.653-.986 1.145-1.297.493-.31 1.073-.466 1.74-.466.54 0 1.02.1 1.441.3.422.197.762.474 1.02.83.262.358.417.775.467 1.252h-1.344a1.61 1.61 0 0 0-.508-.859c-.261-.24-.612-.36-1.052-.36-.385 0-.722.102-1.011.305-.286.2-.51.486-.67.859-.16.369-.24.806-.24 1.31 0 .518.079.964.236 1.34.157.375.378.666.665.872.289.206.629.31 1.02.31.261 0 .498-.049.71-.144.216-.098.396-.238.541-.42.148-.182.25-.4.31-.656h1.343a2.61 2.61 0 0 1-.448 1.228c-.25.36-.583.644-1.002.85-.415.206-.903.31-1.463.31Zm5.261 2.516c-.206 0-.394-.017-.563-.05a1.77 1.77 0 0 1-.378-.102l.332-1.131c.252.067.477.097.674.087a.807.807 0 0 0 .522-.221c.153-.139.289-.365.406-.679l.17-.47-2.594-7.184h1.478l1.795 5.503h.074l1.796-5.503h1.482l-2.922 8.037c-.136.37-.308.682-.517.938-.21.258-.459.452-.748.581-.29.13-.625.194-1.007.194Z"/><path fill="#fff" d="M28 106a6 6 0 0 1 6-6h156a6 6 0 0 1 6 6v20a6 6 0 0 1-6 6H34a6 6 0 0 1-6-6v-20Z"/><path stroke="#001A00" stroke-opacity=".15" d="M190 99.5a6.5 6.5 0 0 1 6.5 6.5v20a6.5 6.5 0 0 1-6.5 6.5H34a6.5 6.5 0 0 1-6.5-6.5v-20a6.5 6.5 0 0 1 6.5-6.5h156Z"/><path fill="#141E12" d="M44.375 121h-3.142v-10.182h3.281c.988 0 1.833.204 2.536.612a4.001 4.001 0 0 1 1.616 1.745c.374.755.561 1.66.561 2.714 0 1.061-.189 1.974-.566 2.74a4.032 4.032 0 0 1-1.651 1.759c-.723.408-1.6.612-2.635.612Zm-1.91-1.094h1.83c.842 0 1.54-.162 2.093-.487a3.003 3.003 0 0 0 1.238-1.387c.272-.6.408-1.314.408-2.143 0-.822-.134-1.529-.403-2.123a2.972 2.972 0 0 0-1.203-1.372c-.533-.321-1.198-.482-1.993-.482h-1.97v7.994Zm11.555 1.253c-.637 0-1.198-.161-1.686-.482-.487-.325-.868-.782-1.143-1.372-.275-.594-.413-1.295-.413-2.103 0-.802.138-1.498.413-2.088.275-.59.658-1.046 1.148-1.368.491-.321 1.058-.482 1.7-.482.498 0 .89.083 1.179.249.292.162.514.348.666.557.156.205.277.374.363.507h.1v-1.213h1.173V121h-1.134v-1.173h-.139a7.55 7.55 0 0 1-.368.527c-.159.208-.386.396-.68.561-.296.163-.689.244-1.18.244Zm.159-1.054c.47 0 .868-.123 1.193-.368.325-.248.572-.591.74-1.029.17-.441.255-.949.255-1.526 0-.57-.083-1.069-.25-1.497-.165-.431-.41-.765-.735-1.004-.325-.242-.726-.363-1.203-.363-.497 0-.912.128-1.243.383a2.293 2.293 0 0 0-.74 1.029 4.093 4.093 0 0 0-.244 1.452c0 .543.083 1.037.248 1.481.17.441.418.792.746 1.054.332.259.742.388 1.233.388Zm5.653.895v-7.636h1.173V121h-1.173Zm.596-8.909a.834.834 0 0 1-.591-.234.751.751 0 0 1-.244-.562c0-.218.081-.406.244-.561a.834.834 0 0 1 .591-.234c.229 0 .425.078.587.234a.742.742 0 0 1 .248.561.744.744 0 0 1-.248.562.816.816 0 0 1-.587.234Zm2.726-1.273h1.173v8.193c0 .372.042.632.124.781.083.149.254.22.513.214.139-.007.242-.017.308-.03.07-.017.132-.033.189-.05l.238 1.014c-.102.03-.232.057-.387.08-.156.026-.319.04-.488.04-.556 0-.974-.153-1.252-.458-.279-.305-.418-.729-.418-1.272v-8.512Zm4.379 13.046c-.2 0-.377-.017-.532-.05a1.396 1.396 0 0 1-.323-.09l.298-1.034c.285.073.537.1.755.08a.909.909 0 0 0 .582-.293c.173-.173.33-.453.472-.841l.22-.596-2.825-7.676h1.273l2.108 6.085h.08l2.108-6.085h1.272l-3.241 8.75a3.304 3.304 0 0 1-.542.979 2.03 2.03 0 0 1-.75.582c-.282.126-.6.189-.955.189Z"/><path stroke="#020F00" stroke-linecap="round" stroke-linejoin="round" stroke-opacity=".46" stroke-width="1.5" d="m174.668 114.333 3.333 3.334 3.334-3.334"/><path fill="#6B716A" d="M220.572 78.773v-1.227h7.318v1.227h-2.95V87h-1.422v-8.227h-2.946ZM229.396 87v-7.09h1.38V87h-1.38Zm.697-8.185a.88.88 0 0 1-.619-.24.782.782 0 0 1-.254-.582c0-.227.085-.421.254-.581a.87.87 0 0 1 .619-.245c.24 0 .444.082.614.245.172.16.258.353.258.581a.775.775 0 0 1-.258.582.862.862 0 0 1-.614.24Zm2.54 8.185v-7.09h1.325v1.153h.088a1.83 1.83 0 0 1 .724-.914c.336-.221.738-.332 1.205-.332.474 0 .871.11 1.191.332.324.222.562.526.716.914h.074a1.99 1.99 0 0 1 .808-.905c.369-.227.809-.341 1.32-.341.643 0 1.168.201 1.574.605.41.403.614 1.01.614 1.823V87h-1.38v-4.626c0-.48-.131-.828-.393-1.043a1.426 1.426 0 0 0-.937-.323c-.449 0-.798.138-1.048.415-.249.274-.374.627-.374 1.058V87h-1.375v-4.713c0-.385-.12-.694-.36-.928-.24-.234-.553-.351-.937-.351-.262 0-.504.07-.725.208a1.517 1.517 0 0 0-.531.567 1.732 1.732 0 0 0-.199.845V87h-1.38Zm14.545.143c-.698 0-1.3-.15-1.805-.448a3.042 3.042 0 0 1-1.163-1.27c-.271-.547-.406-1.189-.406-1.924 0-.727.135-1.367.406-1.92a3.158 3.158 0 0 1 1.145-1.298c.492-.31 1.068-.466 1.726-.466.401 0 .788.066 1.164.198.375.133.712.34 1.011.623.298.284.534.651.706 1.104.172.45.259.995.259 1.639v.489h-5.637v-1.034h4.284c0-.363-.074-.685-.222-.965a1.668 1.668 0 0 0-.623-.67 1.74 1.74 0 0 0-.932-.244c-.388 0-.727.095-1.016.286a1.923 1.923 0 0 0-.665.739 2.13 2.13 0 0 0-.231.983v.808c0 .474.084.877.25 1.21.169.332.404.586.706.761.302.173.654.259 1.057.259.262 0 .5-.037.716-.111a1.482 1.482 0 0 0 .918-.9l1.307.235a2.367 2.367 0 0 1-.563 1.011c-.268.287-.605.51-1.011.67a3.788 3.788 0 0 1-1.381.235Zm8.416-4.87c0-1.157.153-2.222.457-3.195a9.55 9.55 0 0 1 1.334-2.691h1.265c-.227.304-.44.678-.637 1.121-.197.444-.369.93-.517 1.46a13.026 13.026 0 0 0-.346 1.638 11.42 11.42 0 0 0-.125 1.667c0 .732.073 1.474.217 2.225.145.75.34 1.448.587 2.091.246.643.52 1.168.821 1.574h-1.265a9.55 9.55 0 0 1-1.334-2.691c-.304-.973-.457-2.039-.457-3.2ZM260.216 87v-9.454h5.928v1.227h-4.501v2.881h4.192v1.224h-4.192v2.894h4.556V87h-5.983Zm12.214-2.94v-4.15h1.385V87h-1.357v-1.228h-.074a2.21 2.21 0 0 1-.784.946c-.357.25-.802.374-1.335.374-.455 0-.858-.1-1.209-.3a2.107 2.107 0 0 1-.822-.9c-.197-.397-.295-.888-.295-1.473v-4.51h1.38v4.344c0 .483.134.868.402 1.154.267.287.615.43 1.043.43.258 0 .515-.065.771-.194.258-.13.472-.325.642-.587.172-.261.257-.593.253-.997Zm3.24 2.94v-7.09h1.334v1.126h.074c.129-.382.357-.682.683-.9a1.945 1.945 0 0 1 1.118-.333c.193 0 .367.023.521.07.154.045.29.108.406.188l-.443 1.155a1.372 1.372 0 0 0-.281-.097 1.416 1.416 0 0 0-.36-.042c-.32 0-.607.07-.859.208a1.569 1.569 0 0 0-.596.563c-.144.24-.217.514-.217.822V87h-1.38Zm7.887.143c-.664 0-1.245-.152-1.74-.457a3.08 3.08 0 0 1-1.154-1.279c-.274-.547-.411-1.188-.411-1.92 0-.736.137-1.379.411-1.93.274-.55.658-.978 1.154-1.283.495-.305 1.076-.457 1.74-.457.665 0 1.245.152 1.741.457.495.305.88.732 1.154 1.283.274.551.411 1.194.411 1.93 0 .732-.137 1.373-.411 1.92a3.086 3.086 0 0 1-1.154 1.28c-.496.304-1.076.456-1.741.456Zm.005-1.159c.431 0 .788-.113 1.071-.341.283-.228.492-.531.628-.91.138-.378.208-.795.208-1.25 0-.453-.07-.869-.208-1.247a2.037 2.037 0 0 0-.628-.919c-.283-.23-.64-.346-1.071-.346-.434 0-.794.115-1.08.346a2.07 2.07 0 0 0-.633.919 3.687 3.687 0 0 0-.203 1.246c0 .456.068.873.203 1.251.139.379.35.682.633.91.286.228.646.341 1.08.341Zm4.841 3.675v-9.75h1.349v1.15h.115c.08-.148.195-.319.346-.513.151-.194.36-.363.628-.508.268-.147.622-.221 1.062-.221.572 0 1.083.144 1.532.434.45.289.802.706 1.058 1.25.258.545.387 1.201.387 1.967 0 .767-.127 1.424-.383 1.972-.255.544-.606.965-1.052 1.26a2.728 2.728 0 0 1-1.528.438c-.431 0-.784-.072-1.058-.217a2.01 2.01 0 0 1-.637-.507 3.91 3.91 0 0 1-.355-.517h-.083v3.762h-1.381Zm1.353-6.205c0 .5.072.936.217 1.312.145.375.354.669.628.881.274.21.609.314 1.006.314.413 0 .757-.109 1.034-.328a2.03 2.03 0 0 0 .628-.9c.145-.378.217-.805.217-1.279 0-.467-.071-.887-.212-1.26a1.934 1.934 0 0 0-.628-.882c-.277-.215-.623-.323-1.039-.323-.4 0-.738.103-1.015.31a1.903 1.903 0 0 0-.624.863c-.141.37-.212.8-.212 1.292Zm9.727 3.69c-.699 0-1.3-.15-1.805-.449a3.035 3.035 0 0 1-1.163-1.27c-.271-.547-.407-1.189-.407-1.924 0-.727.136-1.367.407-1.92a3.151 3.151 0 0 1 1.145-1.298c.492-.31 1.067-.466 1.726-.466.4 0 .788.066 1.163.198.376.133.713.34 1.011.623.299.284.534.651.707 1.104.172.45.258.995.258 1.639v.489h-5.636v-1.034h4.284c0-.363-.074-.685-.222-.965a1.675 1.675 0 0 0-.623-.67 1.744 1.744 0 0 0-.933-.244 1.8 1.8 0 0 0-1.015.286 1.915 1.915 0 0 0-.665.739 2.13 2.13 0 0 0-.231.983v.808c0 .474.083.877.249 1.21.17.332.405.586.707.761.301.173.654.259 1.057.259.261 0 .5-.037.715-.111a1.482 1.482 0 0 0 .919-.9l1.307.235a2.37 2.37 0 0 1-.564 1.011c-.267.287-.604.51-1.011.67a3.783 3.783 0 0 1-1.38.235Zm8.175-10.042-3.047 11.32h-1.233l3.047-11.32h1.233ZM308.941 87v-9.454h3.37c.736 0 1.345.133 1.828.401a2.61 2.61 0 0 1 1.085 1.099c.24.461.36.982.36 1.56 0 .582-.121 1.105-.365 1.57-.24.461-.603.828-1.089 1.099-.483.267-1.091.401-1.824.401h-2.317v-1.21h2.188c.465 0 .842-.08 1.131-.24.29-.163.502-.384.637-.664a2.16 2.16 0 0 0 .203-.956 2.13 2.13 0 0 0-.203-.95 1.455 1.455 0 0 0-.641-.652c-.29-.157-.671-.235-1.145-.235h-1.791V87h-1.427Zm10.77.138a2.746 2.746 0 0 1-1.532-.438c-.447-.296-.797-.716-1.053-1.26-.252-.548-.378-1.205-.378-1.972 0-.766.127-1.422.383-1.966.258-.545.612-.962 1.061-1.251.45-.29.959-.434 1.529-.434.44 0 .794.074 1.061.221.271.145.48.314.628.508.151.194.268.365.351.513h.083v-1.15h1.38V87h-1.348v-1.103h-.115a3.64 3.64 0 0 1-.36.517 2 2 0 0 1-.637.507c-.271.145-.622.217-1.053.217Zm.305-1.177c.397 0 .732-.104 1.006-.314.277-.212.487-.506.628-.881.145-.376.217-.813.217-1.312 0-.492-.071-.923-.212-1.292-.142-.37-.349-.657-.623-.863-.274-.207-.613-.31-1.016-.31-.416 0-.762.108-1.039.323-.277.216-.486.51-.628.882a3.608 3.608 0 0 0-.207 1.26c0 .475.07.9.212 1.28.142.378.351.678.628.9.28.218.625.327 1.034.327ZM325.195 87v-7.09h1.334v1.126h.074c.129-.382.357-.682.683-.9a1.94 1.94 0 0 1 1.117-.333c.194 0 .368.023.522.07.154.045.289.108.406.188l-.443 1.155a1.361 1.361 0 0 0-.282-.097 1.416 1.416 0 0 0-.36-.042c-.32 0-.606.07-.859.208a1.566 1.566 0 0 0-.595.563c-.145.24-.217.514-.217.822V87h-1.38Zm5.154 0v-7.09h1.38V87h-1.38Zm.697-8.185a.88.88 0 0 1-.619-.24.782.782 0 0 1-.254-.582c0-.227.085-.421.254-.581a.87.87 0 0 1 .619-.245c.24 0 .445.082.614.245.172.16.258.353.258.581a.775.775 0 0 1-.258.582.86.86 0 0 1-.614.24Zm7.854 2.825-1.251.222a1.496 1.496 0 0 0-.25-.457 1.224 1.224 0 0 0-.452-.356c-.191-.092-.429-.138-.716-.138-.391 0-.717.088-.978.263-.262.172-.393.395-.393.67 0 .236.088.427.263.572.176.145.459.263.85.355l1.126.259c.653.15 1.139.383 1.459.697.32.314.48.722.48 1.223 0 .425-.123.804-.369 1.136-.243.33-.583.588-1.02.776-.434.187-.938.281-1.51.281-.794 0-1.442-.17-1.944-.508-.501-.341-.809-.826-.923-1.454l1.334-.203c.083.348.254.61.513.79.258.175.595.263 1.011.263.452 0 .814-.094 1.085-.282.27-.19.406-.423.406-.697a.725.725 0 0 0-.249-.559c-.163-.15-.414-.264-.753-.341l-1.2-.264c-.662-.15-1.151-.39-1.468-.72-.314-.329-.471-.746-.471-1.25 0-.42.117-.786.351-1.1.234-.313.557-.558.969-.733.413-.179.885-.268 1.418-.268.766 0 1.369.166 1.809.498.44.33.731.771.873 1.325Zm4.31 1.436c0 1.16-.152 2.227-.457 3.2a9.495 9.495 0 0 1-1.334 2.69h-1.265c.228-.304.44-.678.637-1.121.197-.443.37-.928.517-1.454a13.4 13.4 0 0 0 .347-1.644c.083-.566.124-1.123.124-1.671 0-.73-.072-1.47-.217-2.22a12.366 12.366 0 0 0-.586-2.092c-.246-.643-.52-1.168-.822-1.574h1.265a9.496 9.496 0 0 1 1.334 2.691c.305.973.457 2.038.457 3.195Z"/><path fill="#fff" d="M220 106a6 6 0 0 1 6-6h156a6 6 0 0 1 6 6v20a6 6 0 0 1-6 6H226a6 6 0 0 1-6-6v-20Z"/><path stroke="#001A00" stroke-opacity=".15" d="M382 99.5a6.5 6.5 0 0 1 6.5 6.5v20a6.5 6.5 0 0 1-6.5 6.5H226a6.5 6.5 0 0 1-6.5-6.5v-20a6.5 6.5 0 0 1 6.5-6.5h156Z"/><path fill="#141E12" d="M236.315 110.818V121h-1.233v-8.392h-.079c-.047.093-.166.199-.358.318a3.178 3.178 0 0 1-.746.308c-.305.087-.653.13-1.044.13v-1.034c.395 0 .736-.072 1.024-.214.289-.143.529-.31.721-.502.196-.193.343-.367.443-.522l.179-.274h1.093Zm6.1 10.321a3.499 3.499 0 0 1-1.576-.348 2.931 2.931 0 0 1-1.123-.954 2.595 2.595 0 0 1-.462-1.382h1.193c.046.46.255.841.626 1.143.375.298.822.447 1.342.447.418 0 .789-.097 1.114-.293.328-.195.585-.464.771-.805a2.39 2.39 0 0 0 .283-1.169c0-.444-.098-.84-.293-1.188a2.153 2.153 0 0 0-.796-.83 2.245 2.245 0 0 0-1.158-.308 3.148 3.148 0 0 0-.96.144 2.65 2.65 0 0 0-.81.373l-1.153-.139.616-5.012h5.29v1.094h-4.256l-.358 3.003h.06c.209-.166.471-.303.785-.413a2.99 2.99 0 0 1 .985-.164c.623 0 1.178.149 1.665.448.491.294.875.699 1.154 1.213.281.513.422 1.1.422 1.76 0 .649-.146 1.229-.437 1.74a3.204 3.204 0 0 1-1.193 1.203c-.508.291-1.084.437-1.731.437Zm6.211-1.442a.86.86 0 0 1-.631-.263.86.86 0 0 1-.264-.631c0-.246.088-.456.264-.632a.864.864 0 0 1 .631-.263c.246 0 .456.088.632.263a.864.864 0 0 1 .263.632.93.93 0 0 1-.447.775.85.85 0 0 1-.448.119Zm0-5.15a.86.86 0 0 1-.631-.264.859.859 0 0 1-.264-.631c0-.245.088-.456.264-.631a.86.86 0 0 1 .631-.264c.246 0 .456.088.632.264a.862.862 0 0 1 .263.631.934.934 0 0 1-.447.776.86.86 0 0 1-.448.119Zm6.302 6.592c-.749 0-1.387-.204-1.914-.611-.527-.411-.93-1.006-1.208-1.785-.279-.782-.418-1.727-.418-2.834 0-1.1.139-2.04.418-2.819.281-.782.686-1.379 1.213-1.79.53-.414 1.166-.621 1.909-.621.742 0 1.377.207 1.904.621.53.411.935 1.008 1.213 1.79.282.779.423 1.719.423 2.819 0 1.107-.14 2.052-.418 2.834-.279.779-.681 1.374-1.208 1.785-.527.407-1.165.611-1.914.611Zm0-1.094c.742 0 1.319-.358 1.73-1.073.411-.716.616-1.737.616-3.063 0-.882-.094-1.632-.283-2.252-.186-.62-.454-1.092-.805-1.417a1.778 1.778 0 0 0-1.258-.487c-.736 0-1.311.363-1.725 1.089-.415.722-.622 1.745-.622 3.067 0 .882.093 1.631.279 2.247.185.617.452 1.086.8 1.407a1.81 1.81 0 0 0 1.268.482Zm8.75 1.094c-.749 0-1.387-.204-1.914-.611-.527-.411-.93-1.006-1.208-1.785-.279-.782-.418-1.727-.418-2.834 0-1.1.139-2.04.418-2.819.281-.782.686-1.379 1.213-1.79.53-.414 1.166-.621 1.909-.621.742 0 1.377.207 1.904.621.53.411.935 1.008 1.213 1.79.282.779.423 1.719.423 2.819 0 1.107-.14 2.052-.418 2.834-.279.779-.681 1.374-1.208 1.785-.527.407-1.165.611-1.914.611Zm0-1.094c.742 0 1.319-.358 1.73-1.073.411-.716.616-1.737.616-3.063 0-.882-.094-1.632-.283-2.252-.186-.62-.454-1.092-.805-1.417a1.778 1.778 0 0 0-1.258-.487c-.736 0-1.311.363-1.725 1.089-.415.722-.622 1.745-.622 3.067 0 .882.093 1.631.279 2.247.185.617.452 1.086.8 1.407a1.81 1.81 0 0 0 1.268.482Z"/><path stroke="#020F00" stroke-linecap="round" stroke-linejoin="round" stroke-opacity=".46" stroke-width="1.5" d="m366.668 114.333 3.333 3.334 3.334-3.334"/><path fill="#6B716A" d="M32.1 171h-3.061v-9.455h3.157c.927 0 1.722.19 2.387.568a3.746 3.746 0 0 1 1.528 1.621c.357.701.536 1.543.536 2.525 0 .985-.18 1.831-.54 2.539a3.786 3.786 0 0 1-1.552 1.634c-.677.379-1.495.568-2.456.568Zm-1.635-1.246h1.556c.72 0 1.319-.136 1.796-.407a2.56 2.56 0 0 0 1.07-1.186c.238-.52.356-1.154.356-1.902 0-.742-.118-1.371-.355-1.888a2.507 2.507 0 0 0-1.048-1.177c-.465-.268-1.042-.402-1.731-.402h-1.644v6.962Zm10.5 1.384a2.75 2.75 0 0 1-1.533-.438c-.447-.296-.798-.716-1.053-1.26-.252-.548-.379-1.205-.379-1.972 0-.766.128-1.421.384-1.966.258-.545.612-.962 1.061-1.251.45-.29.96-.434 1.529-.434.44 0 .794.074 1.061.221.271.145.48.314.628.508.15.194.268.365.35.513h.084v-1.15h1.38V171H43.13v-1.103h-.115a3.71 3.71 0 0 1-.36.517 2.005 2.005 0 0 1-.637.508c-.271.144-.622.216-1.053.216Zm.304-1.177c.397 0 .732-.104 1.006-.314a1.94 1.94 0 0 0 .628-.881c.145-.376.217-.813.217-1.311 0-.493-.07-.924-.212-1.293a1.9 1.9 0 0 0-.623-.863c-.274-.207-.613-.31-1.016-.31-.416 0-.762.108-1.039.323a1.98 1.98 0 0 0-.628.882 3.602 3.602 0 0 0-.207 1.261c0 .474.07.9.212 1.278.142.379.35.679.628.901.28.218.625.327 1.034.327Zm8.489-6.052v1.108h-3.874v-1.108h3.873Zm-2.835-1.699h1.38v6.708c0 .268.04.469.12.605.08.132.183.223.31.272.129.046.269.069.42.069.11 0 .207-.007.29-.023a6.29 6.29 0 0 0 .194-.037l.25 1.141c-.08.03-.194.061-.342.092a2.691 2.691 0 0 1-.554.055 2.424 2.424 0 0 1-1.016-.194 1.739 1.739 0 0 1-.761-.627c-.194-.284-.291-.639-.291-1.067v-6.994Zm6.94 8.928a2.75 2.75 0 0 1-1.533-.438c-.446-.296-.797-.716-1.053-1.26-.252-.548-.378-1.205-.378-1.972 0-.766.128-1.421.383-1.966.259-.545.613-.962 1.062-1.251.45-.29.959-.434 1.528-.434.44 0 .794.074 1.062.221.27.145.48.314.628.508.15.194.267.365.35.513h.084v-1.15h1.38V171h-1.348v-1.103h-.116c-.083.15-.203.323-.36.517a2.005 2.005 0 0 1-.637.508c-.27.144-.621.216-1.052.216Zm.304-1.177c.397 0 .733-.104 1.007-.314a1.94 1.94 0 0 0 .628-.881c.144-.376.217-.813.217-1.311 0-.493-.071-.924-.213-1.293a1.899 1.899 0 0 0-.623-.863c-.274-.207-.612-.31-1.016-.31-.415 0-.761.108-1.038.323-.277.216-.487.51-.628.882a3.602 3.602 0 0 0-.208 1.261c0 .474.07.9.212 1.278.142.379.351.679.628.901.28.218.625.327 1.034.327Zm5.29 1.039v-9.455h1.38v3.514h.083c.08-.148.195-.319.346-.513.151-.194.36-.363.628-.508.268-.147.622-.221 1.062-.221.572 0 1.083.144 1.533.434.449.289.801.706 1.057 1.251.258.545.388 1.2.388 1.966 0 .767-.128 1.424-.384 1.972-.255.544-.606.964-1.052 1.26a2.728 2.728 0 0 1-1.528.438c-.431 0-.783-.072-1.057-.216a2.005 2.005 0 0 1-.637-.508 3.901 3.901 0 0 1-.356-.517h-.115V171h-1.348Zm1.352-3.545c0 .498.073.935.217 1.311.145.375.354.669.628.881.274.21.61.314 1.006.314.413 0 .758-.109 1.035-.327.277-.222.486-.522.627-.901.145-.378.217-.804.217-1.278 0-.468-.07-.888-.212-1.261a1.935 1.935 0 0 0-.628-.882c-.277-.215-.623-.323-1.038-.323-.4 0-.74.103-1.016.31a1.898 1.898 0 0 0-.623.863c-.142.369-.213.8-.213 1.293Zm9.33 3.683a2.75 2.75 0 0 1-1.534-.438c-.446-.296-.797-.716-1.052-1.26-.252-.548-.379-1.205-.379-1.972 0-.766.128-1.421.383-1.966.259-.545.613-.962 1.062-1.251.45-.29.959-.434 1.528-.434.44 0 .794.074 1.062.221.27.145.48.314.628.508.15.194.268.365.35.513h.084v-1.15h1.38V171h-1.348v-1.103h-.115c-.083.15-.203.323-.36.517a2.005 2.005 0 0 1-.637.508c-.271.144-.622.216-1.053.216Zm.304-1.177c.397 0 .732-.104 1.006-.314a1.94 1.94 0 0 0 .628-.881c.145-.376.217-.813.217-1.311 0-.493-.07-.924-.212-1.293a1.899 1.899 0 0 0-.624-.863c-.273-.207-.612-.31-1.015-.31-.416 0-.762.108-1.039.323-.277.216-.486.51-.628.882a3.602 3.602 0 0 0-.208 1.261c0 .474.071.9.213 1.278.141.379.35.679.628.901.28.218.624.327 1.034.327Zm10.492-4.321-1.251.222a1.474 1.474 0 0 0-.25-.457 1.238 1.238 0 0 0-.452-.356c-.19-.092-.43-.138-.716-.138-.39 0-.717.088-.978.263-.262.172-.393.395-.393.669 0 .237.088.428.264.573.175.144.458.263.849.355l1.126.259c.653.151 1.14.383 1.46.697.32.314.48.722.48 1.223 0 .425-.124.804-.37 1.136-.243.329-.583.588-1.02.776-.434.187-.937.281-1.51.281-.794 0-1.442-.169-1.943-.508-.502-.341-.81-.826-.924-1.454l1.334-.203c.084.348.254.611.513.789.258.176.596.264 1.011.264.452 0 .814-.094 1.085-.282.27-.191.406-.423.406-.697a.725.725 0 0 0-.25-.559c-.162-.151-.413-.264-.752-.341l-1.2-.264c-.662-.15-1.151-.39-1.468-.72-.314-.329-.47-.746-.47-1.251 0-.418.116-.785.35-1.098.234-.314.557-.559.97-.734.412-.179.884-.268 1.417-.268.766 0 1.37.166 1.81.498.44.33.73.771.872 1.325Zm4.712 5.503c-.699 0-1.3-.149-1.805-.448a3.03 3.03 0 0 1-1.163-1.269c-.271-.548-.407-1.19-.407-1.925 0-.727.136-1.367.407-1.921a3.155 3.155 0 0 1 1.145-1.297c.492-.311 1.067-.466 1.726-.466.4 0 .788.066 1.163.198.376.133.713.34 1.012.623.298.284.534.651.706 1.104.172.449.258.995.258 1.639v.489h-5.636v-1.034h4.284c0-.363-.074-.685-.222-.965a1.674 1.674 0 0 0-.623-.669 1.743 1.743 0 0 0-.933-.245 1.8 1.8 0 0 0-1.015.286 1.921 1.921 0 0 0-.665.739c-.154.301-.23.629-.23.983v.808c0 .474.082.877.248 1.21a1.8 1.8 0 0 0 .707.761c.301.173.654.259 1.057.259.262 0 .5-.037.715-.111a1.48 1.48 0 0 0 .919-.9l1.307.235a2.362 2.362 0 0 1-.564 1.011 2.72 2.72 0 0 1-1.01.67 3.782 3.782 0 0 1-1.38.235Zm9.887-5.503-1.25.222a1.474 1.474 0 0 0-.25-.457 1.238 1.238 0 0 0-.452-.356c-.191-.092-.43-.138-.716-.138-.39 0-.717.088-.979.263-.261.172-.392.395-.392.669 0 .237.088.428.263.573.176.144.459.263.85.355l1.126.259c.653.151 1.139.383 1.459.697.32.314.48.722.48 1.223 0 .425-.123.804-.37 1.136-.242.329-.583.588-1.02.776-.434.187-.937.281-1.51.281-.793 0-1.441-.169-1.943-.508-.501-.341-.81-.826-.923-1.454l1.334-.203c.083.348.254.611.513.789.258.176.595.264 1.01.264.453 0 .815-.094 1.085-.282.271-.191.407-.423.407-.697a.725.725 0 0 0-.25-.559c-.163-.151-.414-.264-.752-.341l-1.2-.264c-.662-.15-1.151-.39-1.468-.72-.314-.329-.471-.746-.471-1.251 0-.418.117-.785.35-1.098.234-.314.558-.559.97-.734.412-.179.885-.268 1.417-.268.767 0 1.37.166 1.81.498.44.33.73.771.872 1.325Z"/><rect width="360" height="84" x="28" y="184" fill="#fff" rx="6"/><rect width="359" height="83" x="28.5" y="184.5" stroke="#012201" stroke-opacity=".12" rx="5.5"/><path fill="#18B69B" d="M46 200.5h8a5.5 5.5 0 0 1 5.5 5.5v8a5.5 5.5 0 0 1-5.5 5.5h-8a5.5 5.5 0 0 1-5.5-5.5v-8a5.5 5.5 0 0 1 5.5-5.5Z"/><path stroke="#13927C" d="M46 200.5h8a5.5 5.5 0 0 1 5.5 5.5v8a5.5 5.5 0 0 1-5.5 5.5h-8a5.5 5.5 0 0 1-5.5-5.5v-8a5.5 5.5 0 0 1 5.5-5.5Z"/><path stroke="#fff" stroke-linecap="round" stroke-linejoin="round" stroke-width="1.5" d="M46 210.692 48.118 213 54 207"/><path fill="#141E12" d="M76.997 215v-7.091h1.053v1.108h.092c.148-.379.386-.672.716-.882.329-.212.724-.318 1.186-.318.468 0 .857.106 1.168.318.314.21.559.503.734.882h.074c.181-.366.454-.657.817-.872.363-.219.799-.328 1.306-.328.635 0 1.153.198 1.556.595.403.394.605 1.008.605 1.842V215h-1.09v-4.746c0-.523-.143-.897-.429-1.122a1.593 1.593 0 0 0-1.01-.337c-.5 0-.886.151-1.16.453-.273.298-.41.677-.41 1.136V215h-1.108v-4.857c0-.403-.131-.727-.393-.974-.261-.249-.598-.374-1.01-.374-.284 0-.549.076-.795.227a1.7 1.7 0 0 0-.59.628c-.148.264-.222.57-.222.918V215h-1.09Zm11.747 2.659c-.185 0-.35-.015-.494-.046a1.303 1.303 0 0 1-.3-.083l.277-.96c.264.067.498.092.701.073a.839.839 0 0 0 .54-.272c.16-.16.307-.42.44-.78l.202-.554-2.622-7.128h1.182l1.957 5.651h.074l1.958-5.651h1.181l-3.01 8.125a3.09 3.09 0 0 1-.503.91c-.2.243-.432.423-.697.54a2.148 2.148 0 0 1-.886.175Zm10.4-2.659v1.016h-5.91V215h5.91Zm3.662.148c-.591 0-1.113-.15-1.565-.448-.453-.302-.807-.726-1.062-1.274-.256-.551-.383-1.202-.383-1.953 0-.745.127-1.391.383-1.939.255-.548.611-.971 1.066-1.269.456-.299.982-.448 1.579-.448.462 0 .826.077 1.094.231.271.15.477.323.619.517.144.19.257.347.337.471h.092v-3.491h1.09V215h-1.053v-1.089h-.129c-.08.129-.194.292-.342.489a2.029 2.029 0 0 1-.632.522c-.274.15-.639.226-1.094.226Zm.147-.979c.437 0 .807-.114 1.108-.342.302-.23.531-.549.688-.955.157-.41.236-.882.236-1.417 0-.53-.077-.993-.231-1.39-.154-.4-.382-.711-.684-.933-.301-.224-.674-.337-1.117-.337-.461 0-.846.119-1.154.356a2.124 2.124 0 0 0-.688.956c-.15.4-.226.849-.226 1.348 0 .504.077.963.231 1.375.157.41.388.736.692.979.308.24.69.36 1.145.36Zm7.927.979c-.591 0-1.113-.15-1.565-.448-.453-.302-.807-.726-1.062-1.274-.255-.551-.383-1.202-.383-1.953 0-.745.128-1.391.383-1.939s.611-.971 1.066-1.269c.456-.299.982-.448 1.579-.448.462 0 .827.077 1.094.231.271.15.477.323.619.517.145.19.257.347.337.471h.092v-1.127h1.09V215h-1.053v-1.089h-.129c-.08.129-.194.292-.342.489a2.017 2.017 0 0 1-.632.522c-.274.15-.639.226-1.094.226Zm.148-.979c.437 0 .806-.114 1.107-.342.302-.23.531-.549.688-.955.157-.41.236-.882.236-1.417 0-.53-.077-.993-.231-1.39-.154-.4-.382-.711-.683-.933-.302-.224-.674-.337-1.117-.337-.462 0-.847.119-1.155.356a2.122 2.122 0 0 0-.687.956c-.151.4-.227.849-.227 1.348 0 .504.077.963.231 1.375.157.41.388.736.693.979.307.24.689.36 1.145.36Zm8.332-6.26v.923h-3.674v-.923h3.674Zm-2.603-1.699h1.089v6.759c0 .308.045.538.134.692a.69.69 0 0 0 .351.305c.144.049.297.074.457.074.12 0 .218-.006.295-.019l.185-.037.222.979a2.213 2.213 0 0 1-.31.083c-.132.031-.3.046-.503.046a2.2 2.2 0 0 1-.905-.198 1.804 1.804 0 0 1-.729-.605c-.191-.271-.286-.612-.286-1.025v-7.054Zm6.843 8.938c-.59 0-1.112-.15-1.564-.448-.453-.302-.807-.726-1.062-1.274-.256-.551-.383-1.202-.383-1.953 0-.745.127-1.391.383-1.939.255-.548.611-.971 1.066-1.269.456-.299.982-.448 1.579-.448.462 0 .826.077 1.094.231.271.15.477.323.619.517.144.19.257.347.337.471h.092v-1.127h1.089V215h-1.052v-1.089h-.129c-.08.129-.194.292-.342.489a2.029 2.029 0 0 1-.632.522c-.274.15-.639.226-1.095.226Zm.148-.979c.437 0 .807-.114 1.108-.342.302-.23.531-.549.688-.955.157-.41.235-.882.235-1.417 0-.53-.076-.993-.23-1.39-.154-.4-.382-.711-.684-.933-.301-.224-.674-.337-1.117-.337-.461 0-.846.119-1.154.356a2.124 2.124 0 0 0-.688.956c-.151.4-.226.849-.226 1.348 0 .504.077.963.231 1.375.157.41.388.736.692.979.308.24.69.36 1.145.36Zm5.397.831v-9.455h1.089v3.491h.093a9.23 9.23 0 0 1 .332-.471 1.94 1.94 0 0 1 .619-.517c.271-.154.637-.231 1.098-.231.597 0 1.124.149 1.579.448.456.298.811.721 1.067 1.269.255.548.383 1.194.383 1.939 0 .751-.128 1.402-.383 1.953-.256.548-.61.972-1.062 1.274a2.782 2.782 0 0 1-1.565.448c-.456 0-.82-.076-1.094-.226a2.033 2.033 0 0 1-.633-.522 7.276 7.276 0 0 1-.341-.489h-.13V215h-1.052Zm1.071-3.545c0 .535.078 1.007.235 1.417.157.406.387.725.688.955.302.228.671.342 1.108.342.456 0 .836-.12 1.14-.36.308-.243.539-.569.693-.979.157-.412.235-.871.235-1.375 0-.499-.077-.948-.23-1.348a2.087 2.087 0 0 0-.688-.956c-.305-.237-.688-.356-1.15-.356-.443 0-.815.113-1.117.337-.302.222-.529.533-.683.933-.154.397-.231.86-.231 1.39Zm9.533 3.693c-.591 0-1.113-.15-1.565-.448-.452-.302-.806-.726-1.062-1.274-.255-.551-.383-1.202-.383-1.953 0-.745.128-1.391.383-1.939.256-.548.611-.971 1.067-1.269.455-.299.981-.448 1.578-.448.462 0 .827.077 1.095.231.27.15.477.323.618.517.145.19.257.347.337.471h.092v-1.127h1.09V215h-1.053v-1.089h-.129c-.08.129-.194.292-.342.489a2.017 2.017 0 0 1-.632.522c-.274.15-.639.226-1.094.226Zm.148-.979c.437 0 .806-.114 1.108-.342.301-.23.531-.549.687-.955.157-.41.236-.882.236-1.417 0-.53-.077-.993-.231-1.39-.154-.4-.382-.711-.683-.933-.302-.224-.674-.337-1.117-.337-.462 0-.847.119-1.154.356a2.124 2.124 0 0 0-.688.956c-.151.4-.227.849-.227 1.348 0 .504.077.963.231 1.375.157.41.388.736.693.979.308.24.689.36 1.145.36Zm10.271-4.672-.978.277a1.835 1.835 0 0 0-.273-.475 1.317 1.317 0 0 0-.48-.388c-.203-.102-.463-.152-.78-.152-.434 0-.796.1-1.085.3-.286.197-.429.447-.429.752 0 .271.098.485.295.642.197.157.505.288.924.392l1.052.259c.634.154 1.106.389 1.417.706.311.314.467.719.467 1.214 0 .406-.117.77-.351 1.09-.231.32-.554.572-.97.757-.415.184-.898.277-1.449.277-.724 0-1.322-.157-1.796-.471-.474-.314-.774-.773-.9-1.376l1.034-.258c.098.381.284.667.558.858.277.191.639.287 1.085.287.508 0 .911-.108 1.21-.324.301-.218.452-.48.452-.784a.825.825 0 0 0-.258-.619c-.173-.169-.437-.296-.794-.379l-1.182-.277c-.65-.153-1.127-.392-1.431-.715-.302-.326-.453-.734-.453-1.224 0-.4.113-.754.337-1.061a2.29 2.29 0 0 1 .928-.725c.394-.176.84-.263 1.339-.263.702 0 1.253.154 1.653.461.403.308.689.714.858 1.219Zm4.743 5.651c-.684 0-1.273-.151-1.769-.453a3.034 3.034 0 0 1-1.14-1.274c-.264-.548-.397-1.185-.397-1.911s.133-1.367.397-1.921c.268-.557.64-.991 1.117-1.301.481-.314 1.041-.471 1.681-.471.369 0 .734.061 1.094.184.36.124.688.324.983.601.296.273.531.637.707 1.089.175.452.263 1.01.263 1.671v.462h-5.466v-.942h4.358c0-.4-.08-.757-.24-1.071a1.807 1.807 0 0 0-.674-.743 1.886 1.886 0 0 0-1.025-.273c-.434 0-.81.108-1.127.324a2.116 2.116 0 0 0-.724.831c-.17.341-.254.707-.254 1.098v.628c0 .536.092.99.277 1.362.187.369.447.651.78.845.332.191.718.286 1.159.286.286 0 .544-.04.775-.12.234-.083.436-.206.605-.369.169-.167.3-.373.392-.619l1.053.296a2.33 2.33 0 0 1-.559.941 2.713 2.713 0 0 1-.969.628 3.59 3.59 0 0 1-1.297.222Z"/><path fill="#fff" d="M40 238a6 6 0 0 1 6-6h8a6 6 0 0 1 6 6v8a6 6 0 0 1-6 6h-8a6 6 0 0 1-6-6v-8Z"/><path stroke="#012201" stroke-opacity=".12" d="M46 232.5h8a5.5 5.5 0 0 1 5.5 5.5v8a5.5 5.5 0 0 1-5.5 5.5h-8a5.5 5.5 0 0 1-5.5-5.5v-8a5.5 5.5 0 0 1 5.5-5.5Z"/><path fill="#141E12" d="M80.155 239.909v.923h-3.823v-.923h3.823ZM77.477 247v-8.07c0-.406.096-.744.286-1.015.191-.271.44-.474.744-.61.304-.135.626-.203.965-.203a2.526 2.526 0 0 1 1.034.185l-.314.942a4.895 4.895 0 0 0-.231-.07 1.431 1.431 0 0 0-.379-.041c-.36 0-.62.091-.78.272-.157.182-.235.448-.235.799V247h-1.09Zm6.793.148c-.64 0-1.201-.153-1.685-.457a3.106 3.106 0 0 1-1.126-1.279c-.268-.548-.402-1.188-.402-1.921 0-.738.134-1.383.402-1.934.27-.551.646-.979 1.126-1.283.484-.305 1.045-.457 1.685-.457.64 0 1.2.152 1.68.457a3.05 3.05 0 0 1 1.127 1.283c.271.551.407 1.196.407 1.934 0 .733-.136 1.373-.407 1.921a3.063 3.063 0 0 1-1.126 1.279c-.48.304-1.04.457-1.68.457Zm0-.979c.487 0 .887-.125 1.2-.374.315-.249.547-.577.698-.983.15-.406.226-.847.226-1.321a3.8 3.8 0 0 0-.226-1.324 2.229 2.229 0 0 0-.697-.993c-.314-.252-.714-.379-1.2-.379-.487 0-.887.127-1.2.379a2.23 2.23 0 0 0-.698.993 3.8 3.8 0 0 0-.226 1.324c0 .474.075.915.226 1.321.15.406.383.734.697.983.314.249.714.374 1.2.374Zm4.877.831v-7.091h1.052v1.071h.074a1.68 1.68 0 0 1 .697-.854 2.078 2.078 0 0 1 1.15-.328c.197 0 .369.023.517.07.147.046.277.109.387.189l-.369.923a1.499 1.499 0 0 0-.628-.129c-.344 0-.652.072-.923.217-.268.144-.48.341-.637.591-.154.249-.23.534-.23.854V247h-1.09Zm7.635 2.807c-.526 0-.978-.068-1.357-.203a2.884 2.884 0 0 1-.946-.527 2.872 2.872 0 0 1-.596-.692l.868-.609c.099.129.223.277.374.443.15.169.357.315.618.438.265.126.611.19 1.04.19.572 0 1.044-.139 1.416-.416.373-.277.56-.711.56-1.302v-1.44h-.093c-.08.129-.194.289-.342.48a1.924 1.924 0 0 1-.628.503c-.27.145-.637.217-1.098.217a2.957 2.957 0 0 1-1.542-.406c-.453-.271-.811-.665-1.076-1.182-.262-.517-.392-1.145-.392-1.883 0-.727.127-1.359.383-1.898.255-.541.61-.96 1.066-1.255.456-.299.982-.448 1.579-.448.462 0 .828.077 1.099.231.274.15.483.323.628.517.147.19.261.347.341.471h.111v-1.127h1.053v7.294c0 .609-.139 1.105-.416 1.487a2.365 2.365 0 0 1-1.108.844 4.171 4.171 0 0 1-1.542.273Zm-.037-3.896c.437 0 .807-.101 1.108-.301.302-.2.531-.487.688-.863.157-.375.236-.825.236-1.348 0-.511-.077-.962-.231-1.352a2.027 2.027 0 0 0-.684-.919c-.301-.222-.673-.333-1.117-.333-.461 0-.846.117-1.154.351a2.137 2.137 0 0 0-.688.942c-.15.394-.226.831-.226 1.311 0 .493.077.928.23 1.307a2 2 0 0 0 .693.886c.308.212.69.319 1.145.319Zm8.07 1.237c-.683 0-1.273-.151-1.768-.453a3.021 3.021 0 0 1-1.14-1.274c-.265-.548-.398-1.185-.398-1.911s.133-1.367.398-1.921a3.12 3.12 0 0 1 1.117-1.301c.48-.314 1.04-.471 1.68-.471.369 0 .734.061 1.094.184.36.124.688.324.984.601.295.273.53.637.706 1.089.175.452.263 1.01.263 1.671v.462h-5.466v-.942h4.358c0-.4-.08-.757-.24-1.071a1.807 1.807 0 0 0-.674-.743 1.884 1.884 0 0 0-1.025-.273c-.434 0-.809.108-1.126.324a2.118 2.118 0 0 0-.725.831 2.44 2.44 0 0 0-.254 1.098v.628c0 .536.092.99.277 1.362.188.369.448.651.78.845.333.191.719.286 1.159.286.286 0 .545-.04.775-.12.234-.083.436-.206.605-.369.169-.167.3-.373.393-.619l1.052.296a2.34 2.34 0 0 1-.558.941 2.726 2.726 0 0 1-.97.628 3.59 3.59 0 0 1-1.297.222Z"/></svg>