<svg xmlns="http://www.w3.org/2000/svg" width="420" height="292" fill="none"><rect width="420" height="292" fill="#FCFDFC" rx="16"/><rect width="419" height="291" x=".5" y=".5" stroke="#012201" stroke-opacity=".12" rx="15.5"/><rect width="404" height="232" x="8" y="52" fill="#fff" rx="8" style="filter:drop-shadow(0 1px 1px rgba(21,23,21,.05)) drop-shadow(0 2px 2px rgba(21,23,21,.05)) drop-shadow(0 4px 4px rgba(21,23,21,.05))"/><rect width="405" height="233" x="7.5" y="51.5" stroke="#012201" stroke-opacity=".12" rx="8.5"/><path fill="#141E12" d="M28.375 83h-3.142V72.818h3.281c.988 0 1.833.204 2.536.612a4.003 4.003 0 0 1 1.616 1.745c.374.755.561 1.66.561 2.714 0 1.06-.189 1.974-.566 2.74a4.038 4.038 0 0 1-1.651 1.76c-.723.407-1.6.611-2.635.611Zm-1.91-1.094h1.83c.842 0 1.54-.162 2.093-.487a3.002 3.002 0 0 0 1.238-1.387c.272-.6.408-1.314.408-2.143 0-.822-.134-1.53-.403-2.123a2.97 2.97 0 0 0-1.203-1.372c-.533-.321-1.198-.482-1.993-.482h-1.97v7.994ZM38.02 83.16c-.637 0-1.198-.16-1.686-.482-.487-.325-.868-.782-1.143-1.372-.275-.594-.413-1.295-.413-2.103 0-.802.138-1.498.413-2.088.275-.59.658-1.046 1.148-1.368.491-.321 1.058-.482 1.7-.482.498 0 .89.083 1.179.249.292.162.514.348.666.557.156.205.277.374.363.507h.1v-1.213h1.173V83h-1.134v-1.173h-.139c-.086.139-.209.315-.368.527-.159.209-.386.396-.68.561-.296.163-.689.244-1.18.244Zm.159-1.054c.47 0 .868-.123 1.193-.368.325-.248.572-.591.74-1.029.17-.44.255-.95.255-1.526 0-.57-.083-1.07-.25-1.497-.165-.43-.41-.765-.735-1.004-.325-.242-.726-.363-1.203-.363-.497 0-.912.128-1.243.383a2.292 2.292 0 0 0-.74 1.03c-.163.43-.244.914-.244 1.45 0 .544.083 1.038.248 1.482.17.441.418.793.746 1.054.332.259.742.388 1.233.388Zm8.974-6.741v.994h-3.958v-.994h3.958Zm-2.804-1.83h1.173v7.278c0 .332.048.58.144.746.1.163.226.272.378.328.156.053.32.08.492.08.13 0 .236-.007.318-.02l.2-.04.238 1.054c-.08.03-.19.06-.333.09-.143.033-.323.05-.542.05-.331 0-.656-.072-.974-.214a1.937 1.937 0 0 1-.786-.652c-.205-.291-.308-.66-.308-1.103v-7.597Zm7.37 9.625c-.636 0-1.198-.16-1.685-.482-.487-.325-.869-.782-1.144-1.372-.275-.594-.412-1.295-.412-2.103 0-.802.137-1.498.412-2.088.275-.59.658-1.046 1.149-1.368.49-.321 1.057-.482 1.7-.482.497 0 .89.083 1.178.249.292.162.514.348.666.557.156.205.277.374.363.507h.1v-1.213h1.173V83h-1.133v-1.173h-.14c-.086.139-.208.315-.367.527-.16.209-.387.396-.682.561-.295.163-.687.244-1.178.244Zm.16-1.054c.47 0 .868-.123 1.192-.368.325-.248.572-.591.741-1.029.17-.44.254-.95.254-1.526 0-.57-.083-1.07-.249-1.497-.166-.43-.41-.765-.736-1.004-.325-.242-.726-.363-1.203-.363-.497 0-.911.128-1.243.383a2.292 2.292 0 0 0-.74 1.03c-.163.43-.244.914-.244 1.45 0 .544.083 1.038.248 1.482.17.441.418.793.746 1.054.332.259.743.388 1.233.388ZM57.69 83V72.818h1.173v3.759h.1c.086-.133.205-.302.358-.507.155-.21.378-.395.666-.557.291-.166.686-.249 1.183-.249.643 0 1.21.161 1.7.482.49.322.874.778 1.149 1.368.275.59.412 1.286.412 2.088 0 .808-.137 1.51-.412 2.103-.275.59-.656 1.047-1.144 1.372-.487.321-1.049.482-1.685.482-.49 0-.883-.081-1.178-.244a2.184 2.184 0 0 1-.681-.561 7.527 7.527 0 0 1-.368-.527h-.14V83H57.69Zm1.153-3.818c0 .576.085 1.085.254 1.526.169.438.416.78.74 1.03.325.245.723.367 1.194.367.49 0 .9-.13 1.228-.388a2.37 2.37 0 0 0 .746-1.054c.169-.444.253-.938.253-1.481 0-.537-.083-1.021-.248-1.452a2.243 2.243 0 0 0-.741-1.029c-.328-.255-.74-.383-1.238-.383-.477 0-.878.121-1.203.363-.325.239-.57.573-.736 1.004-.166.428-.249.927-.249 1.497Zm10.267 3.977c-.637 0-1.198-.16-1.686-.482-.487-.325-.868-.782-1.143-1.372-.275-.594-.413-1.295-.413-2.103 0-.802.138-1.498.413-2.088.275-.59.658-1.046 1.148-1.368.49-.321 1.058-.482 1.7-.482.498 0 .89.083 1.179.249.292.162.514.348.666.557.156.205.277.374.363.507h.1v-1.213h1.173V83h-1.134v-1.173h-.139c-.086.139-.209.315-.368.527-.159.209-.386.396-.681.561-.295.163-.688.244-1.178.244Zm.159-1.054c.47 0 .868-.123 1.193-.368.325-.248.572-.591.74-1.029.17-.44.254-.95.254-1.526 0-.57-.082-1.07-.248-1.497-.166-.43-.411-.765-.736-1.004-.325-.242-.726-.363-1.203-.363-.497 0-.912.128-1.243.383a2.291 2.291 0 0 0-.74 1.03c-.163.43-.245.914-.245 1.45 0 .544.083 1.038.25 1.482.168.441.417.793.745 1.054.331.259.742.388 1.233.388Zm11.062-5.031-1.054.298a1.956 1.956 0 0 0-.294-.512 1.423 1.423 0 0 0-.517-.418c-.218-.109-.499-.164-.84-.164-.467 0-.857.108-1.168.324-.308.212-.463.482-.463.81 0 .292.106.522.319.691.212.169.543.31.994.423l1.133.278c.683.166 1.192.42 1.527.76.334.339.502.775.502 1.308 0 .438-.126.829-.378 1.174-.249.344-.597.616-1.044.815-.448.199-.968.298-1.561.298-.779 0-1.424-.169-1.934-.507-.51-.338-.834-.832-.97-1.481l1.114-.279c.106.411.307.72.602.925.298.205.687.308 1.168.308.547 0 .981-.116 1.302-.348.325-.235.488-.517.488-.845a.888.888 0 0 0-.279-.666c-.185-.183-.47-.319-.855-.408l-1.273-.298c-.699-.166-1.213-.423-1.54-.77-.326-.352-.488-.791-.488-1.318 0-.431.121-.812.363-1.144a2.47 2.47 0 0 1 1-.78 3.509 3.509 0 0 1 1.441-.284c.756 0 1.349.166 1.78.497.434.332.742.77.925 1.313Zm5.107 6.085c-.736 0-1.37-.162-1.904-.487a3.27 3.27 0 0 1-1.228-1.372c-.285-.59-.428-1.276-.428-2.058 0-.783.142-1.472.428-2.069.288-.6.689-1.067 1.203-1.402.517-.338 1.12-.507 1.81-.507.397 0 .79.067 1.178.2.387.132.74.347 1.059.645.318.295.571.687.76 1.174.19.487.284 1.087.284 1.8v.496h-5.887v-1.014h4.693c0-.43-.086-.815-.258-1.153a1.949 1.949 0 0 0-.726-.8c-.311-.196-.68-.294-1.104-.294-.467 0-.871.116-1.213.348a2.288 2.288 0 0 0-.78.895 2.629 2.629 0 0 0-.274 1.183v.677c0 .576.1 1.065.299 1.466.202.398.482.701.84.91.358.205.774.308 1.248.308.308 0 .586-.043.835-.13.252-.089.469-.221.651-.397.182-.179.323-.4.423-.666l1.133.318c-.119.385-.32.723-.601 1.014-.282.289-.63.514-1.044.677-.415.158-.88.238-1.397.238Zm11.986 0c-.716 0-1.332-.169-1.85-.507a3.305 3.305 0 0 1-1.192-1.397c-.279-.593-.418-1.271-.418-2.033 0-.776.142-1.46.427-2.054a3.38 3.38 0 0 1 1.204-1.397c.517-.338 1.12-.507 1.81-.507.536 0 1.02.1 1.451.299.43.198.784.477 1.059.835.275.358.446.775.512 1.253h-1.173c-.09-.348-.289-.657-.597-.925-.305-.272-.716-.408-1.233-.408-.457 0-.858.12-1.203.358-.341.236-.608.569-.8 1-.19.427-.284.93-.284 1.506 0 .59.093 1.103.279 1.541.189.438.454.777.795 1.02.345.241.75.362 1.213.362.305 0 .582-.053.83-.159.249-.106.46-.258.632-.457.172-.2.295-.438.368-.716h1.173a2.71 2.71 0 0 1-1.521 2.073c-.425.209-.918.313-1.482.313Zm7.82 0c-.689 0-1.294-.164-1.814-.492a3.34 3.34 0 0 1-1.213-1.377c-.289-.59-.433-1.28-.433-2.068 0-.796.144-1.49.433-2.084a3.333 3.333 0 0 1 1.213-1.382c.52-.328 1.125-.492 1.814-.492.69 0 1.293.164 1.81.492.521.329.925.79 1.213 1.382.292.594.438 1.288.438 2.084 0 .788-.146 1.478-.438 2.068a3.291 3.291 0 0 1-1.213 1.377c-.517.328-1.12.492-1.81.492Zm0-1.054c.524 0 .955-.134 1.293-.403a2.38 2.38 0 0 0 .751-1.058c.162-.438.243-.912.243-1.422 0-.51-.081-.986-.243-1.427a2.41 2.41 0 0 0-.751-1.07c-.338-.27-.769-.407-1.293-.407-.523 0-.954.136-1.292.408a2.41 2.41 0 0 0-.751 1.069c-.162.44-.243.916-.243 1.427 0 .51.081.984.243 1.422.163.437.413.79.751 1.058.338.269.769.403 1.292.403Zm6.425-3.699V83h-1.173v-7.636h1.133v1.193h.1c.179-.388.45-.7.815-.935.365-.239.835-.358 1.412-.358.517 0 .969.106 1.357.318.388.21.69.527.905.955.215.424.323.961.323 1.61V83h-1.173v-4.773c0-.6-.156-1.067-.467-1.402-.312-.338-.74-.507-1.283-.507-.375 0-.709.081-1.004.244a1.74 1.74 0 0 0-.691.71c-.169.312-.254.69-.254 1.134Zm8.189 0V83h-1.173v-7.636h1.134v1.193h.099c.179-.388.451-.7.815-.935.365-.239.836-.358 1.412-.358.517 0 .97.106 1.358.318.387.21.689.527.904.955.216.424.324.961.324 1.61V83h-1.174v-4.773c0-.6-.155-1.067-.467-1.402-.312-.338-.739-.507-1.283-.507-.374 0-.709.081-1.004.244a1.74 1.74 0 0 0-.691.71c-.169.312-.254.69-.254 1.134Zm10.218 4.753c-.735 0-1.37-.162-1.904-.487a3.276 3.276 0 0 1-1.228-1.372c-.285-.59-.427-1.276-.427-2.058 0-.783.142-1.472.427-2.069.289-.6.69-1.067 1.203-1.402.517-.338 1.121-.507 1.81-.507.398 0 .791.067 1.178.2.388.132.741.347 1.059.645.318.295.572.687.761 1.174.189.487.283 1.087.283 1.8v.496h-5.886v-1.014h4.693c0-.43-.086-.815-.258-1.153a1.948 1.948 0 0 0-.726-.8c-.312-.196-.68-.294-1.104-.294-.467 0-.872.116-1.213.348a2.297 2.297 0 0 0-.781.895 2.632 2.632 0 0 0-.273 1.183v.677c0 .576.099 1.065.298 1.466.202.398.483.701.84.91.358.205.774.308 1.248.308.309 0 .587-.043.836-.13.251-.089.469-.221.651-.397.182-.179.323-.4.422-.666l1.134.318c-.119.385-.32.723-.602 1.014a2.92 2.92 0 0 1-1.044.677c-.414.158-.88.238-1.397.238Zm8.049 0c-.716 0-1.332-.169-1.849-.507a3.302 3.302 0 0 1-1.193-1.397c-.279-.593-.418-1.271-.418-2.033 0-.776.143-1.46.428-2.054a3.375 3.375 0 0 1 1.203-1.397c.517-.338 1.12-.507 1.809-.507.537 0 1.021.1 1.452.299a2.78 2.78 0 0 1 1.059.835c.275.358.446.775.512 1.253h-1.173a1.818 1.818 0 0 0-.597-.925c-.305-.272-.716-.408-1.233-.408-.457 0-.858.12-1.203.358-.341.236-.608.569-.8 1-.189.427-.284.93-.284 1.506 0 .59.093 1.103.279 1.541.189.438.454.777.795 1.02.345.241.749.362 1.213.362a2.1 2.1 0 0 0 .831-.159c.248-.106.459-.258.631-.457.172-.2.295-.438.368-.716h1.173a2.713 2.713 0 0 1-1.521 2.073c-.424.209-.918.313-1.482.313Zm8.039-7.795v.994h-3.957v-.994h3.957Zm-2.804-1.83h1.174v7.278c0 .332.048.58.144.746a.744.744 0 0 0 .378.328c.156.053.32.08.492.08.129 0 .235-.007.318-.02l.199-.04.239 1.054c-.08.03-.191.06-.333.09-.143.033-.324.05-.542.05-.332 0-.657-.072-.975-.214a1.93 1.93 0 0 1-.785-.652c-.206-.291-.309-.66-.309-1.103v-7.597ZM147.929 83v-7.636h1.174V83h-1.174Zm.597-8.91a.835.835 0 0 1-.592-.233.751.751 0 0 1-.243-.561c0-.22.081-.407.243-.562a.835.835 0 0 1 .592-.234c.229 0 .424.078.587.234a.746.746 0 0 1 .248.562.745.745 0 0 1-.248.561.818.818 0 0 1-.587.234Zm5.828 9.07c-.69 0-1.294-.165-1.815-.493a3.346 3.346 0 0 1-1.213-1.377c-.288-.59-.432-1.28-.432-2.068 0-.796.144-1.49.432-2.084a3.34 3.34 0 0 1 1.213-1.382c.521-.328 1.125-.492 1.815-.492.689 0 1.292.164 1.81.492.52.329.924.79 1.213 1.382.291.594.437 1.288.437 2.084 0 .788-.146 1.478-.437 2.068a3.305 3.305 0 0 1-1.213 1.377c-.518.328-1.121.492-1.81.492Zm0-1.055c.524 0 .954-.134 1.292-.403.339-.268.589-.621.751-1.058.163-.438.244-.912.244-1.422 0-.51-.081-.986-.244-1.427a2.394 2.394 0 0 0-.751-1.07c-.338-.27-.768-.407-1.292-.407s-.955.136-1.293.408a2.4 2.4 0 0 0-.75 1.069c-.163.44-.244.916-.244 1.427 0 .51.081.984.244 1.422.162.437.412.79.75 1.058.338.269.769.403 1.293.403Zm6.424-3.699V83h-1.173v-7.636h1.134v1.193h.099c.179-.388.451-.7.815-.935.365-.239.836-.358 1.412-.358.517 0 .97.106 1.358.318.387.21.689.527.904.955.216.424.324.961.324 1.61V83h-1.174v-4.773c0-.6-.156-1.067-.467-1.402-.312-.338-.739-.507-1.283-.507-.374 0-.709.081-1.004.244a1.74 1.74 0 0 0-.691.71c-.169.312-.254.69-.254 1.134Zm17.795-5.588h1.233v6.742c0 .696-.164 1.317-.492 1.864a3.448 3.448 0 0 1-1.377 1.288c-.594.311-1.29.467-2.088.467-.799 0-1.495-.156-2.089-.467a3.482 3.482 0 0 1-1.382-1.288c-.324-.547-.487-1.168-.487-1.864v-6.742h1.233v6.642c0 .497.109.94.328 1.328.219.384.531.687.935.91.408.218.895.328 1.462.328.566 0 1.054-.11 1.461-.329.408-.222.719-.525.935-.91.219-.387.328-.83.328-1.327v-6.642ZM182.268 83V72.818h3.44c.796 0 1.449.136 1.959.408.511.268.889.638 1.134 1.109.245.47.368 1.005.368 1.605 0 .6-.123 1.132-.368 1.596-.245.464-.622.829-1.129 1.094-.507.262-1.155.393-1.944.393h-2.784v-1.114h2.745c.543 0 .981-.08 1.312-.239.335-.159.577-.384.726-.676.152-.295.229-.646.229-1.054 0-.407-.077-.764-.229-1.069a1.56 1.56 0 0 0-.731-.706c-.335-.169-.777-.253-1.327-.253h-2.168V83h-1.233Zm4.793-4.574L189.566 83h-1.431l-2.466-4.574h1.392ZM191.223 83V72.818h1.233v9.088h4.733V83h-5.966Z"/><path fill="#8B918A" d="M31.35 97.546h1.144v6.259c0 .647-.152 1.224-.457 1.732a3.201 3.201 0 0 1-1.278 1.195c-.551.29-1.198.434-1.94.434-.741 0-1.387-.144-1.938-.434a3.234 3.234 0 0 1-1.284-1.195c-.301-.508-.452-1.085-.452-1.732v-6.26h1.145v6.168c0 .462.101.873.305 1.233.203.357.492.638.867.844.379.204.831.305 1.358.305.526 0 .978-.101 1.357-.305.378-.206.668-.487.868-.844.203-.36.304-.771.304-1.233v-6.167Zm8.306 3.951-.98.277a1.818 1.818 0 0 0-.271-.475 1.316 1.316 0 0 0-.48-.388c-.204-.102-.464-.152-.78-.152-.435 0-.796.1-1.086.3-.286.197-.429.447-.429.752 0 .271.098.485.295.642.198.157.505.288.924.392l1.052.259c.634.154 1.107.389 1.418.706.31.314.466.719.466 1.214 0 .406-.117.77-.351 1.09-.23.32-.554.572-.97.757-.415.184-.898.277-1.449.277-.723 0-1.322-.157-1.796-.471-.474-.314-.774-.773-.9-1.376l1.034-.258c.099.381.285.667.559.858.277.191.638.287 1.084.287.508 0 .911-.108 1.21-.324.302-.218.452-.48.452-.784a.824.824 0 0 0-.258-.619c-.172-.169-.437-.296-.794-.379l-1.182-.277c-.65-.153-1.126-.392-1.431-.715-.302-.326-.452-.734-.452-1.224 0-.4.112-.754.337-1.061.227-.308.537-.55.928-.725.393-.175.84-.263 1.338-.263.702 0 1.253.154 1.653.461.403.308.69.714.859 1.219Zm4.742 5.651c-.683 0-1.273-.151-1.768-.453a3.031 3.031 0 0 1-1.14-1.274c-.265-.548-.398-1.185-.398-1.911s.133-1.367.398-1.921c.267-.557.64-.991 1.117-1.301.48-.314 1.04-.471 1.68-.471.37 0 .734.061 1.094.184.36.124.688.324.983.601.296.273.531.637.707 1.089.175.452.263 1.01.263 1.671v.462h-5.466v-.942h4.358c0-.4-.08-.757-.24-1.071a1.805 1.805 0 0 0-.674-.743 1.885 1.885 0 0 0-1.025-.273c-.434 0-.81.108-1.126.324a2.121 2.121 0 0 0-.725.831c-.17.341-.254.707-.254 1.098v.628c0 .536.092.99.277 1.362a2 2 0 0 0 .78.845c.333.191.719.286 1.159.286.286 0 .545-.04.775-.12.234-.083.436-.206.605-.369.17-.167.3-.373.393-.619l1.052.296c-.11.357-.297.67-.558.941a2.723 2.723 0 0 1-.97.628 3.59 3.59 0 0 1-1.297.222Zm11.333-7.239v.923h-3.674v-.923h3.674Zm-2.603-1.699h1.09v6.759c0 .308.044.538.133.692.092.151.21.253.35.305.145.049.298.074.458.074.12 0 .218-.006.295-.019l.185-.037.222.979a2.214 2.214 0 0 1-.31.083c-.132.031-.3.046-.503.046-.308 0-.61-.066-.905-.198a1.802 1.802 0 0 1-.73-.605c-.19-.271-.285-.612-.285-1.025V98.21Zm5.484 4.524V107h-1.09v-9.454h1.09v3.471h.092c.167-.366.416-.657.748-.872.336-.219.782-.328 1.339-.328.483 0 .906.097 1.27.291.363.19.644.484.844.881.203.394.305.896.305 1.505V107h-1.09v-4.432c0-.563-.146-.999-.438-1.306-.29-.311-.69-.467-1.205-.467-.357 0-.677.076-.96.227a1.65 1.65 0 0 0-.665.66c-.16.289-.24.64-.24 1.052Zm9.564 4.414c-.683 0-1.272-.151-1.768-.453a3.031 3.031 0 0 1-1.14-1.274c-.265-.548-.397-1.185-.397-1.911s.132-1.367.397-1.921c.268-.557.64-.991 1.117-1.301.48-.314 1.04-.471 1.68-.471.37 0 .734.061 1.094.184.36.124.688.324.984.601.295.273.53.637.706 1.089.176.452.263 1.01.263 1.671v.462h-5.466v-.942h4.358c0-.4-.08-.757-.24-1.071a1.804 1.804 0 0 0-.674-.743 1.884 1.884 0 0 0-1.025-.273c-.433 0-.809.108-1.126.324a2.121 2.121 0 0 0-.725.831c-.169.341-.254.707-.254 1.098v.628c0 .536.093.99.277 1.362a2 2 0 0 0 .78.845c.333.191.72.286 1.16.286.285 0 .544-.04.775-.12a1.66 1.66 0 0 0 .605-.369c.169-.167.3-.373.392-.619l1.052.296c-.11.357-.297.67-.558.941a2.722 2.722 0 0 1-.97.628 3.59 3.59 0 0 1-1.297.222Zm10.927 0c-.59 0-1.112-.15-1.565-.448-.452-.302-.806-.726-1.061-1.274-.256-.551-.383-1.202-.383-1.953 0-.745.127-1.391.383-1.939.255-.548.61-.971 1.066-1.269.456-.299.982-.448 1.579-.448.462 0 .826.077 1.094.231.27.15.477.323.619.517.144.19.257.347.337.471h.092v-3.49h1.09V107H81.3v-1.089h-.13c-.08.129-.193.292-.341.489a2.029 2.029 0 0 1-.632.522c-.274.15-.64.226-1.095.226Zm.148-.979c.437 0 .806-.114 1.108-.342.302-.23.531-.549.688-.955.157-.41.235-.882.235-1.417 0-.53-.076-.993-.23-1.39-.154-.4-.382-.711-.684-.933-.301-.224-.674-.337-1.117-.337-.462 0-.846.119-1.154.356a2.125 2.125 0 0 0-.688.956c-.15.4-.226.849-.226 1.348 0 .504.077.963.23 1.375.158.41.389.736.693.979.308.24.69.36 1.145.36Zm7.927.979c-.591 0-1.113-.15-1.565-.448-.453-.302-.807-.726-1.062-1.274-.256-.551-.383-1.202-.383-1.953 0-.745.127-1.391.383-1.939.255-.548.61-.971 1.066-1.269.456-.299.982-.448 1.58-.448.46 0 .825.077 1.093.231.271.15.477.323.619.517.144.19.257.347.337.471h.092v-1.127h1.09V107h-1.053v-1.089h-.13c-.08.129-.193.292-.34.489a2.028 2.028 0 0 1-.633.522c-.274.15-.639.226-1.094.226Zm.147-.979c.437 0 .807-.114 1.108-.342.302-.23.531-.549.688-.955.157-.41.236-.882.236-1.417 0-.53-.077-.993-.231-1.39-.154-.4-.382-.711-.683-.933-.302-.224-.674-.337-1.118-.337-.461 0-.846.119-1.154.356a2.125 2.125 0 0 0-.688.956c-.15.4-.226.849-.226 1.348 0 .504.077.963.231 1.375.157.41.388.736.692.979.308.24.69.36 1.145.36Zm8.333-6.26v.923h-3.675v-.923h3.675Zm-2.604-1.699h1.09v6.759c0 .308.044.538.134.692.092.151.21.253.35.305.145.049.298.074.458.074a1.837 1.837 0 0 0 .48-.056l.221.979a2.222 2.222 0 0 1-.309.083c-.132.031-.3.046-.503.046-.308 0-.61-.066-.905-.198a1.802 1.802 0 0 1-.73-.605c-.19-.271-.286-.612-.286-1.025V98.21Zm6.844 8.938c-.59 0-1.112-.15-1.565-.448-.452-.302-.806-.726-1.061-1.274-.256-.551-.384-1.202-.384-1.953 0-.745.128-1.391.384-1.939.255-.548.61-.971 1.066-1.269.456-.299.982-.448 1.579-.448.461 0 .826.077 1.094.231.271.15.477.323.619.517.144.19.257.347.337.471h.092v-1.127h1.089V107h-1.052v-1.089h-.129c-.08.129-.194.292-.342.489a2.033 2.033 0 0 1-.633.522c-.273.15-.638.226-1.094.226Zm.148-.979c.437 0 .806-.114 1.108-.342.302-.23.531-.549.688-.955.157-.41.235-.882.235-1.417 0-.53-.077-.993-.23-1.39-.154-.4-.382-.711-.684-.933-.301-.224-.674-.337-1.117-.337-.462 0-.846.119-1.154.356a2.125 2.125 0 0 0-.688.956c-.15.4-.226.849-.226 1.348 0 .504.077.963.23 1.375.158.41.389.736.693.979.308.24.69.36 1.145.36Zm5.397.831v-9.454h1.089v3.49h.093c.08-.124.19-.281.332-.471a1.94 1.94 0 0 1 .619-.517c.27-.154.637-.231 1.098-.231.597 0 1.124.149 1.579.448.456.298.811.721 1.067 1.269.255.548.383 1.194.383 1.939 0 .751-.128 1.402-.383 1.953-.256.548-.61.972-1.062 1.274a2.782 2.782 0 0 1-1.565.448c-.456 0-.82-.076-1.094-.226a2.033 2.033 0 0 1-.633-.522 6.921 6.921 0 0 1-.341-.489h-.13V107h-1.052Zm1.071-3.545c0 .535.078 1.007.235 1.417.157.406.386.725.688.955.302.228.671.342 1.108.342.456 0 .836-.12 1.14-.36.308-.243.539-.569.693-.979.157-.412.235-.871.235-1.375 0-.499-.077-.948-.231-1.348a2.079 2.079 0 0 0-.687-.956c-.305-.237-.688-.356-1.15-.356-.443 0-.816.113-1.117.337-.302.222-.53.533-.683.933-.154.397-.231.86-.231 1.39Zm9.533 3.693c-.591 0-1.113-.15-1.565-.448-.453-.302-.807-.726-1.062-1.274-.255-.551-.383-1.202-.383-1.953 0-.745.128-1.391.383-1.939s.611-.971 1.066-1.269c.456-.299.982-.448 1.579-.448.462 0 .827.077 1.094.231.271.15.477.323.619.517.145.19.257.347.337.471h.092v-1.127h1.09V107h-1.053v-1.089h-.129c-.08.129-.194.292-.342.489a2.017 2.017 0 0 1-.632.522c-.274.15-.639.226-1.094.226Zm.148-.979c.437 0 .806-.114 1.107-.342.302-.23.531-.549.688-.955.157-.41.236-.882.236-1.417 0-.53-.077-.993-.231-1.39-.154-.4-.382-.711-.683-.933-.302-.224-.674-.337-1.117-.337-.462 0-.847.119-1.155.356a2.122 2.122 0 0 0-.687.956c-.151.4-.227.849-.227 1.348 0 .504.077.963.231 1.375.157.41.388.736.693.979.307.24.689.36 1.145.36Zm10.271-4.672-.979.277a1.803 1.803 0 0 0-.272-.475 1.317 1.317 0 0 0-.48-.388c-.203-.102-.463-.152-.78-.152-.434 0-.796.1-1.085.3-.286.197-.429.447-.429.752 0 .271.098.485.295.642.197.157.505.288.923.392l1.053.259c.634.154 1.106.389 1.417.706.311.314.466.719.466 1.214 0 .406-.117.77-.35 1.09-.231.32-.554.572-.97.757-.415.184-.899.277-1.449.277-.724 0-1.322-.157-1.796-.471-.474-.314-.774-.773-.9-1.376l1.034-.258c.098.381.284.667.558.858.277.191.639.287 1.085.287.508 0 .911-.108 1.21-.324.301-.218.452-.48.452-.784a.822.822 0 0 0-.259-.619c-.172-.169-.437-.296-.794-.379l-1.181-.277c-.65-.153-1.127-.392-1.431-.715-.302-.326-.453-.734-.453-1.224 0-.4.112-.754.337-1.061a2.29 2.29 0 0 1 .928-.725c.394-.175.84-.263 1.339-.263.702 0 1.252.154 1.653.461.403.308.689.714.858 1.219Zm4.742 5.651c-.683 0-1.272-.151-1.768-.453a3.034 3.034 0 0 1-1.14-1.274c-.265-.548-.397-1.185-.397-1.911s.132-1.367.397-1.921c.268-.557.64-.991 1.117-1.301.48-.314 1.041-.471 1.681-.471.369 0 .734.061 1.094.184.36.124.688.324.983.601.296.273.531.637.706 1.089.176.452.264 1.01.264 1.671v.462h-5.466v-.942h4.358c0-.4-.08-.757-.24-1.071a1.807 1.807 0 0 0-.674-.743 1.886 1.886 0 0 0-1.025-.273c-.434 0-.81.108-1.127.324a2.126 2.126 0 0 0-.725.831 2.439 2.439 0 0 0-.253 1.098v.628c0 .536.092.99.277 1.362.187.369.447.651.78.845a2.28 2.28 0 0 0 1.158.286c.287 0 .545-.04.776-.12.234-.083.436-.206.605-.369.169-.167.3-.373.392-.619l1.053.296a2.33 2.33 0 0 1-.559.941 2.722 2.722 0 0 1-.969.628 3.591 3.591 0 0 1-1.298.222Zm11.131 0c-.665 0-1.237-.157-1.718-.471a3.072 3.072 0 0 1-1.108-1.297c-.258-.551-.387-1.181-.387-1.889 0-.72.132-1.355.397-1.906.267-.554.64-.987 1.117-1.297.48-.314 1.04-.471 1.68-.471.499 0 .948.092 1.348.277.4.184.728.443.984.775.255.333.414.72.475 1.164h-1.089a1.69 1.69 0 0 0-.554-.859c-.283-.252-.665-.379-1.145-.379a1.91 1.91 0 0 0-1.117.333c-.317.218-.565.528-.744.928-.175.397-.263.863-.263 1.399 0 .547.086 1.024.259 1.431.175.406.421.721.738.946.32.225.696.337 1.127.337.283 0 .54-.049.771-.148.231-.098.426-.24.586-.424.16-.185.274-.407.342-.665h1.089a2.524 2.524 0 0 1-.457 1.131 2.55 2.55 0 0 1-.956.794c-.393.194-.852.291-1.375.291Zm7.261 0c-.64 0-1.201-.153-1.685-.457a3.107 3.107 0 0 1-1.126-1.279c-.268-.548-.402-1.188-.402-1.921 0-.738.134-1.383.402-1.934a3.094 3.094 0 0 1 1.126-1.283c.484-.305 1.045-.457 1.685-.457.641 0 1.201.152 1.681.457.483.304.859.732 1.126 1.283.271.551.407 1.196.407 1.934 0 .733-.136 1.373-.407 1.921a3.06 3.06 0 0 1-1.126 1.279c-.48.304-1.04.457-1.681.457Zm0-.979c.487 0 .887-.125 1.201-.374.314-.249.546-.577.697-.983.151-.406.226-.847.226-1.321 0-.473-.075-.915-.226-1.324a2.23 2.23 0 0 0-.697-.993c-.314-.252-.714-.379-1.201-.379-.486 0-.886.127-1.2.379a2.23 2.23 0 0 0-.697.993 3.796 3.796 0 0 0-.226 1.324c0 .474.075.915.226 1.321.151.406.383.734.697.983.314.249.714.374 1.2.374Zm5.966-3.435V107h-1.089v-7.09h1.052v1.107h.093c.166-.36.418-.649.757-.868.338-.221.775-.332 1.311-.332.48 0 .9.098 1.26.295.36.194.64.49.84.887.2.394.3.892.3 1.495V107h-1.089v-4.432c0-.557-.145-.991-.434-1.302-.289-.314-.686-.471-1.191-.471a1.9 1.9 0 0 0-.933.227c-.271.15-.484.371-.641.66-.157.289-.236.64-.236 1.052Zm7.605 0V107h-1.09v-7.09h1.053v1.107h.092a2.03 2.03 0 0 1 .757-.868c.339-.221.776-.332 1.311-.332.48 0 .9.098 1.261.295.36.194.64.49.84.887.2.394.3.892.3 1.495V107h-1.09v-4.432c0-.557-.144-.991-.434-1.302-.289-.314-.686-.471-1.191-.471a1.9 1.9 0 0 0-.932.227c-.271.15-.485.371-.642.66-.157.289-.235.64-.235 1.052Zm9.488 4.414c-.684 0-1.273-.151-1.768-.453a3.03 3.03 0 0 1-1.141-1.274c-.264-.548-.397-1.185-.397-1.911s.133-1.367.397-1.921c.268-.557.64-.991 1.117-1.301.481-.314 1.041-.471 1.681-.471.369 0 .734.061 1.094.184.36.124.688.324.983.601.296.273.531.637.707 1.089.175.452.263 1.01.263 1.671v.462h-5.466v-.942h4.358c0-.4-.08-.757-.24-1.071a1.807 1.807 0 0 0-.674-.743 1.886 1.886 0 0 0-1.025-.273c-.434 0-.81.108-1.127.324a2.124 2.124 0 0 0-.724.831c-.17.341-.254.707-.254 1.098v.628c0 .536.092.99.277 1.362.187.369.448.651.78.845.332.191.719.286 1.159.286.286 0 .544-.04.775-.12.234-.083.436-.206.605-.369.169-.167.3-.373.392-.619l1.053.296a2.33 2.33 0 0 1-.559.941 2.713 2.713 0 0 1-.969.628 3.59 3.59 0 0 1-1.297.222Zm7.474 0c-.665 0-1.237-.157-1.718-.471a3.072 3.072 0 0 1-1.108-1.297c-.258-.551-.387-1.181-.387-1.889 0-.72.132-1.355.397-1.906.267-.554.64-.987 1.117-1.297.48-.314 1.04-.471 1.68-.471.499 0 .948.092 1.348.277.4.184.728.443.984.775.255.333.414.72.475 1.164h-1.089a1.697 1.697 0 0 0-.554-.859c-.284-.252-.665-.379-1.145-.379a1.91 1.91 0 0 0-1.117.333c-.317.218-.565.528-.744.928-.175.397-.263.863-.263 1.399 0 .547.086 1.024.259 1.431.175.406.421.721.738.946.32.225.696.337 1.127.337.283 0 .54-.049.771-.148.23-.098.426-.24.586-.424.16-.185.274-.407.342-.665h1.089a2.524 2.524 0 0 1-.457 1.131c-.24.332-.559.597-.956.794-.394.194-.852.291-1.375.291Zm7.465-7.239v.923h-3.675v-.923h3.675Zm-2.604-1.699h1.089v6.759c0 .308.045.538.134.692.093.151.21.253.351.305.145.049.297.074.457.074a1.846 1.846 0 0 0 .48-.056l.222.979a2.232 2.232 0 0 1-.309.083 2.278 2.278 0 0 1-.504.046c-.307 0-.609-.066-.905-.198a1.804 1.804 0 0 1-.729-.605c-.191-.271-.286-.612-.286-1.025V98.21Zm4.242 8.79v-7.09h1.09V107h-1.09Zm.554-8.273a.775.775 0 0 1-.549-.217.696.696 0 0 1-.226-.521c0-.204.075-.377.226-.522a.774.774 0 0 1 .549-.217c.213 0 .394.072.545.217a.69.69 0 0 1 .231.522.69.69 0 0 1-.231.521.759.759 0 0 1-.545.217Zm5.412 8.421c-.64 0-1.202-.153-1.685-.457a3.1 3.1 0 0 1-1.126-1.279c-.268-.548-.402-1.188-.402-1.921 0-.738.134-1.383.402-1.934.27-.551.646-.979 1.126-1.283.483-.305 1.045-.457 1.685-.457.64 0 1.2.152 1.68.457.484.304.859.732 1.127 1.283.271.551.406 1.196.406 1.934 0 .733-.135 1.373-.406 1.921a3.061 3.061 0 0 1-1.127 1.279c-.48.304-1.04.457-1.68.457Zm0-.979c.486 0 .886-.125 1.2-.374.314-.249.547-.577.697-.983.151-.406.227-.847.227-1.321 0-.473-.076-.915-.227-1.324a2.222 2.222 0 0 0-.697-.993c-.314-.252-.714-.379-1.2-.379s-.886.127-1.2.379a2.222 2.222 0 0 0-.697.993 3.796 3.796 0 0 0-.227 1.324c0 .474.076.915.227 1.321.15.406.383.734.697.983.314.249.714.374 1.2.374Zm5.966-3.435V107h-1.09v-7.09h1.053v1.107h.092a2.03 2.03 0 0 1 .757-.868c.339-.221.776-.332 1.311-.332.48 0 .9.098 1.261.295.36.194.64.49.84.887.2.394.3.892.3 1.495V107h-1.09v-4.432c0-.557-.144-.991-.434-1.302-.289-.314-.686-.471-1.191-.471a1.9 1.9 0 0 0-.932.227c-.271.15-.485.371-.642.66-.157.289-.235.64-.235 1.052Zm15.194-1.237-.979.277a1.831 1.831 0 0 0-.272-.475 1.317 1.317 0 0 0-.48-.388c-.204-.102-.464-.152-.781-.152-.434 0-.795.1-1.085.3-.286.197-.429.447-.429.752 0 .271.099.485.296.642.197.157.504.288.923.392l1.052.259c.634.154 1.107.389 1.418.706.311.314.466.719.466 1.214 0 .406-.117.77-.351 1.09-.231.32-.554.572-.969.757-.416.184-.899.277-1.45.277-.723 0-1.322-.157-1.796-.471-.474-.314-.774-.773-.9-1.376l1.034-.258c.099.381.285.667.559.858.277.191.638.287 1.085.287.507 0 .911-.108 1.209-.324.302-.218.453-.48.453-.784a.826.826 0 0 0-.259-.619c-.172-.169-.437-.296-.794-.379l-1.182-.277c-.649-.153-1.126-.392-1.431-.715-.302-.326-.452-.734-.452-1.224 0-.4.112-.754.337-1.061.227-.308.537-.55.928-.725.393-.175.84-.263 1.338-.263.702 0 1.253.154 1.653.461.403.308.689.714.859 1.219Zm4.853-1.588v.923h-3.675v-.923h3.675Zm-2.604-1.699h1.09v6.759c0 .308.044.538.133.692.093.151.21.253.351.305.145.049.297.074.457.074a1.846 1.846 0 0 0 .48-.056l.222.979a2.232 2.232 0 0 1-.309.083c-.133.031-.3.046-.503.046-.308 0-.61-.066-.905-.198a1.8 1.8 0 0 1-.73-.605c-.191-.271-.286-.612-.286-1.025V98.21Zm4.243 8.79v-7.09h1.052v1.07h.074a1.68 1.68 0 0 1 .697-.854 2.077 2.077 0 0 1 1.15-.328c.197 0 .369.023.517.07.147.046.277.109.387.189l-.369.923a1.504 1.504 0 0 0-.628-.129c-.344 0-.652.072-.923.217-.268.144-.48.341-.637.591a1.59 1.59 0 0 0-.231.854V107h-1.089Zm4.989 0v-7.09h1.089V107h-1.089Zm.554-8.273a.775.775 0 0 1-.55-.217.7.7 0 0 1-.226-.521.7.7 0 0 1 .226-.522.775.775 0 0 1 .55-.217.76.76 0 0 1 .545.217c.153.145.23.319.23.522a.693.693 0 0 1-.23.521.76.76 0 0 1-.545.217Zm3.62 4.007V107h-1.089v-7.09h1.052v1.107h.093c.166-.36.418-.649.757-.868.338-.221.775-.332 1.311-.332.48 0 .9.098 1.26.295.36.194.64.49.84.887.2.394.3.892.3 1.495V107h-1.089v-4.432c0-.557-.145-.991-.434-1.302-.289-.314-.686-.471-1.191-.471a1.9 1.9 0 0 0-.933.227c-.27.15-.484.371-.641.66-.157.289-.236.64-.236 1.052Zm9.378 7.073c-.527 0-.979-.068-1.358-.203a2.884 2.884 0 0 1-.946-.527 2.888 2.888 0 0 1-.596-.692l.868-.609c.099.129.223.277.374.443.151.169.357.315.619.438.265.126.611.19 1.039.19.572 0 1.044-.139 1.417-.416.372-.277.558-.711.558-1.302v-1.44h-.092c-.08.129-.194.289-.342.48a1.912 1.912 0 0 1-.627.503c-.271.145-.637.217-1.099.217a2.955 2.955 0 0 1-1.542-.406c-.452-.271-.811-.665-1.076-1.182-.261-.517-.392-1.145-.392-1.883 0-.727.128-1.359.383-1.898.256-.541.611-.96 1.067-1.255.455-.299.981-.448 1.578-.448.462 0 .828.077 1.099.231.274.15.483.323.628.517.148.19.262.347.342.471h.11v-1.127h1.053v7.294c0 .609-.139 1.105-.416 1.487a2.365 2.365 0 0 1-1.108.844 4.165 4.165 0 0 1-1.541.273Zm-.037-3.896c.437 0 .806-.101 1.108-.301.301-.2.53-.487.687-.863.157-.375.236-.825.236-1.348 0-.511-.077-.962-.231-1.352a2.031 2.031 0 0 0-.683-.919c-.302-.222-.674-.333-1.117-.333-.462 0-.847.117-1.155.351a2.142 2.142 0 0 0-.687.942 3.637 3.637 0 0 0-.227 1.311c0 .493.077.928.231 1.307a2 2 0 0 0 .693.886c.307.212.689.319 1.145.319Zm8.9 1.089v-9.454h1.09v3.49h.092a9.23 9.23 0 0 1 .332-.471 1.94 1.94 0 0 1 .619-.517c.271-.154.637-.231 1.099-.231.597 0 1.123.149 1.579.448.455.298.81.721 1.066 1.269.255.548.383 1.194.383 1.939 0 .751-.128 1.402-.383 1.953-.256.548-.609.972-1.062 1.274-.452.298-.974.448-1.565.448-.455 0-.82-.076-1.094-.226a2.017 2.017 0 0 1-.632-.522 6.989 6.989 0 0 1-.342-.489h-.129V107h-1.053Zm1.071-3.545c0 .535.079 1.007.236 1.417.157.406.386.725.687.955.302.228.671.342 1.108.342.456 0 .836-.12 1.141-.36.307-.243.538-.569.692-.979.157-.412.236-.871.236-1.375 0-.499-.077-.948-.231-1.348a2.08 2.08 0 0 0-.688-.956c-.305-.237-.688-.356-1.15-.356-.443 0-.815.113-1.117.337-.301.222-.529.533-.683.933-.154.397-.231.86-.231 1.39Zm9.829 3.693c-.684 0-1.273-.151-1.768-.453a3.03 3.03 0 0 1-1.141-1.274c-.264-.548-.397-1.185-.397-1.911s.133-1.367.397-1.921c.268-.557.64-.991 1.117-1.301.481-.314 1.041-.471 1.681-.471.369 0 .734.061 1.094.184.36.124.688.324.983.601.296.273.531.637.707 1.089.175.452.263 1.01.263 1.671v.462h-5.466v-.942h4.358c0-.4-.08-.757-.24-1.071a1.807 1.807 0 0 0-.674-.743 1.886 1.886 0 0 0-1.025-.273c-.434 0-.81.108-1.127.324a2.124 2.124 0 0 0-.724.831c-.17.341-.254.707-.254 1.098v.628c0 .536.092.99.277 1.362.187.369.448.651.78.845.332.191.719.286 1.159.286.286 0 .544-.04.775-.12.234-.083.436-.206.605-.369.169-.167.3-.373.392-.619l1.053.296a2.33 2.33 0 0 1-.559.941 2.713 2.713 0 0 1-.969.628 3.59 3.59 0 0 1-1.297.222Zm4.593-9.602h1.09v7.607c0 .345.038.587.115.725.077.139.235.205.475.199a2.14 2.14 0 0 0 .287-.028 3.57 3.57 0 0 0 .175-.046l.222.942a2.894 2.894 0 0 1-.36.073 2.663 2.663 0 0 1-.453.037c-.517 0-.905-.141-1.163-.424-.259-.283-.388-.677-.388-1.182v-7.903Zm6.245 9.602c-.64 0-1.202-.153-1.685-.457a3.1 3.1 0 0 1-1.126-1.279c-.268-.548-.402-1.188-.402-1.921 0-.738.134-1.383.402-1.934.27-.551.646-.979 1.126-1.283.483-.305 1.045-.457 1.685-.457.64 0 1.2.152 1.68.457.484.304.859.732 1.127 1.283.271.551.406 1.196.406 1.934 0 .733-.135 1.373-.406 1.921a3.061 3.061 0 0 1-1.127 1.279c-.48.304-1.04.457-1.68.457Zm0-.979c.486 0 .886-.125 1.2-.374.314-.249.547-.577.697-.983.151-.406.227-.847.227-1.321 0-.473-.076-.915-.227-1.324a2.222 2.222 0 0 0-.697-.993c-.314-.252-.714-.379-1.2-.379s-.886.127-1.2.379a2.222 2.222 0 0 0-.697.993 3.796 3.796 0 0 0-.227 1.324c0 .474.076.915.227 1.321.15.406.383.734.697.983.314.249.714.374 1.2.374Zm6.241.831-2.16-7.09h1.145l1.533 5.428h.073l1.515-5.429h1.163l1.496 5.411h.074l1.532-5.41h1.145l-2.16 7.09h-1.071l-1.552-5.447h-.11L279.309 107h-1.072Zm15.697-7.09v.922h-3.675v-.923h3.675Zm-2.604-1.7h1.089v6.759c0 .308.045.538.134.692a.693.693 0 0 0 .351.305c.145.049.297.074.457.074.12 0 .219-.006.296-.019l.184-.037.222.979a2.213 2.213 0 0 1-.31.083c-.132.031-.3.046-.503.046-.307 0-.609-.066-.905-.198a1.804 1.804 0 0 1-.729-.605c-.191-.271-.286-.612-.286-1.025V98.21Zm7.047 8.938c-.64 0-1.202-.153-1.685-.457a3.11 3.11 0 0 1-1.127-1.279c-.267-.548-.401-1.188-.401-1.921 0-.738.134-1.383.401-1.934a3.096 3.096 0 0 1 1.127-1.283c.483-.305 1.045-.457 1.685-.457.64 0 1.2.152 1.68.457.483.304.859.732 1.127 1.283.271.551.406 1.196.406 1.934 0 .733-.135 1.373-.406 1.921a3.068 3.068 0 0 1-1.127 1.279c-.48.304-1.04.457-1.68.457Zm0-.979c.486 0 .886-.125 1.2-.374.314-.249.546-.577.697-.983.151-.406.226-.847.226-1.321 0-.473-.075-.915-.226-1.324a2.23 2.23 0 0 0-.697-.993c-.314-.252-.714-.379-1.2-.379s-.886.127-1.2.379a2.231 2.231 0 0 0-.698.993c-.15.409-.226.851-.226 1.324 0 .474.076.915.226 1.321.151.406.384.734.698.983.314.249.714.374 1.2.374Zm11.413.979c-.665 0-1.237-.157-1.717-.471a3.065 3.065 0 0 1-1.108-1.297c-.259-.551-.388-1.181-.388-1.889 0-.72.132-1.355.397-1.906.268-.554.64-.987 1.117-1.297.48-.314 1.04-.471 1.68-.471.499 0 .948.092 1.348.277.401.184.728.443.984.775.255.333.414.72.475 1.164h-1.089a1.69 1.69 0 0 0-.554-.859c-.283-.252-.665-.379-1.145-.379a1.91 1.91 0 0 0-1.117.333 2.159 2.159 0 0 0-.743.928c-.176.397-.264.863-.264 1.399 0 .547.087 1.024.259 1.431.175.406.422.721.739.946.32.225.695.337 1.126.337.283 0 .54-.049.771-.148.231-.098.426-.24.586-.424.16-.185.274-.407.342-.665h1.089a2.524 2.524 0 0 1-.457 1.131c-.24.332-.558.597-.955.794-.394.194-.853.291-1.376.291Zm7.262 0c-.64 0-1.202-.153-1.685-.457a3.11 3.11 0 0 1-1.127-1.279c-.268-.548-.401-1.188-.401-1.921 0-.738.133-1.383.401-1.934a3.096 3.096 0 0 1 1.127-1.283c.483-.305 1.045-.457 1.685-.457.64 0 1.2.152 1.68.457.483.304.859.732 1.126 1.283.271.551.407 1.196.407 1.934 0 .733-.136 1.373-.407 1.921a3.06 3.06 0 0 1-1.126 1.279c-.48.304-1.04.457-1.68.457Zm0-.979c.486 0 .886-.125 1.2-.374.314-.249.546-.577.697-.983.151-.406.226-.847.226-1.321 0-.473-.075-.915-.226-1.324a2.23 2.23 0 0 0-.697-.993c-.314-.252-.714-.379-1.2-.379-.487 0-.887.127-1.201.379a2.23 2.23 0 0 0-.697.993 3.796 3.796 0 0 0-.226 1.324c0 .474.075.915.226 1.321.151.406.383.734.697.983.314.249.714.374 1.201.374Zm5.965-3.435V107h-1.089v-7.09h1.052v1.107h.093c.166-.36.418-.649.757-.868.338-.221.775-.332 1.311-.332.48 0 .9.098 1.26.295.36.194.64.49.84.887.2.394.3.892.3 1.495V107h-1.089v-4.432c0-.557-.145-.991-.434-1.302-.289-.314-.686-.471-1.191-.471a1.9 1.9 0 0 0-.933.227c-.27.15-.484.371-.641.66-.157.289-.236.64-.236 1.052Zm7.605 0V107h-1.09v-7.09h1.053v1.107h.092a2.03 2.03 0 0 1 .757-.868c.339-.221.776-.332 1.311-.332.48 0 .901.098 1.261.295.36.194.64.49.84.887.2.394.3.892.3 1.495V107h-1.09v-4.432c0-.557-.144-.991-.433-1.302-.29-.314-.687-.471-1.192-.471a1.9 1.9 0 0 0-.932.227c-.271.15-.485.371-.642.66-.157.289-.235.64-.235 1.052Zm9.488 4.414c-.683 0-1.273-.151-1.768-.453a3.03 3.03 0 0 1-1.141-1.274c-.264-.548-.397-1.185-.397-1.911s.133-1.367.397-1.921a3.128 3.128 0 0 1 1.118-1.301c.48-.314 1.04-.471 1.68-.471.369 0 .734.061 1.094.184.36.124.688.324.983.601.296.273.531.637.707 1.089.175.452.263 1.01.263 1.671v.462h-5.466v-.942h4.358c0-.4-.08-.757-.24-1.071a1.807 1.807 0 0 0-.674-.743 1.884 1.884 0 0 0-1.025-.273c-.434 0-.809.108-1.126.324a2.118 2.118 0 0 0-.725.831 2.44 2.44 0 0 0-.254 1.098v.628c0 .536.092.99.277 1.362.188.369.448.651.78.845.332.191.719.286 1.159.286.286 0 .545-.04.775-.12.234-.083.436-.206.605-.369.169-.167.3-.373.393-.619l1.052.296a2.34 2.34 0 0 1-.558.941 2.726 2.726 0 0 1-.97.628 3.59 3.59 0 0 1-1.297.222Zm7.474 0c-.665 0-1.237-.157-1.717-.471a3.058 3.058 0 0 1-1.108-1.297c-.259-.551-.388-1.181-.388-1.889 0-.72.132-1.355.397-1.906.268-.554.64-.987 1.117-1.297.48-.314 1.04-.471 1.68-.471.499 0 .948.092 1.348.277.401.184.728.443.984.775.255.333.414.72.475 1.164h-1.089a1.69 1.69 0 0 0-.554-.859c-.283-.252-.665-.379-1.145-.379a1.91 1.91 0 0 0-1.117.333c-.317.218-.565.528-.744.928-.175.397-.263.863-.263 1.399 0 .547.086 1.024.259 1.431.175.406.421.721.738.946.321.225.696.337 1.127.337.283 0 .54-.049.771-.148.231-.098.426-.24.586-.424.16-.185.274-.407.342-.665h1.089a2.524 2.524 0 0 1-.457 1.131c-.24.332-.558.597-.955.794-.394.194-.853.291-1.376.291Zm7.465-7.239v.923h-3.675v-.923h3.675Zm-2.604-1.699h1.09v6.759c0 .308.044.538.133.692.093.151.21.253.351.305.145.049.297.074.457.074a1.846 1.846 0 0 0 .48-.056l.222.979a2.232 2.232 0 0 1-.309.083c-.133.031-.3.046-.503.046-.308 0-.61-.066-.905-.198a1.8 1.8 0 0 1-.73-.605c-.191-.271-.286-.612-.286-1.025V98.21Zm10.983 1.7v.922h-3.675v-.923h3.675Zm-2.604-1.7h1.089v6.759c0 .308.045.538.134.692.093.151.21.253.351.305.145.049.297.074.457.074a1.846 1.846 0 0 0 .48-.056l.222.979a2.232 2.232 0 0 1-.309.083c-.133.031-.3.046-.504.046-.307 0-.609-.066-.904-.198a1.8 1.8 0 0 1-.73-.605c-.191-.271-.286-.612-.286-1.025V98.21Zm7.047 8.938c-.64 0-1.202-.153-1.685-.457a3.1 3.1 0 0 1-1.126-1.279c-.268-.548-.402-1.188-.402-1.921 0-.738.134-1.383.402-1.934.27-.551.646-.979 1.126-1.283.483-.305 1.045-.457 1.685-.457.64 0 1.2.152 1.68.457.484.304.859.732 1.127 1.283.271.551.406 1.196.406 1.934 0 .733-.135 1.373-.406 1.921a3.061 3.061 0 0 1-1.127 1.279c-.48.304-1.04.457-1.68.457Zm0-.979c.486 0 .886-.125 1.2-.374.314-.249.547-.577.697-.983.151-.406.227-.847.227-1.321 0-.473-.076-.915-.227-1.324a2.222 2.222 0 0 0-.697-.993c-.314-.252-.714-.379-1.2-.379s-.886.127-1.2.379a2.222 2.222 0 0 0-.697.993 3.796 3.796 0 0 0-.227 1.324c0 .474.076.915.227 1.321.15.406.383.734.697.983.314.249.714.374 1.2.374Zm9.234 3.49c-.185 0-.349-.015-.494-.046a1.308 1.308 0 0 1-.3-.083l.277-.96c.265.067.499.092.702.073a.839.839 0 0 0 .54-.272c.16-.16.306-.42.438-.78l.204-.554-2.623-7.128h1.182l1.958 5.651h.073l1.958-5.65h1.182l-3.01 8.124a3.106 3.106 0 0 1-.503.91c-.2.243-.433.423-.698.54a2.146 2.146 0 0 1-.886.175Zm9.162-2.511c-.641 0-1.202-.153-1.686-.457a3.107 3.107 0 0 1-1.126-1.279c-.268-.548-.402-1.188-.402-1.921 0-.738.134-1.383.402-1.934a3.094 3.094 0 0 1 1.126-1.283c.484-.305 1.045-.457 1.686-.457.64 0 1.2.152 1.68.457.483.304.859.732 1.126 1.283.271.551.407 1.196.407 1.934 0 .733-.136 1.373-.407 1.921a3.06 3.06 0 0 1-1.126 1.279c-.48.304-1.04.457-1.68.457Zm0-.979c.486 0 .886-.125 1.2-.374.314-.249.546-.577.697-.983.151-.406.226-.847.226-1.321 0-.473-.075-.915-.226-1.324a2.23 2.23 0 0 0-.697-.993c-.314-.252-.714-.379-1.2-.379-.487 0-.887.127-1.201.379a2.23 2.23 0 0 0-.697.993 3.796 3.796 0 0 0-.226 1.324c0 .474.075.915.226 1.321.151.406.383.734.697.983.314.249.714.374 1.201.374Zm9.344-2.068v-4.192h1.09V107h-1.09v-1.2h-.073a2.33 2.33 0 0 1-.776.918c-.351.25-.794.374-1.33.374-.443 0-.837-.097-1.181-.291a2.028 2.028 0 0 1-.813-.886c-.197-.397-.295-.897-.295-1.5v-4.506h1.089v4.432c0 .517.145.929.434 1.237.292.308.665.462 1.117.462.271 0 .547-.069.827-.208.283-.138.52-.351.711-.637.193-.286.29-.651.29-1.094Zm3.085 2.899v-7.09h1.053v1.07h.074c.126-.351.358-.635.697-.854a2.073 2.073 0 0 1 1.149-.328c.197 0 .37.023.517.07.148.046.277.109.388.189l-.369.923a1.51 1.51 0 0 0-.628-.129c-.345 0-.652.072-.923.217-.268.144-.48.341-.637.591a1.59 1.59 0 0 0-.231.854V107h-1.09Z"/><mask id="a" width="389" height="42" x="23" y="127" fill="#000" maskUnits="userSpaceOnUse"><path fill="#fff" d="M23 127h389v42H23z"/><path d="M24 134a6 6 0 0 1 6-6h382v40H30a6 6 0 0 1-6-6v-28Z"/></mask><path fill="#FCFDFC" d="M24 134a6 6 0 0 1 6-6h382v40H30a6 6 0 0 1-6-6v-28Z"/><path fill="#001A00" fill-opacity=".15" d="M23 134a7 7 0 0 1 7-7h382v2H30a5 5 0 0 0-5 5h-2Zm389 35H30a7 7 0 0 1-7-7h2a5 5 0 0 0 5 5h382v2Zm-382 0a7 7 0 0 1-7-7v-28a7 7 0 0 1 7-7v2a5 5 0 0 0-5 5v28a5 5 0 0 0 5 5v2Zm382-41v40-40Z" mask="url(#a)"/><path fill="#141E12" d="M44.291 146.614c.144-.304.326-.529.546-.673a1.43 1.43 0 0 1 .806-.222c.571 0 .973.222 1.206.667.237.44.356 1.271.356 2.494V153h-1.067v-4.069c0-1.003-.057-1.625-.171-1.866-.11-.246-.313-.368-.61-.368-.338 0-.57.131-.698.393-.123.258-.184.872-.184 1.841V153H43.41v-4.069c0-1.015-.062-1.642-.184-1.879-.119-.237-.335-.355-.648-.355-.309 0-.525.131-.647.393-.119.258-.178.872-.178 1.841V153h-1.06v-7.109h1.06v.609a1.55 1.55 0 0 1 .52-.578c.212-.135.451-.203.718-.203.321 0 .588.074.8.222.215.149.383.373.501.673Zm8.988 4.101a117.31 117.31 0 0 0-.742 1.955c-.42 1.117-.7 1.798-.845 2.044-.194.33-.438.578-.73.743a2.042 2.042 0 0 1-1.022.247h-.939v-.977h.692c.343 0 .611-.1.806-.299.195-.199.442-.713.743-1.542l-2.749-6.995h1.238l2.107 5.56 2.076-5.56h1.238l-1.873 4.824Zm8.563-4.577v1.143a4.421 4.421 0 0 0-1.009-.438 3.701 3.701 0 0 0-1.035-.146c-.529 0-.924.087-1.187.26-.258.169-.387.43-.387.781 0 .317.098.554.292.711.195.156.68.309 1.454.457l.47.089c.58.11 1.017.33 1.313.66.3.33.451.759.451 1.288 0 .703-.25 1.253-.749 1.651-.5.393-1.193.59-2.082.59-.351 0-.72-.038-1.104-.114a9.719 9.719 0 0 1-1.25-.33v-1.206a7.01 7.01 0 0 0 1.25.508c.397.11.774.165 1.13.165.516 0 .916-.104 1.2-.311.283-.212.424-.506.424-.883 0-.541-.518-.916-1.555-1.123l-.05-.013-.438-.089c-.673-.131-1.164-.351-1.473-.66-.31-.313-.463-.739-.463-1.276 0-.681.23-1.206.691-1.574.462-.373 1.12-.559 1.974-.559.381 0 .747.036 1.099.108.35.068.696.172 1.034.311Zm3.764 3.339c0 .906.142 1.589.426 2.05.288.462.713.692 1.276.692.562 0 .988-.23 1.275-.692.293-.465.439-1.149.439-2.05 0-.901-.147-1.583-.439-2.044-.287-.465-.713-.698-1.275-.698-.563 0-.989.23-1.276.692-.284.461-.426 1.144-.426 2.05Zm3.416 2.641c-.19.351-.45.622-.775.812a2.204 2.204 0 0 1-1.123.279c-.851 0-1.524-.327-2.019-.983-.49-.661-.736-1.568-.736-2.724 0-1.176.245-2.096.736-2.761.49-.664 1.164-.996 2.019-.996.423 0 .795.093 1.117.279.326.182.586.448.78.8v-.908h1.175v9.813h-1.174v-3.611Zm6.874-1.689c0 .525.095.921.286 1.187.194.267.48.4.857.4h1.364V153h-1.479c-.698 0-1.24-.222-1.625-.667-.38-.448-.571-1.083-.571-1.904v-6.43h-1.872v-.914h3.04v7.344Zm7.84-4.907v2.812h2.824v1.073h-2.825v2.812H82.67v-2.812H79.85v-1.073h2.818v-2.812h1.066Zm9.438.616v1.143a4.42 4.42 0 0 0-1.009-.438 3.701 3.701 0 0 0-1.035-.146c-.529 0-.924.087-1.187.26-.258.169-.387.43-.387.781 0 .317.097.554.292.711.195.156.68.309 1.454.457l.47.089c.58.11 1.017.33 1.313.66.3.33.451.759.451 1.288 0 .703-.25 1.253-.749 1.651-.5.393-1.193.59-2.082.59-.351 0-.72-.038-1.104-.114a9.723 9.723 0 0 1-1.25-.33v-1.206c.435.224.852.393 1.25.508.397.11.774.165 1.13.165.516 0 .916-.104 1.2-.311.283-.212.425-.506.425-.883 0-.541-.519-.916-1.556-1.123l-.05-.013-.439-.089c-.672-.131-1.163-.351-1.472-.66-.31-.313-.463-.739-.463-1.276 0-.681.23-1.206.691-1.574.462-.373 1.12-.559 1.975-.559.38 0 .746.036 1.098.108.35.068.696.172 1.034.311Zm7.833 0v1.143a4.404 4.404 0 0 0-1.009-.438 3.701 3.701 0 0 0-1.035-.146c-.529 0-.924.087-1.187.26-.258.169-.387.43-.387.781 0 .317.098.554.292.711.195.156.68.309 1.454.457l.47.089c.579.11 1.017.33 1.313.66.301.33.451.759.451 1.288 0 .703-.25 1.253-.749 1.651-.499.393-1.193.59-2.082.59-.351 0-.72-.038-1.104-.114a9.723 9.723 0 0 1-1.25-.33v-1.206c.435.224.852.393 1.25.508.397.11.774.165 1.13.165.516 0 .916-.104 1.2-.311.283-.212.424-.506.424-.883 0-.541-.518-.916-1.555-1.123l-.05-.013-.439-.089c-.672-.131-1.163-.351-1.472-.66-.309-.313-.463-.739-.463-1.276 0-.681.23-1.206.691-1.574.462-.373 1.12-.559 1.974-.559.381 0 .747.036 1.099.108.351.068.696.172 1.034.311Zm8.328 2.457V153h-1.174v-4.405c0-.639-.112-1.109-.336-1.409-.225-.301-.576-.451-1.054-.451-.546 0-.967.195-1.263.584-.292.385-.438.939-.438 1.663V153h-1.168v-9.877h1.168v3.834c.207-.406.489-.713.844-.92.356-.212.777-.318 1.263-.318.724 0 1.263.239 1.619.718.36.473.539 1.193.539 2.158Zm3.885-2.698h1.981v2.291h-1.981v-2.291Zm0 4.792h1.981V153h-1.981v-2.311Zm10.753-7.166h1.206l-4.989 10.683h-1.212l4.995-10.683Zm7.833 0h1.206l-4.989 10.683h-1.212l4.995-10.683Zm8.938-.4v.971h-1.327c-.419 0-.711.087-.876.26-.161.17-.241.472-.241.908v.629h2.444v.907H138.3V153h-1.168v-6.202h-1.898v-.907h1.898v-.495c0-.779.178-1.353.533-1.721.36-.368.918-.552 1.676-.552h1.403Zm4.995 3.586c-.592 0-1.041.231-1.345.692-.305.462-.457 1.145-.457 2.051 0 .901.152 1.584.457 2.05.304.461.753.692 1.345.692.597 0 1.048-.231 1.352-.692.305-.466.457-1.149.457-2.05 0-.906-.152-1.589-.457-2.051-.304-.461-.755-.692-1.352-.692Zm0-.99c.986 0 1.74.32 2.26.959.525.639.787 1.563.787 2.774 0 1.214-.26 2.141-.781 2.78-.52.635-1.276.952-2.266.952-.986 0-1.739-.317-2.26-.952-.52-.639-.78-1.566-.78-2.78 0-1.211.26-2.135.78-2.774.521-.639 1.274-.959 2.26-.959Zm11.255 1.638a2.645 2.645 0 0 0-.762-.425 2.596 2.596 0 0 0-.851-.134c-.728 0-1.284.229-1.669.686-.385.457-.578 1.117-.578 1.98V153h-1.174v-7.109h1.174v1.39c.195-.504.493-.889.895-1.156.407-.27.887-.406 1.441-.406.288 0 .557.036.806.108.25.072.489.184.718.337v1.193Zm5.947 2.031c0-.876-.143-1.54-.431-1.993-.284-.457-.698-.686-1.244-.686-.572 0-1.008.229-1.308.686-.3.453-.451 1.117-.451 1.993 0 .876.151 1.545.451 2.006.305.457.745.686 1.32.686.538 0 .948-.231 1.232-.692.288-.462.431-1.128.431-2Zm1.168 3.155c0 1.066-.251 1.875-.755 2.425-.504.55-1.244.825-2.222.825-.321 0-.658-.03-1.009-.089a7.399 7.399 0 0 1-1.054-.26v-1.155c.415.194.792.338 1.13.431.339.093.65.14.933.14.631 0 1.09-.172 1.378-.514.288-.343.431-.887.431-1.632V151.87c-.186.398-.44.694-.761.889-.322.194-.713.292-1.175.292-.829 0-1.491-.332-1.986-.997-.496-.664-.743-1.553-.743-2.666 0-1.117.247-2.008.743-2.672.495-.665 1.157-.997 1.986-.997.457 0 .845.091 1.162.273.317.182.576.464.774.844v-.92h1.168v6.627Zm8.329-3.682v.572h-5.06v.038c-.033.969.151 1.665.553 2.088.406.423.977.635 1.714.635.372 0 .761-.059 1.167-.178a7.117 7.117 0 0 0 1.302-.539v1.161a7.557 7.557 0 0 1-1.289.406c-.41.094-.808.14-1.193.14-1.105 0-1.968-.33-2.59-.99-.622-.665-.933-1.579-.933-2.742 0-1.134.305-2.04.914-2.717s1.422-1.016 2.437-1.016c.906 0 1.619.307 2.14.921.524.613.804 1.354.838 2.221Zm-1.168-.342a2.238 2.238 0 0 0-.54-1.27c-.305-.36-.745-.54-1.32-.54-.563 0-1.027.187-1.39.559-.364.372-.563.791-.597 1.257l3.847-.006Zm8.48 1.022c0-.546-.135-.982-.406-1.308-.271-.33-.633-.495-1.086-.495-.452 0-.816.165-1.091.495-.271.326-.407.762-.407 1.308 0 .55.136.99.407 1.32.275.326.639.489 1.091.489.453 0 .815-.163 1.086-.489.271-.33.406-.77.406-1.32Zm.889 2.602h-.914v-.705a1.586 1.586 0 0 1-.654.616 1.98 1.98 0 0 1-.933.216 2.156 2.156 0 0 1-1.695-.768c-.444-.512-.667-1.166-.667-1.961 0-.796.223-1.45.667-1.962a2.156 2.156 0 0 1 1.695-.768c.338 0 .649.074.933.222.283.148.501.351.654.61v-.4c0-.66-.187-1.192-.559-1.594-.372-.402-.865-.603-1.479-.603-1.041 0-1.87.407-2.488 1.219-.614.808-.921 1.904-.921 3.288 0 1.392.349 2.501 1.048 3.326.698.826 1.654 1.24 2.869 1.245.228.033.55.05.965.05.414 0 .785-.008 1.111-.025v.914a14.55 14.55 0 0 1-1.067.032 6.476 6.476 0 0 1-1.009-.051c-1.469-.013-2.647-.512-3.536-1.498-.884-.986-1.326-2.317-1.326-3.993 0-1.65.397-2.964 1.193-3.942.795-.977 1.862-1.466 3.199-1.466.885 0 1.591.281 2.12.844.529.563.794 1.318.794 2.266v4.888Zm2.069-.216h1.993v-7.16l-2.387 1.149v-1.231l2.374-1.13h1.283v8.372h1.967V153h-5.23v-1.073Zm12.41-8.195v1.181a3.42 3.42 0 0 0-.851-.355 3.433 3.433 0 0 0-.939-.127c-.813 0-1.429.306-1.848.92-.418.609-.628 1.509-.628 2.698.203-.423.485-.747.844-.971.36-.229.773-.343 1.238-.343.914 0 1.621.281 2.12.844.504.559.756 1.352.756 2.38 0 1.025-.259 1.818-.775 2.381-.516.563-1.242.844-2.177.844-1.1 0-1.907-.393-2.419-1.181-.512-.791-.768-2.035-.768-3.732 0-1.6.307-2.818.921-3.656.618-.842 1.511-1.263 2.679-1.263.313 0 .626.033.939.101.313.064.616.157.908.279Zm-2.285 4.006c-.546 0-.976.197-1.289.59-.313.394-.47.937-.47 1.631s.157 1.238.47 1.632c.313.393.743.59 1.289.59.567 0 .994-.186 1.282-.558.288-.377.431-.931.431-1.664 0-.736-.143-1.29-.431-1.663-.288-.372-.715-.558-1.282-.558Zm5.141-4.215h4.799v1.079h-3.631v2.33c.182-.068.364-.117.546-.146a3.1 3.1 0 0 1 .559-.051c.981 0 1.76.29 2.336.869.575.58.863 1.365.863 2.355 0 .999-.303 1.786-.908 2.362-.601.575-1.424.863-2.469.863a8.79 8.79 0 0 1-1.384-.101 5.143 5.143 0 0 1-1.117-.305v-1.301c.389.211.781.37 1.174.476.394.101.796.152 1.206.152.707 0 1.251-.186 1.632-.559.385-.372.577-.901.577-1.587 0-.677-.199-1.203-.596-1.58-.394-.377-.944-.565-1.651-.565-.343 0-.677.04-1.003.121a3.846 3.846 0 0 0-.933.349v-4.761Zm8.988 6.913h2.235V153h-2.235v-2.564Zm7.732 1.485h4.354V153h-5.757v-1.079c.791-.834 1.483-1.57 2.076-2.209a54.032 54.032 0 0 0 1.225-1.352c.423-.516.709-.933.857-1.251.148-.321.222-.649.222-.984 0-.528-.157-.943-.47-1.244-.309-.3-.734-.45-1.276-.45-.385 0-.789.069-1.212.209-.423.14-.872.351-1.346.635v-1.295a6.996 6.996 0 0 1 1.282-.47c.424-.106.84-.158 1.251-.158.927 0 1.671.247 2.234.742.567.491.851 1.136.851 1.936 0 .407-.095.813-.286 1.219-.186.406-.491.855-.914 1.346-.237.275-.582.656-1.035 1.142-.448.487-1.134 1.215-2.056 2.184Zm10.391-3.993c.622.165 1.098.459 1.428.883.33.418.495.943.495 1.574 0 .872-.294 1.557-.882 2.056-.584.496-1.394.743-2.431.743-.436 0-.88-.04-1.333-.121a8.461 8.461 0 0 1-1.333-.349v-1.276c.431.225.857.392 1.276.502.419.11.835.165 1.25.165.703 0 1.242-.159 1.619-.476.376-.317.565-.775.565-1.371 0-.55-.189-.986-.565-1.308-.377-.326-.887-.489-1.53-.489h-.977v-1.053h.977c.588 0 1.047-.129 1.377-.387.331-.259.496-.618.496-1.08 0-.486-.155-.859-.464-1.117-.304-.262-.74-.393-1.307-.393-.377 0-.766.042-1.168.127a8.278 8.278 0 0 0-1.264.38v-1.18c.512-.136.967-.237 1.365-.305a6.477 6.477 0 0 1 1.067-.101c.922 0 1.658.232 2.209.698.554.461.831 1.075.831 1.841 0 .52-.146.954-.438 1.301-.288.347-.709.592-1.263.736Zm5.275 3.993h4.354V153h-5.757v-1.079c.791-.834 1.483-1.57 2.076-2.209a54.032 54.032 0 0 0 1.225-1.352c.423-.516.709-.933.857-1.251.148-.321.222-.649.222-.984 0-.528-.157-.943-.47-1.244-.309-.3-.734-.45-1.276-.45-.385 0-.789.069-1.212.209-.423.14-.872.351-1.346.635v-1.295a6.996 6.996 0 0 1 1.282-.47c.424-.106.84-.158 1.251-.158.927 0 1.671.247 2.234.742.567.491.851 1.136.851 1.936 0 .407-.095.813-.286 1.219-.186.406-.491.855-.914 1.346a43.6 43.6 0 0 1-1.034 1.142c-.449.487-1.135 1.215-2.057 2.184Zm7.934-1.485h2.235V153h-2.235v-2.564Zm7.078 1.491h1.993v-7.16l-2.386 1.149v-1.231l2.374-1.13h1.282v8.372h1.968V153h-5.231v-1.073Zm7.833 0h1.993v-7.16l-2.386 1.149v-1.231l2.374-1.13h1.282v8.372h1.968V153h-5.231v-1.073Zm9.902-3.129c.546 0 .974-.197 1.283-.59.313-.394.469-.938.469-1.632s-.156-1.238-.469-1.631c-.309-.394-.737-.591-1.283-.591-.567 0-.994.189-1.282.565-.288.373-.431.925-.431 1.657 0 .736.141 1.291.425 1.663.288.373.717.559 1.288.559Zm-2.285 4.005v-1.18c.267.156.55.277.851.361.3.081.613.121.939.121.813 0 1.426-.305 1.841-.914.419-.614.629-1.515.629-2.704a2.268 2.268 0 0 1-.838.977c-.36.225-.773.337-1.238.337-.914 0-1.623-.282-2.127-.844-.499-.563-.749-1.361-.749-2.394 0-1.019.256-1.809.768-2.367.517-.563 1.245-.844 2.184-.844 1.1 0 1.906.395 2.418 1.187.513.791.769 2.035.769 3.732 0 1.595-.309 2.814-.927 3.656-.614.838-1.507 1.257-2.679 1.257-.309 0-.62-.034-.933-.101a4.822 4.822 0 0 1-.908-.28Zm8.804-2.367h2.235V153h-2.235v-2.564Zm7.078 1.491h1.993v-7.16l-2.386 1.149v-1.231l2.374-1.13h1.282v8.372h1.968V153h-5.231v-1.073Zm7.433-8.404h4.799v1.079h-3.631v2.33c.182-.068.364-.117.546-.146a3.1 3.1 0 0 1 .559-.051c.981 0 1.76.29 2.336.869.575.58.863 1.365.863 2.355 0 .999-.303 1.786-.908 2.362-.601.575-1.424.863-2.469.863a8.79 8.79 0 0 1-1.384-.101 5.143 5.143 0 0 1-1.117-.305v-1.301c.389.211.781.37 1.174.476.394.101.796.152 1.206.152.707 0 1.251-.186 1.632-.559.385-.372.577-.901.577-1.587 0-.677-.199-1.203-.596-1.58-.394-.377-.944-.565-1.651-.565-.343 0-.677.04-1.003.121a3.846 3.846 0 0 0-.933.349v-4.761Zm10.302 5.275c.546 0 .974-.197 1.283-.59.313-.394.469-.938.469-1.632s-.156-1.238-.469-1.631c-.309-.394-.737-.591-1.283-.591-.567 0-.994.189-1.282.565-.288.373-.431.925-.431 1.657 0 .736.141 1.291.425 1.663.288.373.717.559 1.288.559Zm-2.285 4.005v-1.18c.267.156.55.277.851.361.3.081.613.121.939.121.813 0 1.426-.305 1.841-.914.419-.614.629-1.515.629-2.704a2.268 2.268 0 0 1-.838.977c-.36.225-.773.337-1.238.337-.914 0-1.623-.282-2.127-.844-.499-.563-.749-1.361-.749-2.394 0-1.019.256-1.809.768-2.367.517-.563 1.245-.844 2.184-.844 1.1 0 1.906.395 2.419 1.187.512.791.768 2.035.768 3.732 0 1.595-.309 2.814-.927 3.656-.614.838-1.507 1.257-2.679 1.257-.309 0-.62-.034-.933-.101a4.822 4.822 0 0 1-.908-.28Zm11.978-9.28h1.206l-4.989 10.683h-1.212l4.995-10.683Zm8.938-.4v.971h-1.327c-.419 0-.711.087-.876.26-.161.17-.241.472-.241.908v.629h2.444v.907h-2.444V153h-1.168v-6.202h-1.898v-.907h1.898v-.495c0-.779.178-1.353.533-1.721.36-.368.919-.552 1.676-.552h1.403Zm4.995 3.586c-.592 0-1.041.231-1.345.692-.305.462-.457 1.145-.457 2.051 0 .901.152 1.584.457 2.05.304.461.753.692 1.345.692.597 0 1.048-.231 1.352-.692.305-.466.458-1.149.458-2.05 0-.906-.153-1.589-.458-2.051-.304-.461-.755-.692-1.352-.692Zm0-.99c.986 0 1.74.32 2.26.959.525.639.787 1.563.787 2.774 0 1.214-.26 2.141-.78 2.78-.521.635-1.276.952-2.267.952-.986 0-1.739-.317-2.259-.952-.521-.639-.781-1.566-.781-2.78 0-1.211.26-2.135.781-2.774.52-.639 1.273-.959 2.259-.959Zm11.255 1.638a2.645 2.645 0 0 0-.762-.425 2.595 2.595 0 0 0-.85-.134c-.728 0-1.285.229-1.67.686-.385.457-.578 1.117-.578 1.98V153h-1.174v-7.109h1.174v1.39c.195-.504.493-.889.895-1.156.407-.27.887-.406 1.441-.406.288 0 .557.036.807.108.249.072.488.184.717.337v1.193Zm5.948 2.031c0-.876-.144-1.54-.432-1.993-.284-.457-.698-.686-1.244-.686-.571 0-1.007.229-1.308.686-.3.453-.451 1.117-.451 1.993 0 .876.151 1.545.451 2.006.305.457.745.686 1.32.686.538 0 .948-.231 1.232-.692.288-.462.432-1.128.432-2Zm1.168 3.155c0 1.066-.252 1.875-.756 2.425-.503.55-1.244.825-2.222.825-.321 0-.658-.03-1.009-.089a7.353 7.353 0 0 1-1.053-.26v-1.155a7.22 7.22 0 0 0 1.129.431c.339.093.65.14.933.14.631 0 1.09-.172 1.378-.514.288-.343.432-.887.432-1.632V151.87c-.187.398-.441.694-.762.889-.322.194-.713.292-1.174.292-.83 0-1.492-.332-1.987-.997-.495-.664-.743-1.553-.743-2.666 0-1.117.248-2.008.743-2.672.495-.665 1.157-.997 1.987-.997.457 0 .844.091 1.161.273.318.182.576.464.775.844v-.92h1.168v6.627Zm8.328-3.682v.572h-5.059v.038c-.034.969.15 1.665.552 2.088.406.423.977.635 1.714.635.372 0 .761-.059 1.168-.178.406-.118.84-.298 1.301-.539v1.161a7.529 7.529 0 0 1-1.289.406c-.41.094-.808.14-1.193.14-1.104 0-1.968-.33-2.59-.99-.622-.665-.933-1.579-.933-2.742 0-1.134.305-2.04.914-2.717s1.422-1.016 2.438-1.016c.905 0 1.618.307 2.139.921.525.613.804 1.354.838 2.221Zm-1.168-.342a2.238 2.238 0 0 0-.54-1.27c-.305-.36-.745-.54-1.32-.54-.563 0-1.026.187-1.39.559-.364.372-.563.791-.597 1.257l3.847-.006Zm8.48 1.022c0-.546-.135-.982-.406-1.308-.271-.33-.633-.495-1.086-.495-.452 0-.816.165-1.091.495-.271.326-.407.762-.407 1.308 0 .55.136.99.407 1.32.275.326.639.489 1.091.489.453 0 .815-.163 1.086-.489.271-.33.406-.77.406-1.32Zm.889 2.602h-.914v-.705a1.586 1.586 0 0 1-.654.616 1.98 1.98 0 0 1-.933.216 2.159 2.159 0 0 1-1.695-.768c-.444-.512-.666-1.166-.666-1.961 0-.796.222-1.45.666-1.962a2.159 2.159 0 0 1 1.695-.768c.338 0 .649.074.933.222.284.148.501.351.654.61v-.4c0-.66-.186-1.192-.559-1.594-.372-.402-.865-.603-1.479-.603-1.041 0-1.87.407-2.488 1.219-.614.808-.921 1.904-.921 3.288 0 1.392.35 2.501 1.048 3.326.698.826 1.654 1.24 2.869 1.245.229.033.55.05.965.05.415 0 .785-.008 1.111-.025v.914c-.275.021-.631.032-1.067.032a6.483 6.483 0 0 1-1.009-.051c-1.468-.013-2.647-.512-3.536-1.498-.884-.986-1.326-2.317-1.326-3.993 0-1.65.397-2.964 1.193-3.942.796-.977 1.862-1.466 3.199-1.466.885 0 1.591.281 2.12.844.529.563.794 1.318.794 2.266v4.888Zm2.069-.216h1.993v-7.16l-2.386 1.149v-1.231l2.374-1.13h1.282v8.372h1.968V153h-5.231v-1.073Zm8.487-.006h4.354V153h-5.757v-1.079c.792-.834 1.483-1.57 2.076-2.209a54.032 54.032 0 0 0 1.225-1.352c.423-.516.709-.933.857-1.251.148-.321.222-.649.222-.984 0-.528-.157-.943-.47-1.244-.309-.3-.734-.45-1.276-.45-.385 0-.789.069-1.212.209-.423.14-.872.351-1.346.635v-1.295a7.005 7.005 0 0 1 1.283-.47 5.13 5.13 0 0 1 1.25-.158c.927 0 1.672.247 2.234.742.567.491.851 1.136.851 1.936 0 .407-.095.813-.286 1.219-.186.406-.491.855-.914 1.346a43.6 43.6 0 0 1-1.034 1.142c-.449.487-1.134 1.215-2.057 2.184Zm6.348-8.398h5.966v.546L372.446 153h-1.34l3.301-8.398h-4.538v-1.079Zm9.42 6.913h2.234V153h-2.234v-2.564Zm9.273-7.053c1.012 0 1.776.413 2.292 1.238.521.825.781 2.046.781 3.663 0 1.616-.26 2.837-.781 3.662-.516.825-1.28 1.238-2.292 1.238-1.011 0-1.775-.413-2.291-1.238s-.774-2.046-.774-3.662c0-1.617.258-2.838.774-3.663.516-.825 1.28-1.238 2.291-1.238Zm0 8.785c.601 0 1.048-.319 1.34-.958.296-.639.444-1.614.444-2.926 0-.699-.042-1.329-.127-1.892l-3.021 4.729c.317.698.772 1.047 1.364 1.047Zm0-7.769c-.596 0-1.043.319-1.339.958-.292.639-.438 1.615-.438 2.927 0 .596.04 1.155.121 1.675l2.958-4.716c-.322-.563-.756-.844-1.302-.844Zm6.393 6.037h2.234V153h-2.234v-2.564ZM28.375 215h-3.142v-10.182h3.281c.988 0 1.833.204 2.536.612a4.001 4.001 0 0 1 1.616 1.745c.374.755.561 1.66.561 2.714 0 1.061-.189 1.974-.566 2.74a4.032 4.032 0 0 1-1.651 1.759c-.723.408-1.6.612-2.635.612Zm-1.91-1.094h1.83c.842 0 1.54-.162 2.093-.487a3.003 3.003 0 0 0 1.238-1.387c.272-.6.408-1.314.408-2.143 0-.822-.134-1.529-.403-2.123a2.972 2.972 0 0 0-1.203-1.372c-.533-.321-1.198-.482-1.993-.482h-1.97v7.994Zm11.555 1.253c-.637 0-1.198-.161-1.686-.482-.487-.325-.868-.782-1.143-1.372-.275-.594-.413-1.295-.413-2.103 0-.802.138-1.498.413-2.088.275-.59.658-1.046 1.148-1.368.491-.321 1.058-.482 1.7-.482.498 0 .89.083 1.179.249.292.162.514.348.666.557.156.205.277.374.363.507h.1v-1.213h1.173V215h-1.134v-1.173h-.139a7.55 7.55 0 0 1-.368.527c-.159.208-.386.396-.68.561-.296.163-.689.244-1.18.244Zm.159-1.054c.47 0 .868-.123 1.193-.368.325-.248.572-.591.74-1.029.17-.441.255-.949.255-1.526 0-.57-.083-1.069-.25-1.497-.165-.431-.41-.765-.735-1.004-.325-.242-.726-.363-1.203-.363-.497 0-.912.128-1.243.383a2.293 2.293 0 0 0-.74 1.029 4.093 4.093 0 0 0-.244 1.452c0 .543.083 1.037.248 1.481.17.441.418.792.746 1.054.332.259.742.388 1.233.388Zm8.974-6.741v.994h-3.958v-.994h3.958Zm-2.804-1.83h1.173v7.278c0 .332.048.581.144.746.1.163.226.272.378.328.156.053.32.08.492.08.13 0 .236-.007.318-.02l.2-.04.238 1.054c-.08.03-.19.06-.333.09a2.466 2.466 0 0 1-.542.049c-.331 0-.656-.071-.974-.213a1.938 1.938 0 0 1-.786-.652c-.205-.291-.308-.659-.308-1.103v-7.597Zm7.37 9.625c-.636 0-1.198-.161-1.685-.482-.487-.325-.869-.782-1.144-1.372-.275-.594-.412-1.295-.412-2.103 0-.802.137-1.498.412-2.088.275-.59.658-1.046 1.149-1.368.49-.321 1.057-.482 1.7-.482.497 0 .89.083 1.178.249.292.162.514.348.666.557.156.205.277.374.363.507h.1v-1.213h1.173V215h-1.133v-1.173h-.14a7.55 7.55 0 0 1-.367.527c-.16.208-.387.396-.682.561-.295.163-.687.244-1.178.244Zm.16-1.054c.47 0 .868-.123 1.192-.368.325-.248.572-.591.741-1.029.17-.441.254-.949.254-1.526 0-.57-.083-1.069-.249-1.497-.166-.431-.41-.765-.736-1.004-.325-.242-.726-.363-1.203-.363-.497 0-.911.128-1.243.383a2.294 2.294 0 0 0-.74 1.029 4.093 4.093 0 0 0-.244 1.452c0 .543.083 1.037.248 1.481.17.441.418.792.746 1.054.332.259.743.388 1.233.388Zm5.811.895v-10.182h1.173v3.759h.1c.086-.133.205-.302.358-.507a2.09 2.09 0 0 1 .666-.557c.291-.166.686-.249 1.183-.249.643 0 1.21.161 1.7.482.49.322.874.778 1.149 1.368.275.59.412 1.286.412 2.088 0 .808-.137 1.509-.412 2.103-.275.59-.656 1.047-1.144 1.372-.487.321-1.049.482-1.685.482-.49 0-.883-.081-1.178-.244a2.183 2.183 0 0 1-.681-.561 7.55 7.55 0 0 1-.368-.527h-.14V215H57.69Zm1.153-3.818c0 .577.085 1.085.254 1.526.169.438.416.781.74 1.029.325.245.723.368 1.194.368.49 0 .9-.129 1.228-.388.331-.262.58-.613.746-1.054.169-.444.253-.938.253-1.481a4.02 4.02 0 0 0-.248-1.452 2.244 2.244 0 0 0-.741-1.029c-.328-.255-.74-.383-1.238-.383-.477 0-.878.121-1.203.363-.325.239-.57.573-.736 1.004-.166.428-.249.927-.249 1.497Zm10.267 3.977c-.637 0-1.198-.161-1.686-.482-.487-.325-.868-.782-1.143-1.372-.275-.594-.413-1.295-.413-2.103 0-.802.138-1.498.413-2.088.275-.59.658-1.046 1.148-1.368.49-.321 1.058-.482 1.7-.482.498 0 .89.083 1.179.249.292.162.514.348.666.557a8.7 8.7 0 0 1 .363.507h.1v-1.213h1.173V215h-1.134v-1.173h-.139a7.55 7.55 0 0 1-.368.527c-.159.208-.386.396-.681.561-.295.163-.688.244-1.178.244Zm.159-1.054c.47 0 .868-.123 1.193-.368.325-.248.572-.591.74-1.029.17-.441.254-.949.254-1.526 0-.57-.082-1.069-.248-1.497-.166-.431-.411-.765-.736-1.004-.325-.242-.726-.363-1.203-.363-.497 0-.912.128-1.243.383a2.293 2.293 0 0 0-.74 1.029 4.093 4.093 0 0 0-.245 1.452c0 .543.083 1.037.25 1.481.168.441.417.792.745 1.054.331.259.742.388 1.233.388Zm11.062-5.031-1.054.298a1.956 1.956 0 0 0-.294-.512 1.431 1.431 0 0 0-.517-.418c-.218-.109-.499-.164-.84-.164-.467 0-.857.108-1.168.324-.308.212-.463.482-.463.81 0 .292.106.522.319.691.212.169.543.31.994.423l1.133.278c.683.166 1.192.419 1.527.761.334.338.502.774.502 1.307 0 .438-.126.829-.378 1.173-.249.345-.597.617-1.044.816-.448.199-.968.298-1.561.298-.779 0-1.424-.169-1.934-.507-.51-.338-.834-.832-.97-1.482l1.114-.278c.106.411.307.719.602.925.298.205.687.308 1.168.308.547 0 .981-.116 1.302-.348.325-.235.488-.517.488-.845a.888.888 0 0 0-.279-.666c-.185-.183-.47-.319-.855-.408l-1.273-.298c-.699-.166-1.213-.423-1.54-.771-.326-.351-.488-.79-.488-1.317 0-.431.121-.812.363-1.144a2.474 2.474 0 0 1 1-.78 3.507 3.507 0 0 1 1.441-.284c.756 0 1.349.166 1.78.497.434.332.742.769.925 1.313Zm5.107 6.085c-.736 0-1.37-.162-1.904-.487a3.273 3.273 0 0 1-1.228-1.372c-.285-.59-.428-1.276-.428-2.059 0-.782.142-1.471.428-2.068.288-.6.689-1.067 1.203-1.402.517-.338 1.12-.507 1.81-.507.397 0 .79.066 1.178.199.387.133.74.348 1.059.646.318.295.571.686.76 1.174.19.487.284 1.087.284 1.799v.498h-5.887v-1.015h4.693a2.5 2.5 0 0 0-.258-1.153 1.944 1.944 0 0 0-.726-.8c-.311-.196-.68-.294-1.104-.294-.467 0-.871.116-1.213.348a2.29 2.29 0 0 0-.78.895 2.628 2.628 0 0 0-.274 1.183v.676c0 .577.1 1.066.299 1.467.202.398.482.701.84.91.358.205.774.308 1.248.308.308 0 .586-.043.835-.129a1.79 1.79 0 0 0 .651-.398c.182-.179.323-.401.423-.666l1.133.318c-.119.385-.32.723-.601 1.014-.282.289-.63.514-1.044.676-.415.16-.88.239-1.397.239Zm11.986 0c-.716 0-1.332-.169-1.85-.507a3.306 3.306 0 0 1-1.192-1.397c-.279-.593-.418-1.271-.418-2.033 0-.776.142-1.46.427-2.054a3.385 3.385 0 0 1 1.204-1.397c.517-.338 1.12-.507 1.81-.507.536 0 1.02.1 1.451.298.43.199.784.478 1.059.836a2.6 2.6 0 0 1 .512 1.253h-1.173c-.09-.348-.289-.657-.597-.925-.305-.272-.716-.408-1.233-.408-.457 0-.858.119-1.203.358-.341.235-.608.569-.8.999-.19.428-.284.93-.284 1.507 0 .59.093 1.104.279 1.541.189.438.454.777.795 1.019.345.242.75.363 1.213.363.305 0 .582-.053.83-.159.249-.106.46-.258.632-.457s.295-.438.368-.716h1.173c-.066.45-.23.856-.492 1.218a2.748 2.748 0 0 1-1.03.855c-.424.209-.917.313-1.48.313Zm7.82 0c-.689 0-1.294-.164-1.814-.492a3.338 3.338 0 0 1-1.213-1.377c-.289-.59-.433-1.28-.433-2.068 0-.796.144-1.49.433-2.084a3.34 3.34 0 0 1 1.213-1.382c.52-.328 1.125-.492 1.814-.492.69 0 1.293.164 1.81.492.521.329.925.789 1.213 1.382.292.594.438 1.288.438 2.084 0 .788-.146 1.478-.438 2.068a3.29 3.29 0 0 1-1.213 1.377c-.517.328-1.12.492-1.81.492Zm0-1.054c.524 0 .955-.134 1.293-.403.338-.268.588-.621.751-1.059.162-.437.243-.911.243-1.421 0-.511-.081-.986-.243-1.427a2.411 2.411 0 0 0-.751-1.069c-.338-.272-.769-.408-1.293-.408-.523 0-.954.136-1.292.408a2.411 2.411 0 0 0-.751 1.069 4.104 4.104 0 0 0-.243 1.427c0 .51.081.984.243 1.421.163.438.413.791.751 1.059.338.269.769.403 1.292.403Zm6.425-3.699V215h-1.173v-7.636h1.133v1.193h.1c.179-.388.45-.7.815-.935.365-.238.835-.358 1.412-.358.517 0 .969.106 1.357.318.388.209.69.527.905.955.215.424.323.961.323 1.611V215h-1.173v-4.773c0-.6-.156-1.067-.467-1.402-.312-.338-.74-.507-1.283-.507-.375 0-.709.081-1.004.244a1.736 1.736 0 0 0-.691.711c-.169.311-.254.689-.254 1.133Zm10.417-3.042v.994h-4.117v-.994h4.117ZM119.202 215v-8.69c0-.438.103-.802.308-1.094.206-.292.473-.511.801-.656a2.525 2.525 0 0 1 1.039-.219 2.709 2.709 0 0 1 1.114.199l-.338 1.014a5.995 5.995 0 0 0-.249-.075 1.55 1.55 0 0 0-.408-.044c-.388 0-.668.097-.84.293-.169.196-.253.482-.253.86V215h-1.174Zm4.528 0v-7.636h1.173V215h-1.173Zm.597-8.909a.834.834 0 0 1-.592-.234.753.753 0 0 1-.244-.562.75.75 0 0 1 .244-.561.834.834 0 0 1 .592-.234c.228 0 .424.078.586.234a.741.741 0 0 1 .249.561.744.744 0 0 1-.249.562.815.815 0 0 1-.586.234Zm5.808 11.932c-.567 0-1.054-.073-1.462-.219a3.096 3.096 0 0 1-1.019-.567 3.07 3.07 0 0 1-.641-.746l.934-.656c.106.139.241.299.403.477.162.183.384.34.666.473.285.136.658.204 1.119.204.616 0 1.125-.15 1.526-.448.401-.298.602-.765.602-1.402v-1.551h-.1a6.255 6.255 0 0 1-.368.517c-.155.202-.381.383-.676.542-.292.156-.686.234-1.183.234-.617 0-1.17-.146-1.661-.438-.487-.291-.873-.716-1.158-1.273-.282-.556-.423-1.233-.423-2.028 0-.782.138-1.463.413-2.043.275-.584.658-1.034 1.149-1.353.49-.321 1.057-.482 1.7-.482.497 0 .891.083 1.183.249.295.162.52.348.676.557.159.205.282.374.368.507h.119v-1.213h1.134v7.855c0 .656-.149 1.19-.448 1.601a2.544 2.544 0 0 1-1.193.909 4.489 4.489 0 0 1-1.66.294Zm-.04-4.196c.471 0 .868-.108 1.193-.323.325-.216.572-.526.741-.93.169-.404.253-.888.253-1.452 0-.55-.082-1.036-.248-1.457a2.192 2.192 0 0 0-.736-.989c-.325-.239-.726-.358-1.203-.358-.497 0-.911.126-1.243.378-.328.252-.575.59-.741 1.014a3.93 3.93 0 0 0-.243 1.412c0 .53.083.999.248 1.407.169.404.418.723.746.955.331.228.742.343 1.233.343Zm10.301-1.949v-4.514h1.173V215h-1.173v-1.293h-.079a2.508 2.508 0 0 1-.836.99c-.377.268-.855.402-1.431.402-.478 0-.902-.104-1.273-.313a2.192 2.192 0 0 1-.875-.954c-.212-.428-.318-.966-.318-1.616v-4.852h1.173v4.772c0 .557.156 1.001.467 1.333.315.331.716.497 1.203.497.292 0 .589-.075.89-.224.305-.149.56-.378.766-.686.209-.308.313-.701.313-1.178Zm3.322 3.122v-7.636h1.134v1.153h.079c.136-.378.387-.684.751-.92a2.236 2.236 0 0 1 1.238-.353c.212 0 .398.025.557.075.159.05.298.118.418.204l-.398.994a1.127 1.127 0 0 0-.294-.099 1.6 1.6 0 0 0-.382-.04c-.372 0-.703.078-.995.234a1.804 1.804 0 0 0-.686.636 1.72 1.72 0 0 0-.248.92V215h-1.174Zm8.025.159c-.637 0-1.199-.161-1.686-.482-.487-.325-.868-.782-1.143-1.372-.275-.594-.413-1.295-.413-2.103 0-.802.138-1.498.413-2.088.275-.59.658-1.046 1.148-1.368.491-.321 1.057-.482 1.7-.482.498 0 .89.083 1.179.249.291.162.513.348.666.557.156.205.277.374.363.507h.099v-1.213h1.174V215h-1.134v-1.173h-.139a7.523 7.523 0 0 1-.368.527 2.182 2.182 0 0 1-.681.561c-.295.163-.688.244-1.178.244Zm.159-1.054c.47 0 .868-.123 1.193-.368.325-.248.572-.591.741-1.029.169-.441.253-.949.253-1.526 0-.57-.083-1.069-.248-1.497-.166-.431-.411-.765-.736-1.004-.325-.242-.726-.363-1.203-.363-.498 0-.912.128-1.243.383a2.296 2.296 0 0 0-.741 1.029 4.102 4.102 0 0 0-.244 1.452c0 .543.083 1.037.249 1.481.169.441.418.792.746 1.054.331.259.742.388 1.233.388Zm8.973-6.741v.994h-3.957v-.994h3.957Zm-2.804-1.83h1.174v7.278c0 .332.048.581.144.746a.739.739 0 0 0 .378.328c.155.053.32.08.492.08.129 0 .235-.007.318-.02l.199-.04.239 1.054c-.08.03-.191.06-.334.09a2.459 2.459 0 0 1-.541.049c-.332 0-.657-.071-.975-.213a1.931 1.931 0 0 1-.785-.652c-.206-.291-.309-.659-.309-1.103v-7.597ZM162.64 215v-7.636h1.174V215h-1.174Zm.597-8.909a.834.834 0 0 1-.592-.234.752.752 0 0 1-.243-.562.75.75 0 0 1 .243-.561.834.834 0 0 1 .592-.234c.229 0 .424.078.587.234a.744.744 0 0 1 .248.561.746.746 0 0 1-.248.562.818.818 0 0 1-.587.234Zm5.828 9.068c-.69 0-1.294-.164-1.815-.492a3.345 3.345 0 0 1-1.213-1.377c-.288-.59-.432-1.28-.432-2.068 0-.796.144-1.49.432-2.084a3.347 3.347 0 0 1 1.213-1.382c.521-.328 1.125-.492 1.815-.492.689 0 1.292.164 1.809.492a3.3 3.3 0 0 1 1.214 1.382c.291.594.437 1.288.437 2.084 0 .788-.146 1.478-.437 2.068a3.299 3.299 0 0 1-1.214 1.377c-.517.328-1.12.492-1.809.492Zm0-1.054c.523 0 .954-.134 1.292-.403.338-.268.589-.621.751-1.059.163-.437.244-.911.244-1.421 0-.511-.081-.986-.244-1.427a2.403 2.403 0 0 0-.751-1.069c-.338-.272-.769-.408-1.292-.408-.524 0-.955.136-1.293.408a2.411 2.411 0 0 0-.751 1.069 4.104 4.104 0 0 0-.243 1.427c0 .51.081.984.243 1.421.163.438.413.791.751 1.059.338.269.769.403 1.293.403Zm6.424-3.699V215h-1.173v-7.636h1.134v1.193h.099c.179-.388.451-.7.815-.935.365-.238.836-.358 1.412-.358.517 0 .97.106 1.358.318.387.209.689.527.904.955.216.424.324.961.324 1.611V215h-1.174v-4.773c0-.6-.156-1.067-.467-1.402-.312-.338-.739-.507-1.283-.507-.374 0-.709.081-1.004.244a1.736 1.736 0 0 0-.691.711c-.169.311-.254.689-.254 1.133Z"/><path fill="#8B918A" d="M25.145 239v-9.455h5.706v1.016H26.29v3.195h4.265v1.015H26.29v3.213h4.635V239h-5.78Zm10.3.148c-.592 0-1.113-.15-1.566-.448-.452-.302-.806-.726-1.061-1.274-.256-.551-.384-1.202-.384-1.953 0-.745.128-1.391.384-1.939.255-.548.61-.971 1.066-1.269.455-.299.982-.448 1.579-.448.461 0 .826.077 1.094.231.27.15.477.323.618.517.145.19.257.347.337.471h.093v-3.491h1.09V239h-1.053v-1.089h-.13c-.08.129-.194.292-.341.489a2.028 2.028 0 0 1-.633.522c-.274.15-.638.226-1.094.226Zm.147-.979c.437 0 .806-.114 1.108-.342.301-.23.53-.549.688-.955.157-.41.235-.882.235-1.417 0-.53-.077-.993-.23-1.39-.154-.4-.382-.711-.684-.933-.301-.224-.674-.337-1.117-.337-.462 0-.846.119-1.154.356a2.125 2.125 0 0 0-.688.956c-.15.4-.226.849-.226 1.348 0 .504.077.963.23 1.375.158.41.388.736.693.979.308.24.69.36 1.145.36Zm5.249.831v-7.091h1.09V239h-1.09Zm.554-8.273a.773.773 0 0 1-.55-.217.695.695 0 0 1-.226-.521c0-.203.076-.377.227-.522a.773.773 0 0 1 .549-.217c.212 0 .394.072.545.217.154.145.23.319.23.522a.688.688 0 0 1-.23.521.757.757 0 0 1-.545.217Zm5.615 1.182v.923h-3.675v-.923h3.675Zm-2.604-1.699h1.09v6.759c0 .308.044.538.133.692.093.151.21.253.351.305.145.049.297.074.457.074.12 0 .219-.006.296-.019l.184-.037.222.979a2.214 2.214 0 0 1-.31.083c-.132.031-.3.046-.503.046-.307 0-.609-.066-.904-.198a1.802 1.802 0 0 1-.73-.605c-.19-.271-.286-.612-.286-1.025v-7.054Zm8.6 11.449c-.184 0-.349-.015-.493-.046a1.306 1.306 0 0 1-.3-.083l.276-.96c.265.067.499.092.702.073a.839.839 0 0 0 .54-.272c.16-.16.306-.42.439-.78l.203-.554-2.622-7.128h1.182l1.957 5.651h.074l1.957-5.651h1.182l-3.01 8.125a3.09 3.09 0 0 1-.503.91c-.2.243-.433.423-.697.54a2.148 2.148 0 0 1-.886.175Zm9.162-2.511c-.64 0-1.202-.153-1.685-.457a3.107 3.107 0 0 1-1.127-1.279c-.267-.548-.401-1.188-.401-1.921 0-.738.134-1.383.401-1.934.271-.551.647-.979 1.127-1.283.483-.305 1.045-.457 1.685-.457.64 0 1.2.152 1.68.457.484.304.859.732 1.127 1.283.27.551.406 1.196.406 1.934 0 .733-.135 1.373-.406 1.921a3.064 3.064 0 0 1-1.127 1.279c-.48.304-1.04.457-1.68.457Zm0-.979c.486 0 .886-.125 1.2-.374.314-.249.546-.577.697-.983.151-.406.227-.847.227-1.321a3.8 3.8 0 0 0-.227-1.324 2.23 2.23 0 0 0-.697-.993c-.314-.252-.714-.379-1.2-.379s-.886.127-1.2.379a2.229 2.229 0 0 0-.698.993 3.8 3.8 0 0 0-.226 1.324c0 .474.076.915.227 1.321.15.406.383.734.697.983.313.249.714.374 1.2.374Zm9.345-2.068v-4.192h1.09V239h-1.09v-1.2h-.074c-.166.36-.425.666-.776.918-.35.25-.794.374-1.33.374-.442 0-.836-.097-1.181-.291a2.029 2.029 0 0 1-.813-.886c-.197-.397-.295-.897-.295-1.5v-4.506h1.09v4.432c0 .517.144.929.433 1.237.293.308.665.462 1.118.462.27 0 .546-.069.826-.208.283-.138.52-.351.71-.637.195-.286.292-.651.292-1.094ZM74.598 239v-7.091h1.052v1.071h.074c.126-.351.359-.635.697-.854a2.078 2.078 0 0 1 1.15-.328c.197 0 .37.023.517.07.148.046.277.109.388.189l-.37.923a1.5 1.5 0 0 0-.628-.129c-.344 0-.652.072-.923.217-.268.144-.48.341-.637.591-.154.249-.23.534-.23.854V239h-1.09Zm13.668-5.503-.979.277a1.821 1.821 0 0 0-.272-.475 1.316 1.316 0 0 0-.48-.388c-.203-.102-.463-.152-.78-.152-.434 0-.796.1-1.085.3-.287.197-.43.447-.43.752 0 .271.099.485.296.642.197.157.505.288.923.392l1.053.259c.634.154 1.106.389 1.417.706.31.314.466.719.466 1.214 0 .406-.117.77-.35 1.09-.231.32-.555.572-.97.757-.416.184-.899.277-1.45.277-.723 0-1.322-.157-1.796-.471-.473-.314-.773-.773-.9-1.376l1.034-.258c.099.381.285.667.559.858.277.191.639.287 1.085.287.508 0 .91-.108 1.21-.324.301-.218.452-.48.452-.784a.824.824 0 0 0-.259-.619c-.172-.169-.437-.296-.794-.379l-1.182-.277c-.649-.153-1.126-.392-1.43-.715-.302-.326-.453-.734-.453-1.224 0-.4.112-.754.337-1.061a2.29 2.29 0 0 1 .928-.725 3.25 3.25 0 0 1 1.339-.263c.701 0 1.252.154 1.652.461.404.308.69.714.859 1.219Zm4.742 5.651c-.683 0-1.272-.151-1.768-.453a3.03 3.03 0 0 1-1.14-1.274c-.265-.548-.397-1.185-.397-1.911s.132-1.367.397-1.921c.268-.557.64-.991 1.117-1.301.48-.314 1.04-.471 1.68-.471.37 0 .734.061 1.095.184.36.124.687.324.983.601.295.273.53.637.706 1.089.176.452.263 1.01.263 1.671v.462h-5.466v-.942h4.358c0-.4-.08-.757-.24-1.071a1.804 1.804 0 0 0-.674-.743 1.884 1.884 0 0 0-1.025-.273c-.434 0-.809.108-1.126.324a2.12 2.12 0 0 0-.725.831c-.169.341-.254.707-.254 1.098v.628c0 .536.093.99.277 1.362.188.369.448.651.78.845.333.191.72.286 1.16.286.285 0 .544-.04.775-.12a1.66 1.66 0 0 0 .605-.369c.169-.167.3-.373.392-.619l1.052.296c-.11.357-.296.67-.558.941a2.722 2.722 0 0 1-.97.628 3.59 3.59 0 0 1-1.297.222Zm4.594-.148v-7.091h1.052v1.071h.074a1.68 1.68 0 0 1 .697-.854 2.078 2.078 0 0 1 1.15-.328c.197 0 .369.023.517.07.147.046.277.109.387.189l-.369.923a1.504 1.504 0 0 0-.628-.129c-.344 0-.652.072-.923.217-.268.144-.48.341-.637.591-.154.249-.23.534-.23.854V239h-1.09Zm10.901-7.091L105.881 239h-1.108l-2.622-7.091h1.182l1.957 5.651h.074l1.958-5.651h1.181Zm4.158 7.239c-.684 0-1.273-.151-1.769-.453a3.034 3.034 0 0 1-1.14-1.274c-.264-.548-.397-1.185-.397-1.911s.133-1.367.397-1.921c.268-.557.64-.991 1.117-1.301.481-.314 1.041-.471 1.681-.471.369 0 .734.061 1.094.184.36.124.688.324.983.601.296.273.531.637.707 1.089.175.452.263 1.01.263 1.671v.462h-5.466v-.942h4.358c0-.4-.08-.757-.24-1.071a1.807 1.807 0 0 0-.674-.743 1.886 1.886 0 0 0-1.025-.273c-.434 0-.81.108-1.127.324a2.116 2.116 0 0 0-.724.831c-.17.341-.254.707-.254 1.098v.628c0 .536.092.99.277 1.362.187.369.447.651.78.845.332.191.718.286 1.159.286.286 0 .544-.04.775-.12.234-.083.436-.206.605-.369.169-.167.3-.373.392-.619l1.053.296a2.33 2.33 0 0 1-.559.941 2.713 2.713 0 0 1-.969.628 3.59 3.59 0 0 1-1.297.222Zm4.593-.148v-7.091h1.053v1.071h.073c.127-.351.359-.635.698-.854a2.074 2.074 0 0 1 1.149-.328c.197 0 .369.023.517.07.148.046.277.109.388.189l-.369.923a1.495 1.495 0 0 0-.628-.129c-.345 0-.653.072-.924.217-.267.144-.48.341-.637.591a1.59 1.59 0 0 0-.231.854V239h-1.089Zm5.931-9.455v3.25h-1.016v-3.25h1.016Zm6.963 3.952-.979.277a1.803 1.803 0 0 0-.272-.475 1.317 1.317 0 0 0-.48-.388c-.203-.102-.464-.152-.781-.152-.433 0-.795.1-1.084.3-.287.197-.43.447-.43.752 0 .271.099.485.296.642.197.157.504.288.923.392l1.053.259c.634.154 1.106.389 1.417.706.311.314.466.719.466 1.214 0 .406-.117.77-.351 1.09-.231.32-.554.572-.969.757-.416.184-.899.277-1.45.277-.723 0-1.322-.157-1.796-.471-.474-.314-.774-.773-.9-1.376l1.034-.258c.099.381.285.667.559.858.277.191.638.287 1.085.287.508 0 .911-.108 1.209-.324.302-.218.453-.48.453-.784a.826.826 0 0 0-.259-.619c-.172-.169-.437-.296-.794-.379l-1.182-.277c-.649-.153-1.126-.392-1.431-.715-.301-.326-.452-.734-.452-1.224 0-.4.112-.754.337-1.061a2.29 2.29 0 0 1 .928-.725c.394-.176.84-.263 1.338-.263.702 0 1.253.154 1.653.461.403.308.69.714.859 1.219Zm8.103 5.651c-.591 0-1.113-.15-1.565-.448-.453-.302-.806-.726-1.062-1.274-.255-.551-.383-1.202-.383-1.953 0-.745.128-1.391.383-1.939.256-.548.611-.971 1.067-1.269.455-.299.981-.448 1.578-.448.462 0 .827.077 1.094.231.271.15.477.323.619.517.145.19.257.347.337.471h.092v-3.491h1.09V239h-1.053v-1.089h-.129c-.08.129-.194.292-.342.489a2.017 2.017 0 0 1-.632.522c-.274.15-.639.226-1.094.226Zm.148-.979c.437 0 .806-.114 1.108-.342.301-.23.53-.549.687-.955.157-.41.236-.882.236-1.417 0-.53-.077-.993-.231-1.39-.154-.4-.382-.711-.683-.933-.302-.224-.674-.337-1.117-.337-.462 0-.847.119-1.155.356a2.13 2.13 0 0 0-.687.956c-.151.4-.227.849-.227 1.348 0 .504.077.963.231 1.375.157.41.388.736.693.979.307.24.689.36 1.145.36Zm7.926.979c-.591 0-1.112-.15-1.565-.448-.452-.302-.806-.726-1.062-1.274-.255-.551-.383-1.202-.383-1.953 0-.745.128-1.391.383-1.939.256-.548.611-.971 1.067-1.269.455-.299.982-.448 1.579-.448.461 0 .826.077 1.094.231.271.15.477.323.618.517.145.19.257.347.337.471h.093v-1.127h1.089V239h-1.052v-1.089h-.13c-.08.129-.194.292-.341.489a2.033 2.033 0 0 1-.633.522c-.274.15-.638.226-1.094.226Zm.148-.979c.437 0 .806-.114 1.108-.342.301-.23.531-.549.688-.955.157-.41.235-.882.235-1.417 0-.53-.077-.993-.231-1.39-.154-.4-.381-.711-.683-.933-.302-.224-.674-.337-1.117-.337-.462 0-.847.119-1.154.356a2.124 2.124 0 0 0-.688.956c-.151.4-.226.849-.226 1.348 0 .504.077.963.23 1.375.157.41.388.736.693.979.308.24.689.36 1.145.36Zm8.333-6.26v.923h-3.675v-.923h3.675Zm-2.604-1.699h1.089v6.759c0 .308.045.538.134.692.093.151.21.253.351.305.145.049.297.074.457.074a1.846 1.846 0 0 0 .48-.056l.222.979a2.232 2.232 0 0 1-.309.083 2.278 2.278 0 0 1-.504.046c-.307 0-.609-.066-.904-.198a1.8 1.8 0 0 1-.73-.605c-.191-.271-.286-.612-.286-1.025v-7.054Zm6.844 8.938c-.591 0-1.113-.15-1.565-.448-.453-.302-.807-.726-1.062-1.274-.255-.551-.383-1.202-.383-1.953 0-.745.128-1.391.383-1.939s.611-.971 1.066-1.269c.456-.299.982-.448 1.579-.448.462 0 .827.077 1.094.231.271.15.477.323.619.517.145.19.257.347.337.471h.092v-1.127h1.09V239h-1.053v-1.089h-.129c-.08.129-.194.292-.342.489a2.017 2.017 0 0 1-.632.522c-.274.15-.639.226-1.094.226Zm.148-.979c.437 0 .806-.114 1.107-.342.302-.23.531-.549.688-.955.157-.41.236-.882.236-1.417 0-.53-.077-.993-.231-1.39-.154-.4-.382-.711-.683-.933-.302-.224-.674-.337-1.117-.337-.462 0-.847.119-1.155.356a2.122 2.122 0 0 0-.687.956c-.151.4-.227.849-.227 1.348 0 .504.077.963.231 1.375.157.41.388.736.693.979.307.24.689.36 1.145.36Zm5.396.831v-9.455h1.09v3.491h.092a9.23 9.23 0 0 1 .332-.471 1.94 1.94 0 0 1 .619-.517c.271-.154.637-.231 1.099-.231.597 0 1.123.149 1.579.448.455.298.811.721 1.066 1.269.255.548.383 1.194.383 1.939 0 .751-.128 1.402-.383 1.953-.255.548-.609.972-1.062 1.274-.452.298-.974.448-1.565.448-.455 0-.82-.076-1.094-.226a2.017 2.017 0 0 1-.632-.522 6.989 6.989 0 0 1-.342-.489h-.129V239h-1.053Zm1.071-3.545c0 .535.079 1.007.236 1.417.157.406.386.725.688.955.301.228.67.342 1.107.342.456 0 .836-.12 1.141-.36.308-.243.538-.569.692-.979.157-.412.236-.871.236-1.375 0-.499-.077-.948-.231-1.348a2.08 2.08 0 0 0-.688-.956c-.305-.237-.688-.356-1.15-.356-.443 0-.815.113-1.117.337-.301.222-.529.533-.683.933-.154.397-.231.86-.231 1.39Zm9.533 3.693c-.591 0-1.112-.15-1.565-.448-.452-.302-.806-.726-1.062-1.274-.255-.551-.383-1.202-.383-1.953 0-.745.128-1.391.383-1.939.256-.548.611-.971 1.067-1.269.455-.299.982-.448 1.579-.448.461 0 .826.077 1.094.231.271.15.477.323.618.517.145.19.257.347.337.471h.093v-1.127h1.089V239h-1.052v-1.089h-.13c-.08.129-.193.292-.341.489a2.033 2.033 0 0 1-.633.522c-.274.15-.638.226-1.094.226Zm.148-.979c.437 0 .806-.114 1.108-.342.302-.23.531-.549.688-.955.157-.41.235-.882.235-1.417 0-.53-.077-.993-.231-1.39-.153-.4-.381-.711-.683-.933-.301-.224-.674-.337-1.117-.337-.462 0-.846.119-1.154.356a2.124 2.124 0 0 0-.688.956c-.151.4-.226.849-.226 1.348 0 .504.077.963.231 1.375.157.41.387.736.692.979.308.24.689.36 1.145.36Zm10.272-4.672-.979.277a1.831 1.831 0 0 0-.272-.475 1.313 1.313 0 0 0-.481-.388c-.203-.102-.463-.152-.78-.152-.434 0-.795.1-1.085.3-.286.197-.429.447-.429.752 0 .271.099.485.296.642.196.157.504.288.923.392l1.052.259c.634.154 1.107.389 1.418.706.31.314.466.719.466 1.214 0 .406-.117.77-.351 1.09-.231.32-.554.572-.969.757-.416.184-.899.277-1.45.277-.723 0-1.322-.157-1.796-.471-.474-.314-.774-.773-.9-1.376l1.034-.258c.099.381.285.667.559.858.277.191.638.287 1.085.287.507 0 .911-.108 1.209-.324.302-.218.452-.48.452-.784a.825.825 0 0 0-.258-.619c-.172-.169-.437-.296-.794-.379l-1.182-.277c-.649-.153-1.126-.392-1.431-.715-.302-.326-.452-.734-.452-1.224 0-.4.112-.754.337-1.061.227-.308.537-.55.927-.725a3.252 3.252 0 0 1 1.339-.263c.702 0 1.253.154 1.653.461.403.308.689.714.859 1.219Zm4.742 5.651c-.683 0-1.273-.151-1.768-.453a3.021 3.021 0 0 1-1.14-1.274c-.265-.548-.397-1.185-.397-1.911s.132-1.367.397-1.921a3.12 3.12 0 0 1 1.117-1.301c.48-.314 1.04-.471 1.68-.471.369 0 .734.061 1.094.184.36.124.688.324.984.601.295.273.53.637.706 1.089.175.452.263 1.01.263 1.671v.462h-5.466v-.942h4.358c0-.4-.08-.757-.24-1.071a1.807 1.807 0 0 0-.674-.743 1.884 1.884 0 0 0-1.025-.273c-.434 0-.809.108-1.126.324a2.118 2.118 0 0 0-.725.831 2.44 2.44 0 0 0-.254 1.098v.628c0 .536.092.99.277 1.362.188.369.448.651.78.845.333.191.719.286 1.159.286.286 0 .545-.04.775-.12.234-.083.436-.206.605-.369.17-.167.3-.373.393-.619l1.052.296a2.34 2.34 0 0 1-.558.941 2.726 2.726 0 0 1-.97.628 3.59 3.59 0 0 1-1.297.222Zm11.13 0c-.665 0-1.237-.157-1.717-.471a3.065 3.065 0 0 1-1.108-1.297c-.259-.551-.388-1.181-.388-1.889 0-.72.133-1.355.397-1.906.268-.554.64-.987 1.117-1.297.48-.314 1.041-.471 1.681-.471.498 0 .948.092 1.348.277.4.184.728.443.983.775.256.333.414.72.476 1.164h-1.09a1.69 1.69 0 0 0-.554-.859c-.283-.252-.665-.379-1.145-.379-.424 0-.797.111-1.117.333a2.159 2.159 0 0 0-.743.928c-.176.397-.263.863-.263 1.399 0 .547.086 1.024.258 1.431.176.406.422.721.739.946.32.225.695.337 1.126.337.283 0 .54-.049.771-.148.231-.098.426-.24.586-.424.161-.185.274-.407.342-.665h1.09a2.535 2.535 0 0 1-.457 1.131c-.24.332-.559.597-.956.794-.394.194-.853.291-1.376.291Zm7.262 0c-.64 0-1.202-.153-1.685-.457a3.1 3.1 0 0 1-1.126-1.279c-.268-.548-.402-1.188-.402-1.921 0-.738.134-1.383.402-1.934.27-.551.646-.979 1.126-1.283.483-.305 1.045-.457 1.685-.457.64 0 1.2.152 1.68.457.484.304.859.732 1.127 1.283.271.551.406 1.196.406 1.934 0 .733-.135 1.373-.406 1.921a3.061 3.061 0 0 1-1.127 1.279c-.48.304-1.04.457-1.68.457Zm0-.979c.486 0 .886-.125 1.2-.374.314-.249.547-.577.697-.983.151-.406.227-.847.227-1.321 0-.473-.076-.915-.227-1.324a2.222 2.222 0 0 0-.697-.993c-.314-.252-.714-.379-1.2-.379s-.886.127-1.2.379a2.222 2.222 0 0 0-.697.993 3.796 3.796 0 0 0-.227 1.324c0 .474.076.915.227 1.321.15.406.383.734.697.983.314.249.714.374 1.2.374Zm5.966-3.435V239h-1.09v-7.091h1.053v1.108h.092a2.03 2.03 0 0 1 .757-.868c.339-.221.776-.332 1.311-.332.48 0 .9.098 1.26.295.361.194.641.49.841.887.2.394.3.892.3 1.495V239h-1.09v-4.432c0-.557-.144-.991-.434-1.302-.289-.314-.686-.471-1.191-.471-.348 0-.658.076-.932.227-.271.15-.485.371-.642.66-.157.289-.235.64-.235 1.052Zm9.672-2.825v.923h-3.822v-.923h3.822ZM221.709 239v-8.07c0-.406.095-.744.286-1.015.191-.271.439-.474.743-.61.305-.135.626-.203.965-.203a2.521 2.521 0 0 1 1.034.185l-.314.942a4.593 4.593 0 0 0-.231-.07 1.424 1.424 0 0 0-.378-.041c-.36 0-.62.091-.78.272-.157.182-.236.448-.236.799V239h-1.089Zm4.204 0v-7.091h1.09V239h-1.09Zm.554-8.273a.773.773 0 0 1-.549-.217.694.694 0 0 1-.226-.521c0-.203.075-.377.226-.522a.773.773 0 0 1 .549-.217c.213 0 .394.072.545.217a.692.692 0 0 1 .231.522.688.688 0 0 1-.231.521.757.757 0 0 1-.545.217Zm5.393 11.08c-.526 0-.978-.068-1.357-.203a2.884 2.884 0 0 1-.946-.527 2.866 2.866 0 0 1-.596-.692l.868-.609c.099.129.223.277.374.443.151.169.357.315.619.438.264.126.611.19 1.038.19.573 0 1.045-.139 1.418-.416.372-.277.558-.711.558-1.302v-1.44h-.092c-.08.129-.194.289-.342.48a1.917 1.917 0 0 1-.628.503c-.27.145-.637.217-1.098.217a2.955 2.955 0 0 1-1.542-.406c-.453-.271-.811-.665-1.076-1.182-.261-.517-.392-1.145-.392-1.883 0-.727.127-1.359.383-1.898.255-.541.611-.96 1.066-1.255.456-.299.982-.448 1.579-.448.462 0 .828.077 1.099.231.274.15.483.323.628.517.147.19.261.347.341.471h.111v-1.127h1.053v7.294c0 .609-.139 1.105-.416 1.487a2.365 2.365 0 0 1-1.108.844 4.167 4.167 0 0 1-1.542.273Zm-.037-3.896c.437 0 .807-.101 1.108-.301.302-.2.531-.487.688-.863.157-.375.236-.825.236-1.348 0-.511-.077-.962-.231-1.352a2.031 2.031 0 0 0-.683-.919c-.302-.222-.674-.333-1.118-.333-.461 0-.846.117-1.154.351a2.144 2.144 0 0 0-.688.942c-.15.394-.226.831-.226 1.311 0 .493.077.928.231 1.307a2 2 0 0 0 .693.886c.307.212.689.319 1.144.319Zm9.566-1.81v-4.192h1.089V239h-1.089v-1.2h-.074a2.32 2.32 0 0 1-.776.918c-.351.25-.794.374-1.329.374a2.37 2.37 0 0 1-1.182-.291 2.028 2.028 0 0 1-.813-.886c-.197-.397-.295-.897-.295-1.5v-4.506h1.089v4.432c0 .517.145.929.434 1.237.293.308.665.462 1.118.462.27 0 .546-.069.826-.208.283-.138.52-.351.711-.637.194-.286.291-.651.291-1.094Zm3.085 2.899v-7.091h1.052v1.071h.074a1.68 1.68 0 0 1 .697-.854 2.08 2.08 0 0 1 1.15-.328c.197 0 .369.023.517.07.148.046.277.109.388.189l-.37.923a1.504 1.504 0 0 0-.628-.129c-.344 0-.652.072-.923.217-.268.144-.48.341-.637.591a1.59 1.59 0 0 0-.231.854V239h-1.089Zm7.451.148c-.591 0-1.113-.15-1.565-.448-.453-.302-.807-.726-1.062-1.274-.256-.551-.383-1.202-.383-1.953 0-.745.127-1.391.383-1.939.255-.548.611-.971 1.066-1.269.456-.299.982-.448 1.579-.448.462 0 .827.077 1.094.231.271.15.477.323.619.517.145.19.257.347.337.471h.092v-1.127h1.09V239h-1.053v-1.089h-.129c-.08.129-.194.292-.342.489a2.017 2.017 0 0 1-.632.522c-.274.15-.639.226-1.094.226Zm.147-.979c.437 0 .807-.114 1.108-.342.302-.23.531-.549.688-.955.157-.41.236-.882.236-1.417 0-.53-.077-.993-.231-1.39-.154-.4-.382-.711-.683-.933-.302-.224-.674-.337-1.118-.337-.461 0-.846.119-1.154.356a2.131 2.131 0 0 0-.688.956c-.15.4-.226.849-.226 1.348 0 .504.077.963.231 1.375.157.41.388.736.693.979.307.24.689.36 1.144.36Zm8.333-6.26v.923h-3.675v-.923h3.675Zm-2.604-1.699h1.09v6.759c0 .308.045.538.134.692a.69.69 0 0 0 .351.305c.144.049.297.074.457.074.12 0 .218-.006.295-.019l.185-.037.221.979a2.193 2.193 0 0 1-.309.083c-.132.031-.3.046-.503.046a2.2 2.2 0 0 1-.905-.198 1.804 1.804 0 0 1-.729-.605c-.191-.271-.287-.612-.287-1.025v-7.054Zm4.243 8.79v-7.091h1.09V239h-1.09Zm.554-8.273a.773.773 0 0 1-.549-.217.695.695 0 0 1-.227-.521c0-.203.076-.377.227-.522a.773.773 0 0 1 .549-.217c.212 0 .394.072.545.217a.692.692 0 0 1 .231.522.688.688 0 0 1-.231.521.759.759 0 0 1-.545.217Zm5.412 8.421c-.64 0-1.202-.153-1.685-.457a3.11 3.11 0 0 1-1.127-1.279c-.268-.548-.401-1.188-.401-1.921 0-.738.133-1.383.401-1.934a3.096 3.096 0 0 1 1.127-1.283c.483-.305 1.045-.457 1.685-.457.64 0 1.2.152 1.68.457.483.304.859.732 1.126 1.283.271.551.407 1.196.407 1.934 0 .733-.136 1.373-.407 1.921a3.06 3.06 0 0 1-1.126 1.279c-.48.304-1.04.457-1.68.457Zm0-.979c.486 0 .886-.125 1.2-.374.314-.249.546-.577.697-.983.151-.406.226-.847.226-1.321 0-.473-.075-.915-.226-1.324a2.23 2.23 0 0 0-.697-.993c-.314-.252-.714-.379-1.2-.379-.487 0-.887.127-1.201.379a2.23 2.23 0 0 0-.697.993 3.796 3.796 0 0 0-.226 1.324c0 .474.075.915.226 1.321.151.406.383.734.697.983.314.249.714.374 1.201.374Zm5.965-3.435V239h-1.089v-7.091h1.052v1.108h.093c.166-.36.418-.649.757-.868.338-.221.775-.332 1.311-.332.48 0 .9.098 1.26.295.36.194.64.49.84.887.2.394.3.892.3 1.495V239h-1.089v-4.432c0-.557-.145-.991-.434-1.302-.289-.314-.686-.471-1.191-.471a1.9 1.9 0 0 0-.933.227c-.27.15-.484.371-.641.66-.157.289-.236.64-.236 1.052Zm13.329-2.825v.923h-3.822v-.923h3.822ZM284.627 239v-8.07c0-.406.095-.744.286-1.015.191-.271.438-.474.743-.61.305-.135.626-.203.965-.203a2.521 2.521 0 0 1 1.034.185l-.314.942a4.593 4.593 0 0 0-.231-.07 1.424 1.424 0 0 0-.378-.041c-.36 0-.62.091-.78.272-.157.182-.236.448-.236.799V239h-1.089Zm4.204 0v-7.091h1.09V239h-1.09Zm.554-8.273a.773.773 0 0 1-.549-.217.694.694 0 0 1-.226-.521c0-.203.075-.377.226-.522a.773.773 0 0 1 .549-.217c.212 0 .394.072.545.217a.692.692 0 0 1 .231.522.688.688 0 0 1-.231.521.759.759 0 0 1-.545.217Zm2.531-1.182h1.09v7.608c0 .345.038.587.115.725.077.139.235.205.476.199a2.14 2.14 0 0 0 .286-.028 3.57 3.57 0 0 0 .175-.046l.222.942a2.894 2.894 0 0 1-.36.073 2.663 2.663 0 0 1-.453.037c-.517 0-.905-.141-1.163-.424-.259-.283-.388-.677-.388-1.182v-7.904Zm6.337 9.603c-.683 0-1.272-.151-1.768-.453a3.034 3.034 0 0 1-1.14-1.274c-.265-.548-.397-1.185-.397-1.911s.132-1.367.397-1.921c.268-.557.64-.991 1.117-1.301.48-.314 1.04-.471 1.681-.471.369 0 .734.061 1.094.184.36.124.688.324.983.601.295.273.531.637.706 1.089.176.452.263 1.01.263 1.671v.462h-5.465v-.942h4.357c0-.4-.08-.757-.24-1.071a1.8 1.8 0 0 0-.674-.743 1.88 1.88 0 0 0-1.024-.273c-.434 0-.81.108-1.127.324a2.126 2.126 0 0 0-.725.831 2.44 2.44 0 0 0-.254 1.098v.628c0 .536.093.99.277 1.362a2 2 0 0 0 .781.845 2.28 2.28 0 0 0 1.158.286c.287 0 .545-.04.776-.12.234-.083.435-.206.605-.369.169-.167.3-.373.392-.619l1.053.296a2.33 2.33 0 0 1-.559.941 2.73 2.73 0 0 1-.969.628 3.595 3.595 0 0 1-1.298.222Zm5.388-.074a.8.8 0 0 1-.586-.245.795.795 0 0 1-.245-.586c0-.228.081-.423.245-.586a.795.795 0 0 1 .586-.245c.228 0 .423.081.586.245a.8.8 0 0 1 .245.586.78.78 0 0 1-.116.415.86.86 0 0 1-.3.305.788.788 0 0 1-.415.111Z"/><path stroke="#012201" stroke-opacity=".12" d="M8 183.5h404"/><path fill="#141E12" d="M28.415 31h-3.296V20.818h3.4c.998 0 1.855.204 2.57.612a4.03 4.03 0 0 1 1.646 1.745c.385.755.577 1.662.577 2.72 0 1.06-.194 1.971-.582 2.734a4.083 4.083 0 0 1-1.67 1.76c-.73.407-1.611.611-2.645.611Zm-1.76-1.342h1.675c.776 0 1.42-.146 1.934-.438.514-.295.898-.72 1.154-1.277.255-.56.382-1.243.382-2.049 0-.799-.127-1.476-.382-2.033a2.705 2.705 0 0 0-1.129-1.268c-.5-.288-1.122-.433-1.864-.433h-1.77v7.498Zm11.306 1.491a2.96 2.96 0 0 1-1.65-.472c-.48-.318-.858-.77-1.134-1.357-.271-.59-.407-1.298-.407-2.123 0-.826.137-1.531.412-2.118.279-.587.66-1.036 1.144-1.348a2.974 2.974 0 0 1 1.645-.467c.474 0 .856.08 1.144.239.291.156.517.338.676.547.162.209.288.392.378.552h.09v-1.238h1.486V31h-1.452v-1.188h-.124c-.09.162-.219.348-.388.557a2.155 2.155 0 0 1-.686.547c-.292.155-.67.233-1.133.233Zm.329-1.268c.427 0 .788-.112 1.083-.338.299-.228.524-.545.677-.95.155-.404.233-.874.233-1.411 0-.53-.076-.994-.229-1.392-.152-.398-.376-.708-.67-.93-.296-.222-.66-.333-1.094-.333-.448 0-.82.116-1.119.348a2.126 2.126 0 0 0-.676.95c-.15.4-.224.853-.224 1.357 0 .51.076.97.229 1.377.152.408.378.73.676.97.302.235.673.352 1.114.352Zm9.141-6.517v1.193H43.26v-1.193h4.171Zm-3.052-1.83h1.486v7.224c0 .288.043.505.13.651.086.143.197.24.332.293.14.05.29.075.453.075.12 0 .224-.008.313-.025.09-.016.16-.03.209-.04l.268 1.228a2.499 2.499 0 0 1-.368.1c-.159.036-.358.056-.596.06a2.615 2.615 0 0 1-1.094-.21 1.876 1.876 0 0 1-.82-.675c-.209-.305-.313-.688-.313-1.149v-7.532Zm7.473 9.615a2.96 2.96 0 0 1-1.65-.472c-.481-.318-.859-.77-1.134-1.357-.272-.59-.408-1.298-.408-2.123 0-.826.138-1.531.413-2.118.278-.587.66-1.036 1.143-1.348a2.974 2.974 0 0 1 1.646-.467c.474 0 .855.08 1.143.239.292.156.517.338.677.547.162.209.288.392.377.552h.09v-1.238h1.486V31h-1.451v-1.188h-.124c-.09.162-.22.348-.388.557a2.155 2.155 0 0 1-.686.547c-.292.155-.67.233-1.134.233Zm.328-1.268c.428 0 .789-.112 1.084-.338.298-.228.524-.545.676-.95.156-.404.234-.874.234-1.411 0-.53-.076-.994-.229-1.392-.152-.398-.376-.708-.671-.93-.295-.222-.66-.333-1.094-.333-.447 0-.82.116-1.118.348a2.126 2.126 0 0 0-.676.95c-.15.4-.224.853-.224 1.357 0 .51.076.97.228 1.377.153.408.378.73.677.97.301.235.672.352 1.113.352ZM57.876 31V20.818h1.487v3.784h.09c.086-.16.21-.343.372-.552a2.11 2.11 0 0 1 .676-.547c.289-.16.67-.239 1.144-.239.616 0 1.167.156 1.65.468.484.311.864.76 1.139 1.347.278.587.418 1.292.418 2.118 0 .825-.138 1.533-.413 2.123-.275.586-.653 1.039-1.134 1.357-.48.315-1.029.472-1.645.472-.464 0-.844-.078-1.139-.233a2.155 2.155 0 0 1-.686-.547 4.142 4.142 0 0 1-.383-.557h-.124V31h-1.452Zm1.457-3.818c0 .537.078 1.007.234 1.412.155.404.38.72.676.95.295.225.656.337 1.084.337.444 0 .815-.117 1.113-.353a2.19 2.19 0 0 0 .677-.97c.155-.407.233-.866.233-1.376 0-.504-.076-.956-.229-1.357a2.077 2.077 0 0 0-.676-.95c-.298-.232-.67-.348-1.118-.348-.431 0-.796.111-1.094.333-.295.222-.519.532-.671.93-.153.398-.229.861-.229 1.392Zm10.046 3.967a2.959 2.959 0 0 1-1.65-.472c-.48-.318-.859-.77-1.134-1.357-.271-.59-.407-1.298-.407-2.123 0-.826.137-1.531.412-2.118.279-.587.66-1.036 1.144-1.348a2.974 2.974 0 0 1 1.645-.467c.474 0 .856.08 1.144.239.291.156.517.338.676.547.162.209.288.392.378.552h.09v-1.238h1.486V31H71.71v-1.188h-.124a3.93 3.93 0 0 1-.388.557 2.155 2.155 0 0 1-.686.547c-.292.155-.67.233-1.134.233Zm.329-1.268c.427 0 .788-.112 1.083-.338.299-.228.524-.545.677-.95.155-.404.233-.874.233-1.411 0-.53-.076-.994-.228-1.392-.153-.398-.377-.708-.672-.93-.295-.222-.66-.333-1.093-.333-.448 0-.82.116-1.119.348a2.127 2.127 0 0 0-.676.95c-.15.4-.224.853-.224 1.357 0 .51.076.97.229 1.377.152.408.378.73.676.97.302.235.673.352 1.114.352Zm11.299-4.653-1.348.239a1.596 1.596 0 0 0-.268-.493 1.33 1.33 0 0 0-.487-.382c-.206-.1-.463-.15-.77-.15-.422 0-.773.095-1.055.284-.281.186-.422.426-.422.72 0 .256.094.461.283.617.189.156.494.284.915.383l1.213.278c.703.163 1.226.413 1.57.751.346.338.518.777.518 1.318 0 .457-.133.865-.398 1.223-.262.354-.628.633-1.099.835-.467.202-1.009.303-1.625.303-.855 0-1.553-.182-2.093-.547-.54-.368-.872-.89-.995-1.566l1.437-.219c.09.375.274.658.552.85.278.19.641.284 1.089.284.487 0 .876-.101 1.168-.303.292-.206.438-.456.438-.751a.78.78 0 0 0-.269-.602c-.175-.162-.446-.285-.81-.367l-1.293-.284c-.712-.162-1.24-.42-1.58-.775-.339-.355-.508-.804-.508-1.348 0-.45.126-.845.378-1.183.252-.338.6-.602 1.044-.79.444-.193.953-.289 1.526-.289.826 0 1.475.18 1.95.537.473.355.786.83.939 1.427Zm5.075 5.926c-.753 0-1.4-.16-1.944-.482a3.271 3.271 0 0 1-1.253-1.367c-.292-.59-.438-1.281-.438-2.073 0-.783.146-1.472.438-2.069a3.397 3.397 0 0 1 1.233-1.397c.53-.334 1.15-.502 1.86-.502.43 0 .848.072 1.252.214.404.142.767.366 1.089.671.321.305.575.701.76 1.188.186.484.279 1.073.279 1.765v.527h-6.07v-1.113H87.9c0-.391-.08-.738-.239-1.04a1.803 1.803 0 0 0-.67-.72 1.875 1.875 0 0 0-1.005-.264 1.94 1.94 0 0 0-1.094.308 2.068 2.068 0 0 0-.716.796 2.296 2.296 0 0 0-.248 1.059v.87c0 .51.09.945.268 1.302.183.358.436.632.76.82.326.186.705.28 1.14.28.281 0 .538-.04.77-.12.232-.083.432-.206.602-.368.169-.163.298-.363.387-.602l1.407.254a2.549 2.549 0 0 1-.606 1.089 2.941 2.941 0 0 1-1.089.72c-.434.17-.93.254-1.486.254ZM98.127 31h-3.296V20.818h3.4c.998 0 1.854.204 2.57.612a4.029 4.029 0 0 1 1.646 1.745c.384.755.577 1.662.577 2.72 0 1.06-.194 1.971-.582 2.734a4.08 4.08 0 0 1-1.67 1.76c-.73.407-1.611.611-2.645.611Zm-1.76-1.342h1.675c.776 0 1.42-.146 1.934-.438.514-.295.898-.72 1.154-1.277.255-.56.382-1.243.382-2.049 0-.799-.127-1.476-.382-2.033a2.709 2.709 0 0 0-1.129-1.268c-.5-.288-1.122-.433-1.864-.433h-1.77v7.498Zm11.739 1.496c-.752 0-1.4-.16-1.944-.482a3.273 3.273 0 0 1-1.253-1.367c-.292-.59-.437-1.281-.437-2.073 0-.783.145-1.472.437-2.069a3.398 3.398 0 0 1 1.233-1.397c.53-.334 1.15-.502 1.859-.502.431 0 .849.072 1.253.214.405.142.768.366 1.089.671.322.305.575.701.761 1.188.185.484.278 1.073.278 1.765v.527h-6.07v-1.113h4.613c0-.391-.079-.738-.238-1.04a1.805 1.805 0 0 0-.671-.72 1.876 1.876 0 0 0-1.005-.264c-.417 0-.782.103-1.093.308a2.063 2.063 0 0 0-.716.796 2.293 2.293 0 0 0-.249 1.059v.87c0 .51.09.945.269 1.302.182.358.435.632.76.82.325.186.705.28 1.139.28.282 0 .538-.04.77-.12.232-.083.433-.206.602-.368.169-.163.298-.363.388-.602l1.407.254a2.549 2.549 0 0 1-.607 1.089 2.935 2.935 0 0 1-1.089.72c-.434.17-.929.254-1.486.254Zm8.49-7.79v1.193h-4.171v-1.193h4.171Zm-3.052-1.83h1.486v7.224c0 .288.043.505.129.651.087.143.198.24.333.293.14.05.29.075.453.075.119 0 .224-.008.313-.025.09-.016.159-.03.209-.04l.268 1.228a2.462 2.462 0 0 1-.368.1 2.913 2.913 0 0 1-.596.06 2.616 2.616 0 0 1-1.094-.21 1.877 1.877 0 0 1-.82-.675c-.209-.305-.313-.688-.313-1.149v-7.532Zm7.473 9.615a2.956 2.956 0 0 1-1.65-.472c-.481-.318-.859-.77-1.134-1.357-.272-.59-.408-1.298-.408-2.123 0-.826.138-1.531.413-2.118.278-.587.66-1.036 1.143-1.348a2.976 2.976 0 0 1 1.646-.467c.474 0 .855.08 1.144.239.291.156.517.338.676.547.162.209.288.392.377.552h.09v-1.238h1.486V31h-1.451v-1.188h-.125a3.883 3.883 0 0 1-.387.557 2.165 2.165 0 0 1-.686.547c-.292.155-.67.233-1.134.233Zm.328-1.268c.428 0 .789-.112 1.084-.338.298-.228.524-.545.676-.95.156-.404.234-.874.234-1.411 0-.53-.076-.994-.229-1.392-.152-.398-.376-.708-.671-.93-.295-.222-.66-.333-1.094-.333-.447 0-.82.116-1.118.348a2.127 2.127 0 0 0-.677.95 3.876 3.876 0 0 0-.223 1.357c0 .51.076.97.228 1.377.153.408.378.73.677.97.301.235.672.352 1.113.352ZM126.923 31v-7.636h1.487V31h-1.487Zm.751-8.815a.943.943 0 0 1-.666-.258.838.838 0 0 1-.274-.627c0-.245.091-.454.274-.626a.933.933 0 0 1 .666-.264c.258 0 .479.088.661.264a.822.822 0 0 1 .278.626c0 .242-.092.451-.278.627a.927.927 0 0 1-.661.258Zm2.735-1.367h1.487v8.094c0 .328.041.56.124.696.086.136.249.2.487.194a1.75 1.75 0 0 0 .289-.025c.066-.013.126-.028.179-.045l.268 1.189c-.102.03-.233.058-.393.084-.155.03-.333.046-.531.05-.643.01-1.122-.143-1.437-.458-.315-.315-.473-.774-.473-1.377v-8.402Zm9.537 4.41-1.347.239a1.584 1.584 0 0 0-.269-.493 1.322 1.322 0 0 0-.487-.382c-.205-.1-.462-.15-.77-.15-.421 0-.773.095-1.054.284-.282.186-.423.426-.423.72 0 .256.095.461.283.617.189.156.494.284.915.383l1.213.278c.703.163 1.227.413 1.571.751.345.338.517.777.517 1.318 0 .457-.132.865-.397 1.223-.262.354-.628.633-1.099.835-.467.202-1.009.303-1.626.303-.855 0-1.553-.182-2.093-.547-.54-.368-.872-.89-.994-1.566l1.437-.219c.089.375.273.658.551.85.279.19.642.284 1.089.284.487 0 .877-.101 1.169-.303.291-.206.437-.456.437-.751a.78.78 0 0 0-.268-.602c-.176-.162-.446-.285-.811-.367l-1.292-.284c-.713-.162-1.24-.42-1.581-.775-.338-.355-.507-.804-.507-1.348 0-.45.125-.845.377-1.183.252-.338.6-.602 1.044-.79.445-.193.953-.289 1.527-.289.825 0 1.475.18 1.949.537.474.355.787.83.939 1.427Z"/></svg>