<svg fill="none" height="32" viewBox="0 0 144 32" width="144" xmlns="http://www.w3.org/2000/svg" xmlns:xlink="http://www.w3.org/1999/xlink"><linearGradient id="a" gradientUnits="userSpaceOnUse" x1="89.2609" x2="89.2609" y1="14.9443" y2="21.8244"><stop offset="0" stop-color="#fcfdfc"/><stop offset=".328009" stop-color="#fff"/></linearGradient><mask id="b" height="22" maskUnits="userSpaceOnUse" width="89" x="27" y="4"><path d="m115.976 4h-87.9799v22h87.9799z" fill="#fff"/></mask><g mask="url(#b)"><path d="m96.1981 14.2501c.3935.3925.6146.9258.6142 1.4821v3.1734c.0008.5553-.2198 1.0881-.6127 1.4805l-3.9971 3.99c-.393.3922-.9254.6124-1.4805.6127h-2.9256c-.5556-.0006-1.0882-.2208-1.482-.6127l-3.9972-3.99c-.3943-.3934-.6154-.9279-.6141-1.4848v-8.805c0-.09951.0396-.19488.1098-.26518.1465-.1464.3836-.14631.5301 0l3.0722 3.06948v-8.52717c.0004-.09889.0398-.19373.1098-.26367.1463-.1464.3836-.14632.53.00008 0 0 1.4099 1.40952 2.456 2.45528 1.8506 1.85013 7.6871 7.68498 7.6871 7.68498z" fill="#151715"/><path d="m93.1077 17.9638c-.0005.1662-.0665.3255-.1839.4431l-3.2205 3.2319c-.2438.2459-.6407.2476-.8866.0039-.0014-.0013-.0026-.0026-.0042-.0039l-3.2131-3.236-.1853-.439v-1.2339c.0003-.167.067-.327.1853-.4447l1.1571-1.1572c.2458-.2449.6434-.2449.889 0l1.6175 1.6188 1.6145-1.6188c.2458-.2449.6434-.2449.8891 0l1.1557 1.1572c.1184.1177.1852.2777.1853.4447z" fill="url(#a)"/><path d="m111.524 12.0189c.016.0002.032.0002.048.0005 2.464.0315 4.435 2.0545 4.404 4.5183v6.7873.0013c0 .2204-.179.3991-.399.3991h-2.731c-.221 0-.399-.1787-.399-.3991l-.01-6.4537c0-.0011 0-.0019 0-.0029-.001-.7452-.606-1.3488-1.351-1.348h-.693c-.746 0-1.351.6049-1.351 1.3509v6.4524c0 .2212-.179.4004-.4.4004h-2.731s0 0-.001 0c-.22 0-.399-.1787-.399-.3991l-.008-6.4537c0-.0006 0-.0011 0-.0015-.001-.746-.607-1.3502-1.352-1.3495h-.692c-.001 0-.001 0-.003 0-.745.0009-1.348.6055-1.348 1.3509v6.4524c0 .2212-.179.4004-.4.4004h-2.7303c-.2211 0-.4004-.1792-.4004-.4004v-10.8157c0-.2192.1771-.3968.396-.3977h2.7407c.218 0 .394.1769.394.3948v1.3124c.001.0448.026.0856.066.1057.059.0298.131.006.161-.053.609-1.1713 1.703-1.8525 2.949-1.8525h.096c.828.0004 1.631.2807 2.28.7953l.519.4273c.161.1254.387.1254.548 0l.517-.4273c.649-.5147 1.452-.7951 2.28-.7953zm-32.2285-4.10535c.1941.19391.3031.45679.3034.73103v14.69712c-.0007.2186-.1777.3953-.3961.3962h-2.7402c-.2179 0-.3947-.1767-.3947-.3947v-1.4022c-.0004-.0448-.0259-.0855-.0659-.1057-.059-.0298-.1309-.006-.1608.053-.6083 1.1713-1.7027 1.8526-2.9496 1.8526h-.8863c-2.4876-.0002-4.5044-2.0168-4.5044-4.5044v-1.2612-1.3579c0-.0006 0-.0011 0-.0015.0009-2.487 2.0174-4.5025 4.5044-4.5016h1.5946c.7609-.0148 1.5078.2068 2.1376.6341.0376.0257.082.0394.1277.0396.126.0003.2281-.1016.2284-.2276v-6.9083c-.0003-.10425.0413-.20438.1154-.27775.1527-.15124.3989-.15001.5502.00273zm-8.2776 11.11615c.0008.7458.605 1.3502 1.3508 1.351h2.2702.0013c.7463-.0008 1.3505-.6063 1.3496-1.3523v-.912-1.2939c0-.7461-.6049-1.3509-1.3509-1.3509h-2.2702c-.7458.0007-1.3281.6051-1.3288 1.3509l-.022 1.71v.496zm-19.8772-6.9097c.218-.0006.3954.1755.396.3933v10.8299c0 .2188-.1773.3962-.396.3962h-2.7388c-.218 0-.3948-.1768-.3948-.3947v-1.4022c-.0004-.0448-.0257-.0856-.0658-.1059-.059-.0296-.1311-.0058-.1608.0531-.6086 1.1715-1.7042 1.8525-2.9497 1.8525h-.8878c-.0005 0-.0009 0-.0015 0-2.4869-.0007-4.5024-2.0174-4.5015-4.5043v-2.6192c0-2.4868 2.0161-4.5028 4.503-4.5028h.8878c1.2397 0 2.3411.6839 2.9497 1.8524.0203.04.061.0654.1057.0659.0661.0005.1203-.0527.1209-.1187v-1.4008c0-.2179.1768-.3947.3948-.3947zm-3.2118 6.9155v-2.213c-.0011-.7462-.6061-1.3508-1.3525-1.3508h-2.2686c-.7463 0-1.3514.6047-1.3523 1.3508v2.213c0 .747.6055 1.3523 1.3523 1.3523h2.2685c.747 0 1.3526-.6053 1.3526-1.3523zm17.5986-2.4181v6.5766.0014c-.0008.2205-.1802.3984-.4004.3977h-2.7304c-.2206 0-.3997-.1783-.4004-.3991l-.0085-6.2288c-.0009-.7458-.6052-1.3503-1.351-1.351h-1.6815c-.746 0-1.3509.6048-1.3509 1.351l-.0099 6.3682c0 .2203-.1786.3988-.399.3988h-2.7318c-.2202 0-.399-.1785-.399-.3988v-10.8171c0-.0009 0-.002 0-.003.0008-.2178.1782-.3939.3963-.3933h2.7388c.2157 0 .3917.1734.3948.3891v1.4108c.0004.0448.0257.0856.0658.1056.059.0299.131.0061.1607-.0529.6084-1.1727 1.7043-1.8526 2.9498-1.8526h.2535c2.4847 0 4.4998 2.0126 4.5031 4.4974zm-26.532-6.8713c.0448.00009.0892.00703.1318.02058.2302.07321.3575.31922.2843.54942l-.7708 2.4026c-.0683.2148-.2678.3605-.4931.3605h-6.233c-.0004 0-.0008 0-.0013 0-.2142 0-.3877.1735-.3877.3876v2.6434.0028c.0009.2141.1749.387.389.3861h4.9048c.0448.0002.0892.0072.1317.0205.2303.0733.3576.3193.2844.5495l-.7652 2.4224c-.0683.2157-.2684.362-.4945.362h-4.0612c-.2148 0-.389.1742-.389.389v5.3393c-.0001.1105-.044.2164-.122.2946-.1629.1633-.4273.1635-.5904.0005l-2.4098-2.4082c-.2607-.2612-.4074-.6154-.4074-.9845v-10.4239c0-1.2775 1.0352-2.31341 2.3127-2.3142z" fill="#151715"/></g></svg>