<svg xmlns="http://www.w3.org/2000/svg" width="420" height="274" fill="none"><rect width="420" height="274" fill="#FCFDFC" rx="16"/><rect width="419" height="273" x=".5" y=".5" stroke="#012201" stroke-opacity=".12" rx="15.5"/><rect width="404" height="258" x="8" y="8" fill="#fff" rx="8" style="filter:drop-shadow(0 1px 1px rgba(21,23,21,.05)) drop-shadow(0 2px 2px rgba(21,23,21,.05)) drop-shadow(0 4px 4px rgba(21,23,21,.05))"/><rect width="405" height="259" x="7.5" y="7.5" stroke="#012201" stroke-opacity=".12" rx="8.5"/><rect width="24" height="24" x="28" y="28" fill="#fff" rx="6"/><rect width="23" height="23" x="28.5" y="28.5" stroke="#001A00" stroke-opacity=".15" rx="5.5"/><path fill="#F9A11D" d="M43.11 40.562h-1.785v-.916a1.329 1.329 0 0 0-2.265-.938 1.329 1.329 0 0 0-.389.938v.916h-1.784v-.916a3.115 3.115 0 0 1 3.111-3.112 3.115 3.115 0 0 1 3.112 3.112v.916Z"/><path fill="#2C3C69" d="M43.832 40.562h-7.663a.596.596 0 0 0-.595.595v5.668a.597.597 0 0 0 .595.595h7.663a.596.596 0 0 0 .594-.595v-5.668a.597.597 0 0 0-.594-.595Zm-3.443 3.721v.769a.388.388 0 0 1-.777 0v-.768a.79.79 0 0 1 .386-1.475.787.787 0 0 1 .39 1.474Z"/><path fill="#F9A11D" d="M35.392 39.717h-1.85a.543.543 0 1 1 0-1.086h1.85a.543.543 0 1 1 0 1.086Zm1.302-2.91a.54.54 0 0 1-.344-.123l-1.463-1.202a.543.543 0 0 1 .69-.84l1.463 1.203a.543.543 0 0 1-.346.963ZM40 35.53a.543.543 0 0 1-.543-.542v-1.864a.543.543 0 1 1 1.086 0v1.864a.543.543 0 0 1-.543.542Zm3.306 1.279a.543.543 0 0 1-.346-.962l1.463-1.203a.543.543 0 0 1 .69.839l-1.463 1.202a.54.54 0 0 1-.344.124Zm3.151 2.909h-1.866a.543.543 0 1 1 0-1.086h1.866a.543.543 0 1 1 0 1.086Z"/><path fill="#141E12" d="M65.119 45V34.818h1.536v8.86h4.614V45h-6.15Zm11.074.154c-.752 0-1.4-.16-1.944-.482a3.272 3.272 0 0 1-1.253-1.367c-.292-.59-.437-1.281-.437-2.074 0-.782.145-1.471.437-2.068a3.398 3.398 0 0 1 1.233-1.397c.53-.334 1.15-.502 1.86-.502.43 0 .848.072 1.252.214.405.142.768.366 1.089.671.321.305.575.701.76 1.188.186.484.28 1.073.28 1.765v.527h-6.071v-1.113h4.613c0-.392-.08-.738-.238-1.04a1.803 1.803 0 0 0-.671-.72 1.875 1.875 0 0 0-1.005-.264 1.94 1.94 0 0 0-1.093.308 2.07 2.07 0 0 0-.716.796 2.296 2.296 0 0 0-.249 1.059v.87c0 .51.09.944.269 1.302.182.358.435.632.76.82.325.186.705.28 1.139.28.282 0 .538-.04.77-.12a1.599 1.599 0 0 0 .99-.97l1.407.254a2.547 2.547 0 0 1-.607 1.089 2.94 2.94 0 0 1-1.089.72c-.434.17-.93.254-1.486.254Zm8.49-7.79v1.193h-4.171v-1.193h4.171Zm-3.053-1.83h1.487v7.224c0 .288.043.505.13.651.085.143.197.24.332.293.14.05.29.075.453.075.12 0 .224-.008.313-.025.09-.016.16-.03.209-.04l.268 1.228a2.499 2.499 0 0 1-.368.1c-.159.036-.358.056-.596.06a2.615 2.615 0 0 1-1.094-.21 1.876 1.876 0 0 1-.82-.675c-.21-.305-.314-.688-.314-1.149v-7.532Zm6.358-.716v.955c0 .281-.053.578-.16.89a3.755 3.755 0 0 1-.437.89 3.22 3.22 0 0 1-.666.735l-.736-.527c.196-.285.365-.588.507-.91.146-.32.22-.676.22-1.063v-.97h1.272Zm6.195 4.41-1.348.239a1.596 1.596 0 0 0-.268-.493 1.33 1.33 0 0 0-.487-.382c-.206-.1-.463-.15-.771-.15-.421 0-.772.095-1.054.284-.282.185-.423.426-.423.72 0 .256.095.461.284.617.189.156.494.284.915.383l1.213.278c.702.163 1.226.413 1.57.751.345.338.518.777.518 1.318 0 .457-.133.865-.398 1.223-.262.354-.628.633-1.099.835-.467.202-1.009.303-1.625.303-.856 0-1.553-.182-2.093-.547-.54-.368-.872-.89-.995-1.566l1.437-.219c.09.375.273.658.552.85.278.19.641.284 1.089.284.487 0 .876-.101 1.168-.303.292-.206.437-.456.437-.751a.78.78 0 0 0-.268-.602c-.176-.162-.446-.285-.81-.367l-1.293-.284c-.713-.162-1.24-.42-1.581-.775-.338-.355-.507-.804-.507-1.348 0-.45.126-.845.378-1.183.252-.338.6-.602 1.044-.79.444-.193.953-.289 1.526-.289.825 0 1.475.18 1.949.537.474.355.787.83.94 1.427ZM99.79 45V34.818h6.384v1.323h-4.847v3.102h4.514v1.317h-4.514v3.118h4.907V45H99.79Zm9.803-4.534V45h-1.486v-7.636h1.427v1.242h.094c.176-.404.451-.729.825-.974.378-.245.854-.368 1.427-.368.521 0 .976.11 1.367.328.391.216.695.537.91.965.216.427.323.956.323 1.586V45h-1.486v-4.678c0-.554-.144-.986-.433-1.298-.288-.315-.684-.472-1.188-.472-.345 0-.651.074-.92.224a1.61 1.61 0 0 0-.631.656c-.153.285-.229.63-.229 1.034Zm10.098 4.688c-.74 0-1.376-.167-1.91-.502a3.327 3.327 0 0 1-1.223-1.397c-.285-.593-.427-1.273-.427-2.038 0-.776.146-1.46.437-2.054a3.356 3.356 0 0 1 1.233-1.397c.531-.334 1.155-.502 1.875-.502.58 0 1.097.108 1.551.323.454.212.82.51 1.098.895.282.385.45.834.503 1.348h-1.447a1.737 1.737 0 0 0-.547-.925c-.282-.259-.66-.388-1.134-.388-.414 0-.777.11-1.088.328-.309.216-.549.524-.721.925-.173.398-.259.868-.259 1.412 0 .557.085 1.037.254 1.442.169.404.408.717.716.94.311.221.678.332 1.098.332.282 0 .537-.051.766-.154.232-.106.426-.257.582-.452.159-.196.27-.431.333-.706h1.447a2.805 2.805 0 0 1-.483 1.322 2.774 2.774 0 0 1-1.078.915c-.448.222-.973.333-1.576.333Zm4.726-.154v-7.636h1.437v1.213h.08c.139-.411.384-.734.735-.97a2.095 2.095 0 0 1 1.204-.358c.208 0 .396.025.561.075.166.05.312.117.438.204l-.477 1.243a1.489 1.489 0 0 0-.304-.105 1.519 1.519 0 0 0-.388-.045 1.89 1.89 0 0 0-.924.224 1.688 1.688 0 0 0-.642.607 1.687 1.687 0 0 0-.233.885V45h-1.487Zm6.614 2.864c-.222 0-.425-.019-.607-.055a1.9 1.9 0 0 1-.407-.11l.357-1.218c.272.073.514.105.726.095a.87.87 0 0 0 .562-.239c.166-.149.312-.392.438-.73l.184-.508-2.794-7.735h1.59l1.934 5.926h.08l1.934-5.926h1.596l-3.147 8.655a3.466 3.466 0 0 1-.557 1.01 2.162 2.162 0 0 1-.805.626c-.312.139-.673.209-1.084.209Zm6.99 0v-10.5h1.451v1.238h.125c.086-.16.21-.343.373-.552.162-.21.387-.391.676-.547.288-.16.669-.239 1.143-.239.617 0 1.167.156 1.651.467.484.312.863.761 1.138 1.348.279.587.418 1.292.418 2.118 0 .825-.138 1.533-.413 2.123-.275.586-.653 1.039-1.133 1.357a2.936 2.936 0 0 1-1.646.472c-.464 0-.843-.078-1.138-.233a2.143 2.143 0 0 1-.686-.547 4.072 4.072 0 0 1-.383-.557h-.09v4.052h-1.486Zm1.456-6.682c0 .537.078 1.007.234 1.412.156.404.381.72.676.95.295.225.657.337 1.084.337.444 0 .815-.117 1.114-.353.298-.238.523-.561.676-.97a3.83 3.83 0 0 0 .233-1.376c0-.504-.076-.956-.228-1.357a2.08 2.08 0 0 0-.676-.95c-.299-.232-.671-.348-1.119-.348-.431 0-.795.111-1.094.333-.295.222-.518.532-.671.93-.152.398-.229.861-.229 1.392Zm10.749-3.818v1.193h-4.171v-1.193h4.171Zm-3.053-1.83h1.487v7.224c0 .288.043.505.129.651.086.143.197.24.333.293.14.05.29.075.453.075.119 0 .223-.008.313-.025.089-.016.159-.03.209-.04l.268 1.228a2.497 2.497 0 0 1-.368.1 2.913 2.913 0 0 1-.596.06 2.616 2.616 0 0 1-1.094-.21 1.871 1.871 0 0 1-.82-.675c-.209-.305-.314-.688-.314-1.149v-7.532Z"/><path fill="#6B716A" d="M29.039 91v-9.454h3.37c.735 0 1.345.133 1.828.401a2.61 2.61 0 0 1 1.085 1.099c.24.461.36.982.36 1.56 0 .582-.122 1.105-.365 1.57-.24.461-.603.828-1.09 1.099-.483.267-1.09.401-1.823.401h-2.317v-1.21h2.188c.465 0 .842-.08 1.13-.24.29-.163.503-.384.638-.664s.203-.599.203-.956-.068-.674-.203-.95a1.456 1.456 0 0 0-.642-.652c-.289-.157-.67-.235-1.145-.235h-1.79V91h-1.427Zm12.696-2.94v-4.15h1.385V91h-1.357v-1.228h-.074a2.213 2.213 0 0 1-.785.946c-.357.25-.802.374-1.334.374a2.4 2.4 0 0 1-1.21-.3 2.109 2.109 0 0 1-.821-.9c-.197-.397-.296-.888-.296-1.473v-4.51h1.38v4.344c0 .483.135.868.402 1.154.268.287.616.43 1.044.43.258 0 .515-.065.77-.194.26-.13.473-.325.642-.587.173-.261.257-.593.254-.997Zm3.35 2.94v-9.454h1.38v3.513h.084c.08-.148.195-.319.346-.513.151-.194.36-.363.628-.508.268-.147.622-.221 1.062-.221a2.77 2.77 0 0 1 1.532.434c.45.289.802.706 1.058 1.25.258.545.388 1.201.388 1.967 0 .767-.128 1.424-.384 1.972-.255.544-.606.965-1.052 1.26a2.725 2.725 0 0 1-1.528.438c-.431 0-.783-.072-1.057-.217a2 2 0 0 1-.638-.507 3.844 3.844 0 0 1-.355-.517h-.115V91h-1.348Zm1.353-3.546c0 .5.072.936.217 1.312.145.375.354.669.628.881.274.21.61.314 1.006.314.413 0 .758-.109 1.035-.328.276-.221.486-.521.627-.9a3.56 3.56 0 0 0 .217-1.279c0-.467-.07-.887-.212-1.26a1.93 1.93 0 0 0-.628-.882c-.277-.215-.623-.323-1.039-.323-.4 0-.738.103-1.015.31a1.898 1.898 0 0 0-.623.863c-.142.37-.213.8-.213 1.292Zm6.674-5.908h1.38v7.515c0 .305.04.52.116.646.08.127.231.187.453.18.12-.003.209-.01.267-.023.062-.012.117-.026.167-.041l.249 1.103a3.274 3.274 0 0 1-.365.079c-.145.027-.31.043-.494.046-.597.009-1.042-.133-1.334-.425-.292-.292-.439-.719-.439-1.279v-7.801ZM56.654 91v-7.09h1.38V91h-1.38Zm.698-8.185a.877.877 0 0 1-.619-.24.78.78 0 0 1-.254-.582.77.77 0 0 1 .254-.581.868.868 0 0 1 .619-.245c.24 0 .444.082.614.245.172.16.258.353.258.581a.774.774 0 0 1-.258.582.861.861 0 0 1-.614.24Zm5.527 8.328c-.687 0-1.278-.155-1.773-.466a3.086 3.086 0 0 1-1.136-1.297c-.264-.551-.397-1.182-.397-1.893 0-.72.136-1.356.407-1.907.27-.554.652-.986 1.144-1.297.493-.31 1.073-.466 1.74-.466.54 0 1.02.1 1.441.3.422.197.762.474 1.02.83.262.358.417.775.467 1.252h-1.344a1.61 1.61 0 0 0-.508-.859c-.261-.24-.612-.36-1.052-.36-.385 0-.722.102-1.011.305-.286.2-.51.486-.67.859-.16.369-.24.806-.24 1.31 0 .518.079.964.236 1.34.157.375.378.666.665.872.289.206.629.31 1.02.31.262 0 .498-.049.71-.144.216-.098.396-.238.54-.42.149-.182.252-.4.31-.656h1.344a2.61 2.61 0 0 1-.448 1.228c-.25.36-.583.644-1.002.85-.415.206-.903.31-1.463.31Zm9.099-2.548-.01-1.685h.24l2.826-3h1.652l-3.222 3.415h-.217l-1.27 1.27ZM70.708 91v-9.454h1.38V91h-1.38Zm4.478 0-2.539-3.37.951-.965L76.88 91h-1.694Zm5.523.143c-.699 0-1.3-.15-1.805-.448a3.037 3.037 0 0 1-1.164-1.27c-.27-.547-.406-1.189-.406-1.924 0-.727.135-1.367.406-1.92a3.155 3.155 0 0 1 1.145-1.298c.492-.31 1.068-.466 1.727-.466.4 0 .788.066 1.163.198.375.133.712.34 1.011.623.299.284.534.651.706 1.104.173.45.259.995.259 1.639v.489h-5.637v-1.034h4.284c0-.363-.074-.685-.221-.965a1.675 1.675 0 0 0-.624-.67 1.741 1.741 0 0 0-.932-.244c-.388 0-.726.095-1.016.286a1.921 1.921 0 0 0-.665.739c-.153.302-.23.63-.23.983v.808c0 .474.083.877.249 1.21.17.332.405.586.706.761.302.173.654.259 1.057.259.262 0 .5-.037.716-.111a1.484 1.484 0 0 0 .919-.9l1.306.235a2.367 2.367 0 0 1-.563 1.011c-.268.287-.605.51-1.011.67a3.785 3.785 0 0 1-1.38.235Zm5.243 2.516c-.206 0-.394-.017-.563-.05a1.77 1.77 0 0 1-.379-.102l.332-1.131c.253.067.478.097.674.087a.807.807 0 0 0 .522-.221c.154-.139.29-.365.406-.679l.171-.47-2.594-7.184h1.477l1.796 5.503h.074l1.795-5.503h1.482l-2.922 8.037c-.135.37-.308.682-.517.938-.21.258-.459.452-.748.581-.29.13-.625.194-1.006.194Zm12.585-2.52a2.748 2.748 0 0 1-1.532-.44c-.447-.294-.797-.715-1.053-1.26-.252-.547-.378-1.204-.378-1.97 0-.767.127-1.422.383-1.967.258-.545.612-.962 1.062-1.251.449-.29.958-.434 1.528-.434.44 0 .794.074 1.062.221.27.145.48.314.627.508.151.194.268.365.351.513h.083v-1.15h1.381V91h-1.348v-1.103h-.116a3.64 3.64 0 0 1-.36.517 2 2 0 0 1-.637.507c-.27.145-.622.217-1.053.217Zm.305-1.178c.397 0 .733-.104 1.007-.314.277-.212.486-.506.627-.881.145-.376.217-.813.217-1.312 0-.492-.07-.923-.212-1.292-.142-.37-.349-.657-.623-.863-.274-.207-.613-.31-1.016-.31-.415 0-.762.108-1.039.323-.276.216-.486.51-.627.882a3.596 3.596 0 0 0-.208 1.26c0 .475.07.9.212 1.28.142.378.351.678.628.9.28.218.625.327 1.034.327Zm5.179-8.415h1.38v7.515c0 .305.038.52.115.646.08.127.231.187.453.18.12-.003.209-.01.268-.023.061-.012.117-.026.166-.041l.249 1.103a3.246 3.246 0 0 1-.365.079 2.894 2.894 0 0 1-.494.046c-.597.009-1.041-.133-1.334-.425-.292-.292-.438-.719-.438-1.279v-7.801Zm6.515 12.26c-.564 0-1.048-.073-1.455-.22a2.808 2.808 0 0 1-.987-.587 2.452 2.452 0 0 1-.573-.799l1.187-.49c.083.136.193.28.332.43.142.154.332.285.572.393.244.107.556.161.938.161.523 0 .955-.127 1.297-.383.341-.252.512-.656.512-1.21v-1.394h-.088c-.083.151-.203.319-.36.504a1.936 1.936 0 0 1-.637.48c-.271.135-.623.203-1.057.203-.56 0-1.065-.131-1.514-.393-.446-.264-.8-.654-1.062-1.168-.258-.517-.388-1.152-.388-1.906s.128-1.4.384-1.94c.258-.538.612-.95 1.061-1.236.45-.29.959-.434 1.528-.434.44 0 .796.074 1.067.221.271.145.481.314.632.508.154.194.273.365.356.513h.101v-1.15h1.353v7.248c0 .61-.142 1.11-.425 1.5-.283.391-.666.68-1.149.868a4.434 4.434 0 0 1-1.625.282Zm-.014-4.057c.397 0 .732-.092 1.006-.277.277-.188.487-.456.628-.803.145-.351.217-.771.217-1.26 0-.478-.071-.898-.212-1.26a1.876 1.876 0 0 0-.624-.85c-.273-.207-.612-.31-1.015-.31-.416 0-.762.108-1.039.323a1.953 1.953 0 0 0-.628.868 3.46 3.46 0 0 0-.207 1.228c0 .465.07.873.212 1.224.141.35.351.624.628.822.28.196.625.295 1.034.295Zm8.051 1.394c-.665 0-1.245-.152-1.74-.457a3.081 3.081 0 0 1-1.155-1.279c-.273-.547-.41-1.188-.41-1.92 0-.736.137-1.379.41-1.93.274-.55.659-.978 1.155-1.283.495-.305 1.075-.457 1.74-.457s1.245.152 1.74.457c.496.305.881.732 1.155 1.283.273.551.41 1.194.41 1.93 0 .732-.137 1.373-.41 1.92a3.081 3.081 0 0 1-1.155 1.28c-.495.304-1.075.456-1.74.456Zm.005-1.159c.43 0 .787-.113 1.071-.341.283-.228.492-.531.627-.91.139-.378.208-.795.208-1.25a3.59 3.59 0 0 0-.208-1.247 2.027 2.027 0 0 0-.627-.919c-.284-.23-.641-.346-1.071-.346-.434 0-.794.115-1.081.346a2.06 2.06 0 0 0-.632.919 3.662 3.662 0 0 0-.203 1.246c0 .456.067.873.203 1.251.138.379.349.682.632.91.287.228.647.341 1.081.341ZM123.419 91v-7.09h1.334v1.126h.074c.129-.382.357-.682.683-.9a1.945 1.945 0 0 1 1.118-.333c.193 0 .367.023.521.07.154.045.29.108.406.188l-.443 1.155a1.372 1.372 0 0 0-.281-.097 1.416 1.416 0 0 0-.36-.042c-.32 0-.607.07-.859.208a1.569 1.569 0 0 0-.596.563c-.144.24-.217.514-.217.822V91h-1.38Zm5.154 0v-7.09h1.381V91h-1.381Zm.698-8.185a.876.876 0 0 1-.619-.24.782.782 0 0 1-.254-.582c0-.227.085-.421.254-.581a.867.867 0 0 1 .619-.245.85.85 0 0 1 .613.245c.173.16.259.353.259.581a.772.772 0 0 1-.259.582.858.858 0 0 1-.613.24Zm5.85 1.094v1.108h-3.873v-1.108h3.873Zm-2.835-1.699h1.381v6.708c0 .268.04.47.12.605.08.132.183.223.309.272.129.046.269.07.42.07.111 0 .208-.008.291-.024.083-.015.148-.027.194-.037l.249 1.14a2.686 2.686 0 0 1-.896.148 2.426 2.426 0 0 1-1.015-.194 1.743 1.743 0 0 1-.762-.627c-.194-.284-.291-.639-.291-1.067V82.21Zm5.894 4.58V91h-1.38v-9.454h1.362v3.517h.088c.166-.381.42-.685.761-.91.342-.224.788-.336 1.339-.336.486 0 .911.1 1.274.3.366.2.65.498.85.895.203.394.304.887.304 1.478V91h-1.38v-4.344c0-.52-.134-.923-.402-1.21-.267-.289-.64-.434-1.117-.434-.326 0-.618.07-.877.208a1.503 1.503 0 0 0-.605.61c-.144.264-.217.584-.217.96Zm6.44 4.21v-7.09h1.325v1.153h.088c.148-.39.389-.695.725-.914.335-.221.737-.332 1.205-.332.474 0 .871.11 1.191.332.323.222.561.526.715.914h.074c.169-.378.439-.68.808-.905.369-.227.809-.341 1.32-.341.644 0 1.168.201 1.575.605.409.403.613 1.01.613 1.823V91h-1.38v-4.626c0-.48-.131-.828-.392-1.043a1.428 1.428 0 0 0-.937-.323c-.45 0-.799.138-1.048.415-.25.274-.374.627-.374 1.058V91h-1.376v-4.713c0-.385-.12-.694-.36-.928-.24-.234-.552-.351-.937-.351-.262 0-.503.07-.725.208a1.533 1.533 0 0 0-.531.567 1.743 1.743 0 0 0-.198.845V91h-1.381Z"/><path fill="#fff" d="M28 108a6 6 0 0 1 6-6h352a6 6 0 0 1 6 6v93a6 6 0 0 1-6 6H34a6 6 0 0 1-6-6v-93Z"/><path stroke="#012201" stroke-opacity=".12" d="M34 102.5h352a5.5 5.5 0 0 1 5.5 5.5v93a5.5 5.5 0 0 1-5.5 5.5H34a5.5 5.5 0 0 1-5.5-5.5v-93a5.5 5.5 0 0 1 5.217-5.493L34 102.5Z"/><mask id="a" width="364" height="53" x="28" y="102" fill="#000" maskUnits="userSpaceOnUse"><path fill="#fff" d="M28 102h364v53H28z"/><path d="M28 102h364v52H28v-52Z"/></mask><path fill="#012201" fill-opacity=".12" d="M392 154v-1H28v2h364v-1Z" mask="url(#a)"/><path fill="#18B69B" d="M52 119.5a8.5 8.5 0 1 1 0 17 8.5 8.5 0 0 1 0-17Z"/><path stroke="#13927C" d="M52 119.5a8.5 8.5 0 1 1 0 17 8.5 8.5 0 0 1 0-17Z"/><path fill="#fff" d="M48 128a4 4 0 1 1 8 0 4 4 0 0 1-8 0Z"/><path fill="#6B716A" d="M77.039 133v-9.455h5.927v1.228h-4.5v2.881h4.191v1.223h-4.192v2.895h4.557V133h-5.983Zm15.685-6.38h-1.44a2.192 2.192 0 0 0-.863-1.408 2.387 2.387 0 0 0-.734-.369 2.869 2.869 0 0 0-.854-.125 2.67 2.67 0 0 0-1.464.411c-.428.274-.766.675-1.015 1.205-.247.529-.37 1.175-.37 1.939 0 .769.123 1.419.37 1.948.249.529.589.929 1.02 1.2.43.271.915.406 1.454.406.299 0 .582-.04.85-.12.27-.083.515-.204.734-.364a2.235 2.235 0 0 0 .872-1.39l1.44.005a3.86 3.86 0 0 1-.448 1.283c-.218.388-.5.723-.844 1.007-.342.28-.733.497-1.173.65-.44.154-.92.231-1.44.231-.819 0-1.548-.194-2.188-.581-.64-.391-1.145-.95-1.515-1.676-.366-.727-.549-1.593-.549-2.599 0-1.01.185-1.876.554-2.599.37-.727.874-1.284 1.514-1.672.64-.39 1.368-.586 2.184-.586.501 0 .97.073 1.403.217.437.142.83.351 1.177.628.348.274.636.609.864 1.006.227.394.381.845.461 1.353Zm4.768 6.38h-3.06v-9.455h3.157c.926 0 1.722.19 2.387.568a3.749 3.749 0 0 1 1.528 1.621c.357.701.535 1.543.535 2.525 0 .985-.18 1.831-.54 2.539a3.786 3.786 0 0 1-1.551 1.634c-.677.379-1.496.568-2.456.568Zm-1.634-1.246h1.555c.72 0 1.32-.136 1.796-.407a2.559 2.559 0 0 0 1.071-1.186c.237-.52.356-1.154.356-1.902 0-.742-.119-1.371-.356-1.888a2.507 2.507 0 0 0-1.048-1.177c-.464-.268-1.041-.402-1.73-.402h-1.644v6.962Zm13.112-5.725a1.354 1.354 0 0 0-.61-1.016c-.357-.243-.806-.364-1.348-.364-.387 0-.723.061-1.006.184-.283.12-.503.287-.66.499a1.177 1.177 0 0 0-.231.716c0 .224.052.418.157.581.108.163.248.3.42.411.175.108.363.199.563.272.2.071.393.13.577.176l.924.24c.301.074.611.174.928.3.317.126.61.292.881.499.271.206.49.461.656.766.169.305.254.669.254 1.094 0 .536-.139 1.011-.416 1.427-.274.415-.672.743-1.195.983-.521.24-1.15.36-1.889.36-.707 0-1.32-.112-1.837-.337-.517-.225-.922-.543-1.214-.956-.292-.415-.454-.908-.485-1.477h1.431c.028.342.139.626.333.854.197.225.447.393.752.503.308.108.645.162 1.011.162.403 0 .762-.063 1.076-.189a1.81 1.81 0 0 0 .748-.536c.181-.231.272-.5.272-.808 0-.28-.08-.509-.24-.688a1.78 1.78 0 0 0-.642-.443 6.221 6.221 0 0 0-.909-.309l-1.117-.305c-.757-.206-1.358-.509-1.801-.909-.44-.4-.66-.93-.66-1.588 0-.545.148-1.021.443-1.427a2.91 2.91 0 0 1 1.201-.946c.504-.228 1.074-.342 1.708-.342.64 0 1.205.113 1.694.337.492.225.88.534 1.163.928.283.391.431.84.443 1.348h-1.375Zm3.932 6.971h-1.514l3.402-9.455h1.648L119.84 133h-1.514l-2.673-7.737h-.074L112.902 133Zm.254-3.702h4.912v1.2h-4.912v-1.2Z"/><path fill="#8B918A" d="m147.02 127.497-.979.277a1.803 1.803 0 0 0-.272-.475 1.317 1.317 0 0 0-.48-.388c-.203-.102-.463-.152-.78-.152-.434 0-.796.1-1.085.3-.287.197-.43.447-.43.752 0 .271.099.485.296.642.197.157.505.288.923.392l1.053.259c.634.154 1.106.389 1.417.706.311.314.466.719.466 1.214 0 .406-.117.77-.351 1.09-.231.32-.554.572-.969.757-.416.184-.899.277-1.45.277-.723 0-1.322-.157-1.796-.471-.474-.314-.774-.773-.9-1.376l1.034-.258c.099.381.285.667.559.858.277.191.639.287 1.085.287.508 0 .911-.108 1.209-.324.302-.218.453-.48.453-.784a.822.822 0 0 0-.259-.619c-.172-.169-.437-.296-.794-.379l-1.182-.277c-.649-.153-1.126-.392-1.431-.715-.301-.326-.452-.734-.452-1.224 0-.4.112-.754.337-1.061a2.29 2.29 0 0 1 .928-.725c.394-.176.84-.263 1.339-.263.701 0 1.252.154 1.652.461.403.308.69.714.859 1.219Zm4.742 5.651c-.683 0-1.272-.151-1.768-.453a3.034 3.034 0 0 1-1.14-1.274c-.265-.548-.397-1.185-.397-1.911s.132-1.367.397-1.921c.268-.557.64-.991 1.117-1.301.48-.314 1.04-.471 1.68-.471.37 0 .734.061 1.094.184.361.124.688.324.984.601.295.273.531.637.706 1.089.176.452.263 1.01.263 1.671v.462h-5.466v-.942h4.358c0-.4-.08-.757-.24-1.071a1.8 1.8 0 0 0-.674-.743 1.884 1.884 0 0 0-1.025-.273c-.434 0-.809.108-1.126.324a2.118 2.118 0 0 0-.725.831 2.44 2.44 0 0 0-.254 1.098v.628c0 .536.093.99.277 1.362.188.369.448.651.78.845.333.191.719.286 1.159.286.286 0 .545-.04.776-.12.234-.083.435-.206.604-.369.17-.167.301-.373.393-.619l1.052.296c-.11.357-.297.67-.558.941a2.726 2.726 0 0 1-.97.628 3.586 3.586 0 0 1-1.297.222Zm7.474 0c-.665 0-1.237-.157-1.717-.471a3.065 3.065 0 0 1-1.108-1.297c-.259-.551-.388-1.181-.388-1.889 0-.72.133-1.355.397-1.906.268-.554.64-.987 1.117-1.297.48-.314 1.041-.471 1.681-.471.498 0 .948.092 1.348.277.4.184.728.443.983.775.256.333.414.72.476 1.164h-1.09a1.69 1.69 0 0 0-.554-.859c-.283-.252-.665-.379-1.145-.379-.424 0-.797.111-1.117.333a2.159 2.159 0 0 0-.743.928c-.176.397-.263.863-.263 1.399 0 .547.086 1.024.258 1.431.176.406.422.721.739.946.32.225.695.337 1.126.337.283 0 .54-.049.771-.148.231-.098.426-.24.586-.424.161-.185.274-.407.342-.665h1.09a2.535 2.535 0 0 1-.457 1.131c-.24.332-.559.597-.956.794-.394.194-.853.291-1.376.291Zm4.381 2.511v-9.75h1.053v1.127h.129a9.23 9.23 0 0 1 .332-.471 1.94 1.94 0 0 1 .619-.517c.271-.154.637-.231 1.099-.231.597 0 1.123.149 1.579.448.455.298.811.721 1.066 1.269.255.548.383 1.194.383 1.939 0 .751-.128 1.402-.383 1.953-.255.548-.609.972-1.062 1.274-.452.298-.974.448-1.565.448-.455 0-.82-.076-1.094-.226a2.017 2.017 0 0 1-.632-.522 6.989 6.989 0 0 1-.342-.489h-.092v3.748h-1.09Zm1.071-6.204c0 .535.079 1.007.236 1.417.157.406.386.725.688.955.301.228.671.342 1.108.342.455 0 .835-.12 1.14-.36.308-.243.538-.569.692-.979.157-.412.236-.871.236-1.375 0-.499-.077-.948-.231-1.348a2.08 2.08 0 0 0-.688-.956c-.305-.237-.688-.356-1.149-.356-.444 0-.816.113-1.118.337-.301.222-.529.533-.683.933-.154.397-.231.86-.231 1.39Zm6.685 1.181h1.163c.034.32.143.591.328.813.188.218.431.385.729.498.299.111.63.167.993.167.394 0 .748-.067 1.062-.199.314-.132.563-.329.748-.591.184-.264.277-.592.277-.983 0-.342-.08-.659-.24-.951-.16-.296-.417-.534-.771-.716-.354-.181-.824-.272-1.408-.272h-.757v-.923l2.363-2.844v-.074h-4.025v-1.016h5.595v.831l-2.53 3.066v.074c.406.018.785.101 1.136.249.354.148.661.348.923.6.265.252.471.546.619.882.147.335.221.7.221 1.094 0 .538-.138 1.019-.415 1.44a2.814 2.814 0 0 1-1.141.988c-.483.24-1.041.36-1.675.36a3.967 3.967 0 0 1-1.547-.295 2.828 2.828 0 0 1-1.149-.854c-.296-.373-.462-.82-.499-1.344Zm11.339 2.493c-.634 0-1.194-.112-1.68-.337a2.75 2.75 0 0 1-1.131-.937 2.352 2.352 0 0 1-.402-1.366 2.514 2.514 0 0 1 .891-1.962c.28-.231.593-.377.937-.439v-.055a1.827 1.827 0 0 1-1.08-.762 2.307 2.307 0 0 1-.397-1.343c-.003-.481.118-.91.365-1.288a2.558 2.558 0 0 1 1.015-.896c.434-.219.928-.328 1.482-.328.548 0 1.037.109 1.468.328.431.218.77.517 1.016.896.249.378.375.807.378 1.288-.003.501-.14.949-.41 1.343a1.826 1.826 0 0 1-1.067.762v.055c.342.062.65.208.923.439.274.227.493.512.656.854.163.338.246.708.249 1.108a2.384 2.384 0 0 1-.415 1.366 2.75 2.75 0 0 1-1.131.937c-.48.225-1.036.337-1.667.337Zm0-1.015c.428 0 .797-.07 1.108-.208.311-.139.551-.334.72-.586.17-.253.256-.548.259-.887a1.704 1.704 0 0 0-.277-.946 1.88 1.88 0 0 0-.743-.646 2.337 2.337 0 0 0-1.067-.236c-.403 0-.763.079-1.08.236a1.873 1.873 0 0 0-.743.646 1.655 1.655 0 0 0-.263.946c-.004.339.078.634.244.887.169.252.411.447.725.586.314.138.686.208 1.117.208Zm0-4.488c.339 0 .639-.067.9-.203.265-.135.473-.324.624-.568a1.62 1.62 0 0 0 .23-.854 1.571 1.571 0 0 0-.226-.835 1.46 1.46 0 0 0-.614-.554 2.001 2.001 0 0 0-.914-.199c-.354 0-.663.067-.928.199a1.436 1.436 0 0 0-.614.554 1.547 1.547 0 0 0-.212.835c-.003.327.069.611.217.854.151.244.358.433.623.568.265.136.569.203.914.203Zm4.761 3.435v-.942l3.785-6.574h1.127l-3.693 6.427v.073h5.613v1.016h-6.832Zm4.45 1.939V127.091h1.09V133h-1.09Zm4.131 0v-7.091h1.052v1.071h.074a1.68 1.68 0 0 1 .697-.854 2.08 2.08 0 0 1 1.15-.328c.197 0 .369.023.517.07.148.046.277.109.388.189l-.37.923a1.504 1.504 0 0 0-.628-.129c-.344 0-.652.072-.923.217-.268.144-.48.341-.637.591a1.59 1.59 0 0 0-.231.854V133h-1.089Zm7.999-9.455V133h-1.145v-7.793h-.074c-.043.087-.154.185-.332.296a2.955 2.955 0 0 1-.693.286c-.283.08-.606.12-.969.12v-.96c.366 0 .683-.066.951-.199.268-.132.491-.287.669-.466.182-.178.319-.34.411-.485a9.92 9.92 0 0 0 .166-.254h1.016Z"/><path fill="#F1FBF9" d="M267 124a4 4 0 0 1 4-4h101a4 4 0 0 1 4 4v8a4 4 0 0 1-4 4H271a4 4 0 0 1-4-4v-8Z"/><path stroke="#0DB096" stroke-opacity=".19" d="M372 119.5a4.5 4.5 0 0 1 4.5 4.5v8a4.5 4.5 0 0 1-4.5 4.5H271a4.5 4.5 0 0 1-4.5-4.5v-8a4.5 4.5 0 0 1 4.5-4.5h101Z"/><path fill="#18B69B" d="M276.145 133v-9.455h3.194c.739 0 1.345.127 1.819.379.474.249.825.592 1.053 1.029.228.438.342.935.342 1.492 0 .557-.114 1.051-.342 1.481-.228.431-.577.77-1.048 1.016-.471.243-1.073.365-1.805.365h-2.585v-1.034h2.548c.505 0 .911-.074 1.219-.222.311-.148.535-.357.674-.628.141-.274.212-.6.212-.978a2.2 2.2 0 0 0-.212-.993 1.446 1.446 0 0 0-.679-.655c-.311-.157-.722-.236-1.232-.236h-2.013V133h-1.145Zm4.45-4.247 2.327 4.247h-1.33l-2.289-4.247h1.292Zm6.614 4.395c-.683 0-1.272-.151-1.768-.453a3.034 3.034 0 0 1-1.14-1.274c-.265-.548-.397-1.185-.397-1.911s.132-1.367.397-1.921c.268-.557.64-.991 1.117-1.301.48-.314 1.04-.471 1.681-.471.369 0 .734.061 1.094.184.36.124.688.324.983.601.296.273.531.637.706 1.089.176.452.264 1.01.264 1.671v.462h-5.466v-.942h4.358c0-.4-.08-.757-.241-1.071a1.794 1.794 0 0 0-.674-.743 1.88 1.88 0 0 0-1.024-.273c-.434 0-.81.108-1.127.324a2.126 2.126 0 0 0-.725.831 2.439 2.439 0 0 0-.253 1.098v.628c0 .536.092.99.277 1.362.187.369.447.651.78.845a2.28 2.28 0 0 0 1.158.286c.287 0 .545-.04.776-.12.234-.083.435-.206.605-.369.169-.167.3-.373.392-.619l1.053.296a2.33 2.33 0 0 1-.559.941 2.722 2.722 0 0 1-.969.628 3.591 3.591 0 0 1-1.298.222Zm7.475 0c-.665 0-1.238-.157-1.718-.471a3.072 3.072 0 0 1-1.108-1.297c-.258-.551-.388-1.181-.388-1.889 0-.72.133-1.355.397-1.906a3.135 3.135 0 0 1 1.118-1.297c.48-.314 1.04-.471 1.68-.471.499 0 .948.092 1.348.277.4.184.728.443.983.775.256.333.414.72.476 1.164h-1.09a1.684 1.684 0 0 0-.554-.859c-.283-.252-.664-.379-1.144-.379-.425 0-.798.111-1.118.333-.317.218-.564.528-.743.928-.175.397-.263.863-.263 1.399 0 .547.086 1.024.258 1.431.176.406.422.721.739.946.32.225.696.337 1.127.337.283 0 .54-.049.77-.148.231-.098.427-.24.587-.424.16-.185.274-.407.341-.665h1.09a2.535 2.535 0 0 1-.457 1.131c-.24.332-.559.597-.956.794-.394.194-.852.291-1.375.291Zm7.261 0c-.64 0-1.202-.153-1.685-.457a3.107 3.107 0 0 1-1.126-1.279c-.268-.548-.402-1.188-.402-1.921 0-.738.134-1.383.402-1.934a3.094 3.094 0 0 1 1.126-1.283c.483-.305 1.045-.457 1.685-.457.64 0 1.201.152 1.681.457.483.304.858.732 1.126 1.283.271.551.406 1.196.406 1.934 0 .733-.135 1.373-.406 1.921a3.066 3.066 0 0 1-1.126 1.279c-.48.304-1.041.457-1.681.457Zm0-.979c.486 0 .887-.125 1.201-.374.313-.249.546-.577.697-.983.15-.406.226-.847.226-1.321 0-.473-.076-.915-.226-1.324a2.237 2.237 0 0 0-.697-.993c-.314-.252-.715-.379-1.201-.379-.486 0-.886.127-1.2.379a2.23 2.23 0 0 0-.697.993 3.796 3.796 0 0 0-.226 1.324c0 .474.075.915.226 1.321.151.406.383.734.697.983.314.249.714.374 1.2.374Zm4.876.831v-7.091h1.053v1.108h.092c.148-.379.387-.672.716-.882.329-.212.725-.318 1.186-.318.468 0 .857.106 1.168.318.314.21.559.503.734.882h.074c.182-.366.454-.657.817-.872.363-.219.799-.328 1.307-.328.634 0 1.152.198 1.555.595.404.394.605 1.008.605 1.842V133h-1.089v-4.746c0-.523-.143-.897-.43-1.122a1.592 1.592 0 0 0-1.011-.337c-.498 0-.884.151-1.158.453-.274.298-.411.677-.411 1.136V133h-1.108v-4.857c0-.403-.131-.727-.393-.974-.261-.249-.598-.374-1.011-.374-.283 0-.547.076-.794.227-.243.15-.44.36-.591.628-.147.264-.221.57-.221.918V133h-1.09Zm11.299 0v-7.091h1.053v1.108h.092c.148-.379.386-.672.716-.882.329-.212.724-.318 1.186-.318.468 0 .857.106 1.168.318.314.21.559.503.734.882h.074c.182-.366.454-.657.817-.872.363-.219.799-.328 1.307-.328.634 0 1.152.198 1.555.595.403.394.605 1.008.605 1.842V133h-1.089v-4.746c0-.523-.144-.897-.43-1.122a1.592 1.592 0 0 0-1.011-.337c-.498 0-.885.151-1.159.453-.273.298-.41.677-.41 1.136V133h-1.108v-4.857c0-.403-.131-.727-.393-.974-.261-.249-.598-.374-1.011-.374-.283 0-.548.076-.794.227-.243.15-.44.36-.591.628-.147.264-.221.57-.221.918V133h-1.09Zm14.272.148c-.683 0-1.273-.151-1.768-.453a3.028 3.028 0 0 1-1.14-1.274c-.265-.548-.397-1.185-.397-1.911s.132-1.367.397-1.921a3.12 3.12 0 0 1 1.117-1.301c.48-.314 1.04-.471 1.68-.471.37 0 .734.061 1.094.184.36.124.688.324.984.601.295.273.531.637.706 1.089.175.452.263 1.01.263 1.671v.462h-5.466v-.942h4.358c0-.4-.08-.757-.24-1.071a1.807 1.807 0 0 0-.674-.743 1.884 1.884 0 0 0-1.025-.273c-.434 0-.809.108-1.126.324a2.118 2.118 0 0 0-.725.831 2.44 2.44 0 0 0-.254 1.098v.628c0 .536.092.99.277 1.362.188.369.448.651.78.845.333.191.719.286 1.159.286.286 0 .545-.04.776-.12.234-.083.435-.206.604-.369.17-.167.3-.373.393-.619l1.052.296c-.11.357-.297.67-.558.941a2.726 2.726 0 0 1-.97.628 3.586 3.586 0 0 1-1.297.222Zm5.683-4.414V133h-1.09v-7.091h1.053v1.108h.092c.167-.36.419-.649.757-.868.339-.221.776-.332 1.312-.332.48 0 .9.098 1.26.295.36.194.64.49.84.887.2.394.3.892.3 1.495V133h-1.089v-4.432c0-.557-.145-.991-.434-1.302-.29-.314-.687-.471-1.191-.471a1.9 1.9 0 0 0-.933.227c-.271.15-.485.371-.642.66-.157.289-.235.64-.235 1.052Zm9.192 4.414c-.59 0-1.112-.15-1.564-.448-.453-.302-.807-.726-1.062-1.274-.256-.551-.383-1.202-.383-1.953 0-.745.127-1.391.383-1.939.255-.548.611-.971 1.066-1.269.456-.299.982-.448 1.579-.448.462 0 .826.077 1.094.231.271.15.477.323.619.517.144.19.257.347.337.471h.092v-3.491h1.089V133h-1.052v-1.089h-.129c-.08.129-.194.292-.342.489a2.029 2.029 0 0 1-.632.522c-.274.15-.639.226-1.095.226Zm.148-.979c.437 0 .807-.114 1.108-.342.302-.23.531-.549.688-.955.157-.41.235-.882.235-1.417 0-.53-.076-.993-.23-1.39-.154-.4-.382-.711-.684-.933-.301-.224-.674-.337-1.117-.337-.461 0-.846.119-1.154.356a2.124 2.124 0 0 0-.688.956c-.151.4-.226.849-.226 1.348 0 .504.077.963.231 1.375.157.41.388.736.692.979.308.24.69.36 1.145.36Zm8.222.979c-.683 0-1.272-.151-1.768-.453a3.034 3.034 0 0 1-1.14-1.274c-.265-.548-.397-1.185-.397-1.911s.132-1.367.397-1.921c.268-.557.64-.991 1.117-1.301.48-.314 1.04-.471 1.68-.471.37 0 .734.061 1.094.184.361.124.688.324.984.601.295.273.531.637.706 1.089.176.452.263 1.01.263 1.671v.462h-5.466v-.942h4.358c0-.4-.08-.757-.24-1.071a1.8 1.8 0 0 0-.674-.743 1.884 1.884 0 0 0-1.025-.273c-.434 0-.809.108-1.126.324a2.118 2.118 0 0 0-.725.831 2.44 2.44 0 0 0-.254 1.098v.628c0 .536.093.99.277 1.362.188.369.448.651.78.845.333.191.719.286 1.159.286.286 0 .545-.04.776-.12.234-.083.435-.206.604-.369.17-.167.301-.373.393-.619l1.052.296c-.11.357-.297.67-.558.941a2.726 2.726 0 0 1-.97.628 3.586 3.586 0 0 1-1.297.222Zm7.271 0c-.591 0-1.112-.15-1.565-.448-.452-.302-.806-.726-1.062-1.274-.255-.551-.383-1.202-.383-1.953 0-.745.128-1.391.383-1.939.256-.548.611-.971 1.067-1.269.455-.299.982-.448 1.579-.448.461 0 .826.077 1.094.231.271.15.477.323.618.517.145.19.257.347.337.471h.093v-3.491h1.089V133h-1.052v-1.089h-.13c-.08.129-.194.292-.341.489a2.033 2.033 0 0 1-.633.522c-.274.15-.638.226-1.094.226Zm.148-.979c.437 0 .806-.114 1.108-.342.301-.23.531-.549.688-.955.157-.41.235-.882.235-1.417 0-.53-.077-.993-.231-1.39-.154-.4-.381-.711-.683-.933-.302-.224-.674-.337-1.117-.337-.462 0-.847.119-1.154.356a2.124 2.124 0 0 0-.688.956c-.151.4-.226.849-.226 1.348 0 .504.077.963.23 1.375.157.41.388.736.693.979.308.24.689.36 1.145.36Z"/><g filter="url(#b)"><path fill="#fff" d="M44 181a8 8 0 1 1 16 0 8 8 0 0 1-16 0Z"/></g><path fill="#6B716A" d="M77.039 186v-9.455h3.37c.732 0 1.34.127 1.823.379.487.252.85.602 1.09 1.048.24.443.36.956.36 1.537 0 .579-.122 1.088-.365 1.528-.24.437-.603.777-1.09 1.021-.483.243-1.09.364-1.823.364h-2.553v-1.228h2.424c.462 0 .837-.066 1.126-.198.293-.133.507-.325.642-.577.135-.253.203-.556.203-.91 0-.357-.07-.666-.208-.928a1.347 1.347 0 0 0-.641-.6c-.29-.141-.67-.212-1.14-.212h-1.792V186H77.04Zm4.667-4.266L84.042 186h-1.625l-2.29-4.266h1.579Zm8.868-2.705a1.35 1.35 0 0 0-.61-1.016c-.356-.243-.805-.364-1.347-.364-.388 0-.723.061-1.007.184-.283.12-.503.287-.66.499-.154.209-.23.448-.23.716 0 .224.052.418.156.581.108.163.248.3.42.411.176.108.364.199.564.272.2.071.392.13.577.176l.923.24c.302.074.611.174.928.3.317.126.61.292.882.499.27.206.49.461.655.766.17.305.254.669.254 1.094 0 .536-.138 1.011-.415 1.427-.274.415-.673.743-1.196.983-.52.24-1.15.36-1.888.36-.708 0-1.32-.112-1.837-.337-.517-.225-.922-.543-1.215-.956-.292-.415-.454-.908-.484-1.477h1.43c.028.342.14.626.333.854.197.225.448.393.753.503.307.108.644.162 1.01.162a2.87 2.87 0 0 0 1.076-.189c.317-.13.567-.308.748-.536.182-.231.272-.5.272-.808 0-.28-.08-.509-.24-.688a1.78 1.78 0 0 0-.641-.443 6.24 6.24 0 0 0-.91-.309l-1.117-.305c-.757-.206-1.357-.509-1.8-.909-.44-.4-.66-.93-.66-1.588 0-.545.147-1.021.443-1.427a2.906 2.906 0 0 1 1.2-.946c.505-.228 1.074-.342 1.708-.342.64 0 1.205.113 1.694.337.493.225.88.534 1.164.928.283.391.43.84.443 1.348h-1.376ZM94.506 186h-1.514l3.402-9.455h1.648l3.403 9.455h-1.514l-2.673-7.737h-.074L94.506 186Zm.254-3.702h4.912v1.2H94.76v-1.2Z"/><path fill="#8B918A" d="M123.145 186v-9.455h1.145v8.439h4.395V186h-5.54Zm10.138.148c-.684 0-1.273-.151-1.768-.453a3.03 3.03 0 0 1-1.141-1.274c-.264-.548-.397-1.185-.397-1.911s.133-1.367.397-1.921c.268-.557.64-.991 1.117-1.301.481-.314 1.041-.471 1.681-.471.369 0 .734.061 1.094.184.36.124.688.324.983.601.296.273.531.637.707 1.089.175.452.263 1.01.263 1.671v.462h-5.466v-.942h4.358c0-.4-.08-.757-.24-1.071a1.807 1.807 0 0 0-.674-.743 1.886 1.886 0 0 0-1.025-.273c-.434 0-.81.108-1.127.324a2.124 2.124 0 0 0-.724.831c-.17.341-.254.707-.254 1.098v.628c0 .536.092.99.277 1.362.187.369.448.651.78.845.332.191.719.286 1.159.286.286 0 .544-.04.775-.12.234-.083.436-.206.605-.369.169-.167.3-.373.392-.619l1.053.296a2.33 2.33 0 0 1-.559.941 2.713 2.713 0 0 1-.969.628 3.59 3.59 0 0 1-1.297.222Zm7.455 2.659c-.526 0-.978-.068-1.357-.203a2.874 2.874 0 0 1-1.542-1.219l.868-.609c.099.129.223.277.374.443.151.169.357.315.619.438.264.126.61.19 1.038.19.573 0 1.045-.139 1.418-.416.372-.277.558-.711.558-1.302v-1.44h-.092c-.08.129-.194.289-.342.48a1.917 1.917 0 0 1-.628.503c-.27.145-.637.217-1.098.217a2.955 2.955 0 0 1-1.542-.406c-.453-.271-.811-.665-1.076-1.182-.262-.517-.392-1.145-.392-1.883 0-.727.127-1.359.383-1.898.255-.541.611-.96 1.066-1.255.456-.299.982-.448 1.579-.448.462 0 .828.077 1.099.231.274.15.483.323.628.517.147.19.261.347.341.471h.111v-1.127h1.053v7.294c0 .609-.139 1.105-.416 1.487a2.365 2.365 0 0 1-1.108.844 4.167 4.167 0 0 1-1.542.273Zm-.037-3.896c.437 0 .807-.101 1.108-.301.302-.2.531-.487.688-.863.157-.375.236-.825.236-1.348 0-.511-.077-.962-.231-1.352a2.031 2.031 0 0 0-.683-.919c-.302-.222-.674-.333-1.118-.333-.461 0-.846.117-1.154.351a2.144 2.144 0 0 0-.688.942c-.15.394-.226.831-.226 1.311 0 .493.077.928.231 1.307.157.375.388.671.692.886.308.212.69.319 1.145.319Zm7.774 1.237c-.59 0-1.112-.15-1.564-.448-.453-.302-.807-.726-1.062-1.274-.256-.551-.383-1.202-.383-1.953 0-.745.127-1.391.383-1.939.255-.548.611-.971 1.066-1.269.456-.299.982-.448 1.579-.448.462 0 .826.077 1.094.231.271.15.477.323.619.517.144.19.257.347.337.471h.092v-1.127h1.089V186h-1.052v-1.089h-.129c-.08.129-.194.292-.342.489a2.029 2.029 0 0 1-.632.522c-.274.15-.639.226-1.095.226Zm.148-.979c.437 0 .807-.114 1.108-.342.302-.23.531-.549.688-.955.157-.41.235-.882.235-1.417 0-.53-.076-.993-.23-1.39-.154-.4-.382-.711-.684-.933-.301-.224-.674-.337-1.117-.337-.461 0-.846.119-1.154.356a2.124 2.124 0 0 0-.688.956c-.151.4-.226.849-.226 1.348 0 .504.077.963.231 1.375.157.41.388.736.692.979.308.24.69.36 1.145.36Zm8.13.979c-.665 0-1.237-.157-1.717-.471a3.058 3.058 0 0 1-1.108-1.297c-.259-.551-.388-1.181-.388-1.889 0-.72.132-1.355.397-1.906.268-.554.64-.987 1.117-1.297.48-.314 1.04-.471 1.68-.471.499 0 .948.092 1.348.277.4.184.728.443.984.775.255.333.414.72.475 1.164h-1.089a1.69 1.69 0 0 0-.554-.859c-.283-.252-.665-.379-1.145-.379a1.91 1.91 0 0 0-1.117.333c-.317.218-.565.528-.744.928-.175.397-.263.863-.263 1.399 0 .547.086 1.024.259 1.431.175.406.421.721.738.946.32.225.696.337 1.127.337.283 0 .54-.049.771-.148.231-.098.426-.24.586-.424.16-.185.274-.407.342-.665h1.089a2.524 2.524 0 0 1-.457 1.131c-.24.332-.558.597-.955.794-.394.194-.853.291-1.376.291Zm5.083 2.511c-.185 0-.35-.015-.494-.046a1.292 1.292 0 0 1-.3-.083l.277-.96c.264.067.498.092.701.073a.839.839 0 0 0 .54-.272c.16-.16.307-.42.439-.78l.203-.554-2.622-7.128h1.182l1.957 5.651h.074l1.957-5.651h1.182l-3.01 8.125a3.083 3.083 0 0 1-.503.91c-.2.243-.432.423-.697.54a2.15 2.15 0 0 1-.886.175Z"/><defs><filter id="b" width="20" height="20" x="42" y="172" color-interpolation-filters="sRGB" filterUnits="userSpaceOnUse"><feFlood flood-opacity="0" result="BackgroundImageFix"/><feColorMatrix in="SourceAlpha" result="hardAlpha" values="0 0 0 0 0 0 0 0 0 0 0 0 0 0 0 0 0 0 127 0"/><feOffset dy="1"/><feGaussianBlur stdDeviation="1"/><feComposite in2="hardAlpha" operator="out"/><feColorMatrix values="0 0 0 0 0 0 0 0 0 0 0 0 0 0 0 0 0 0 0.06 0"/><feBlend in2="BackgroundImageFix" result="effect1_dropShadow_1546_6673"/><feColorMatrix in="SourceAlpha" result="hardAlpha" values="0 0 0 0 0 0 0 0 0 0 0 0 0 0 0 0 0 0 127 0"/><feOffset/><feGaussianBlur stdDeviation=".5"/><feComposite in2="hardAlpha" operator="out"/><feColorMatrix values="0 0 0 0 0 0 0 0 0 0 0 0 0 0 0 0 0 0 0.03 0"/><feBlend in2="effect1_dropShadow_1546_6673" result="effect2_dropShadow_1546_6673"/><feColorMatrix in="SourceAlpha" result="hardAlpha" values="0 0 0 0 0 0 0 0 0 0 0 0 0 0 0 0 0 0 127 0"/><feMorphology in="SourceAlpha" operator="dilate" radius="1" result="effect3_dropShadow_1546_6673"/><feOffset/><feComposite in2="hardAlpha" operator="out"/><feColorMatrix values="0 0 0 0 0 0 0 0 0 0.101961 0 0 0 0 0.2 0 0 0 0.16 0"/><feBlend in2="effect2_dropShadow_1546_6673" result="effect3_dropShadow_1546_6673"/><feBlend in="SourceGraphic" in2="effect3_dropShadow_1546_6673" result="shape"/></filter></defs></svg>