<svg xmlns="http://www.w3.org/2000/svg" width="420" height="274" fill="none"><rect width="420" height="274" fill="#FCFDFC" rx="16"/><rect width="419" height="273" x=".5" y=".5" stroke="#012201" stroke-opacity=".12" rx="15.5"/><rect width="404" height="258" x="8" y="8" fill="#fff" rx="8" style="filter:drop-shadow(0 1px 1px rgba(21,23,21,.05)) drop-shadow(0 2px 2px rgba(21,23,21,.05)) drop-shadow(0 4px 4px rgba(21,23,21,.05))"/><rect width="405" height="259" x="7.5" y="7.5" stroke="#012201" stroke-opacity=".12" rx="8.5"/><path fill="#141E12" d="M29.119 43V32.818h6.313v1.323h-4.777v3.102h4.325v1.317h-4.325V43h-1.536Zm10.74.154c-.716 0-1.341-.164-1.875-.492a3.319 3.319 0 0 1-1.243-1.377c-.295-.59-.442-1.28-.442-2.068 0-.792.147-1.485.442-2.078a3.312 3.312 0 0 1 1.243-1.383c.534-.328 1.159-.492 1.874-.492.716 0 1.341.164 1.875.492.533.328.948.79 1.243 1.383.295.593.442 1.285.442 2.078 0 .788-.147 1.478-.442 2.068a3.319 3.319 0 0 1-1.243 1.377c-.534.328-1.159.492-1.874.492Zm.005-1.248c.464 0 .848-.122 1.153-.368.305-.245.53-.571.676-.98.15-.407.224-.856.224-1.346 0-.488-.075-.935-.224-1.343a2.187 2.187 0 0 0-.676-.989c-.305-.249-.69-.373-1.154-.373-.467 0-.855.124-1.163.373a2.221 2.221 0 0 0-.681.99 3.96 3.96 0 0 0-.219 1.342c0 .49.073.94.219 1.347.15.408.376.734.681.98.308.245.696.367 1.163.367ZM45.077 43v-7.636h1.437v1.213h.08c.139-.411.384-.734.736-.97a2.091 2.091 0 0 1 1.203-.358c.209 0 .396.025.561.075.166.05.312.117.438.204l-.477 1.243a1.477 1.477 0 0 0-.304-.105 1.522 1.522 0 0 0-.387-.045 1.89 1.89 0 0 0-.925.224 1.684 1.684 0 0 0-.641.607 1.68 1.68 0 0 0-.234.885V43h-1.487Zm8.48 3.023c-.607 0-1.13-.08-1.567-.239-.434-.159-.788-.37-1.064-.631a2.65 2.65 0 0 1-.616-.86l1.278-.527c.09.145.209.3.358.462.152.166.358.307.616.423.262.116.598.174 1.01.174.563 0 1.028-.138 1.396-.413.368-.272.552-.706.552-1.303v-1.501h-.094c-.09.162-.219.343-.388.542a2.097 2.097 0 0 1-.686.517c-.292.146-.671.219-1.139.219-.603 0-1.146-.141-1.63-.423-.48-.285-.862-.704-1.144-1.258-.278-.557-.417-1.241-.417-2.053 0-.812.137-1.508.412-2.088.279-.58.66-1.024 1.144-1.333a2.974 2.974 0 0 1 1.645-.467c.474 0 .857.08 1.149.239.291.156.519.338.68.547.167.209.294.393.384.552h.11v-1.238h1.456v7.805c0 .656-.153 1.195-.458 1.616-.304.42-.717.732-1.237.934-.518.203-1.1.304-1.75.304Zm-.016-4.37c.428 0 .79-.1 1.084-.299.299-.202.524-.49.676-.865.156-.377.234-.83.234-1.357 0-.514-.076-.966-.228-1.357-.153-.391-.377-.696-.672-.915-.295-.222-.66-.333-1.093-.333-.448 0-.82.116-1.12.348-.297.229-.523.54-.675.935-.15.394-.224.835-.224 1.322 0 .5.076.94.229 1.318.152.377.378.672.676.884.302.213.673.319 1.114.319Zm8.746 1.501c-.753 0-1.4-.16-1.944-.482a3.271 3.271 0 0 1-1.253-1.367c-.292-.59-.438-1.281-.438-2.074 0-.782.146-1.471.438-2.068a3.398 3.398 0 0 1 1.233-1.397c.53-.334 1.15-.502 1.86-.502.43 0 .848.072 1.252.214.404.142.767.366 1.089.671.321.305.575.701.76 1.188.186.484.279 1.073.279 1.765v.527h-6.07v-1.113h4.613c0-.392-.08-.738-.238-1.04a1.803 1.803 0 0 0-.672-.72 1.875 1.875 0 0 0-1.004-.264 1.94 1.94 0 0 0-1.094.308 2.068 2.068 0 0 0-.715.796 2.295 2.295 0 0 0-.25 1.059v.87c0 .51.09.944.27 1.302.182.358.435.632.76.82.325.186.704.28 1.139.28.281 0 .538-.04.77-.12a1.599 1.599 0 0 0 .99-.97l1.406.254a2.549 2.549 0 0 1-.606 1.089 2.941 2.941 0 0 1-1.089.72c-.434.17-.93.254-1.486.254Zm11.489-.005a2.959 2.959 0 0 1-1.65-.472c-.481-.318-.86-.77-1.134-1.357-.272-.59-.408-1.298-.408-2.123 0-.826.138-1.532.413-2.118.278-.587.66-1.036 1.143-1.348a2.974 2.974 0 0 1 1.646-.467c.474 0 .855.08 1.143.239.292.156.517.338.677.547.162.209.288.393.377.552h.09v-3.784h1.486V43h-1.451v-1.188h-.125a3.93 3.93 0 0 1-.388.557 2.155 2.155 0 0 1-.686.547c-.291.155-.67.233-1.133.233Zm.328-1.268c.428 0 .789-.112 1.084-.338.298-.228.523-.545.676-.95.156-.404.234-.874.234-1.411 0-.53-.077-.995-.229-1.392-.153-.398-.376-.708-.671-.93-.295-.222-.66-.333-1.094-.333-.447 0-.82.116-1.119.348a2.127 2.127 0 0 0-.676.95c-.149.4-.223.853-.223 1.357 0 .51.076.97.228 1.377.153.408.378.73.676.97.302.235.673.352 1.114.352Zm8.793 1.273c-.715 0-1.34-.164-1.874-.492a3.317 3.317 0 0 1-1.243-1.377c-.295-.59-.442-1.28-.442-2.068 0-.792.147-1.485.442-2.078a3.31 3.31 0 0 1 1.243-1.383c.534-.328 1.159-.492 1.874-.492.716 0 1.341.164 1.875.492a3.31 3.31 0 0 1 1.243 1.383c.295.593.442 1.285.442 2.078 0 .788-.147 1.478-.442 2.068a3.317 3.317 0 0 1-1.243 1.377c-.534.328-1.159.492-1.875.492Zm.005-1.248c.465 0 .849-.122 1.154-.368.305-.245.53-.571.676-.98.15-.407.224-.856.224-1.346 0-.488-.075-.935-.224-1.343a2.187 2.187 0 0 0-.676-.989c-.305-.249-.69-.373-1.153-.373-.468 0-.856.124-1.164.373a2.22 2.22 0 0 0-.68.99 3.958 3.958 0 0 0-.22 1.342c0 .49.073.94.22 1.347.148.408.375.734.68.98.308.245.696.367 1.163.367ZM88.118 43v-7.636h1.426v1.242h.095c.159-.42.42-.748.78-.984.362-.239.794-.358 1.298-.358.51 0 .938.12 1.283.358.348.239.605.567.77.984h.08a2.15 2.15 0 0 1 .87-.974c.398-.245.871-.368 1.422-.368.692 0 1.257.217 1.695.651.44.435.661 1.09.661 1.964V43h-1.486v-4.981c0-.518-.141-.892-.423-1.124a1.537 1.537 0 0 0-1.01-.348c-.483 0-.86.149-1.128.447-.268.295-.402.675-.402 1.139V43h-1.482v-5.076c0-.414-.13-.747-.388-1-.258-.251-.595-.377-1.009-.377-.282 0-.542.074-.78.224-.236.145-.426.35-.572.611a1.872 1.872 0 0 0-.214.91V43h-1.486Zm15.231.15a2.958 2.958 0 0 1-1.65-.473c-.481-.318-.859-.77-1.134-1.357-.272-.59-.408-1.298-.408-2.123 0-.826.138-1.532.413-2.118.278-.587.66-1.036 1.144-1.348a2.97 2.97 0 0 1 1.645-.467c.474 0 .855.08 1.144.239.291.156.517.338.676.547.162.209.288.393.378.552h.089v-1.238h1.487V43h-1.452v-1.188h-.124c-.09.162-.219.348-.388.557a2.165 2.165 0 0 1-.686.547c-.292.155-.67.233-1.134.233Zm.328-1.269c.428 0 .789-.112 1.084-.338.298-.228.524-.545.676-.95.156-.404.234-.874.234-1.411 0-.53-.076-.995-.229-1.392-.152-.398-.376-.708-.671-.93-.295-.222-.66-.333-1.094-.333-.447 0-.82.116-1.118.348a2.118 2.118 0 0 0-.676.95c-.15.4-.224.853-.224 1.357 0 .51.076.97.229 1.377.152.408.377.73.676.97.301.235.672.352 1.113.352ZM109.253 43v-7.636h1.487V43h-1.487Zm.751-8.815a.943.943 0 0 1-.666-.258.838.838 0 0 1-.274-.627c0-.245.091-.454.274-.626a.933.933 0 0 1 .666-.264c.258 0 .479.088.661.264a.823.823 0 0 1 .279.626c0 .242-.093.451-.279.627a.927.927 0 0 1-.661.258Zm4.222 4.28V43h-1.486v-7.636h1.426v1.242h.095c.175-.404.451-.729.825-.974.378-.245.854-.368 1.427-.368.52 0 .976.11 1.367.328.391.216.695.537.91.965.215.427.323.956.323 1.586V43h-1.486v-4.678c0-.554-.145-.986-.433-1.298-.288-.315-.684-.472-1.188-.472-.345 0-.651.074-.92.224-.265.149-.476.367-.631.656-.153.285-.229.63-.229 1.034Z"/><path fill="#6B716A" d="M29.145 67v-9.455h5.706v1.016H30.29v3.195h4.265v1.015H30.29v3.213h4.635V67h-5.78Zm13.42-7.09L39.943 67h-1.108l-2.622-7.09h1.181l1.958 5.65h.074l1.957-5.65h1.182Zm4.157 7.238c-.683 0-1.273-.151-1.768-.453a3.037 3.037 0 0 1-1.14-1.274c-.265-.548-.397-1.185-.397-1.911s.132-1.366.397-1.92c.267-.558.64-.992 1.117-1.302.48-.314 1.04-.471 1.68-.471.37 0 .734.061 1.094.184.36.123.688.324.984.6.295.275.53.638.706 1.09.175.453.263 1.01.263 1.671v.462h-5.466v-.942h4.358c0-.4-.08-.757-.24-1.07a1.81 1.81 0 0 0-.674-.744 1.887 1.887 0 0 0-1.025-.273c-.434 0-.81.108-1.126.324-.314.212-.556.489-.725.83a2.44 2.44 0 0 0-.254 1.1v.627c0 .536.093.99.277 1.362.188.37.448.65.78.845.333.19.719.286 1.16.286.285 0 .544-.04.775-.12a1.66 1.66 0 0 0 .605-.37c.169-.166.3-.372.392-.618l1.052.295c-.11.358-.297.672-.558.942a2.722 2.722 0 0 1-.97.628 3.595 3.595 0 0 1-1.297.222ZM51.315 67v-7.09h1.053v1.07h.074c.126-.35.358-.635.697-.854a2.074 2.074 0 0 1 1.15-.328c.197 0 .369.023.517.07.147.046.277.109.387.189l-.369.923a1.045 1.045 0 0 0-.272-.092 1.522 1.522 0 0 0-.356-.037 1.93 1.93 0 0 0-.923.217c-.268.145-.48.341-.637.59-.154.25-.231.535-.231.855V67h-1.09Zm5.806 2.66c-.185 0-.35-.016-.494-.047a1.303 1.303 0 0 1-.3-.083l.277-.96a2.1 2.1 0 0 0 .701.074.841.841 0 0 0 .54-.273c.16-.16.307-.42.44-.78l.202-.554-2.622-7.128h1.182l1.957 5.65h.074l1.957-5.65h1.182l-3.01 8.125c-.135.366-.303.67-.503.91-.2.243-.432.423-.697.54a2.15 2.15 0 0 1-.886.175Zm15.213-8.163-.978.277a1.815 1.815 0 0 0-.273-.475 1.321 1.321 0 0 0-.48-.388c-.203-.102-.463-.153-.78-.153-.434 0-.796.1-1.085.3-.286.198-.43.448-.43.753 0 .27.1.485.296.642.197.157.505.287.924.392l1.052.259c.634.154 1.106.389 1.417.706.311.314.467.719.467 1.214a1.8 1.8 0 0 1-.351 1.09c-.231.32-.554.572-.97.757-.415.184-.898.277-1.45.277-.722 0-1.321-.157-1.795-.471-.474-.314-.774-.773-.9-1.376l1.034-.258c.098.381.285.667.558.858.277.191.639.287 1.085.287.508 0 .911-.108 1.21-.324.301-.218.452-.48.452-.785a.825.825 0 0 0-.258-.618c-.173-.17-.437-.296-.794-.379l-1.182-.277c-.65-.154-1.127-.392-1.431-.715-.302-.326-.453-.734-.453-1.224 0-.4.113-.754.337-1.061.228-.308.537-.55.928-.725.394-.175.84-.263 1.339-.263.702 0 1.253.154 1.653.461.403.308.69.714.858 1.22ZM74.104 67v-7.09h1.09V67h-1.09Zm.554-8.273a.775.775 0 0 1-.55-.217.697.697 0 0 1-.226-.521c0-.203.075-.377.226-.522a.774.774 0 0 1 .55-.217c.212 0 .394.072.544.217a.69.69 0 0 1 .231.522.69.69 0 0 1-.23.521.759.759 0 0 1-.545.217Zm5.614 1.182v.923h-3.674v-.923h3.674ZM77.67 58.21h1.09v6.759c0 .308.044.538.133.692.092.151.21.253.35.305.145.05.298.074.458.074.12 0 .218-.006.295-.019l.185-.037.222.98a2.212 2.212 0 0 1-.31.082c-.132.03-.3.046-.503.046-.308 0-.61-.066-.905-.198a1.797 1.797 0 0 1-.73-.605c-.19-.27-.285-.612-.285-1.025V58.21Zm7.14 8.938c-.684 0-1.273-.151-1.769-.453a3.036 3.036 0 0 1-1.14-1.274c-.265-.548-.397-1.185-.397-1.911s.132-1.366.397-1.92c.267-.558.64-.992 1.117-1.302.48-.314 1.04-.471 1.68-.471.37 0 .734.061 1.094.184.36.123.688.324.984.6.295.275.53.638.706 1.09.175.453.263 1.01.263 1.671v.462h-5.466v-.942h4.358c0-.4-.08-.757-.24-1.07a1.809 1.809 0 0 0-.674-.744 1.887 1.887 0 0 0-1.025-.273c-.434 0-.81.108-1.126.324-.314.212-.556.489-.725.83a2.44 2.44 0 0 0-.254 1.1v.627c0 .536.093.99.277 1.362.188.37.448.65.78.845.333.19.719.286 1.16.286.285 0 .544-.04.775-.12a1.66 1.66 0 0 0 .604-.37c.17-.166.3-.372.393-.618l1.052.295c-.11.358-.297.672-.558.942a2.722 2.722 0 0 1-.97.628 3.594 3.594 0 0 1-1.297.222ZM93.057 67v-7.09h1.09V67h-1.09Zm.554-8.273a.775.775 0 0 1-.55-.217.697.697 0 0 1-.226-.521c0-.203.076-.377.226-.522a.774.774 0 0 1 .55-.217c.212 0 .394.072.544.217a.69.69 0 0 1 .231.522.69.69 0 0 1-.23.521.759.759 0 0 1-.545.217Zm3.62 4.007V67h-1.09v-7.09h1.053v1.107h.093c.166-.36.418-.65.757-.868.338-.221.775-.332 1.31-.332.48 0 .901.098 1.261.295.36.194.64.49.84.887.2.393.3.892.3 1.495V67h-1.089v-4.432c0-.557-.145-.99-.434-1.302-.29-.314-.687-.47-1.191-.47-.348 0-.659.075-.933.226-.27.15-.484.37-.641.66-.157.29-.236.64-.236 1.052Zm9.396 4.414c-.665 0-1.237-.157-1.717-.471a3.059 3.059 0 0 1-1.108-1.297c-.259-.551-.388-1.18-.388-1.888 0-.72.132-1.356.397-1.907a3.14 3.14 0 0 1 1.117-1.297c.48-.314 1.04-.471 1.68-.471.499 0 .948.092 1.348.277.4.184.728.443.984.775.255.333.414.72.475 1.164h-1.089a1.69 1.69 0 0 0-.554-.859c-.283-.252-.665-.379-1.145-.379-.425 0-.797.111-1.117.333a2.17 2.17 0 0 0-.744.928c-.175.397-.263.863-.263 1.399 0 .547.086 1.024.259 1.43.175.407.421.722.738.947.32.225.696.337 1.127.337.283 0 .54-.05.771-.148a1.588 1.588 0 0 0 .928-1.09h1.089a2.52 2.52 0 0 1-1.412 1.926c-.394.194-.853.29-1.376.29Zm4.381-9.602h1.089v7.607c0 .345.039.587.116.725.077.139.235.205.475.199.13-.007.225-.016.286-.028.065-.015.124-.03.176-.046l.222.942a2.841 2.841 0 0 1-.361.074 2.684 2.684 0 0 1-.452.036c-.517 0-.905-.141-1.163-.424-.259-.284-.388-.677-.388-1.182v-7.904Zm7.833 6.555v-4.192h1.089V67h-1.089v-1.2h-.074c-.166.36-.425.666-.776.918-.35.25-.794.374-1.329.374a2.37 2.37 0 0 1-1.182-.29 2.033 2.033 0 0 1-.812-.887c-.197-.397-.296-.897-.296-1.5v-4.506h1.09v4.432c0 .517.144.93.434 1.237.292.308.664.462 1.117.462.271 0 .546-.07.826-.208.283-.138.52-.35.711-.637.194-.286.291-.651.291-1.094Zm5.762 3.047c-.591 0-1.112-.15-1.565-.448-.452-.302-.806-.726-1.061-1.274-.256-.551-.384-1.202-.384-1.953 0-.745.128-1.391.384-1.939.255-.548.611-.97 1.066-1.27.456-.298.982-.447 1.579-.447.462 0 .826.077 1.094.23.271.151.477.324.619.518.144.19.257.347.337.47h.092v-3.49h1.089V67h-1.052v-1.09h-.129c-.08.13-.194.293-.342.49a2.04 2.04 0 0 1-.632.521c-.274.151-.639.227-1.095.227Zm.148-.979c.437 0 .806-.114 1.108-.342.302-.23.531-.549.688-.955.157-.41.235-.882.235-1.417 0-.53-.077-.993-.23-1.39-.154-.4-.382-.711-.684-.932-.301-.225-.674-.338-1.117-.338-.462 0-.846.119-1.154.356a2.127 2.127 0 0 0-.688.955c-.151.4-.226.85-.226 1.349 0 .504.077.963.231 1.375.157.41.388.736.692.979.308.24.69.36 1.145.36Zm8.222.979c-.683 0-1.273-.151-1.768-.453a3.034 3.034 0 0 1-1.14-1.274c-.265-.548-.397-1.185-.397-1.911s.132-1.366.397-1.92c.267-.558.64-.992 1.117-1.302.48-.314 1.04-.471 1.68-.471.37 0 .734.061 1.094.184.36.123.688.324.984.6.295.275.531.638.706 1.09.175.453.263 1.01.263 1.671v.462h-5.466v-.942h4.358c0-.4-.08-.757-.24-1.07a1.805 1.805 0 0 0-.674-.744 1.887 1.887 0 0 0-1.025-.273c-.434 0-.809.108-1.126.324-.314.212-.556.489-.725.83a2.445 2.445 0 0 0-.254 1.1v.627c0 .536.092.99.277 1.362.188.37.448.65.78.845.333.19.719.286 1.159.286.286 0 .545-.04.776-.12.234-.083.435-.206.604-.37.17-.166.3-.372.393-.618l1.052.295a2.33 2.33 0 0 1-.558.942 2.725 2.725 0 0 1-.97.628 3.59 3.59 0 0 1-1.297.222Zm9.616-5.65-.978.276a1.833 1.833 0 0 0-.273-.475 1.322 1.322 0 0 0-.48-.388c-.203-.102-.463-.153-.78-.153-.434 0-.796.1-1.085.3-.286.198-.429.448-.429.753 0 .27.098.485.295.642.197.157.505.287.923.392l1.053.259c.634.154 1.106.389 1.417.706.311.314.466.719.466 1.214 0 .406-.116.77-.35 1.09-.231.32-.554.572-.97.757-.415.184-.899.277-1.449.277-.724 0-1.322-.157-1.796-.471-.474-.314-.774-.773-.9-1.376l1.034-.258c.098.381.284.667.558.858.277.191.639.287 1.085.287.508 0 .911-.108 1.21-.324.301-.218.452-.48.452-.785a.826.826 0 0 0-.258-.618c-.173-.17-.438-.296-.795-.379l-1.181-.277c-.65-.154-1.127-.392-1.431-.715-.302-.326-.453-.734-.453-1.224 0-.4.112-.754.337-1.061.228-.308.537-.55.928-.725.394-.175.84-.263 1.339-.263.702 0 1.252.154 1.653.461.403.308.689.714.858 1.22Zm8.306 5.65c-.64 0-1.201-.153-1.685-.457a3.106 3.106 0 0 1-1.126-1.28c-.268-.547-.402-1.187-.402-1.92 0-.738.134-1.383.402-1.934a3.1 3.1 0 0 1 1.126-1.283c.484-.305 1.045-.457 1.685-.457.641 0 1.201.152 1.681.457.483.304.858.732 1.126 1.283.271.551.406 1.196.406 1.934 0 .733-.135 1.373-.406 1.92a3.064 3.064 0 0 1-1.126 1.28c-.48.304-1.04.457-1.681.457Zm0-.979c.487 0 .887-.125 1.201-.374.314-.25.546-.577.697-.983a3.76 3.76 0 0 0 .226-1.32c0-.474-.075-.916-.226-1.325a2.234 2.234 0 0 0-.697-.993c-.314-.252-.714-.379-1.201-.379-.486 0-.886.127-1.2.379a2.234 2.234 0 0 0-.697.992c-.151.41-.226.852-.226 1.326 0 .473.075.914.226 1.32.151.406.383.734.697.983.314.25.714.374 1.2.374Zm5.966-3.435V67h-1.089v-7.09h1.052v1.107h.092c.167-.36.419-.65.758-.868.338-.221.775-.332 1.311-.332.48 0 .9.098 1.26.295.36.194.64.49.84.887.2.393.3.892.3 1.495V67h-1.089v-4.432c0-.557-.145-.99-.434-1.302-.29-.314-.687-.47-1.191-.47-.348 0-.659.075-.933.226-.271.15-.485.37-.642.66-.156.29-.235.64-.235 1.052Zm10.578-.295v1.016h-4.137v-1.016h4.137Zm5.074-2.53v.923h-3.822v-.923h3.822ZM169.837 67v-8.07c0-.406.095-.744.286-1.015.191-.271.438-.474.743-.61a2.35 2.35 0 0 1 .965-.203c.268 0 .486.022.656.065.169.043.295.083.378.12l-.314.942a4.963 4.963 0 0 0-.231-.07 1.393 1.393 0 0 0-.378-.041c-.36 0-.62.09-.78.272-.157.182-.236.448-.236.799V67h-1.089Zm6.793.148c-.64 0-1.202-.153-1.685-.457a3.108 3.108 0 0 1-1.127-1.28c-.267-.547-.401-1.187-.401-1.92 0-.738.134-1.383.401-1.934.271-.55.647-.979 1.127-1.283.483-.305 1.045-.457 1.685-.457.64 0 1.2.152 1.68.457.483.304.859.732 1.127 1.283.27.551.406 1.196.406 1.934 0 .733-.136 1.373-.406 1.92a3.066 3.066 0 0 1-1.127 1.28c-.48.304-1.04.457-1.68.457Zm0-.979c.486 0 .886-.125 1.2-.374.314-.25.546-.577.697-.983a3.76 3.76 0 0 0 .226-1.32c0-.474-.075-.916-.226-1.325a2.234 2.234 0 0 0-.697-.993c-.314-.252-.714-.379-1.2-.379s-.887.127-1.2.379a2.236 2.236 0 0 0-.698.992c-.15.41-.226.852-.226 1.326 0 .473.076.914.226 1.32.151.406.384.734.698.983.313.25.714.374 1.2.374Zm4.876.831v-7.09h1.053v1.07h.073c.127-.35.359-.635.697-.854a2.076 2.076 0 0 1 1.15-.328c.197 0 .369.023.517.07.148.046.277.109.388.189l-.37.923a1.027 1.027 0 0 0-.272-.092 1.516 1.516 0 0 0-.355-.037c-.345 0-.653.072-.924.217a1.69 1.69 0 0 0-.637.59c-.154.25-.231.535-.231.855V67h-1.089Zm7.636 2.807c-.527 0-.979-.068-1.358-.203a2.88 2.88 0 0 1-.946-.527 2.892 2.892 0 0 1-.596-.692l.868-.61c.099.13.223.278.374.444.151.169.357.315.619.438.265.127.611.19 1.039.19.572 0 1.044-.139 1.417-.416.372-.277.558-.71.558-1.302v-1.44h-.092c-.08.13-.194.29-.341.48a1.94 1.94 0 0 1-.628.503c-.271.145-.637.217-1.099.217a2.96 2.96 0 0 1-1.542-.406c-.452-.27-.811-.665-1.076-1.182-.261-.517-.392-1.145-.392-1.883 0-.727.128-1.36.383-1.898.256-.541.611-.96 1.067-1.255.455-.299.981-.448 1.578-.448.462 0 .828.077 1.099.23.274.151.483.324.628.518.148.19.262.347.342.47h.11V59.91h1.053v7.294c0 .61-.139 1.105-.416 1.487a2.362 2.362 0 0 1-1.107.844 4.183 4.183 0 0 1-1.542.273Zm-.037-3.897c.437 0 .806-.1 1.108-.3.301-.2.531-.487.687-.863.157-.375.236-.825.236-1.348 0-.51-.077-.962-.231-1.352a2.035 2.035 0 0 0-.683-.92c-.302-.22-.674-.332-1.117-.332-.462 0-.847.117-1.154.351a2.135 2.135 0 0 0-.688.942c-.151.394-.227.831-.227 1.311 0 .493.077.928.231 1.307a2 2 0 0 0 .693.886c.308.212.689.319 1.145.319Zm8.069 1.238c-.683 0-1.272-.151-1.768-.453a3.04 3.04 0 0 1-1.14-1.274c-.265-.548-.397-1.185-.397-1.911s.132-1.366.397-1.92c.268-.558.64-.992 1.117-1.302.48-.314 1.04-.471 1.68-.471.37 0 .734.061 1.095.184.36.123.687.324.983.6.295.275.531.638.706 1.09.176.453.263 1.01.263 1.671v.462h-5.466v-.942h4.358c0-.4-.08-.757-.24-1.07a1.805 1.805 0 0 0-.674-.744 1.887 1.887 0 0 0-1.025-.273c-.433 0-.809.108-1.126.324-.314.212-.555.489-.725.83a2.445 2.445 0 0 0-.254 1.1v.627c0 .536.093.99.277 1.362.188.37.448.65.781.845.332.19.718.286 1.158.286.286 0 .545-.04.776-.12.234-.083.435-.206.605-.37.169-.166.3-.372.392-.618l1.053.295a2.332 2.332 0 0 1-.559.942 2.73 2.73 0 0 1-.969.628 3.6 3.6 0 0 1-1.298.222Zm5.388-.074a.802.802 0 0 1-.587-.245.8.8 0 0 1-.244-.586.8.8 0 0 1 .244-.586.802.802 0 0 1 .587-.245.8.8 0 0 1 .586.245.8.8 0 0 1 .245.586.865.865 0 0 1-.416.72.79.79 0 0 1-.415.11Zm5.666.074c-.664 0-1.237-.157-1.717-.471a3.073 3.073 0 0 1-1.108-1.297c-.258-.551-.388-1.18-.388-1.888 0-.72.133-1.356.397-1.907a3.142 3.142 0 0 1 1.118-1.297c.48-.314 1.04-.471 1.68-.471.499 0 .948.092 1.348.277.4.184.728.443.983.775.256.333.414.72.476 1.164h-1.09a1.684 1.684 0 0 0-.554-.859c-.283-.252-.664-.379-1.145-.379-.424 0-.797.111-1.117.333a2.162 2.162 0 0 0-.743.928c-.175.397-.263.863-.263 1.399 0 .547.086 1.024.258 1.43.176.407.422.722.739.947.32.225.696.337 1.126.337.284 0 .541-.05.771-.148.231-.098.427-.24.587-.424a1.62 1.62 0 0 0 .341-.665h1.09a2.53 2.53 0 0 1-.457 1.13c-.24.333-.559.598-.956.795-.394.194-.852.29-1.376.29Zm7.262 0c-.64 0-1.202-.153-1.685-.457a3.106 3.106 0 0 1-1.126-1.28c-.268-.547-.402-1.187-.402-1.92 0-.738.134-1.383.402-1.934a3.1 3.1 0 0 1 1.126-1.283c.483-.305 1.045-.457 1.685-.457.64 0 1.2.152 1.681.457.483.304.858.732 1.126 1.283.271.551.406 1.196.406 1.934 0 .733-.135 1.373-.406 1.92a3.064 3.064 0 0 1-1.126 1.28c-.481.304-1.041.457-1.681.457Zm0-.979c.486 0 .887-.125 1.2-.374.314-.25.547-.577.698-.983.15-.406.226-.847.226-1.32 0-.474-.076-.916-.226-1.325a2.236 2.236 0 0 0-.698-.993c-.313-.252-.714-.379-1.2-.379s-.886.127-1.2.379a2.234 2.234 0 0 0-.697.992c-.151.41-.226.852-.226 1.326 0 .473.075.914.226 1.32.151.406.383.734.697.983.314.25.714.374 1.2.374Zm4.876.831v-7.09h1.053v1.107h.092a1.78 1.78 0 0 1 .716-.882c.329-.212.725-.318 1.186-.318.468 0 .857.106 1.168.318.314.21.559.504.734.882h.074a2.07 2.07 0 0 1 .817-.873c.363-.218.799-.327 1.307-.327.634 0 1.152.198 1.555.595.404.394.605 1.008.605 1.842V67h-1.089v-4.746c0-.523-.143-.897-.43-1.121a1.588 1.588 0 0 0-1.011-.338c-.498 0-.885.151-1.158.453-.274.298-.411.677-.411 1.136V67h-1.108v-4.856c0-.404-.131-.728-.393-.975-.261-.249-.598-.373-1.011-.373-.283 0-.547.075-.794.226-.243.15-.44.36-.591.628-.147.264-.221.57-.221.918V67h-1.09Zm17.633.148c-.591 0-1.113-.15-1.565-.448-.452-.302-.806-.726-1.062-1.274-.255-.551-.383-1.202-.383-1.953 0-.745.128-1.391.383-1.939.256-.548.611-.97 1.067-1.27.455-.298.981-.447 1.578-.447.462 0 .827.077 1.095.23.27.151.477.324.618.518.145.19.257.347.337.47h.092v-3.49h1.09V67h-1.053v-1.09h-.129c-.08.13-.194.293-.342.49a2.018 2.018 0 0 1-.632.521c-.274.151-.639.227-1.094.227Zm.148-.979c.437 0 .806-.114 1.108-.342.301-.23.531-.549.687-.955.157-.41.236-.882.236-1.417 0-.53-.077-.993-.231-1.39-.154-.4-.382-.711-.683-.932-.302-.225-.674-.338-1.117-.338-.462 0-.847.119-1.154.356a2.127 2.127 0 0 0-.688.955c-.151.4-.227.85-.227 1.349 0 .504.077.963.231 1.375.157.41.388.736.693.979.308.24.689.36 1.145.36Zm8.129.979c-.64 0-1.202-.153-1.685-.457a3.106 3.106 0 0 1-1.126-1.28c-.268-.547-.402-1.187-.402-1.92 0-.738.134-1.383.402-1.934a3.1 3.1 0 0 1 1.126-1.283c.483-.305 1.045-.457 1.685-.457.64 0 1.201.152 1.681.457.483.304.858.732 1.126 1.283.271.551.406 1.196.406 1.934 0 .733-.135 1.373-.406 1.92a3.064 3.064 0 0 1-1.126 1.28c-.48.304-1.041.457-1.681.457Zm0-.979c.487 0 .887-.125 1.201-.374.313-.25.546-.577.697-.983.15-.406.226-.847.226-1.32 0-.474-.076-.916-.226-1.325a2.242 2.242 0 0 0-.697-.993c-.314-.252-.714-.379-1.201-.379-.486 0-.886.127-1.2.379a2.234 2.234 0 0 0-.697.992c-.151.41-.226.852-.226 1.326 0 .473.075.914.226 1.32.151.406.383.734.697.983.314.25.714.374 1.2.374Zm4.876.831v-7.09h1.053v1.107h.092c.148-.379.387-.672.716-.882.329-.212.725-.318 1.186-.318.468 0 .857.106 1.168.318.314.21.559.504.734.882h.074a2.07 2.07 0 0 1 .817-.873c.363-.218.799-.327 1.307-.327.634 0 1.152.198 1.555.595.404.394.605 1.008.605 1.842V67h-1.089v-4.746c0-.523-.143-.897-.43-1.121a1.588 1.588 0 0 0-1.011-.338c-.498 0-.884.151-1.158.453-.274.298-.411.677-.411 1.136V67h-1.108v-4.856c0-.404-.131-.728-.393-.975-.261-.249-.598-.373-1.011-.373-.283 0-.547.075-.794.226a1.7 1.7 0 0 0-.59.628 1.85 1.85 0 0 0-.222.918V67h-1.09Zm13.977.148c-.591 0-1.113-.15-1.565-.448-.453-.302-.807-.726-1.062-1.274-.255-.551-.383-1.202-.383-1.953 0-.745.128-1.391.383-1.939s.611-.97 1.066-1.27c.456-.298.982-.447 1.579-.447.462 0 .827.077 1.094.23.271.151.477.324.619.518.145.19.257.347.337.47h.092V59.91h1.09V67h-1.053v-1.09h-.129c-.08.13-.194.293-.342.49a2.018 2.018 0 0 1-.632.521c-.274.151-.639.227-1.094.227Zm.148-.979c.437 0 .806-.114 1.107-.342.302-.23.531-.549.688-.955.157-.41.236-.882.236-1.417 0-.53-.077-.993-.231-1.39-.154-.4-.382-.711-.683-.932-.302-.225-.674-.338-1.117-.338-.462 0-.847.119-1.155.356a2.125 2.125 0 0 0-.687.955c-.151.4-.227.85-.227 1.349 0 .504.077.963.231 1.375.157.41.388.736.693.979.307.24.689.36 1.145.36Zm5.248.831v-7.09h1.09V67h-1.09Zm.554-8.273a.775.775 0 0 1-.549-.217.696.696 0 0 1-.226-.521c0-.203.075-.377.226-.522a.774.774 0 0 1 .549-.217c.213 0 .394.072.545.217a.69.69 0 0 1 .231.522.69.69 0 0 1-.231.521.759.759 0 0 1-.545.217Zm3.621 4.007V67h-1.09v-7.09h1.053v1.107h.092c.167-.36.419-.65.757-.868.339-.221.776-.332 1.312-.332.48 0 .9.098 1.26.295.36.194.64.49.84.887.2.393.3.892.3 1.495V67h-1.089v-4.432c0-.557-.145-.99-.434-1.302-.29-.314-.687-.47-1.191-.47-.348 0-.659.075-.933.226-.271.15-.485.37-.642.66-.157.29-.235.64-.235 1.052Zm7.309 4.34a.799.799 0 0 1-.586-.245.8.8 0 0 1-.245-.586.8.8 0 0 1 .245-.586.799.799 0 0 1 .586-.245c.228 0 .423.081.586.245a.8.8 0 0 1 .245.586.86.86 0 0 1-.416.72.79.79 0 0 1-.415.11Z"/><mask id="a" fill="#fff"><path d="M28 102a6 6 0 0 1 6-6h378v56H34a6 6 0 0 1-6-6v-44Z"/></mask><path fill="#fff" d="M28 102a6 6 0 0 1 6-6h378v56H34a6 6 0 0 1-6-6v-44Z"/><path fill="#012201" fill-opacity=".12" d="M27 102a7 7 0 0 1 7-7h378v2H34a5 5 0 0 0-5 5h-2Zm385 51H34a7 7 0 0 1-7-7h2a5 5 0 0 0 5 5h378v2Zm-378 0a7 7 0 0 1-7-7v-44a7 7 0 0 1 7-7v2a5 5 0 0 0-5 5v44a5 5 0 0 0 5 5v2Zm378-57v56-56Z" mask="url(#a)"/><path stroke="#051A01" stroke-linecap="square" stroke-opacity=".24" stroke-width="1.5" d="M62.001 131.708a7.708 7.708 0 1 0 0-15.416m0 15.416a7.708 7.708 0 1 1 0-15.416m0 15.416c-1.956 0-3.541-3.451-3.541-7.708s1.585-7.708 3.541-7.708m0 15.416c1.956 0 3.542-3.451 3.542-7.708s-1.586-7.708-3.542-7.708m7.5 7.708h-15"/><path fill="#141E12" d="M85.119 129v-10.182h1.486v3.784h.09c.086-.16.21-.343.373-.552a2.11 2.11 0 0 1 .676-.547c.288-.159.67-.239 1.143-.239.617 0 1.167.156 1.65.468.484.311.864.76 1.14 1.347.277.586.417 1.292.417 2.118 0 .825-.138 1.533-.413 2.123-.275.586-.653 1.039-1.133 1.357-.481.315-1.03.472-1.646.472-.464 0-.844-.078-1.139-.234a2.153 2.153 0 0 1-.686-.546 4.18 4.18 0 0 1-.382-.557h-.125V129H85.12Zm1.456-3.818c0 .537.078 1.007.234 1.412.156.404.381.721.676.949.295.226.656.338 1.084.338.444 0 .815-.117 1.114-.353.298-.238.523-.561.676-.969.155-.408.233-.867.233-1.377 0-.504-.076-.956-.228-1.357a2.079 2.079 0 0 0-.677-.95c-.298-.232-.67-.348-1.118-.348-.431 0-.796.111-1.094.333-.295.222-.519.532-.671.93-.153.397-.229.862-.229 1.392Zm10.047 3.967a2.958 2.958 0 0 1-1.65-.472c-.481-.318-.86-.771-1.134-1.357-.272-.59-.408-1.298-.408-2.123 0-.826.137-1.532.412-2.118.279-.587.66-1.036 1.144-1.347a2.97 2.97 0 0 1 1.646-.468c.474 0 .855.08 1.143.239.292.156.517.338.676.547.163.209.289.392.378.552h.09v-1.238h1.486V129h-1.452v-1.188h-.124c-.09.162-.219.348-.388.557a2.153 2.153 0 0 1-.686.546c-.291.156-.67.234-1.133.234Zm.328-1.268c.427 0 .789-.112 1.084-.338.298-.228.523-.545.676-.949.156-.405.233-.875.233-1.412 0-.53-.076-.995-.228-1.392-.153-.398-.377-.708-.672-.93-.294-.222-.66-.333-1.093-.333-.448 0-.82.116-1.119.348a2.129 2.129 0 0 0-.676.95c-.15.401-.224.853-.224 1.357 0 .51.076.969.229 1.377.152.408.378.731.676.969.302.236.673.353 1.114.353Zm5.577-9.063h1.486v8.094c0 .328.042.56.124.696.087.136.249.2.488.194a1.73 1.73 0 0 0 .288-.025c.066-.013.126-.028.179-.045l.268 1.188c-.102.03-.233.058-.392.085-.156.03-.333.046-.532.05-.643.01-1.122-.143-1.437-.458-.315-.315-.472-.774-.472-1.377v-8.402ZM106.341 129v-7.636h1.427v1.243h.094c.159-.421.42-.75.781-.985.361-.238.794-.358 1.298-.358.51 0 .937.12 1.282.358.348.239.605.567.771.985h.079c.183-.408.473-.733.87-.975.398-.245.872-.368 1.422-.368.693 0 1.258.217 1.696.651.44.435.661 1.089.661 1.964V129h-1.487v-4.982c0-.517-.141-.891-.422-1.123a1.538 1.538 0 0 0-1.01-.348c-.483 0-.86.149-1.128.447-.269.295-.403.675-.403 1.139V129h-1.481v-5.076c0-.414-.13-.747-.388-.999-.259-.252-.595-.378-1.009-.378a1.44 1.44 0 0 0-.781.224 1.638 1.638 0 0 0-.572.611 1.88 1.88 0 0 0-.213.91V129h-1.487Zm13.039 2.864c-.222 0-.424-.019-.606-.055a1.97 1.97 0 0 1-.408-.109l.358-1.218c.272.072.514.104.726.094a.868.868 0 0 0 .562-.239c.165-.149.311-.392.437-.73l.184-.508-2.794-7.735h1.591l1.934 5.926h.08l1.933-5.926h1.596l-3.147 8.655a3.436 3.436 0 0 1-.556 1.009 2.159 2.159 0 0 1-.806.627 2.637 2.637 0 0 1-1.084.209Zm11.49-7.811v1.288h-4.515v-1.288h4.515Zm1.981 4.947v-7.636h1.437v1.213h.079a1.85 1.85 0 0 1 .736-.97 2.094 2.094 0 0 1 1.203-.358c.209 0 .396.025.562.075.166.05.311.118.437.204l-.477 1.243a1.494 1.494 0 0 0-.303-.105 1.515 1.515 0 0 0-.388-.045c-.345 0-.653.075-.925.224a1.684 1.684 0 0 0-.641.607 1.676 1.676 0 0 0-.234.885V129h-1.486Zm8.136.149a2.958 2.958 0 0 1-1.651-.472c-.48-.318-.858-.771-1.133-1.357-.272-.59-.408-1.298-.408-2.123 0-.826.138-1.532.413-2.118.278-.587.659-1.036 1.143-1.347a2.973 2.973 0 0 1 1.646-.468c.474 0 .855.08 1.143.239.292.156.517.338.676.547.163.209.289.392.378.552h.09v-1.238h1.486V129h-1.451v-1.188h-.125a3.934 3.934 0 0 1-.388.557 2.141 2.141 0 0 1-.686.546c-.291.156-.669.234-1.133.234Zm.328-1.268c.428 0 .789-.112 1.084-.338.298-.228.523-.545.676-.949.156-.405.234-.875.234-1.412 0-.53-.077-.995-.229-1.392-.153-.398-.376-.708-.671-.93-.295-.222-.66-.333-1.094-.333-.447 0-.82.116-1.119.348a2.135 2.135 0 0 0-.676.95 3.874 3.874 0 0 0-.223 1.357c0 .51.076.969.228 1.377.153.408.378.731.676.969.302.236.673.353 1.114.353Zm5.577 1.119v-7.636h1.486V129h-1.486Zm.751-8.815a.948.948 0 0 1-.667-.258.843.843 0 0 1-.273-.627.83.83 0 0 1 .273-.626.935.935 0 0 1 .667-.263c.258 0 .479.087.661.263a.824.824 0 0 1 .278.626.837.837 0 0 1-.278.627.929.929 0 0 1-.661.258Zm4.222 4.281V129h-1.487v-7.636h1.427v1.243h.095c.175-.405.45-.73.825-.975.378-.245.853-.368 1.427-.368.52 0 .976.11 1.367.328a2.2 2.2 0 0 1 .91.965c.215.427.323.956.323 1.586V129h-1.487v-4.678c0-.554-.144-.986-.432-1.298-.289-.315-.685-.472-1.188-.472-.345 0-.652.074-.92.224a1.607 1.607 0 0 0-.632.656c-.152.285-.228.63-.228 1.034Z"/><path fill="#8B918A" d="M159.725 129.094a.964.964 0 0 1-.701-.288.96.96 0 0 1-.294-.706c0-.272.098-.504.294-.696a.957.957 0 0 1 .701-.293c.272 0 .505.098.701.293a.941.941 0 0 1 .293.696c0 .182-.046.35-.139.502-.09.149-.209.269-.358.358a.943.943 0 0 1-.497.134Zm6.202.06c-.716 0-1.341-.164-1.874-.492a3.315 3.315 0 0 1-1.243-1.377c-.295-.59-.443-1.28-.443-2.068 0-.793.148-1.485.443-2.079a3.317 3.317 0 0 1 1.243-1.382c.533-.328 1.158-.492 1.874-.492.716 0 1.341.164 1.874.492.534.329.948.789 1.243 1.382.295.594.443 1.286.443 2.079 0 .788-.148 1.478-.443 2.068a3.315 3.315 0 0 1-1.243 1.377c-.533.328-1.158.492-1.874.492Zm.005-1.248c.464 0 .848-.122 1.153-.368.305-.245.531-.571.676-.979.15-.408.224-.857.224-1.347 0-.488-.074-.935-.224-1.343a2.18 2.18 0 0 0-.676-.989c-.305-.249-.689-.373-1.153-.373-.468 0-.855.124-1.164.373a2.237 2.237 0 0 0-.681.989 3.982 3.982 0 0 0-.218 1.343c0 .49.073.939.218 1.347a2.2 2.2 0 0 0 .681.979c.309.246.696.368 1.164.368Zm6.7-3.44V129h-1.486v-7.636h1.427v1.243h.094c.176-.405.451-.73.825-.975.378-.245.854-.368 1.427-.368.521 0 .976.11 1.367.328.391.216.695.537.91.965.216.427.323.956.323 1.586V129h-1.486v-4.678c0-.554-.144-.986-.433-1.298-.288-.315-.684-.472-1.188-.472-.345 0-.651.074-.92.224a1.605 1.605 0 0 0-.631.656c-.152.285-.229.63-.229 1.034Zm11.38-.413v1.288h-4.514v-1.288h4.514Zm5.616-2.689v1.193h-4.316v-1.193h4.316ZM186.496 129v-8.521c0-.478.104-.874.313-1.189.209-.318.485-.555.83-.71.345-.16.719-.239 1.124-.239.298 0 .553.025.765.074.212.047.37.09.473.13l-.348 1.203c-.07-.02-.16-.043-.269-.07a1.524 1.524 0 0 0-.398-.044c-.361 0-.619.089-.775.268-.153.179-.229.437-.229.776V129h-1.486Zm7.581.154c-.716 0-1.34-.164-1.874-.492a3.315 3.315 0 0 1-1.243-1.377c-.295-.59-.442-1.28-.442-2.068 0-.793.147-1.485.442-2.079a3.317 3.317 0 0 1 1.243-1.382c.534-.328 1.158-.492 1.874-.492.716 0 1.341.164 1.875.492.533.329.947.789 1.242 1.382.295.594.443 1.286.443 2.079 0 .788-.148 1.478-.443 2.068a3.32 3.32 0 0 1-1.242 1.377c-.534.328-1.159.492-1.875.492Zm.005-1.248c.464 0 .849-.122 1.154-.368.305-.245.53-.571.676-.979a3.9 3.9 0 0 0 .223-1.347c0-.488-.074-.935-.223-1.343a2.188 2.188 0 0 0-.676-.989c-.305-.249-.69-.373-1.154-.373-.467 0-.855.124-1.163.373a2.22 2.22 0 0 0-.681.989 3.958 3.958 0 0 0-.219 1.343c0 .49.073.939.219 1.347.149.408.376.734.681.979.308.246.696.368 1.163.368Zm5.214 1.094v-7.636h1.437v1.213h.079c.14-.411.385-.734.736-.97a2.098 2.098 0 0 1 1.203-.358c.209 0 .396.025.562.075.166.05.312.118.438.204l-.478 1.243a1.494 1.494 0 0 0-.303-.105 1.515 1.515 0 0 0-.388-.045c-.344 0-.653.075-.924.224a1.68 1.68 0 0 0-.642.607 1.685 1.685 0 0 0-.233.885V129h-1.487Zm8.479 3.023c-.606 0-1.128-.08-1.566-.239-.434-.159-.789-.369-1.064-.631a2.66 2.66 0 0 1-.616-.86l1.277-.527c.09.145.209.3.358.462.153.166.358.307.617.423.262.116.598.174 1.009.174.564 0 1.029-.138 1.397-.413.368-.272.552-.706.552-1.303v-1.501h-.094c-.09.162-.219.343-.388.542a2.107 2.107 0 0 1-.686.517c-.292.146-.671.219-1.139.219a3.18 3.18 0 0 1-1.631-.423c-.48-.285-.861-.704-1.143-1.258-.278-.557-.418-1.241-.418-2.053 0-.812.138-1.508.413-2.088.278-.58.66-1.024 1.144-1.332a2.967 2.967 0 0 1 1.645-.468c.474 0 .857.08 1.149.239.291.156.518.338.681.547.165.209.293.392.382.552h.11v-1.238h1.457v7.805c0 .656-.153 1.195-.458 1.616a2.685 2.685 0 0 1-1.238.934c-.517.203-1.1.304-1.75.304Zm-.015-4.37c.428 0 .789-.1 1.084-.299.298-.202.524-.49.676-.865.156-.377.234-.83.234-1.357 0-.514-.076-.966-.229-1.357a2.016 2.016 0 0 0-.671-.915c-.295-.222-.66-.333-1.094-.333-.447 0-.82.116-1.118.348a2.09 2.09 0 0 0-.676.935c-.15.394-.224.835-.224 1.322 0 .501.076.94.229 1.318.152.377.377.672.676.885.301.212.672.318 1.113.318Zm8.745 1.501c-.752 0-1.4-.161-1.944-.482a3.275 3.275 0 0 1-1.252-1.367c-.292-.59-.438-1.281-.438-2.073 0-.783.146-1.472.438-2.069a3.403 3.403 0 0 1 1.233-1.397c.53-.334 1.15-.502 1.859-.502.431 0 .848.071 1.253.214.404.143.767.366 1.089.671.321.305.575.701.76 1.188.186.484.279 1.073.279 1.765v.527h-6.071v-1.113h4.614c0-.391-.08-.738-.239-1.039a1.801 1.801 0 0 0-.671-.721 1.873 1.873 0 0 0-1.004-.264c-.418 0-.782.103-1.094.308a2.079 2.079 0 0 0-.716.796 2.294 2.294 0 0 0-.248 1.059v.87c0 .51.089.944.268 1.302.182.358.436.632.761.821a2.26 2.26 0 0 0 1.138.278c.282 0 .539-.04.771-.119a1.589 1.589 0 0 0 .989-.97l1.407.254a2.562 2.562 0 0 1-.606 1.089 2.961 2.961 0 0 1-1.089.721c-.434.169-.93.253-1.487.253Zm5.905-.06a.968.968 0 0 1-.701-.288.964.964 0 0 1-.293-.706c0-.272.098-.504.293-.696a.96.96 0 0 1 .701-.293c.272 0 .506.098.701.293a.939.939 0 0 1 .294.696 1.015 1.015 0 0 1-.498.86.94.94 0 0 1-.497.134Zm6.202.06c-.739 0-1.375-.167-1.909-.502a3.327 3.327 0 0 1-1.223-1.397c-.285-.593-.427-1.273-.427-2.038 0-.776.146-1.46.437-2.054a3.36 3.36 0 0 1 1.233-1.397c.53-.334 1.155-.502 1.874-.502.58 0 1.098.108 1.552.323.454.212.82.511 1.098.895.282.385.449.834.502 1.348h-1.446a1.735 1.735 0 0 0-.547-.925c-.282-.259-.66-.388-1.134-.388-.414 0-.777.109-1.088.328-.309.216-.549.524-.721.925-.173.398-.259.868-.259 1.412 0 .557.085 1.037.254 1.442.169.404.407.717.716.939a1.84 1.84 0 0 0 1.098.333c.282 0 .537-.051.766-.154a1.57 1.57 0 0 0 .582-.452c.159-.196.27-.431.333-.706h1.446a2.803 2.803 0 0 1-.482 1.322 2.769 2.769 0 0 1-1.079.915c-.447.222-.972.333-1.576.333Zm7.944 0c-.716 0-1.341-.164-1.875-.492a3.32 3.32 0 0 1-1.242-1.377c-.295-.59-.443-1.28-.443-2.068 0-.793.148-1.485.443-2.079a3.321 3.321 0 0 1 1.242-1.382c.534-.328 1.159-.492 1.875-.492s1.34.164 1.874.492c.534.329.948.789 1.243 1.382.295.594.442 1.286.442 2.079 0 .788-.147 1.478-.442 2.068a3.315 3.315 0 0 1-1.243 1.377c-.534.328-1.158.492-1.874.492Zm.005-1.248c.464 0 .848-.122 1.153-.368.305-.245.53-.571.676-.979a3.9 3.9 0 0 0 .224-1.347c0-.488-.075-.935-.224-1.343a2.188 2.188 0 0 0-.676-.989c-.305-.249-.689-.373-1.153-.373-.468 0-.855.124-1.164.373a2.22 2.22 0 0 0-.681.989 3.958 3.958 0 0 0-.218 1.343c0 .49.072.939.218 1.347.149.408.376.734.681.979.309.246.696.368 1.164.368Zm5.214 1.094v-7.636h1.427v1.243h.094a1.97 1.97 0 0 1 .781-.985c.361-.238.793-.358 1.297-.358.511 0 .938.12 1.283.358.348.239.605.567.77.985h.08c.182-.408.472-.733.87-.975.398-.245.872-.368 1.422-.368.693 0 1.258.217 1.695.651.441.435.661 1.089.661 1.964V129h-1.486v-4.982c0-.517-.141-.891-.423-1.123a1.535 1.535 0 0 0-1.009-.348c-.484 0-.86.149-1.129.447-.268.295-.402.675-.402 1.139V129h-1.482v-5.076c0-.414-.129-.747-.388-.999-.258-.252-.594-.378-1.009-.378-.281 0-.542.074-.78.224a1.63 1.63 0 0 0-.572.611 1.868 1.868 0 0 0-.214.91V129h-1.486Z"/><path stroke="#18B69B" stroke-linecap="round" stroke-linejoin="round" stroke-width="1.5" d="M272.835 122.5v-1.667a2.834 2.834 0 0 0-5.667 0v1.667m2.833 2.833v2m-3.5 2.834h7c.737 0 1.334-.597 1.334-1.334v-5c0-.736-.597-1.333-1.334-1.333h-7c-.736 0-1.333.597-1.333 1.333v5c0 .737.597 1.334 1.333 1.334Z"/><path fill="#141E12" d="M37.575 184.129h-1.55a2.374 2.374 0 0 0-.93-1.516 2.577 2.577 0 0 0-.791-.398 3.103 3.103 0 0 0-.92-.134c-.586 0-1.112.147-1.576.442-.46.295-.825.728-1.093 1.298-.266.57-.398 1.266-.398 2.088 0 .829.132 1.528.398 2.098.268.57.634 1.001 1.098 1.293.464.291.986.437 1.566.437.322 0 .627-.043.915-.129.292-.09.555-.22.79-.393a2.378 2.378 0 0 0 .94-1.496l1.551.005c-.083.5-.243.961-.482 1.382a3.822 3.822 0 0 1-.91 1.084 4.133 4.133 0 0 1-1.263.701 4.689 4.689 0 0 1-1.55.248c-.882 0-1.668-.209-2.357-.626-.69-.421-1.233-1.023-1.63-1.805-.395-.782-.592-1.715-.592-2.799 0-1.087.198-2.02.596-2.799.398-.782.941-1.382 1.63-1.8.69-.421 1.474-.631 2.352-.631.54 0 1.044.078 1.512.234.47.152.893.377 1.267.676.375.295.685.656.93 1.084.245.424.411.909.497 1.456Zm6.557 3.704v-4.469h1.491V191h-1.462v-1.322h-.08a2.388 2.388 0 0 1-.844 1.019c-.385.268-.864.402-1.437.402-.49 0-.925-.107-1.303-.323a2.268 2.268 0 0 1-.885-.969c-.212-.428-.318-.956-.318-1.586v-4.857h1.487v4.678c0 .52.144.935.432 1.243.289.308.663.462 1.124.462.278 0 .555-.069.83-.209.279-.139.509-.349.691-.631.186-.282.277-.64.274-1.074Zm9.21-2.605-1.347.239a1.595 1.595 0 0 0-.268-.493 1.33 1.33 0 0 0-.487-.382c-.206-.1-.463-.15-.77-.15-.422 0-.773.095-1.055.284-.282.185-.422.426-.422.721 0 .255.094.46.283.616.189.156.494.284.915.383l1.213.278c.702.163 1.226.413 1.57.751.346.338.518.777.518 1.318 0 .457-.133.865-.398 1.223-.262.354-.628.633-1.099.835-.467.202-1.009.303-1.625.303-.855 0-1.553-.182-2.093-.547-.54-.368-.872-.89-.995-1.566l1.437-.219c.09.375.273.658.552.851.278.189.641.283 1.089.283.487 0 .876-.101 1.168-.303.292-.206.438-.456.438-.751a.781.781 0 0 0-.269-.602c-.176-.162-.446-.285-.81-.367l-1.293-.284c-.712-.162-1.24-.421-1.58-.775-.339-.355-.508-.804-.508-1.348 0-.45.126-.845.378-1.183.252-.338.6-.602 1.044-.79.444-.193.953-.289 1.526-.289.825 0 1.475.179 1.95.537.473.355.786.83.939 1.427Zm5.349-1.864v1.193H54.52v-1.193h4.17Zm-3.053-1.83h1.487v7.224c0 .288.043.505.13.651.085.143.196.24.332.293.14.05.29.075.453.075a1.7 1.7 0 0 0 .313-.025c.09-.016.159-.03.209-.04l.268 1.228a2.927 2.927 0 0 1-.965.159 2.624 2.624 0 0 1-1.093-.208 1.879 1.879 0 0 1-.82-.677c-.21-.304-.314-.687-.314-1.148v-7.532Zm7.832 9.62c-.716 0-1.34-.164-1.874-.492a3.318 3.318 0 0 1-1.243-1.377c-.295-.59-.443-1.28-.443-2.068 0-.793.148-1.485.443-2.079a3.32 3.32 0 0 1 1.242-1.382c.534-.328 1.159-.492 1.875-.492s1.34.164 1.874.492a3.32 3.32 0 0 1 1.243 1.382c.295.594.442 1.286.442 2.079 0 .788-.147 1.478-.442 2.068a3.318 3.318 0 0 1-1.243 1.377c-.533.328-1.158.492-1.874.492Zm.005-1.248c.464 0 .848-.122 1.153-.368.305-.245.53-.571.676-.979.15-.408.224-.857.224-1.347a3.88 3.88 0 0 0-.224-1.343 2.188 2.188 0 0 0-.676-.989c-.305-.249-.69-.373-1.153-.373-.468 0-.855.124-1.164.373a2.223 2.223 0 0 0-.68.989 3.963 3.963 0 0 0-.22 1.343c0 .49.073.939.22 1.347.148.408.376.734.68.979.309.246.697.368 1.164.368ZM68.689 191v-7.636h1.427v1.243h.094c.16-.421.42-.75.78-.985.362-.238.794-.358 1.298-.358.51 0 .938.12 1.283.358a2.1 2.1 0 0 1 .77.985h.08c.182-.408.472-.733.87-.975.398-.245.872-.368 1.422-.368.693 0 1.258.217 1.695.651.441.435.661 1.089.661 1.964V191h-1.486v-4.982c0-.517-.14-.891-.423-1.123a1.537 1.537 0 0 0-1.009-.348c-.484 0-.86.149-1.129.447-.268.295-.402.675-.402 1.139V191h-1.482v-5.076c0-.414-.129-.747-.388-.999-.258-.252-.594-.378-1.009-.378-.281 0-.542.074-.78.224a1.633 1.633 0 0 0-.572.611 1.874 1.874 0 0 0-.214.91V191H68.69Zm18.937.149a2.958 2.958 0 0 1-1.651-.472c-.48-.318-.858-.771-1.134-1.357-.271-.59-.407-1.298-.407-2.123 0-.826.137-1.532.412-2.118.279-.587.66-1.036 1.144-1.347a2.97 2.97 0 0 1 1.645-.468c.474 0 .856.08 1.144.239.292.156.517.338.676.547.163.209.288.392.378.552h.09v-3.784h1.486V191h-1.452v-1.188h-.124c-.09.162-.219.348-.388.557a2.153 2.153 0 0 1-.686.546c-.292.156-.67.234-1.133.234Zm.328-1.268c.427 0 .789-.112 1.084-.338.298-.228.523-.545.676-.949.155-.405.233-.875.233-1.412 0-.53-.076-.995-.228-1.392-.153-.398-.377-.708-.672-.93-.295-.222-.66-.333-1.093-.333-.448 0-.82.116-1.119.348a2.13 2.13 0 0 0-.676.95c-.15.401-.224.853-.224 1.357 0 .51.076.969.229 1.377.152.408.378.731.676.969.302.236.673.353 1.114.353Zm8.793 1.273c-.716 0-1.34-.164-1.874-.492a3.318 3.318 0 0 1-1.243-1.377c-.295-.59-.442-1.28-.442-2.068 0-.793.147-1.485.442-2.079a3.32 3.32 0 0 1 1.243-1.382c.533-.328 1.158-.492 1.874-.492.716 0 1.34.164 1.874.492.534.329.948.789 1.243 1.382.295.594.443 1.286.443 2.079 0 .788-.148 1.478-.443 2.068a3.316 3.316 0 0 1-1.243 1.377c-.533.328-1.158.492-1.874.492Zm.005-1.248c.464 0 .849-.122 1.154-.368.304-.245.53-.571.676-.979.149-.408.223-.857.223-1.347 0-.488-.074-.935-.223-1.343a2.188 2.188 0 0 0-.676-.989c-.305-.249-.69-.373-1.154-.373-.467 0-.855.124-1.163.373a2.223 2.223 0 0 0-.681.989 3.96 3.96 0 0 0-.22 1.343c0 .49.074.939.22 1.347.149.408.376.734.68.979.309.246.697.368 1.164.368Zm5.214 1.094v-7.636h1.427v1.243h.094c.159-.421.42-.75.781-.985.361-.238.794-.358 1.298-.358.51 0 .937.12 1.282.358.348.239.605.567.771.985h.079c.183-.408.473-.733.87-.975.398-.245.872-.368 1.422-.368.693 0 1.258.217 1.696.651.44.435.661 1.089.661 1.964V191h-1.487v-4.982c0-.517-.141-.891-.422-1.123a1.538 1.538 0 0 0-1.01-.348c-.483 0-.86.149-1.128.447-.269.295-.403.675-.403 1.139V191h-1.481v-5.076c0-.414-.13-.747-.388-.999-.259-.252-.595-.378-1.009-.378a1.44 1.44 0 0 0-.781.224 1.638 1.638 0 0 0-.572.611 1.88 1.88 0 0 0-.213.91V191h-1.487Zm15.232.149a2.958 2.958 0 0 1-1.651-.472c-.48-.318-.858-.771-1.133-1.357-.272-.59-.408-1.298-.408-2.123 0-.826.138-1.532.413-2.118.278-.587.659-1.036 1.143-1.347a2.973 2.973 0 0 1 1.646-.468c.474 0 .855.08 1.143.239.292.156.517.338.676.547.163.209.289.392.378.552h.09v-1.238h1.486V191h-1.452v-1.188h-.124a3.934 3.934 0 0 1-.388.557 2.141 2.141 0 0 1-.686.546c-.291.156-.669.234-1.133.234Zm.328-1.268c.427 0 .789-.112 1.084-.338.298-.228.523-.545.676-.949.156-.405.234-.875.234-1.412 0-.53-.077-.995-.229-1.392-.153-.398-.376-.708-.671-.93-.295-.222-.66-.333-1.094-.333-.448 0-.82.116-1.119.348a2.135 2.135 0 0 0-.676.95 3.874 3.874 0 0 0-.224 1.357c0 .51.077.969.229 1.377.153.408.378.731.676.969.302.236.673.353 1.114.353Zm5.577 1.119v-7.636h1.486V191h-1.486Zm.751-8.815a.948.948 0 0 1-.667-.258.843.843 0 0 1-.273-.627.83.83 0 0 1 .273-.626.935.935 0 0 1 .667-.263c.258 0 .478.087.661.263a.824.824 0 0 1 .278.626.837.837 0 0 1-.278.627.93.93 0 0 1-.661.258Zm4.222 4.281V191h-1.487v-7.636h1.427v1.243h.094a2.18 2.18 0 0 1 .826-.975c.378-.245.853-.368 1.427-.368.52 0 .976.11 1.367.328a2.2 2.2 0 0 1 .91.965c.215.427.323.956.323 1.586V191h-1.487v-4.678c0-.554-.144-.986-.432-1.298-.289-.315-.685-.472-1.189-.472a1.85 1.85 0 0 0-.919.224 1.607 1.607 0 0 0-.632.656c-.152.285-.228.63-.228 1.034Zm12.603-1.238-1.348.239a1.6 1.6 0 0 0-.268-.493 1.33 1.33 0 0 0-.487-.382c-.206-.1-.463-.15-.771-.15-.421 0-.772.095-1.054.284-.282.185-.423.426-.423.721 0 .255.095.46.284.616.189.156.494.284.915.383l1.213.278c.702.163 1.226.413 1.571.751.344.338.517.777.517 1.318 0 .457-.133.865-.398 1.223-.262.354-.628.633-1.099.835-.467.202-1.009.303-1.625.303-.856 0-1.553-.182-2.093-.547-.541-.368-.872-.89-.995-1.566l1.437-.219c.09.375.273.658.552.851.278.189.641.283 1.089.283.487 0 .876-.101 1.168-.303.292-.206.437-.456.437-.751a.78.78 0 0 0-.268-.602c-.176-.162-.446-.285-.81-.367l-1.293-.284c-.713-.162-1.24-.421-1.581-.775-.338-.355-.507-.804-.507-1.348 0-.45.126-.845.378-1.183.252-.338.6-.602 1.044-.79.444-.193.953-.289 1.526-.289.825 0 1.475.179 1.949.537.474.355.787.83.94 1.427Z"/><path fill="#6B716A" d="M29.533 215h-1.2l3.471-9.455h1.182L36.457 215h-1.2l-2.825-7.959h-.074L29.533 215Zm.443-3.693h4.838v1.015h-4.838v-1.015Zm10.484 3.841c-.591 0-1.113-.15-1.565-.448-.453-.302-.806-.726-1.062-1.274-.255-.551-.383-1.202-.383-1.953 0-.745.128-1.391.383-1.939.256-.548.611-.971 1.067-1.269.455-.299.981-.448 1.578-.448.462 0 .827.077 1.094.231.271.15.477.323.62.517.144.19.256.347.336.471h.092v-3.491h1.09V215h-1.053v-1.089h-.129c-.08.129-.194.292-.342.489a2.028 2.028 0 0 1-.632.522c-.274.15-.639.226-1.094.226Zm.148-.979c.437 0 .806-.114 1.108-.342.301-.23.53-.549.687-.955.157-.41.236-.882.236-1.417 0-.53-.077-.993-.231-1.39-.154-.4-.382-.711-.683-.933-.302-.224-.674-.337-1.117-.337-.462 0-.847.119-1.154.356a2.125 2.125 0 0 0-.688.956c-.151.4-.227.849-.227 1.348 0 .504.077.963.231 1.375.157.41.388.736.693.979.307.24.69.36 1.145.36Zm7.926.979c-.59 0-1.112-.15-1.565-.448-.452-.302-.806-.726-1.062-1.274-.255-.551-.383-1.202-.383-1.953 0-.745.128-1.391.383-1.939.256-.548.611-.971 1.067-1.269.455-.299.982-.448 1.579-.448.461 0 .826.077 1.094.231.27.15.477.323.618.517.145.19.257.347.337.471h.093v-3.491h1.09V215h-1.053v-1.089h-.13c-.08.129-.194.292-.341.489a2.03 2.03 0 0 1-.633.522c-.274.15-.638.226-1.094.226Zm.148-.979c.437 0 .806-.114 1.108-.342.301-.23.53-.549.688-.955.157-.41.235-.882.235-1.417 0-.53-.077-.993-.23-1.39-.155-.4-.382-.711-.684-.933-.302-.224-.674-.337-1.117-.337-.462 0-.846.119-1.154.356a2.125 2.125 0 0 0-.688.956c-.151.4-.226.849-.226 1.348 0 .504.077.963.23 1.375.157.41.388.736.693.979.308.24.69.36 1.145.36Zm11.583.979c-.591 0-1.113-.15-1.565-.448-.453-.302-.807-.726-1.062-1.274-.256-.551-.383-1.202-.383-1.953 0-.745.127-1.391.383-1.939.255-.548.61-.971 1.066-1.269.456-.299.982-.448 1.579-.448.462 0 .826.077 1.094.231.271.15.477.323.619.517.144.19.257.347.337.471h.092v-3.491h1.09V215h-1.053v-1.089h-.13c-.08.129-.193.292-.34.489a2.028 2.028 0 0 1-.633.522c-.274.15-.639.226-1.094.226Zm.147-.979c.437 0 .807-.114 1.108-.342.302-.23.531-.549.688-.955.157-.41.236-.882.236-1.417 0-.53-.077-.993-.231-1.39-.154-.4-.382-.711-.684-.933-.301-.224-.674-.337-1.117-.337-.461 0-.846.119-1.154.356a2.125 2.125 0 0 0-.688.956c-.15.4-.226.849-.226 1.348 0 .504.077.963.23 1.375.158.41.389.736.693.979.308.24.69.36 1.145.36Zm8.13.979c-.64 0-1.202-.153-1.685-.457a3.106 3.106 0 0 1-1.126-1.279c-.268-.548-.402-1.188-.402-1.921 0-.738.134-1.383.402-1.934.27-.551.646-.979 1.126-1.283.483-.305 1.045-.457 1.685-.457.64 0 1.2.152 1.68.457a3.05 3.05 0 0 1 1.127 1.283c.27.551.406 1.196.406 1.934 0 .733-.135 1.373-.406 1.921a3.063 3.063 0 0 1-1.127 1.279c-.48.304-1.04.457-1.68.457Zm0-.979c.486 0 .886-.125 1.2-.374.314-.249.546-.577.697-.983.151-.406.227-.847.227-1.321a3.8 3.8 0 0 0-.227-1.324 2.229 2.229 0 0 0-.697-.993c-.314-.252-.714-.379-1.2-.379s-.886.127-1.2.379a2.229 2.229 0 0 0-.698.993 3.8 3.8 0 0 0-.226 1.324c0 .474.076.915.226 1.321.151.406.384.734.698.983.314.249.714.374 1.2.374Zm4.876.831v-7.091h1.053v1.108h.092c.148-.379.386-.672.715-.882.33-.212.725-.318 1.187-.318.468 0 .857.106 1.168.318.314.21.559.503.734.882h.074c.181-.366.454-.657.817-.872.363-.219.799-.328 1.306-.328.634 0 1.153.198 1.556.595.403.394.605 1.008.605 1.842V215h-1.09v-4.746c0-.523-.143-.897-.429-1.122a1.593 1.593 0 0 0-1.011-.337c-.498 0-.885.151-1.159.453-.274.298-.41.677-.41 1.136V215h-1.109v-4.857c0-.403-.13-.727-.392-.974-.261-.249-.599-.374-1.01-.374-.284 0-.549.076-.795.227a1.7 1.7 0 0 0-.59.628c-.149.264-.223.57-.223.918V215h-1.089Zm13.976.148c-.59 0-1.112-.15-1.565-.448-.452-.302-.806-.726-1.061-1.274-.256-.551-.383-1.202-.383-1.953 0-.745.127-1.391.383-1.939.255-.548.61-.971 1.066-1.269.456-.299.982-.448 1.579-.448.462 0 .826.077 1.094.231.27.15.477.323.619.517.144.19.257.347.337.471h.092v-1.127h1.09V215h-1.053v-1.089h-.13c-.08.129-.193.292-.341.489a2.028 2.028 0 0 1-.632.522c-.274.15-.64.226-1.095.226Zm.148-.979c.437 0 .806-.114 1.108-.342.302-.23.531-.549.688-.955.157-.41.235-.882.235-1.417 0-.53-.076-.993-.23-1.39-.154-.4-.382-.711-.684-.933-.301-.224-.674-.337-1.117-.337-.462 0-.846.119-1.154.356a2.125 2.125 0 0 0-.688.956c-.15.4-.226.849-.226 1.348 0 .504.077.963.23 1.375.158.41.389.736.693.979.308.24.69.36 1.145.36Zm5.25.831v-7.091h1.089V215h-1.09Zm.553-8.273a.773.773 0 0 1-.55-.217.695.695 0 0 1-.225-.521c0-.203.075-.377.226-.522a.773.773 0 0 1 .55-.217c.211 0 .393.072.544.217.154.145.23.319.23.522a.688.688 0 0 1-.23.521.757.757 0 0 1-.545.217Zm3.62 4.007V215h-1.089v-7.091h1.053v1.108h.092c.166-.36.418-.649.757-.868.339-.221.776-.332 1.311-.332.48 0 .9.098 1.26.295.361.194.641.49.841.887.2.394.3.892.3 1.495V215h-1.09v-4.432c0-.557-.144-.991-.434-1.302-.289-.314-.686-.471-1.19-.471a1.9 1.9 0 0 0-.933.227c-.271.15-.485.371-.642.66-.157.289-.235.64-.235 1.052Zm12.849 4.414c-.591 0-1.112-.15-1.565-.448-.452-.302-.806-.726-1.061-1.274-.256-.551-.384-1.202-.384-1.953 0-.745.128-1.391.384-1.939.255-.548.611-.971 1.066-1.269.455-.299.982-.448 1.579-.448.461 0 .826.077 1.094.231.271.15.477.323.619.517.144.19.257.347.337.471h.092v-1.127h1.089V215h-1.052v-1.089h-.129c-.08.129-.194.292-.342.489a2.033 2.033 0 0 1-.633.522c-.273.15-.638.226-1.094.226Zm.148-.979c.437 0 .806-.114 1.108-.342.302-.23.531-.549.688-.955.157-.41.235-.882.235-1.417 0-.53-.077-.993-.23-1.39-.154-.4-.382-.711-.684-.933-.301-.224-.674-.337-1.117-.337-.462 0-.846.119-1.154.356a2.124 2.124 0 0 0-.688.956c-.151.4-.226.849-.226 1.348 0 .504.077.963.231 1.375.157.41.388.736.692.979.308.24.69.36 1.145.36Zm6.339-3.435V215h-1.09v-7.091h1.053v1.108h.092c.166-.36.418-.649.757-.868.339-.221.776-.332 1.311-.332.48 0 .9.098 1.26.295.36.194.641.49.841.887.2.394.3.892.3 1.495V215h-1.09v-4.432c0-.557-.144-.991-.434-1.302-.289-.314-.686-.471-1.191-.471-.348 0-.658.076-.932.227-.271.15-.485.371-.642.66-.157.289-.235.64-.235 1.052Zm9.192 4.414c-.591 0-1.112-.15-1.565-.448-.452-.302-.806-.726-1.062-1.274-.255-.551-.383-1.202-.383-1.953 0-.745.128-1.391.383-1.939.256-.548.611-.971 1.067-1.269.455-.299.981-.448 1.579-.448.461 0 .826.077 1.094.231.27.15.477.323.618.517.145.19.257.347.337.471h.093v-3.491h1.089V215h-1.052v-1.089h-.13c-.08.129-.194.292-.341.489a2.033 2.033 0 0 1-.633.522c-.274.15-.638.226-1.094.226Zm.148-.979c.437 0 .806-.114 1.108-.342.301-.23.531-.549.688-.955.157-.41.235-.882.235-1.417 0-.53-.077-.993-.231-1.39-.154-.4-.381-.711-.683-.933-.302-.224-.674-.337-1.117-.337-.462 0-.847.119-1.154.356a2.124 2.124 0 0 0-.688.956c-.151.4-.226.849-.226 1.348 0 .504.077.963.23 1.375.157.41.388.736.693.979.308.24.689.36 1.145.36Zm11.583.979c-.591 0-1.113-.15-1.565-.448-.453-.302-.807-.726-1.062-1.274-.256-.551-.383-1.202-.383-1.953 0-.745.127-1.391.383-1.939.255-.548.611-.971 1.066-1.269.456-.299.982-.448 1.579-.448.462 0 .826.077 1.094.231.271.15.477.323.619.517.144.19.257.347.337.471h.092v-1.127h1.09V215h-1.053v-1.089h-.129c-.08.129-.194.292-.342.489a2.029 2.029 0 0 1-.632.522c-.274.15-.639.226-1.094.226Zm.147-.979c.437 0 .807-.114 1.108-.342.302-.23.531-.549.688-.955.157-.41.236-.882.236-1.417 0-.53-.077-.993-.231-1.39-.154-.4-.382-.711-.684-.933-.301-.224-.674-.337-1.117-.337-.461 0-.846.119-1.154.356a2.124 2.124 0 0 0-.688.956c-.151.4-.226.849-.226 1.348 0 .504.077.963.231 1.375.157.41.388.736.692.979.308.24.69.36 1.145.36Zm5.249-8.624h1.09v7.608c0 .345.038.587.115.725.077.139.236.205.476.199a2.14 2.14 0 0 0 .286-.028 3.57 3.57 0 0 0 .175-.046l.222.942a2.894 2.894 0 0 1-.36.073 2.663 2.663 0 0 1-.453.037c-.517 0-.904-.141-1.163-.424-.259-.283-.388-.677-.388-1.182v-7.904Zm3.364 9.455v-7.091h1.09V215h-1.09Zm.554-8.273a.773.773 0 0 1-.549-.217.694.694 0 0 1-.226-.521c0-.203.075-.377.226-.522a.773.773 0 0 1 .549-.217c.213 0 .394.072.545.217a.692.692 0 0 1 .231.522.688.688 0 0 1-.231.521.757.757 0 0 1-.545.217Zm5.209 8.421c-.591 0-1.113-.15-1.565-.448-.452-.302-.806-.726-1.062-1.274-.255-.551-.383-1.202-.383-1.953 0-.745.128-1.391.383-1.939.256-.548.611-.971 1.067-1.269.455-.299.981-.448 1.578-.448.462 0 .827.077 1.095.231.27.15.477.323.618.517.145.19.257.347.337.471h.092v-1.127h1.09V215h-1.053v-1.089h-.129c-.08.129-.194.292-.341.489a2.033 2.033 0 0 1-.633.522c-.274.15-.639.226-1.094.226Zm.148-.979c.437 0 .806-.114 1.108-.342.301-.23.531-.549.688-.955.156-.41.235-.882.235-1.417 0-.53-.077-.993-.231-1.39-.154-.4-.381-.711-.683-.933-.302-.224-.674-.337-1.117-.337-.462 0-.847.119-1.154.356a2.124 2.124 0 0 0-.688.956c-.151.4-.226.849-.226 1.348 0 .504.076.963.23 1.375.157.41.388.736.693.979.308.24.689.36 1.145.36Zm10.271-4.672-.978.277a1.835 1.835 0 0 0-.273-.475 1.317 1.317 0 0 0-.48-.388c-.203-.102-.463-.152-.78-.152-.434 0-.796.1-1.085.3-.286.197-.429.447-.429.752 0 .271.098.485.295.642.197.157.505.288.924.392l1.052.259c.634.154 1.107.389 1.417.706.311.314.467.719.467 1.214 0 .406-.117.77-.351 1.09-.231.32-.554.572-.97.757-.415.184-.898.277-1.449.277-.724 0-1.322-.157-1.796-.471-.474-.314-.774-.773-.9-1.376l1.034-.258c.098.381.284.667.558.858.277.191.639.287 1.085.287.508 0 .911-.108 1.21-.324.301-.218.452-.48.452-.784a.825.825 0 0 0-.258-.619c-.173-.169-.437-.296-.794-.379l-1.182-.277c-.65-.153-1.127-.392-1.431-.715-.302-.326-.453-.734-.453-1.224 0-.4.113-.754.337-1.061a2.29 2.29 0 0 1 .928-.725c.394-.176.84-.263 1.339-.263.702 0 1.253.154 1.653.461.403.308.689.714.858 1.219Zm4.743 5.651c-.684 0-1.273-.151-1.768-.453a3.03 3.03 0 0 1-1.141-1.274c-.264-.548-.397-1.185-.397-1.911s.133-1.367.397-1.921c.268-.557.64-.991 1.117-1.301.481-.314 1.041-.471 1.681-.471.369 0 .734.061 1.094.184.36.124.688.324.983.601.296.273.531.637.707 1.089.175.452.263 1.01.263 1.671v.462h-5.466v-.942h4.358c0-.4-.08-.757-.24-1.071a1.807 1.807 0 0 0-.674-.743 1.886 1.886 0 0 0-1.025-.273c-.434 0-.81.108-1.127.324a2.124 2.124 0 0 0-.724.831c-.17.341-.254.707-.254 1.098v.628c0 .536.092.99.277 1.362.187.369.448.651.78.845.332.191.719.286 1.159.286.286 0 .544-.04.775-.12.234-.083.436-.206.605-.369.169-.167.3-.373.392-.619l1.053.296a2.33 2.33 0 0 1-.559.941 2.713 2.713 0 0 1-.969.628 3.59 3.59 0 0 1-1.297.222Zm9.616-5.651-.979.277a1.803 1.803 0 0 0-.272-.475 1.317 1.317 0 0 0-.48-.388c-.204-.102-.464-.152-.781-.152-.434 0-.795.1-1.084.3-.287.197-.43.447-.43.752 0 .271.099.485.296.642.197.157.504.288.923.392l1.053.259c.634.154 1.106.389 1.417.706.311.314.466.719.466 1.214 0 .406-.117.77-.351 1.09-.231.32-.554.572-.969.757-.416.184-.899.277-1.45.277-.723 0-1.322-.157-1.796-.471-.474-.314-.774-.773-.9-1.376l1.034-.258c.099.381.285.667.559.858.277.191.638.287 1.085.287.507 0 .911-.108 1.209-.324.302-.218.453-.48.453-.784a.826.826 0 0 0-.259-.619c-.172-.169-.437-.296-.794-.379l-1.182-.277c-.649-.153-1.126-.392-1.431-.715-.301-.326-.452-.734-.452-1.224 0-.4.112-.754.337-1.061.227-.308.537-.55.928-.725.394-.176.84-.263 1.338-.263.702 0 1.253.154 1.653.461.403.308.689.714.859 1.219Zm8.509-1.588v.923h-3.675v-.923h3.675Zm-2.604-1.699h1.09v6.759c0 .308.045.538.134.692a.69.69 0 0 0 .351.305c.144.049.297.074.457.074.12 0 .218-.006.295-.019l.185-.037.221.979a2.232 2.232 0 0 1-.309.083c-.132.031-.3.046-.503.046-.308 0-.61-.066-.905-.198a1.804 1.804 0 0 1-.729-.605c-.191-.271-.287-.612-.287-1.025v-7.054Zm5.485 4.524V215h-1.09v-9.455h1.09v3.472h.092c.166-.366.416-.657.748-.872.335-.219.782-.328 1.339-.328.483 0 .906.097 1.269.291.363.19.645.484.845.881.203.394.305.896.305 1.505V215h-1.09v-4.432c0-.563-.146-.999-.438-1.306-.29-.311-.691-.467-1.205-.467-.357 0-.677.076-.96.227a1.65 1.65 0 0 0-.665.66c-.16.289-.24.64-.24 1.052Zm9.269 4.414c-.591 0-1.113-.15-1.565-.448-.453-.302-.807-.726-1.062-1.274-.256-.551-.383-1.202-.383-1.953 0-.745.127-1.391.383-1.939.255-.548.611-.971 1.066-1.269.456-.299.982-.448 1.579-.448.462 0 .826.077 1.094.231.271.15.477.323.619.517.144.19.257.347.337.471h.092v-1.127h1.09V215h-1.053v-1.089h-.129c-.08.129-.194.292-.342.489a2.029 2.029 0 0 1-.632.522c-.274.15-.639.226-1.094.226Zm.147-.979c.437 0 .807-.114 1.108-.342.302-.23.531-.549.688-.955.157-.41.235-.882.235-1.417 0-.53-.076-.993-.23-1.39-.154-.4-.382-.711-.684-.933-.301-.224-.674-.337-1.117-.337-.461 0-.846.119-1.154.356a2.124 2.124 0 0 0-.688.956c-.151.4-.226.849-.226 1.348 0 .504.077.963.231 1.375.157.41.388.736.692.979.308.24.69.36 1.145.36Zm8.333-6.26v.923h-3.675v-.923h3.675Zm-2.604-1.699h1.09v6.759c0 .308.044.538.134.692a.691.691 0 0 0 .35.305c.145.049.297.074.458.074a1.833 1.833 0 0 0 .48-.056l.221.979a2.232 2.232 0 0 1-.309.083c-.132.031-.3.046-.503.046-.308 0-.61-.066-.905-.198a1.797 1.797 0 0 1-.729-.605c-.191-.271-.287-.612-.287-1.025v-7.054Zm8.601 11.449c-.185 0-.35-.015-.494-.046a1.292 1.292 0 0 1-.3-.083l.277-.96c.264.067.498.092.701.073a.839.839 0 0 0 .541-.272c.16-.16.306-.42.438-.78l.203-.554-2.622-7.128h1.182l1.957 5.651h.074l1.958-5.651h1.181l-3.01 8.125a3.083 3.083 0 0 1-.503.91c-.2.243-.432.423-.697.54a2.146 2.146 0 0 1-.886.175Zm9.161-2.511c-.64 0-1.202-.153-1.685-.457a3.107 3.107 0 0 1-1.126-1.279c-.268-.548-.402-1.188-.402-1.921 0-.738.134-1.383.402-1.934a3.094 3.094 0 0 1 1.126-1.283c.483-.305 1.045-.457 1.685-.457.64 0 1.2.152 1.681.457.483.304.858.732 1.126 1.283.271.551.406 1.196.406 1.934 0 .733-.135 1.373-.406 1.921a3.066 3.066 0 0 1-1.126 1.279c-.481.304-1.041.457-1.681.457Zm0-.979c.486 0 .887-.125 1.2-.374.314-.249.547-.577.698-.983.15-.406.226-.847.226-1.321 0-.473-.076-.915-.226-1.324a2.231 2.231 0 0 0-.698-.993c-.313-.252-.714-.379-1.2-.379s-.886.127-1.2.379a2.23 2.23 0 0 0-.697.993 3.796 3.796 0 0 0-.226 1.324c0 .474.075.915.226 1.321.151.406.383.734.697.983.314.249.714.374 1.2.374Zm9.345-2.068v-4.192h1.09V215h-1.09v-1.2h-.074c-.166.36-.424.666-.775.918-.351.25-.794.374-1.33.374a2.37 2.37 0 0 1-1.182-.291 2.032 2.032 0 0 1-.812-.886c-.197-.397-.296-.897-.296-1.5v-4.506h1.09v4.432c0 .517.144.929.434 1.237.292.308.665.462 1.117.462.271 0 .546-.069.826-.208.283-.138.52-.351.711-.637.194-.286.291-.651.291-1.094Zm9.622 3.047c-.64 0-1.202-.153-1.685-.457a3.1 3.1 0 0 1-1.126-1.279c-.268-.548-.402-1.188-.402-1.921 0-.738.134-1.383.402-1.934.27-.551.646-.979 1.126-1.283.483-.305 1.045-.457 1.685-.457.64 0 1.2.152 1.68.457.484.304.859.732 1.127 1.283.271.551.406 1.196.406 1.934 0 .733-.135 1.373-.406 1.921a3.061 3.061 0 0 1-1.127 1.279c-.48.304-1.04.457-1.68.457Zm0-.979c.486 0 .886-.125 1.2-.374.314-.249.547-.577.697-.983.151-.406.227-.847.227-1.321 0-.473-.076-.915-.227-1.324a2.222 2.222 0 0 0-.697-.993c-.314-.252-.714-.379-1.2-.379s-.886.127-1.2.379a2.222 2.222 0 0 0-.697.993 3.796 3.796 0 0 0-.227 1.324c0 .474.076.915.227 1.321.15.406.383.734.697.983.314.249.714.374 1.2.374Zm6.241.831-2.16-7.091h1.145l1.532 5.429h.074l1.515-5.429h1.163l1.496 5.411h.074l1.532-5.411h1.145l-2.16 7.091h-1.071l-1.552-5.447h-.11L247.101 215h-1.071Zm10.046-4.266V215h-1.09v-7.091h1.053v1.108h.092a2.03 2.03 0 0 1 .757-.868c.339-.221.776-.332 1.311-.332.481 0 .901.098 1.261.295.36.194.64.49.84.887.2.394.3.892.3 1.495V215h-1.089v-4.432c0-.557-.145-.991-.434-1.302-.29-.314-.687-.471-1.191-.471a1.9 1.9 0 0 0-.933.227c-.271.15-.485.371-.642.66-.157.289-.235.64-.235 1.052Zm7.309 4.34a.8.8 0 0 1-.586-.245.8.8 0 0 1-.245-.586.8.8 0 0 1 .245-.586.795.795 0 0 1 .586-.245c.228 0 .423.081.586.245a.8.8 0 0 1 .245.586.78.78 0 0 1-.116.415.843.843 0 0 1-.3.305.788.788 0 0 1-.415.111Z"/></svg>