<svg fill="none" height="32" viewBox="0 0 144 32" width="144" xmlns="http://www.w3.org/2000/svg" xmlns:xlink="http://www.w3.org/1999/xlink"><mask id="a" height="20" maskUnits="userSpaceOnUse" width="52" x="46" y="6"><path d="m97.4084 6h-50.7248v20h50.7248z" fill="#fff"/></mask><g fill="#151715" mask="url(#a)"><path d="m50.89 6.66699h-3.6048v3.60491h3.6048z"/><path d="m50.8003 25.4491v-12.9955h-3.4253v12.9827h3.4253zm22.6812.1283v-3.1815c-.5004 0-.9237-.0257-1.2316-.077-.3592-.0513-.6286-.1796-.8082-.3592s-.295-.4362-.3592-.7826c-.0513-.3207-.077-.744-.077-1.2572v-4.5285h2.476v-2.9378h-2.476v-5.05452h-3.4252v12.55932c0 1.0648.0898 1.9628.2694 2.6812.1796.7056.4874 1.2829.9108 1.7191s.9878.744 1.6678.9364c.6927.1925 1.565.2823 2.6042.2823zm19.6023-.1283v-19.05066h-3.4253v19.05066zm-28.8005-11.7126c-.9494-1.0263-2.2836-1.5395-3.9769-1.5395-.8211 0-1.5779.1668-2.2451.5003-.6799.3336-1.2444.7954-1.7062 1.3856l-.1796.2437v-.2181-1.6549h-3.3739v12.9827h3.3996v-6.9147.4747c0-.077 0-.154 0-.231.0385-1.2187.3335-2.1167.898-2.694.6029-.6158 1.3342-.9236 2.1681-.9236.9878 0 1.7446.3078 2.245.898.4874.5901.744 1.424.744 2.4887v.0385 6.8634h3.451v-7.3637c.0128-1.8473-.4747-3.3098-1.424-4.3361zm23.6048 5.1956c0-.9365-.1667-1.8088-.4874-2.6299-.3336-.8082-.7954-1.5266-1.3727-2.1424-.5901-.6157-1.2957-1.0904-2.1167-1.4368-.8211-.3464-1.732-.5131-2.7198-.5131-.9364 0-1.8216.1796-2.6426.526-.8211.3592-1.5395.8338-2.1424 1.4368-.603.6029-1.0905 1.3213-1.4369 2.1424-.3592.821-.5259 1.7062-.5259 2.6427s.1667 1.8217.5002 2.6427c.3336.821.8083 1.5394 1.3984 2.1424s1.3214 1.0904 2.168 1.4368c.8468.3592 1.7832.5388 2.7839.5388 2.8993 0 4.6953-1.3214 5.7729-2.5529l-2.4631-1.873c-.5131.6158-1.7447 1.4497-3.2841 1.4497-.9622 0-1.7576-.2182-2.3606-.6672-.6029-.4361-1.0134-1.0519-1.2315-1.8088l-.0385-.1154h10.1988zm-10.1732-1.193c0-.9494 1.0905-2.6043 3.4382-2.6171 2.3476 0 3.4509 1.6549 3.4509 2.6042zm19.2688 6.0679c-.0641-.1539-.1539-.2822-.2694-.3977-.1154-.1154-.2437-.2052-.3976-.2694-.154-.0641-.3208-.1026-.4876-.1026-.1796 0-.3335.0385-.4874.1026-.154.0642-.2823.154-.3978.2694-.1154.1155-.2052.2438-.2694.3977-.0641.154-.1026.3207-.1026.4875 0 .1796.0385.3336.1026.4875.0642.1539.154.2823.2694.3977.1155.1155.2438.2053.3978.2694.1539.0642.3207.1026.4874.1026.1796 0 .3336-.0384.4876-.1026.1539-.0641.2822-.1539.3976-.2694.1155-.1154.2053-.2438.2694-.3977.0642-.1539.1026-.3207.1026-.4875s-.0384-.3335-.1026-.4875zm-.2052.8981c-.0514.1282-.1283.2437-.2181.3335s-.2053.1667-.3335.2181c-.1284.0513-.2566.077-.4106.077-.1411 0-.2822-.0257-.4105-.077-.1283-.0514-.2437-.1283-.3335-.2181s-.1668-.2053-.2182-.3335c-.0512-.1284-.0769-.2566-.0769-.4106 0-.1411.0257-.2822.0769-.4105.0514-.1283.1284-.2437.2182-.3335s.2052-.1668.3335-.2181.2566-.077.4105-.077c.1411 0 .2822.0257.4106.077.1282.0513.2437.1283.3335.2181s.1667.2052.2181.3335c.0513.1283.077.2566.077.4105 0 .154-.0257.2822-.077.4106zm-.7184-.2951c.1026-.0129.1796-.0513.2437-.1155.0641-.0641.1027-.1539.1027-.2822 0-.1411-.0386-.2438-.1284-.3207-.0769-.077-.218-.1155-.3848-.1155h-.5645v1.4496h.2694v-.59h.1925l.3592.59h.2822zm-.1412-.2181c-.0384 0-.0769 0-.1282 0h-.1925v-.4105h.1925.1282c.0385 0 .077.0128.1155.0256.0385.0129.0641.0385.077.0642.0256.0257.0256.0641.0256.1155 0 .0512-.0128.0898-.0256.1154-.0257.0256-.0513.0513-.077.0642-.0385.0128-.077.0256-.1155.0256z"/></g></svg>