<svg fill="none" height="40" viewBox="0 0 144 40" width="144" xmlns="http://www.w3.org/2000/svg"><path d="m39.4391 27.1999c-.264.4659-.5152.9396-.7943 1.3963-.7647 1.2509-1.5418 2.4942-2.3122 3.7416-.1142.185-.2129.3421-.4861.3412-3.1979-.0102-6.3959-.0068-9.5939-.0079-.051 0-.1021-.012-.2154-.0263.7971-1.2986 1.5744-2.565 2.374-3.8677.0682-.0648.1141-.0931.1973-.1171.663.0036 1.2887.0028 1.9524.0047.2558.0041.4746-.0067.6912.0097.2787.0211.4438-.0948.5905-.3337 1.6234-2.645 3.2614-5.2812 4.8785-7.93.0815-.1335.0794-.4045-.0027-.5387-1.5333-2.5086-3.1195-4.9857-4.6095-7.5195-.4117-.7-.8853-.8694-1.6277-.7534-.6368-.0034-1.2357-.003-1.8544-.0074-.0198-.0049-.06-.0115-.0901-.0124-.0701-.0025-.1102-.0041-.1503-.0058-.2779-.4861-.5464-.978-.8358-1.4572-.4986-.82557-1.0102-1.64326-1.5467-2.51351.1793-.01253.3079-.02929.4364-.02935 3.0769-.00147 6.1537.00358 9.2305-.008.3312-.00125.4962.11817.665.39996.8434 1.40789 1.7192 2.7963 2.581 4.1932.3384.5485.6699 1.1012 1.0067 1.6802.0022.0282.0053.0281-.0331.03-.5556.0074-1.0729.0129-1.6239.0144-.1835.0083-.3333.0207-.5253.0366.0714.1375.104.2114.1461.2795 1.1811 1.9114 2.3504 3.8303 3.5548 5.7269.2732.4302.2733.7465-.0002 1.177-1.1904 1.8732-2.3455 3.7689-3.5108 5.6579-.0655.1062-.1085.2262-.2015.4236.2498 0 .4082 0 .6039.0027.3931-.018.7489-.0386 1.105-.0413.0004.0179.0006.0538.0006.0538z" fill="#08558c"/><g fill="#2d486b"><path d="m75.3263 20.3272c-.0002.5949-.0002 1.149-.0002 1.703.0309.011.0617.0219.0926.0329.2666-.4101.5323-.8206.7999-1.23.8661-1.3254 1.7288-2.6531 2.6057-3.9714.0854-.1283.2609-.2814.3934-.2804 1.2483.0101 2.4963.0511 3.789.0843-.031.4835-.279.8424-.5143 1.189-1.1745 1.7298-2.3651 3.4486-3.5563 5.1803 1.604 2.5307 3.2069 5.0597 4.865 7.6758-.2463 0-.3901 0-.5338 0-1.2537.0001-2.5077-.0169-3.7607.0103-.3833.0083-.6005-.1198-.7636-.4501-.3175-.643-.6406-1.2846-.9936-1.9085-.7708-1.3621-1.5617-2.7128-2.3443-4.0682-.0465.0123-.0929.0246-.1393.0369-.0069.1359-.0196.2718-.0197.4077-.0014 1.8396-.01 3.6792.0068 5.5186.0032.3569-.0933.4689-.4572.4616-1.1306-.0227-2.262-.019-3.3927-.0017-.3244.005-.4151-.0998-.4147-.4185.0079-6.5679.0057-13.1358.0071-19.7038 0-.1839-.0464-.4042.2575-.4038 1.3067.0017 2.6133.0007 3.9594.0007.0382 3.3834.0761 6.7389.114 10.1353z"/><path d="m84.9062 10.3511c.1401-.054.2796-.1533.4202-.1549 1.1307-.0128 2.2619.0047 3.3924-.0144.3436-.0057.4343.1077.4358.4422.0165 3.7022.0478 7.4044.075 11.1066.0008.1168.0001.2337.0733.3741.5319-.8059 1.0651-1.6108 1.5953-2.4178.6383-.9716 1.2703-1.9473 1.9163-2.9136.0638-.0954.2055-.1956.3121-.1967 1.2743-.0136 2.5488-.0088 3.8232-.0088.0226.0518.0451.1036.0676.1554-.2325.4053-.4419.8261-.7016 1.2132-1.0765 1.6052-2.1613 3.2049-3.2617 4.7938-.1662.24-.1343.3924.0073.6133 1.4727 2.2968 2.937 4.5992 4.3994 6.9027.0763.1201.1145.2645.1985.4642-.2565 0-.4554 0-.6543 0-1.2398 0-2.4797-.0039-3.7196.0032-.2386.0014-.3731-.0539-.5004-.2952-.7376-1.3987-1.4941-2.788-2.2726-4.1643-.3588-.6343-.7813-1.2327-1.1784-1.8451-.0249-.0383-.0802-.0569-.186-.1283v.4921c0 1.8257-.008 3.6516.0069 5.4772.0029.3449-.0735.4786-.4491.4688-1.2516-.0329-2.5042-.0296-3.7623-.0977.0077-.2057.0329-.354.033-.5024.0019-6.4159.0022-12.8319-.0013-19.2478-.0001-.1733-.045-.3465-.069-.5198z"/><path d="m103.243 30.6042c-2.488-.6069-4.0326-2.1522-4.6565-4.5761-.5781-2.2459-.4472-4.4583.6731-6.5309.9184-1.6983 2.3514-2.7277 4.2804-3.0143 1.206-.1792 2.389-.1082 3.555.3021 1.539.5414 2.417 1.6831 2.938 3.1487.421 1.1842.563 2.4179.535 3.6735-.005.2519-.043.3751-.347.4147-1.485.1936-2.966.4243-4.448.6409-.948.1385-1.897.271-2.844.4147-.449.0681-.565.3082-.398.7561.315.8499.963 1.354 1.767 1.6807 1.101.4472 2.203.2658 3.306-.0201.482-.1251.972-.2209 1.461-.3181.075-.0149.217.012.236.0577.267.6456.579 1.2818.754 1.9532.16.6181-.207.8489-.744 1.0163-.577.1801-1.173.3125-1.769.4157-.424.0734-.863.092-1.295.086-.991-.0135-1.981-.0571-3.004-.1008zm3.238-9.5772c-.059-.236-.092-.4827-.182-.7061-.389-.9628-1.091-1.3114-1.932-1.2028-1.007.1302-1.63.7849-1.916 1.6994-.198.6312-.222 1.317-.327 2.0028.158.0175.252.0477.34.0348 1.28-.1866 2.561-.3743 3.838-.5793.096-.0153.238-.1617.241-.2516.012-.308-.029-.618-.062-.9972z"/><path d="m55.0506 30.7107c-.6264-.0003-1.212-.0088-1.7973.0031-.2477.0051-.3327-.0853-.3314-.332.0074-1.4161-.005-2.8322.0041-4.2483.0224-3.4955.0585-6.991.0757-10.4865.0036-.7447-.0621-1.4896-.0734-2.2347-.0122-.8062.1896-.9757.9938-.9363.7991.0391 1.5993.0572 2.399.0834.1088.0036.218-.002.3268.0018.6321.0218.6904.0816.6904.7069.0002 4.6569 0 9.3137.0003 13.9706.0001.5276.0013.5284.5369.5287 1.2988.0005 2.5975.0001 3.9642.0001-.0365.355-.077.5873-.0811.8202-.0102.5717-.0206 1.1444.0027 1.7153.0134.3274-.1038.4153-.4199.4135-2.0832-.0116-4.1666-.0059-6.2908-.0058z"/><path d="m112.937 27.8491c0-3.3236.008-6.6065-.011-9.8892-.003-.4177.155-.6036.514-.7408 1.006-.3853 2.049-.5876 3.118-.6515 1.147-.0685 2.296-.1043 3.443-.1745.368-.0225.528.124.452.4664-.142.6446-.316 1.2822-.477 1.9226-.223.8845-.251.6994-.959.4866-.611-.1839-1.189-.1468-1.829.0654v.5024 10.3387c0 .534-.001.535-.53.5352-1.117.0006-2.234-.0075-3.351.0051-.284.0032-.38-.0884-.375-.3737.015-.817.005-1.6345.005-2.4927z"/></g><path d="m28.35 11.5755c.0776-.0003.1177.0014.1956.0225.0501.0438.0665.065.0943.1102.0887.1683.1666.3117.2522.4503 1.5728 2.547 3.1434 5.0954 4.7252 7.6368.1587.2551.1555.4438-.0034.6995-1.6876 2.7159-3.3629 5.4394-5.0416 8.1609-.0459.0283-.0918.0567-.1637.093-1.1694.0056-2.3129.0032-3.4918-.0359.0395-.1805.1057-.3297.1906-.4673 1.6009-2.5953 3.2013-5.191 4.8113-7.7806.1397-.2247.1599-.388.0121-.6238-1.0481-1.6726-2.0835-3.3532-3.1159-5.0356-.6542-1.0662-1.2963-2.1398-1.9438-3.2102 1.1471-.006 2.2943-.012 3.4789-.0198z" fill="#0056a9"/><path d="m68.0486 16.4126c.0276.1396.0791.2792.0793.4188.0042 4.4685-.0007 8.9371.011 13.4056.001.3713-.0984.4899-.4774.482-1.1302-.0237-2.2614-.0178-3.392-.0026-.3052.0041-.3951-.0934-.3945-.3964.0082-4.4958.0079-8.9916.0011-13.4873-.0005-.313.0955-.4559.4217-.431.2438.0187.4901.0055.8037.0242.624.0312 1.1798.0573 1.7354.0541.404-.0024.8078-.0435 1.2117-.0674z" fill="#2d486b"/><path d="m40.4268 13.8834c.9521-.0051 1.9043-.0172 2.8563-.006.114.0014.2694.1027.3333.2035.8475 1.3372 1.683 2.682 2.5194 4.0262.47.7555.9431 1.5092 1.3941 2.2759.0499.0849-.0027.2701-.0649.3747-.421.707-.8563 1.4056-1.2889 2.1056-.8381 1.3564-1.6843 2.7078-2.5091 4.0721-.1259.2083-.2578.266-.482.2637-.9795-.01-1.9592-.0051-2.9741-.038.0133-.1293.0551-.2303.1113-.3226 1.2675-2.0831 2.5299-4.1694 3.8124-6.2432.2-.3233.2053-.5596-.0032-.883-1.2471-1.9351-2.4722-3.8844-3.7046-5.8289z" fill="#0098da"/><path d="m24.8354 11.5893c.6843 1.0764 1.3264 2.15 1.9806 3.2162 1.0324 1.6824 2.0678 3.3631 3.1159 5.0356.1478.2359.1276.3991-.0121.6238-1.61 2.5897-3.2104 5.1853-4.8113 7.7806-.0849.1376-.1511.2868-.2287.4595-.4238.0289-.8449.0289-1.329.0289.3034-.4993.5869-.9696.874-1.4376 1.0785-1.7589 2.1565-3.5181 3.2387-5.2748.3211-.5214.652-1.0368.9848-1.5509.1393-.215.1672-.3734.0056-.6326-1.4155-2.2696-2.8013-4.5577-4.1996-6.8382-.2813-.4589-.5778-.9086-.9018-1.4165.4676 0 .8569 0 1.2829.006z" fill="#00aeee"/><path d="m68.081 11.8066c.5157.9042.0767 2.1423-.9744 2.6248-1.4179.6509-2.9835-.0557-3.3551-1.5486-.1302-.5236.0678-.9537.3821-1.3476.5897-.7391 2.4642-1.2132 3.4016-.4096.2094.1795.3543.4343.5458.681z" fill="#2d486b"/><path d="m40.3924 13.8778c1.2682 1.95 2.4933 3.8993 3.7404 5.8344.2084.3234.2031.5597.0032.883-1.2826 2.0738-2.5449 4.1601-3.8125 6.2432-.0561.0923-.0979.1933-.1494.3188-.2227.0323-.4423.0361-.6986.0413-.0366.0015-.0368-.0344-.0172-.0726 1.1953-1.9326 2.3733-3.8256 3.5449-5.7226.256-.4145.6802-.8439.6787-1.2652-.0015-.4224-.4314-.8474-.6857-1.2639-1.02-1.6706-2.0446-3.3384-3.0676-5.0073 0 0-.0031.0002-.0043.0013.1434.0021.2879.0031.4681.0096z" fill="#004b9a"/><path d="m84.9003 10.3896c.027.1349.0719.3082.072.4814.0036 6.416.0033 12.8319.0013 19.2479 0 .1483-.0253.2966-.0528.4749-.0183-.0515-.0263-.1329-.0263-.2144.0005-6.6504.0017-13.3009.0058-19.9898z" fill="#336"/><path d="m68.0116 16.4094c-.3657.0271-.7695.0683-1.1735.0706-.5556.0033-1.1114-.0228-1.6975-.0503.9241-.0171 1.8785-.0203 2.871-.0203z" fill="#3f3f5f"/><path d="m28.6094 28.66c1.6414-2.7258 3.3167-5.4494 5.0043-8.1653.1589-.2557.1621-.4444.0034-.6994-1.5818-2.5415-3.1524-5.0898-4.7252-7.6368-.0856-.1386-.1635-.282-.2481-.4715-.0008-.0623.0014-.0764.0037-.0905.5989-.0004 1.1979-.0008 1.8389.0303.1259.2006.1967.3777.2954.5377 1.5573 2.5244 3.1147 5.0488 4.6832 7.5663.1808.2902.198.5241.0125.8202-1.2282 1.96-2.4481 3.9253-3.6591 5.896-.4476.7284-.8639 1.4761-1.2945 2.215-.6257.0008-1.2515.0016-1.9145-.002z" fill="#001c5d"/><path d="m30.5611 28.6648c.3927-.7417.809-1.4894 1.2566-2.2178 1.211-1.9707 2.4309-3.936 3.659-5.896.1856-.2961.1683-.53-.0125-.8202-1.5684-2.5175-3.1258-5.0419-4.6831-7.5663-.0987-.16-.1696-.3371-.2577-.5339.7003-.1475 1.174.022 1.5857.722 1.49 2.5337 3.0762 5.0108 4.6095 7.5194.0821.1343.0842.4052.0027.5387-1.6172 2.6489-3.2551 5.285-4.8786 7.93-.1466.2389-.3118.3549-.5904.3338-.2167-.0165-.4354-.0057-.6912-.0097z" fill="#002963"/><path d="m39.8909 13.8687c1.0614 1.6669 2.086 3.3347 3.106 5.0053.2543.4165.6842.8415.6857 1.2639.0015.4213-.4227.8507-.6787 1.2652-1.1716 1.897-2.3496 3.79-3.5453 5.7047-.3757.0409-.7315.0615-1.119.052.0225-.1391.0687-.2531.1322-.3564 1.2037-1.9577 2.4032-3.9182 3.6214-5.8668.1857-.2971.1946-.5314.0125-.8211-.7237-1.1513-1.4394-2.3077-2.1485-3.4681-.5594-.9156-1.1048-1.8399-1.6564-2.7603.5172-.0055 1.0345-.011 1.5901-.0184z" fill="#001855"/><path d="m38.2674 13.8833c.5854.9244 1.1307 1.8487 1.6902 2.7643.709 1.1604 1.4247 2.3168 2.1484 3.4681.1821.2897.1733.524-.0124.8211-1.2182 1.9487-2.4177 3.9091-3.6214 5.8668-.0635.1033-.1097.2173-.1695.3538-.164.0275-.3224.0275-.5722.0275.093-.1975.136-.3175.2015-.4236 1.1653-1.8891 2.3204-3.7848 3.5108-5.658.2735-.4305.2733-.7468.0002-1.177-1.2044-1.8966-2.3737-3.8155-3.5548-5.7268-.0421-.0682-.0747-.1421-.1462-.2796.1921-.0159.3419-.0282.5254-.0366z" fill="#002963"/><path d="m28.6275 11.5919c.0175.0189.0152.033.0088.0682-.0246.0031-.041-.0181-.0611-.0611-.0077-.0186.0325-.0119.0523-.0071z" fill="#002963"/></svg>