<svg fill="none" height="32" viewBox="0 0 144 32" width="144" xmlns="http://www.w3.org/2000/svg"><g fill="#151715"><path d="m92.0718 16.1982h-4.1773v.9057h4.1773z"/><path d="m18.4396 10.7-.3721 9.096v.1584c0 .772.2428.9304 1.5516 1.017v.4206c-.9552-.0692-1.3194-.0866-1.8471-.0866-.5278 0-.9025.0224-1.8736.0866v-.4206c1.3194-.0866 1.4962-.2276 1.5332-1.1754l.3931-8.6134v-.0966c0-.8066-.2638-.9898-1.5516-1.0516v-.43803c.7283.05203 1.008.0693 1.5332.0693.5968.00583 1.1934-.0231 1.7864-.08657l3.4647 8.8684 3.5333-8.8684c.5953.05709 1.1932.08591 1.7917.08657.4697 0 .7678-.01727 1.4777-.0693v.43803c-1.2719.0693-1.5516.2474-1.5516 1.0343v.1139l.2058 8.6035c.0185.9478.1873 1.0888 1.5331 1.1754v.4206c-.7752-.0855-1.5548-.1325-2.3353-.141-.7814.0083-1.5618.0554-2.3379.141v-.4206c1.2719-.0693 1.5516-.2623 1.5516-1.0863v-.0891l-.1688-9.0687-3.0822 7.8167-.2242.579-.2639.6483-.2428.6656-.2058.579h-.2797l-.2058-.5616-.2639-.683-.2639-.6829-.2243-.6137z"/><path d="m34.8956 20.9538c-1.7019 0-2.4487-1.2373-2.4672-3.9592h5.5784c-.037-2.6996-1.2165-4.1372-3.4304-4.1372-2.214 0-3.6389 1.7-3.6389 4.3971 0 2.697 1.4038 4.2783 3.813 4.2783 1.8313 0 3.0293-1.0715 3.2721-2.8753h-.7521c-.2243 1.4847-1.0554 2.2963-2.3749 2.2963zm-2.4223-4.5927c.1874-2.0142.8972-3.0484 2.0926-3.0484 1.1953 0 1.8471.9898 1.9446 3.0484z"/><path d="m39.1228 13.5052v-.3167c.8357-.0496 1.663-.1848 2.4672-.4033.095.6483.132.9303.1688 1.4549v.1931c.4118-.9898 1.2165-1.5787 2.1876-1.5787s1.6255.579 1.6255 1.4203c0 .5097-.3167.8413-.7916.8413-.475 0-.7679-.2474-.7679-.5964.0067-.0586.0191-.1166.037-.1731l.0394-.1758v-.1583c0-.2475-.2242-.4206-.5619-.4206-.9711 0-1.5833 1.1035-1.5833 2.8381v3.6597c0 .7424.1874.8933 1.3194.9452v.3515c-1.3858-.1386-2.7835-.1386-4.1692 0v-.3465c1.1399-.0519 1.3457-.193 1.3457-.9452v-5.7308c-.0185-.7547-.1108-.8413-1.0819-.8587z"/><path d="m52.7223 12.6982v2.8902h-.4064c-.3377-1.5243-1.0291-2.2592-2.169-2.2592-1.4012 0-2.2246 1.4179-2.2246 3.9245 0 2.4546.7284 3.7117 2.1691 3.7117 1.1576 0 1.8489-.7712 2.0741-2.3136h.7653c-.2428 1.8756-1.3063 2.8925-2.9897 2.8925-2.1665 0-3.6442-1.7197-3.6442-4.2782 0-2.6105 1.4962-4.3996 3.6942-4.3996.3567-.0158.7127.0426 1.0426.171.3298.1282.6252.3234.8653.5713l.504-.8932z"/><path d="m58.2201 20.9538c-1.7021 0-2.4489-1.2373-2.4673-3.9592h5.5677c-.0369-2.6996-1.2138-4.1372-3.4303-4.1372-2.2166 0-3.6441 1.7024-3.6441 4.3995 0 2.6972 1.4012 4.2783 3.8129 4.2783 1.8313 0 3.0267-1.0714 3.2721-2.8753h-.7494c-.2243 1.4847-1.0555 2.2963-2.3748 2.2963m-2.4304-4.5925c.1874-2.0142.8972-3.0486 2.0926-3.0486 1.1953 0 1.8312.9898 1.9448 3.0486z"/><path d="m70.0117 19.5682v-10.118c-.926.23001-1.8702.3905-2.8234.48004v.29686c1.1769 0 1.3193.1238 1.3193 1.0344v3.0658c-.6913-1.0516-1.235-1.3659-2.2429-1.3659-2.0002 0-3.4014 1.7692-3.4014 4.2932 0 2.5239 1.4196 4.2956 3.4567 4.2956 1.0556 0 1.7945-.4553 2.3195-1.4377.0327.4745.1211.9442.2639 1.4006.7076-.2218 1.4412-.3623 2.1849-.4182l.2824-.0371v-.297c-1.2535-.0346-1.3642-.1237-1.3642-1.1926m-3.5149 1.4847c-1.3458 0-2.0556-1.314-2.0556-3.8206s.6545-3.7859 2.0002-3.7859 2.0925 1.3337 2.0925 3.9096c0 2.4349-.6913 3.6969-2.0371 3.6969z"/><path d="m76.0455 20.9538c-1.6993 0-2.4461-1.2373-2.4673-3.9592h5.5706c-.037-2.6996-1.2139-4.1372-3.4305-4.1372-2.2165 0-3.6441 1.7024-3.6441 4.3995 0 2.6972 1.4012 4.2783 3.8131 4.2783 1.8312 0 3.0266-1.0714 3.2694-2.8753h-.7468c-.2243 1.4847-1.0556 2.2963-2.3749 2.2963m-2.4277-4.5925c.1847-2.0142.8971-3.0486 2.0925-3.0486s1.8313.9898 1.9448 3.0486z"/><path d="m80.7344 21.5501v-2.9273l.409-.0173c.3378 1.5935 1.1214 2.3656 2.4303 2.3656 1.103 0 1.9262-.683 1.9262-1.5788 0-.5939-.3562-.9897-1.2718-1.3832l-.7098-.2969-.8602-.3687c-1.3644-.5963-1.7945-1.0863-1.7945-2.1032 0-1.3858 1.1584-2.331 2.805-2.331.6831-.0135 1.3523.183 1.9052.5592l.3167-.7175h.3377v2.7218h-.4301c-.1688-1.4029-.7915-2.0686-1.9632-2.0686-.9895 0-1.7574.631-1.7574 1.4549 0 .7003.2823.928 1.9817 1.6308l.7916.3141c1.4197.5791 1.9237 1.1409 1.9237 2.1751 0 1.4698-1.2508 2.5215-3.0082 2.5215-.8191.0168-1.6167-.2471-2.243-.7424l-.4486.7919z"/><path d="m100.901 12.5064c.01-.4274-.086-.8512-.28-1.2379-.195-.3865-.483-.7252-.8418-.9891-.6333-.43802-1.3642-.63096-2.578-.63096h-4.916v.43786c1.3457.0719 1.533.2104 1.533 1.1581v8.4997c0 .9477-.1503 1.069-1.533 1.1754v.4206h4.7286c1.3827 0 2.1321-.1584 2.9158-.6137.4754-.3009.8654-.7062 1.1354-1.1805.271-.4743.413-1.0034.416-1.5413.01-.4458-.089-.8878-.289-1.292-.201-.4041-.499-.7596-.869-1.0389-.4362-.298-.9437-.4909-1.4779-.5618 1.3459-.4725 2.0559-1.3659 2.0559-2.5931m-5.5127-2.326h1.5833c1.57 0 2.2614.7176 2.2614 2.3482 0 .8067-.2058 1.3857-.6175 1.841-.4117.4554-.9156.5766-1.9606.5766h-1.2718zm1.7838 5.3102c.9896 0 1.5516.1583 1.9817.5616.4302.4034.6571 1.1556.6571 1.9969 0 1.7519-.9367 2.7342-2.5992 2.7342h-.6728c-.9896 0-1.1585-.141-1.1585-.9106v-4.3821z"/><path d="m106.962 20.9538c-1.702 0-2.449-1.2373-2.467-3.9592h5.57c-.036-2.6996-1.216-4.1372-3.43-4.1372s-3.647 1.7024-3.647 4.3995c0 2.6972 1.404 4.2783 3.813 4.2783 1.832 0 3.03-1.0714 3.272-2.8753h-.736c-.224 1.4847-1.055 2.2963-2.375 2.2963m-2.43-4.5925c.187-2.0142.897-3.0486 2.095-3.0486s1.831.9898 1.942 3.0486z"/><path d="m111.054 13.575v-.2994c.844-.0885 1.675-.2645 2.478-.5246.105.5027.167 1.0123.187 1.5242.67-.9452 1.438-1.3659 2.523-1.3659 1.084 0 2.092.5419 2.467 1.4006.201.5023.293 1.0375.269 1.5737v4.2066c0 .7423.187.8932 1.319.9452v.3513c-.676-.0702-1.356-.1049-2.037-.1039-.68-.0019-1.361.0329-2.037.1039v-.3463c1.008-.0347 1.251-.2104 1.251-.9106v-4.2932c0-1.5267-.486-2.138-1.681-2.138-1.272 0-1.945.7424-1.945 2.1899v4.2413c0 .7002.243.8759 1.217.9106v.3513c-.671-.0705-1.345-.1053-2.019-.1039-.674-.001-1.348.0337-2.019.1039v-.3513c1.14-.0521 1.32-.1931 1.32-.9453v-5.6913c-.019-.7175-.132-.8239-1.056-.8239-.055 0-.15-.0173-.243-.0173"/><path d="m121.035 21.339 5.067-7.8167h-2.299c-1.216 0-1.515.2474-2.187 1.8211h-.375l.43-2.2789h6.431l-5.085 7.8192h2.187c1.27 0 1.796-.4751 2.354-2.0687h.394l-.486 2.524z"/></g></svg>