<svg fill="none" height="40" viewBox="0 0 144 40" width="144" xmlns="http://www.w3.org/2000/svg"><g fill="#0061a1"><path d="m8.75 14.7656 3.8976-1.0635c.29.4507.4187.8381.5793 1.6748 1.1274-1.0947 2.5128-1.6748 4.0269-1.6748 1.3521 0 2.4795.4507 3.3495 1.3528.2261.2246.3228.354.6441.8046 1.5133-1.5453 2.8653-2.1574 4.6695-2.1574 1.288 0 2.5121.3868 3.2528 1.0308.9348.8039 1.2241 1.7714 1.2241 4.0255v11.7246h-4.1862v-10.8865c0-1.9648-.226-2.3515-1.3527-2.3515-.8061 0-1.9328.5473-2.8676 1.3854v11.8526h-4.0902v-10.7252c0-2.0621-.29-2.5448-1.4821-2.5448-.8054 0-1.9001.4187-2.8341 1.2561v12.0147h-4.21886v-11.4994c0-2.3827-.16064-3.4149-.61204-4.2188z"/><path d="m34.7312 14.3781 4.2508-.8046v10.5965c0 1.4822.0967 2.2548.3547 2.7055.2247.4521.8694.772 1.5134.772 1.0627 0 2.3515-.772 2.6735-1.5774v-11.5945l4.1229-.8694v12.5933c0 1.094.354 2.2214.998 2.9948l-3.0594 1.7394c-.5474-.3867-.9988-.934-1.2881-1.6108-1.0627 1.0308-2.6088 1.5781-4.3482 1.5781-2.3195 0-4.3163-1.094-4.8643-2.672-.2574-.7422-.354-1.6108-.354-3.2863z"/><path d="m51.5859 14.7656 3.8969-1.0635c.29.4507.4187.8381.5793 1.6748 1.1281-1.0954 2.5128-1.6748 4.027-1.6748 1.352 0 2.4794.4507 3.3494 1.3528.2261.2246.3228.354.6448.8046 1.5134-1.5453 2.8654-2.1574 4.6695-2.1574 1.2881 0 2.5121.3868 3.2528 1.0308.9348.8039 1.2241 1.7714 1.2241 4.0255v11.7246h-4.1861v-10.8865c0-1.9648-.2261-2.3515-1.3528-2.3515-.8054 0-1.9328.5473-2.8675 1.3854v11.8526h-4.0902v-10.7252c0-2.0621-.2901-2.5448-1.4821-2.5448-.8054 0-1.9001.4187-2.8342 1.2561v12.0147h-4.2196v-11.4994c.0008-2.3827-.1606-3.4149-.6113-4.2188z"/><path d="m89.0628 15.0871-1.4167 2.9003c-1.6421-.8381-2.8341-1.1921-4.0575-1.1921-1.2568 0-2.0949.6433-2.0949 1.6108 0 .8359.5481 1.2873 2.0622 1.6733l1.9967.5161c2.0281.516 2.7055 1.1274 3.2856 1.8688.612.7719.902 1.706.902 2.8014 0 3.4142-2.8348 5.7344-7.0537 5.7344-2.0302 0-4.2523-.6447-6.667-1.9008l1.5454-3.1561c1.3207.8054 3.6083 1.8681 5.4756 1.8681 1.2248 0 2.1901-.8054 2.1901-1.8681 0-1.1274-.8046-1.7082-2.5433-2.0295l-1.9321-.3547c-1.0961-.1941-2.4489-.9661-3.0282-1.674-.5801-.7088-.9348-1.9009-.9348-2.9643 0-3.2201 2.5448-5.3782 6.3784-5.3782 2.6394-.0007 4.3795.8039 5.8922 1.5446z"/><path d="m92.4375 14.6682 3.8321-1.0947c.386.6767.6121 1.3847.6121 2.0622.998-.7088 1.1921-.8381 1.9001-1.2248.8693-.4507 1.9972-.708 2.9632-.708 1.836 0 3.446.966 3.962 2.3834.225.6121.322 1.3208.322 2.3522v12.046h-4.252v-10.7267c0-1.8681-.322-2.4154-1.45-2.4154-.8692 0-1.9959.5793-2.9946 1.4814v11.6592h-4.3163v-11.9492c0-1.4182-.1926-2.7702-.5786-3.8656z"/><path d="m121.695 26.1031 1.676 2.576c-1.901 1.5461-3.897 2.2868-6.217 2.2868-4.735 0-7.795-3.3495-7.795-8.5351 0-2.9642.612-4.9275 2.062-6.5376 1.353-1.5148 2.995-2.2243 5.185-2.2243 1.901 0 3.705.6448 4.767 1.7402 1.514 1.5461 2.19 3.7682 2.19 7.2144v.998h-9.534v.1286c0 2.5441 1.257 3.9943 3.48 3.9943 1.479.0007 2.865-.5474 4.186-1.6413zm-7.601-5.637h4.992v-.1927c0-1.224-.128-1.8673-.516-2.4801-.417-.644-1.03-.966-1.9-.966-1.642 0-2.576 1.288-2.576 3.5748z"/><path d="m135.193 13.9595-1.094 2.8669h-2.773v8.4057c0 2.0949.389 2.6408 1.871 2.6408.386 0 .772-.096 1.546-.3213l.546 2.5768c-1.256.5154-2.384.74-3.51.74-2.191 0-3.962-.9661-4.445-2.4155-.258-.7087-.29-1.0321-.29-2.5448v-9.0817h-1.642v-2.8022h1.642c0-1.61 0-2.7047.16-3.9295l4.381-1.0947c-.16 1.5141-.259 3.2841-.259 4.9595z"/></g></svg>