<svg fill="none" height="32" viewBox="0 0 144 32" width="144" xmlns="http://www.w3.org/2000/svg" xmlns:xlink="http://www.w3.org/1999/xlink"><mask id="a" height="21" maskUnits="userSpaceOnUse" width="116" x="14" y="4"><path d="m129.233 4h-115.233v20.8h115.233z" fill="#fff"/></mask><g fill="#151715" mask="url(#a)"><path d="m48.0222 4c-.6269.00006-1.2424.16781-1.7827.48587-.5404.31807-.9858.77486-1.2901 1.32302l-.0715.14739-2.7379 5.43112-3.4838 6.8648 2.2824 4.4977.125.2457c.3519.6224.8825 1.125 1.5231 1.4426.6398-.3188 1.17-.821 1.523-1.4426l.125-.2457 6.8381-13.49296.1653-.32604c.2326-.53368.3287-1.11683.2799-1.69693-.0489-.58011-.2412-1.13896-.5597-1.62626-.3185-.48729-.7532-.88773-1.2649-1.16526-.5118-.27753-1.0845-.42343-1.6667-.42458z"/><path d="m26.8869 10.535-2.2778-4.4664-.1251-.24565c-.349-.62203-.8785-1.12351-1.5186-1.43818-.6389.31418-1.1682.81387-1.5186 1.43371l-.1295.25012-6.847 13.4796-.1652.3215c-.3693.8269-.4047 1.7645-.0989 2.6169s.9291 1.5536 1.7398 1.9572c.8106.4036 1.7459.4783 2.6104.2086.8644-.2698 1.5912-.8632 2.0284-1.6562l.076-.1429 2.7557-5.4311 3.4794-6.8604z"/><path d="m48.0134 4c-.6263.00039-1.2411.16832-1.7807.48639-.5395.31807-.9842.77469-1.2878 1.3225l-.0759.14739-2.7558 5.43112-3.4882 6.8648 2.2868 4.4977.125.2457c.3506.6234.8816 1.1263 1.5231 1.4426.6416-.3163 1.1725-.8192 1.523-1.4426l.1295-.2457 6.8604-13.49296.1608-.32604c.2326-.53368.3288-1.11683.28-1.69693-.0488-.58011-.2412-1.13896-.5597-1.62626-.3185-.48729-.7532-.88773-1.265-1.16526-.5117-.27753-1.0845-.42343-1.6666-.42458z"/><path d="m17.5137 24.8054c.6241.0018 1.2374-.1627 1.7767-.4767.5394-.314.9852-.7662 1.2917-1.3099l.0759-.1473 2.7603-5.4312 3.4838-6.8648-2.2824-4.52001-.125-.24566c-.3531-.62309-.8853-1.12571-1.5275-1.44264-.6407.31766-1.1712.8202-1.5231 1.44264l-.1251.24566-6.8693 13.49301-.1652.326c-.2326.5337-.3288 1.1169-.2799 1.697.0488.58.2411 1.1389.5596 1.6262.3186.4873.7533.8878 1.265 1.1653s1.0845.4234 1.6666.4245z"/><path d="m26.8869 10.535-2.2779-4.46637-.125-.24565c-.3506-.62347-.8815-1.12637-1.5231-1.44265.2133-.10447.4362-.18823.6656-.25012.292-.07399.592-.11149.8932-.11166h4.7701c.6228.00172 1.2341.16783 1.7721.48153.538.31371.9836.76388 1.2918 1.30504l.1251.24564 6.1681 12.22004 2.2734 4.4664.125.2456c.3546.6301.8919 1.1378 1.541 1.4561-.4831.2348-1.0127.3585-1.5498.3618h-4.797c-.6221-.0021-1.2326-.1683-1.7698-.4821-.5373-.3137-.9821-.7637-1.2896-1.3045l-.1296-.2457z"/><path d="m57.3263 14.6398c-.0056-.0507.0001-.1019.017-.15.0168-.0481.0442-.0919.0803-.1279.036-.036.0798-.0635.1279-.0803.048-.0169.0993-.0226.15-.0169h.268c.0494-.0037.099.0036.1452.0214.0463.0178.088.0457.1222.0816.0342.0358.06.0789.0755.1259.0155.0471.0205.097.0143.1462v.8665c-.0001.1816-.0196.3628-.058.5404h.0313c.2625-.5854.6891-1.0822 1.2281-1.4302s1.1674-.5323 1.809-.5306c1.8715 0 2.528 1.0631 2.528 2.9166v4.4173c.0057.0506-.0001.1019-.0169.1501-.0169.0481-.0443.0917-.0804.1278-.036.036-.0797.0634-.1279.0803-.048.0168-.0993.0227-.15.017h-.2813c-.05.0053-.1006-.001-.1478-.0182s-.0898-.0449-.1247-.0811-.061-.0798-.0766-.1277c-.0154-.0477-.0198-.0985-.0128-.1482v-4.1448c0-1.1836-.192-2.2332-1.6436-2.2332-1.6034 0-2.8584 1.3176-2.8584 3.0729v3.3051c.007.0497.0026.1005-.0128.1482-.0155.0479-.0417.0915-.0766.1277s-.0775.0639-.1247.0811-.0978.0235-.1477.0182h-.2814c-.0507.0057-.102-.0002-.15-.017-.0481-.0169-.0919-.0443-.1279-.0803-.0361-.0361-.0635-.0797-.0803-.1278-.0169-.0482-.0226-.0995-.017-.1501z"/><path d="m69.3342 17.1857h.4466v-.2412c0-1.4516-.7949-1.9474-1.858-1.9474-.6453.0075-1.2765.1896-1.8267.527-.0405.0272-.0861.0457-.1341.0544s-.0972.0072-.1447-.004c-.0474-.0114-.092-.0324-.1309-.0618-.0388-.0294-.0712-.0666-.095-.1091l-.0938-.1519c-.0306-.039-.0524-.0843-.0636-.1326-.0113-.0482-.0118-.0985-.0016-.147s.0309-.0943.0608-.1339c.0297-.0397.0678-.0723.1116-.0957.7231-.4332 1.551-.6603 2.394-.6565 1.7865 0 2.8004 1.0005 2.8004 2.8897v4.4664c.0071.0498.0027.1004-.0128.1483-.0155.0478-.0416.0914-.0765.1276s-.0775.0639-.1247.0811-.0978.0234-.1478.0182h-.2367c-.0508.0066-.1025.0014-.151-.0152-.0485-.0164-.0925-.0439-.1288-.0801-.0362-.0363-.0637-.0803-.0802-.1289-.0166-.0485-.0217-.1002-.0151-.151v-.6208c-.0021-.19.0128-.3799.0446-.5672h-.0402c-.2062.5084-.5576.9447-1.0104 1.2545s-.9868.4793-1.5354.4874c-1.273 0-2.5459-.7459-2.5459-2.1975 0-2.4788 3.1444-2.6128 4.5959-2.6128zm-1.8714 3.917c1.4516 0 2.3047-1.4962 2.3047-2.8138v-.3574h-.4199c-1.1836 0-3.5731.0447-3.5731 1.733.009.7236.5672 1.4382 1.6883 1.4382z"/><path d="m72.2343 14.6398c-.0057-.0507 0-.1019.0169-.15.0169-.0482.0443-.0919.0803-.1279.0361-.036.0798-.0635.1279-.0804.0481-.0168.0994-.0226.1501-.0169h.268c.0493-.0037.099.0037.1452.0215.0463.0178.088.0457.1221.0815.0343.0359.06.079.0755.126.0156.0471.0205.097.0144.1462v.8665c-.0001.1816-.0196.3628-.058.5404h.0312c.2308-.554.6129-1.0318 1.1027-1.3786.4897-.3467 1.0673-.5486 1.6665-.5822 1.3891 0 2.1081.6432 2.318 1.8848h.018c.2421-.5394.6292-1.0012 1.118-1.3339.4888-.3328 1.0604-.5234 1.6511-.5509 1.8268 0 2.4967 1.0631 2.4967 2.9166v4.4173c.0056.0502-.0002.1011-.0167.1488-.0167.0477-.0437.0912-.0792.1271-.0355.036-.0787.0635-.1262.0807s-.0983.0235-.1486.0186h-.2724c-.0507.0057-.102-.0002-.1501-.017-.0481-.0169-.0918-.0443-.1278-.0804-.036-.036-.0636-.0797-.0804-.1278s-.0226-.0994-.0169-.15v-4.1627c0-1.2238-.2502-2.2332-1.6124-2.2332-1.5141 0-2.5324 1.5856-2.5324 3.1264v3.2605c.0078.0495.0041.1002-.0107.148-.015.0479-.0407.0916-.0752.1279-.0346.0364-.0771.0642-.1242.0814-.047.0172-.0974.0234-.1473.0179h-.2858c-.0507.0057-.1019-.0001-.15-.0169-.0482-.0169-.0919-.0444-.1279-.0804s-.0635-.0797-.0804-.1278c-.0168-.0482-.0226-.0994-.0169-.1501v-4.1537c0-1.1344-.1652-2.2332-1.5855-2.2332-1.5276 0-2.5727 1.6168-2.5727 3.1264v3.2605c.0071.0498.0027.1005-.0128.1483-.0154.0478-.0417.0915-.0765.1276-.0349.0362-.0776.064-.1248.0812s-.0977.0234-.1476.0181h-.2815c-.0506.0057-.1019-.0001-.15-.0169-.0481-.0169-.0918-.0444-.1278-.0804-.0361-.036-.0635-.0797-.0804-.1278-.0168-.0482-.0227-.0994-.0169-.1501z"/><path d="m88.2679 14.0859c2.0054 0 3.1264 1.4516 3.1264 3.5732.0001.0508-.0101.1011-.0301.1478-.0199.0467-.0492.0889-.0859.124-.0368.035-.0803.0623-.1279.0801-.0476.0177-.0983.0257-.1491.0233h-5.3998c.0446 1.916 1.3622 3.0103 2.921 3.0103.717-.0032 1.4122-.2471 1.9742-.6923.0356-.0337.0785-.0586.1256-.0726.0469-.0141.0965-.0168.1448-.0082.0483.0088.0938.0287.1329.0582.0391.0296.0708.0679.0924.1119l.1206.1831c.0261.0391.0442.0829.053.1291.0088.0461.0082.0936-.0018.1395-.01.0458-.0292.0893-.0564.1275-.0273.0383-.0619.0707-.102.0953-.7222.5554-1.6037.8638-2.5146.8798-.5226.0171-1.0431-.0739-1.529-.2672s-.9266-.4848-1.2947-.8562c-.368-.3714-.6556-.8148-.8444-1.3024-.1889-.4876-.2752-1.009-.2534-1.5314 0-2.4699 1.6615-3.9528 3.6982-3.9528zm2.1081 3.2024c-.0625-1.5855-1.0183-2.3672-2.1438-2.3672-.6495-.0003-1.2755.2424-1.755.6806-.4794.4381-.7775 1.0398-.8356 1.6866z"/><path d="m96.2604 14.0851c.9072-.0114 1.7904.2899 2.5016.8531.0416.0264.0768.0622.1024.1044.0256.0423.0416.0899.0456.1391.0048.0492-.0024.0989-.0208.1449-.0176.0461-.0464.0874-.0824.1208l-.1032.1652c-.1336.21-.2992.21-.5088.076-.54-.4355-1.2096-.679-1.9024-.6924-.396-.0047-.7888.0716-1.1544.2242-.3648.1526-.6952.3782-.9696.6631-.2752.2849-.4888.623-.628.9935-.1392.3704-.2016.7655-.1832 1.1608-.016.3952.048.7894.1896 1.1587.1416.3692.3568.7058.6328.9889.276.2832.6072.5069.972.6575.3656.1507.7584.2252 1.1536.2187.776-.007 1.5248-.2886 2.1128-.795.0344-.0368.0768-.0644.1248-.0802.0472-.0158.0984-.0195.1472-.0106.0496.0088.096.03.1352.0615s.0696.0723.0888.1186l.1024.1519c.028.0388.048.0828.0584.1293.0112.0466.012.0948.004.1419-.0088.0471-.0264.092-.052.1321-.0264.0401-.06.0746-.1.1014-.752.625-1.7008.965-2.6792.9603-.5224.0193-1.044-.0692-1.5304-.26-.4872-.1907-.9296-.4796-1.3-.8487-.3702-.3692-.6607-.8106-.8531-1.2968s-.2826-1.0068-.2651-1.5295c-.0161-.5241.0754-1.0461.2689-1.5336.1934-.4875.4848-.9301.8565-1.3005.3712-.3705.8144-.6608 1.3024-.8532s1.0096-.2828 1.5336-.2654z"/><path d="m100.047 11.6468c-.008-.0495-.004-.1001.011-.148.015-.0478.04-.0916.075-.1279s.077-.0641.124-.0813c.048-.0172.098-.0234.148-.018h.285c.051-.0056.103.0002.151.017.048.0169.092.0443.128.0804.036.036.063.0797.08.1278.016.0481.022.0994.016.15v3.7562c.001.2054-.019.4104-.057.612h.026c.266-.5755.69-1.063 1.223-1.4049.534-.3419 1.154-.5239 1.788-.5246 1.871 0 2.528 1.063 2.528 2.9166v4.4172c0 .2412-.116.3752-.358.3752h-.286c-.05.0057-.101-.0001-.149-.017-.049-.0168-.092-.0443-.128-.0803-.036-.0361-.064-.0798-.081-.1278-.017-.0482-.022-.0995-.017-.1501v-4.1448c0-1.1836-.178-2.2332-1.643-2.2332-1.586 0-2.846 1.3042-2.846 3.1265v3.2604c.006.0507 0 .102-.016.15-.017.0482-.044.0919-.08.1279-.036.0361-.08.0635-.128.0804-.048.0168-.1.0226-.151.0169h-.285c-.05.0055-.1-.0007-.148-.0179-.047-.0173-.089-.0451-.124-.0813-.035-.0364-.06-.0801-.075-.128-.015-.0478-.019-.0984-.011-.148z"/><path d="m111.257 14.0859c2.005 0 3.127 1.4516 3.127 3.5732 0 .0504-.011.1003-.031.1467-.019.0465-.048.0884-.084.1234-.036.0351-.08.0624-.126.0804-.047.0181-.098.0264-.148.0247h-5.4c.045 1.916 1.362 3.0103 2.917 3.0103.718-.0033 1.414-.247 1.978-.6923.035-.0337.078-.0587.125-.0727.046-.0141.096-.0168.144-.0081.048.0088.093.0287.132.0583.038.0295.07.0679.09.1118l.121.1831c.027.0388.045.0824.054.1284s.009.0933-.001.1392c-.01.0458-.028.0893-.055.1277-.027.0385-.061.0711-.1.0961-.723.5537-1.605.8619-2.515.8798-.522.0188-1.042-.0702-1.528-.2612-.487-.1912-.928-.4802-1.298-.8493s-.659-.8104-.85-1.2963c-.192-.4859-.282-1.006-.264-1.528 0-2.4923 1.676-3.9752 3.712-3.9752zm2.112 3.2024c-.057-1.5855-1.018-2.3672-2.144-2.3672-.648-.0012-1.275.2413-1.753.6797-.479.4384-.776 1.0407-.832 1.6875z"/><path d="m119.458 17.1857h.448v-.2412c0-1.4516-.796-1.9474-1.859-1.9474-.644.0049-1.274.1873-1.822.527-.041.0273-.087.0459-.135.0546s-.098.0074-.146-.004c-.047-.0113-.093-.0323-.132-.0618-.039-.0294-.072-.0667-.096-.1093l-.09-.1519c-.03-.0388-.052-.0837-.064-.1318-.012-.0482-.012-.0982-.003-.1467.011-.0485.031-.0943.06-.1341s.067-.0728.111-.0966c.723-.4332 1.55-.6603 2.393-.6565 1.787 0 2.801 1.0005 2.801 2.8897v4.4664c.007.0498.002.1004-.013.1483-.016.0478-.041.0914-.077.1276-.035.0362-.077.0639-.124.0811-.048.0172-.098.0234-.148.0182h-.264c-.05.0066-.102.0014-.151-.0152-.048-.0164-.092-.0439-.129-.0801-.036-.0363-.063-.0803-.08-.1289-.016-.0485-.021-.1002-.015-.151v-.6208c-.001-.19.013-.3799.045-.5672h-.031c-.205.5056-.554.94-1.003 1.2496-.45.3096-.98.4808-1.525.4923-1.273 0-2.546-.7459-2.546-2.1975 0-2.4788 3.144-2.6128 4.595-2.6128zm-1.871 3.917c1.452 0 2.305-1.4962 2.305-2.8138v-.3574h-.42c-1.183 0-3.573.0447-3.573 1.733.009.7236.563 1.4382 1.688 1.4382z"/><path d="m122.378 14.6392c-.007-.0498-.002-.1005.013-.1483.016-.0478.042-.0914.077-.1276s.077-.064.125-.0812c.047-.0172.097-.0233.148-.0181h.24c.048-.0061.096-.0015.141.0133.046.0148.087.0396.122.0726.035.0329.061.0732.079.1178.017.0447.024.0925.02.1402v.5405c.002.1707-.014.3412-.045.5091h.027c.24-.4897.616-.8992 1.084-1.1784s1.007-.416 1.552-.3938c2.023 0 3.278 1.6169 3.278 3.9528 0 2.336-1.425 3.9572-3.386 3.9572-.516.006-1.024-.1342-1.464-.4045s-.795-.6596-1.024-1.123h-.026c.04.218.059.4394.058.6611v3.3051c.005.0506 0 .1019-.017.1501-.017.048-.044.0917-.08.1278-.036.036-.08.0634-.128.0803-.048.0168-.099.0227-.151.017h-.28c-.051.0052-.101-.001-.148-.0182-.048-.0172-.09-.0449-.125-.0811s-.061-.0798-.077-.1277c-.015-.0477-.02-.0985-.013-.1482zm3.368 6.4227c1.34 0 2.443-1.1077 2.443-3.0238 0-1.8446-.992-3.0237-2.38-3.0237-1.26 0-2.444.8933-2.444 3.0371 0 1.5097.84 3.0104 2.381 3.0104z"/></g></svg>