<svg fill="none" height="32" viewBox="0 0 144 32" width="144" xmlns="http://www.w3.org/2000/svg"><g fill="#151715"><path d="m80.5766 6.83422c-.7846.56007-2.2762 1.33013-4.2028.85565-3.3328-.8245-4.2883-3.69475-4.2883-3.69475s-.9556 2.87803-4.2884 3.69475c-1.9266.47448-3.4182-.28783-4.2028-.85565h-.5982v15.50248c0 .3889.0932 1.1668.7303 1.9369.7846.9567 2.1131 1.5712 3.9542 1.8357 1.4683.21 2.5481.6768 3.3095 1.4079.5593.5445 1.0954 1.4779 1.0954 1.4779s.5516-.9567 1.0953-1.4779c.7614-.7389 1.849-1.1979 3.3095-1.4079 1.8412-.2645 3.1696-.8867 3.9542-1.8357.6371-.7701.7303-1.548.7303-1.9369v-15.50248z"/><path d="m80.6263 7.44146s-1.8256 1.42348-4.3893.77785c-2.991-.74676-4.1563-2.9947-4.1563-2.9947s-1.1653 2.24801-4.1562 2.9947c-2.5637.64563-4.3893-.77785-4.3893-.77785v14.89584c0 .5056.2097 2.6524 4.2183 3.2358 1.5849.2256 2.7657.7389 3.6125 1.5557.3029.2956.536.5912.7147.8635.1786-.2723.4118-.5757.7147-.8635.8468-.8167 2.0276-1.3301 3.6124-1.5557 4.0087-.5834 4.2184-2.7302 4.2184-3.2358z"/><path d="m72.0867 26.483s1.1653-1.4313 4.1796-1.898c3.457-.5367 3.356-2.1624 3.356-2.2402v-7.8096h-15.079v7.8018c0 .0856-.101 1.7113 3.356 2.2402 3.0221.4667 4.1874 1.9058 4.1874 1.9058z"/></g><path d="m68.5711 20.2362v-3.7104l-.4661-.2644v-.9645h2.1131v.9645l-.4428.2644v7.5685l-1.1343-.3423-1.6392-4.8382v3.1892l.5205.3967v.9801l-2.2684-.5756v-.8401l.5205-.2022v-5.3439l-.5283-.2566v-.9645h1.7169zm3.8921 3.3914.4506.5445v.9645l-2.2529-.84v-.8168l.4972-.2022v-6.744l-.4972-.2488v-.9724h3.9076v1.9602h-.8623l-.2641-.8012h-.9944v2.2635h.7458l.2952-.4278h.5982v1.9991h-.5982l-.2797-.4045h-.7613v3.7259zm2.486.3423v-.9646l.5594-.4589v-6.0205l-.4739-.2489v-.9724h2.2529v.9724l-.4429.2489v5.6472l.9711-.2645.1865-1.4779h.9167v2.4736z" fill="#fff"/><path d="m64.9375 12.9329-.6836-.5134h.8312l.272-.7934.2718.7934h.8313l-.6836.5134.2486.8011-.6759-.4744-.6759.4744zm2.9599 0-.6836-.5134h.8312l.2719-.7934.272.7934h.8312l-.6836.5134.2486.8011-.6759-.4744-.6759.4744zm-2.9599-2.668-.6836-.51344h.8312l.272-.7934.2718.7934h.8313l-.6836.51344.2486.8012-.6759-.4745-.6759.4745zm2.9599 0-.6836-.51344h.8312l.2719-.7934.272.7934h.8312l-.6836.51344.2486.8012-.6759-.4745-.6759.4745zm11.5831 3.477-.6759-.4745-.6758.4745.2485-.8012-.6836-.5134h.839l.2719-.7934.272.7934h.8312l-.6836.5134zm-2.9521 0-.6759-.4745-.6759.4745.2486-.8012-.6836-.5134h.8312l.2719-.7934.272.7934h.8312l-.6836.5134zm2.9521-2.6758-.6759-.4745-.6758.4745.2485-.8012-.6836-.51344h.839l.2719-.7934.272.7934h.8312l-.6836.51344zm-2.9521 0-.6759-.4745-.6759.4745.2486-.8012-.6836-.51344h.8312l.2719-.7934.272.7934h.8312l-.6836.51344zm-2.5637-2.94811c.0699-.00779.1088.0778.1476.13223.2952.74676.3729 1.65684.1477 2.52798-.3419 1.3302-1.4606 2.5513-3.8611 2.8625-.0544.0078-.1165-.0078-.1243-.0389.1088-.5056.3807-1.4701.9633-2.4891.1087.07.2176.14.3185.2178.0389-.0622.0855-.1322.1554-.2489-.2952-.2334-.637-.3967-1.0177-.4667 0 0-.0699.1478-.1243.2567 0 0 .1477.0311.3263.0933-.5205 1.1046-.6991 2.1313-.7458 2.598-.1476-.2333-.2641-.7778-.3029-1.0734-.3807-2.80026 1.6314-4.43369 3.8221-4.46482.1476-.00776.202.02334.202.02334s-.4817.17893-1.041.60671c0 0-.132-.05443-.2719-.09335-.0855.05443-.1787.11668-.2641.1789.2641.06225.5982.19448.9167.45894.0699-.06226.1398-.13223.2175-.20224-.0777-.06225-.202-.14777-.3107-.21003.4972-.48227.8467-.66896.8467-.66896zm-2.0664 2.64461c.0543-.0778.1165-.1711.1786-.2644-.2486-.21-.606-.4123-1.041-.4978-.0621.0934-.1709.2722-.1709.2722.3574.0701.7225.2334 1.0333.49zm.3962-.5522c.0621-.0856.1243-.1634.1942-.24891-.3418-.28-.7303-.44339-1.0332-.49782-.07.0778-.1399.16332-.202.24112.3962.0778.7535.26446 1.041.50561zm.4428-.52898c.0621-.0778.132-.14778.2175-.22558-.2097-.17114-.5127-.37334-.9633-.48223-.0777.06225-.1709.13223-.2564.21778.3574.0778.6992.24112 1.0022.49003z" fill="#fff"/></svg>