<svg fill="none" height="32" viewBox="0 0 144 32" width="144" xmlns="http://www.w3.org/2000/svg" xmlns:xlink="http://www.w3.org/1999/xlink"><mask id="a" height="21" maskUnits="userSpaceOnUse" width="75" x="35" y="6"><path d="m109.276 6.2002h-73.8463v20h73.8463z" fill="#fff"/></mask><g fill="#151715" mask="url(#a)"><path d="m43.2759 6.30176c-4.3154 0-7.8462 3.53076-7.8462 7.84614 0 4.3154 3.5308 7.8462 7.8462 7.8462 4.3153 0 7.8461-3.509 7.8461-7.8462 0-4.33718-3.509-7.84614-7.8461-7.84614zm0 12.88074c-2.6808 0-4.8385-2.2013-4.8385-5.0346s2.1577-5.03461 4.8385-5.03461c2.6807 0 4.8384 2.20131 4.8384 5.03461s-2.1577 5.0346-4.8384 5.0346z"/><path d="m59.0571 10.6611c-1.4166 0-2.7897.5667-3.509 1.5257v-1.3077h-2.8333v15.2564h2.8333v-5.5141c.7193.8936 2.0488 1.3731 3.509 1.3731 3.0512 0 5.4487-2.3974 5.4487-5.6667 0-3.2692-2.3975-5.6667-5.4487-5.6667zm-.4795 8.8705c-1.6128 0-3.0513-1.264-3.0513-3.2038 0-1.9397 1.4385-3.2039 3.0513-3.2039 1.6129 0 3.0512 1.2642 3.0512 3.2039 0 1.9398-1.4383 3.2038-3.0512 3.2038z"/><path d="m71.1766 10.6611c-3.0949 0-5.536 2.4193-5.536 5.6667 0 3.2475 2.136 5.6667 5.6231 5.6667 2.8551 0 4.6859-1.7218 5.2526-3.6616h-2.768c-.3487.8064-1.3295 1.3731-2.5064 1.3731-1.4602 0-2.5718-1.0244-2.8333-2.4846h8.2385v-1.1116c0-2.9641-2.0705-5.4487-5.4705-5.4487zm-2.7462 4.5552c.3052-1.3731 1.4384-2.2667 2.8115-2.2667 1.4603 0 2.5718.959 2.7026 2.2667z"/><path d="m84.1856 10.6611c-1.2641 0-2.5936.5667-3.2039 1.5039v-1.2859h-2.8333v10.8974h2.8333v-5.8628c0-1.7.9155-2.8115 2.3975-2.8115 1.373 0 2.1141 1.0461 2.1141 2.5064v6.1679h2.8333v-6.6257c0-2.7025-1.6564-4.4897-4.141-4.4897z"/><path d="m95.582 6.51953-6.1679 15.25637h3.0295l1.3076-3.3346h7.0178l1.308 3.3346h3.073l-6.1244-15.25637zm-.85 9.39367 2.5282-6.38598 2.5064 6.38598z"/><path d="m109.185 6.51953h-2.876v15.25637h2.876z"/></g></svg>