<svg fill="none" height="32" viewBox="0 0 144 32" width="144" xmlns="http://www.w3.org/2000/svg" xmlns:xlink="http://www.w3.org/1999/xlink"><mask id="a" height="22" maskUnits="userSpaceOnUse" width="94" x="22" y="5"><path d="m115.047 5h-92.8126v22h92.8126z" fill="#fff"/></mask><g mask="url(#a)"><path d="m41.5327 17.6639c1.8942 0 4.6346-.3906 4.6346-2.6436.0057-.1738-.0101-.3478-.0469-.5178l-1.128-4.89951c-.2604-1.07802-.489-1.56706-2.3817-2.51335-1.4686-.75098-4.6678-1.99101-5.6141-1.99101-.8812 0-1.1371 1.13556-2.1878 1.13556-1.0115 0-1.7624-.84788-2.7087-.84788-.9085 0-1.5005.61925-1.9577 1.89258 0 0-1.2733 3.59141-1.4369 4.11221-.026.0956-.0372.1947-.0333.2937 0 1.396 5.4961 5.973 12.8605 5.973m4.9253-1.723c.2619 1.2401.2619 1.3703.2619 1.5338 0 2.1197-2.3831 3.2961-5.5157 3.2961-7.0798.0046-13.2814-4.144-13.2814-6.886-.0004-.3817.0774-.7594.2286-1.1098-2.5467.1272-5.8428.5814-5.8428 3.4915 0 4.7663 11.2934 10.6408 20.2355 10.6408 6.8558 0 8.5848-3.1007 8.5848-5.549 0-1.9259-1.6654-4.1122-4.6679-5.4174" fill="#151715"/><path d="m46.461 15.9342c.2619 1.24.2619 1.3702.2619 1.5337 0 2.1197-2.3831 3.2961-5.5157 3.2961-7.0798.0046-13.2814-4.144-13.2814-6.8859-.0004-.3817.0774-.7595.2286-1.1099l.5542-1.3717c-.0254.0937-.0367.1906-.0334.2877 0 1.3959 5.4961 5.973 12.8606 5.973 1.8941 0 4.6345-.3907 4.6345-2.6436.0057-.1739-.0101-.3478-.0469-.5178z" fill="#fff"/><path d="m110.012 19.0735c0 1.8002 1.082 2.6753 3.057 2.6753.607-.0151 1.212-.1004 1.8-.2543v-2.0879c-.376.1191-.768.1784-1.163.1757-.813 0-1.114-.2544-1.114-1.0191v-3.1992h2.356v-2.1499h-2.356v-2.7254l-2.574.5572v2.1682h-1.71v2.1499h1.704zm-8.024.0485c0-.5572.558-.8283 1.401-.8283.516.0031 1.029.0671 1.529.1908v1.0826c-.493.2693-1.047.4065-1.609.3982-.826 0-1.321-.3179-1.321-.8433zm.787 2.6587c.908 0 1.641-.1908 2.325-.6526v.5103h2.547v-5.3993c0-2.053-1.384-3.1795-3.693-3.1795-1.29 0-2.565.3028-3.937.9236l.924 1.8956c.987-.4148 1.817-.6692 2.548-.6692 1.06 0 1.608.4133 1.608 1.2582v.4133c-.624-.1615-1.266-.2419-1.91-.2392-2.167 0-3.4723.9084-3.4723 2.5331 0 1.4807 1.1773 2.6102 3.0563 2.6102m-13.9955-.1423h2.7387v-4.3681h4.5863v4.3636h2.7466v-11.1467h-2.7363v4.2833h-4.5856v-4.2833h-2.7392zm-10.4259-4.2243c0-1.2112.9553-2.1348 2.2135-2.1348.6547-.0133 1.2903.2202 1.7806.6541v2.9448c-.2375.2245-.5172.3997-.8228.5156s-.6311.1702-.9578.1597c-1.2415 0-2.2135-.9236-2.2135-2.1333m4.0289 4.2197h2.5482v-11.70983l-2.5739.55713v3.169c-.6552-.3715-1.3968-.5636-2.15-.5572-2.4513 0-4.3787 1.8941-4.3787 4.3151-.0071.5681.0992 1.1319.3124 1.6584.2132.5266.5292 1.0054.9295 1.4085s.8769.7225 1.4019.9394 1.088.327 1.6562.3239c.8122.004 1.6044-.2523 2.2605-.7313zm-11.6932-6.4772c.8116 0 1.496.5254 1.767 1.3369h-3.5127c.2544-.8372.8918-1.3369 1.7457-1.3369zm-4.3408 2.2711c0 2.4528 2.0062 4.3635 4.5846 4.3635 1.4172 0 2.4528-.383 3.5202-1.2748l-1.7048-1.5141c-.3982.4149-.9872.6375-1.6867.6375-.4398.0124-.8732-.1087-1.2429-.3474-.3697-.2386-.6585-.5836-.8283-.9895h6.0032v-.6405c0-2.6754-1.7987-4.6013-4.2515-4.6013-.5766-.0087-1.149.098-1.6838.3138-.5348.2157-1.021.5362-1.4301.9427-.4091.4064-.7328.8905-.9521 1.4238-.2192.5333-.3297 1.1051-.3247 1.6817m-4.4438-4.6012c.9084 0 1.4171.5723 1.4171 1.2582s-.5087 1.2582-1.4171 1.2582h-2.7087v-2.5164zm-5.4507 8.8059h2.739v-4.0608h2.0848l2.1031 4.0608h3.0659l-2.4528-4.459c.6234-.2535 1.1566-.6877 1.5312-1.2468.3745-.5591.5731-1.2174.5704-1.8904 0-2.0061-1.5762-3.5505-3.9366-3.5505h-5.705z" fill="#151715"/></g></svg>