<svg xmlns="http://www.w3.org/2000/svg" width="420" height="274" fill="none"><rect width="420" height="274" fill="#FCFDFC" rx="16"/><rect width="419" height="273" x=".5" y=".5" stroke="#012201" stroke-opacity=".12" rx="15.5"/><rect width="404" height="258" x="8" y="8" fill="#fff" rx="8" style="filter:drop-shadow(0 1px 1px rgba(21,23,21,.05)) drop-shadow(0 2px 2px rgba(21,23,21,.05)) drop-shadow(0 4px 4px rgba(21,23,21,.05))"/><rect width="405" height="259" x="7.5" y="7.5" stroke="#012201" stroke-opacity=".12" rx="8.5"/><path fill="#141E12" d="M32.415 43h-3.296V32.818h3.4c.998 0 1.855.204 2.57.612a4.03 4.03 0 0 1 1.646 1.745c.385.755.577 1.662.577 2.72 0 1.06-.194 1.971-.582 2.734a4.083 4.083 0 0 1-1.67 1.76c-.73.407-1.611.611-2.645.611Zm-1.76-1.342h1.675c.776 0 1.42-.146 1.934-.438.514-.295.898-.72 1.154-1.277.255-.56.382-1.243.382-2.049 0-.799-.127-1.476-.382-2.033a2.705 2.705 0 0 0-1.129-1.268c-.5-.288-1.122-.433-1.864-.433h-1.77v7.498Zm11.739 1.496c-.752 0-1.4-.16-1.944-.482a3.271 3.271 0 0 1-1.253-1.367c-.291-.59-.437-1.281-.437-2.074 0-.782.146-1.471.437-2.068a3.397 3.397 0 0 1 1.233-1.397c.53-.334 1.15-.502 1.86-.502.43 0 .848.072 1.252.214.405.142.768.366 1.09.671.32.305.574.701.76 1.188.185.484.278 1.073.278 1.765v.527H39.6v-1.113h4.614c0-.392-.08-.738-.239-1.04a1.803 1.803 0 0 0-.671-.72 1.875 1.875 0 0 0-1.005-.264 1.94 1.94 0 0 0-1.093.308 2.068 2.068 0 0 0-.716.796 2.296 2.296 0 0 0-.249 1.059v.87c0 .51.09.944.269 1.302.182.358.436.632.76.82.325.186.705.28 1.139.28.282 0 .538-.04.77-.12a1.599 1.599 0 0 0 .99-.97l1.407.254a2.549 2.549 0 0 1-.607 1.089 2.941 2.941 0 0 1-1.089.72c-.434.17-.93.254-1.486.254Zm4.926 2.71v-10.5h1.451v1.238h.125c.086-.16.21-.343.373-.552a2.11 2.11 0 0 1 .676-.547c.288-.16.67-.239 1.143-.239.617 0 1.167.156 1.65.467.484.312.864.761 1.14 1.348.278.587.417 1.292.417 2.118 0 .825-.138 1.533-.413 2.123-.275.586-.653 1.039-1.133 1.357-.481.315-1.03.472-1.646.472-.464 0-.843-.078-1.139-.233a2.155 2.155 0 0 1-.686-.547 4.142 4.142 0 0 1-.382-.557h-.09v4.052H47.32Zm1.456-6.682c0 .537.078 1.007.234 1.412.156.404.381.72.676.95.295.225.656.337 1.084.337.444 0 .815-.117 1.113-.353a2.19 2.19 0 0 0 .677-.97c.155-.407.233-.866.233-1.376 0-.504-.076-.956-.228-1.357a2.077 2.077 0 0 0-.676-.95c-.299-.232-.672-.348-1.12-.348-.43 0-.795.111-1.093.333-.295.222-.519.532-.671.93-.153.398-.229.861-.229 1.392Zm7.184-6.364h1.487v8.094c0 .328.041.56.124.696.086.136.249.2.487.194.13-.004.226-.012.289-.025.066-.013.125-.028.179-.045l.268 1.188a3.53 3.53 0 0 1-.393.085c-.156.03-.333.046-.532.05-.643.01-1.122-.143-1.437-.458-.314-.315-.472-.774-.472-1.377v-8.402Zm7.031 10.336c-.716 0-1.34-.164-1.874-.492a3.319 3.319 0 0 1-1.243-1.377c-.295-.59-.442-1.28-.442-2.068 0-.792.147-1.485.442-2.078a3.312 3.312 0 0 1 1.243-1.383c.534-.328 1.158-.492 1.874-.492.716 0 1.341.164 1.875.492.533.328.948.79 1.243 1.383.294.593.442 1.285.442 2.078 0 .788-.148 1.478-.442 2.068a3.319 3.319 0 0 1-1.243 1.377c-.534.328-1.159.492-1.875.492Zm.005-1.248c.464 0 .849-.122 1.154-.368.305-.245.53-.571.676-.98.149-.407.224-.856.224-1.346 0-.488-.075-.935-.224-1.343a2.187 2.187 0 0 0-.676-.989c-.305-.249-.69-.373-1.154-.373-.467 0-.855.124-1.163.373a2.222 2.222 0 0 0-.681.99 3.96 3.96 0 0 0-.219 1.342c0 .49.073.94.219 1.347.149.408.376.734.68.98.31.245.697.367 1.164.367Zm5.894 3.958c-.222 0-.424-.019-.606-.055a1.912 1.912 0 0 1-.408-.11l.358-1.218a2.4 2.4 0 0 0 .726.095.87.87 0 0 0 .562-.239c.165-.149.311-.392.437-.73l.184-.508-2.794-7.735h1.59l1.935 5.926h.08l1.933-5.926h1.596l-3.147 8.655a3.452 3.452 0 0 1-.557 1.01 2.162 2.162 0 0 1-.805.626c-.312.139-.673.209-1.084.209ZM75.88 43v-7.636h1.427v1.242h.094c.16-.42.42-.748.781-.984.361-.239.794-.358 1.298-.358.51 0 .938.12 1.282.358.348.239.605.567.77.984h.08a2.15 2.15 0 0 1 .87-.974c.398-.245.872-.368 1.422-.368.693 0 1.258.217 1.696.651.44.435.66 1.09.66 1.964V43h-1.486v-4.981c0-.518-.14-.892-.422-1.124a1.537 1.537 0 0 0-1.01-.348c-.483 0-.86.149-1.128.447-.269.295-.403.675-.403 1.139V43H80.33v-5.076c0-.414-.13-.747-.388-1-.259-.251-.595-.377-1.01-.377-.281 0-.541.074-.78.224-.235.145-.426.35-.572.611a1.873 1.873 0 0 0-.213.91V43H75.88Zm15.664.154c-.752 0-1.4-.16-1.944-.482a3.271 3.271 0 0 1-1.252-1.367c-.292-.59-.438-1.281-.438-2.074 0-.782.146-1.471.438-2.068a3.397 3.397 0 0 1 1.233-1.397c.53-.334 1.15-.502 1.859-.502.43 0 .849.072 1.253.214.404.142.767.366 1.089.671.321.305.575.701.76 1.188.186.484.279 1.073.279 1.765v.527h-6.07v-1.113h4.613c0-.392-.08-.738-.239-1.04a1.804 1.804 0 0 0-.67-.72 1.875 1.875 0 0 0-1.005-.264 1.94 1.94 0 0 0-1.094.308 2.068 2.068 0 0 0-.716.796 2.296 2.296 0 0 0-.248 1.059v.87c0 .51.09.944.268 1.302.182.358.436.632.76.82.326.186.705.28 1.14.28.281 0 .538-.04.77-.12a1.597 1.597 0 0 0 .99-.97l1.406.254a2.549 2.549 0 0 1-.606 1.089 2.941 2.941 0 0 1-1.09.72c-.433.17-.929.254-1.486.254Zm6.413-4.688V43H96.47v-7.636h1.427v1.242h.094c.176-.404.451-.729.826-.974.377-.245.853-.368 1.426-.368.521 0 .977.11 1.368.328.391.216.694.537.909.965.216.427.324.956.324 1.586V43h-1.487v-4.678c0-.554-.144-.986-.432-1.298-.289-.315-.685-.472-1.189-.472a1.86 1.86 0 0 0-.92.224c-.265.149-.475.367-.63.656-.153.285-.23.63-.23 1.034Zm10.445-3.102v1.193h-4.171v-1.193h4.171Zm-3.053-1.83h1.487v7.224c0 .288.043.505.129.651.086.143.197.24.333.293.139.05.29.075.453.075.119 0 .223-.008.313-.025.089-.016.159-.03.209-.04l.268 1.228a2.497 2.497 0 0 1-.368.1 2.913 2.913 0 0 1-.596.06 2.613 2.613 0 0 1-1.094-.21 1.88 1.88 0 0 1-.821-.675c-.208-.305-.313-.688-.313-1.149v-7.532Zm14.125 3.694-1.348.239a1.601 1.601 0 0 0-.268-.493 1.339 1.339 0 0 0-.487-.382c-.206-.1-.463-.15-.771-.15-.421 0-.772.095-1.054.284-.282.185-.423.426-.423.72 0 .256.095.461.284.617.189.156.494.284.915.383l1.213.278c.702.163 1.226.413 1.571.751.344.338.517.777.517 1.318 0 .457-.133.865-.398 1.223-.262.354-.628.633-1.099.835-.467.202-1.009.303-1.625.303-.856 0-1.553-.182-2.094-.547-.54-.368-.871-.89-.994-1.566l1.437-.219c.089.375.273.658.552.85.278.19.641.284 1.089.284.487 0 .876-.101 1.168-.303.292-.206.437-.456.437-.751a.78.78 0 0 0-.268-.602c-.176-.162-.446-.285-.81-.367l-1.293-.284c-.713-.162-1.24-.42-1.581-.775-.338-.355-.507-.804-.507-1.348 0-.45.126-.845.378-1.183.252-.338.6-.602 1.044-.79.444-.193.953-.289 1.526-.289.825 0 1.475.18 1.949.537.474.355.787.83.94 1.427Zm5 5.926c-.739 0-1.376-.167-1.909-.502a3.32 3.32 0 0 1-1.223-1.397c-.285-.593-.428-1.273-.428-2.038 0-.776.146-1.46.438-2.054a3.343 3.343 0 0 1 1.233-1.397c.53-.334 1.155-.502 1.874-.502.58 0 1.097.108 1.551.323.454.212.82.51 1.099.895.281.385.449.834.502 1.348h-1.447a1.731 1.731 0 0 0-.547-.925c-.282-.259-.659-.388-1.133-.388-.415 0-.778.11-1.089.328-.308.216-.549.524-.721.925-.172.398-.259.868-.259 1.412 0 .557.085 1.037.254 1.442.169.404.408.717.716.94.311.221.678.332 1.099.332.281 0 .537-.051.765-.154.232-.106.426-.257.582-.452.159-.196.27-.431.333-.706h1.447a2.814 2.814 0 0 1-.482 1.322 2.784 2.784 0 0 1-1.079.915c-.448.222-.973.333-1.576.333ZM129.2 43v-7.636h1.437v1.213h.08c.139-.411.384-.734.736-.97a2.09 2.09 0 0 1 1.203-.358c.209 0 .396.025.562.075.165.05.311.117.437.204l-.477 1.243a1.489 1.489 0 0 0-.304-.105 1.51 1.51 0 0 0-.387-.045 1.89 1.89 0 0 0-.925.224 1.685 1.685 0 0 0-.641.607 1.679 1.679 0 0 0-.234.885V43H129.2Zm5.551 0v-7.636h1.487V43h-1.487Zm.751-8.815a.943.943 0 0 1-.666-.258.838.838 0 0 1-.274-.627c0-.245.091-.454.274-.626a.933.933 0 0 1 .666-.264c.258 0 .479.088.661.264a.823.823 0 0 1 .279.626c0 .242-.093.451-.279.627a.927.927 0 0 1-.661.258Zm2.736 11.679v-10.5h1.451v1.238h.125c.086-.16.21-.343.372-.552.163-.21.388-.391.677-.547.288-.16.669-.239 1.143-.239.617 0 1.167.156 1.651.467.484.312.863.761 1.138 1.348.279.587.418 1.292.418 2.118 0 .825-.138 1.533-.413 2.123-.275.586-.653 1.039-1.133 1.357a2.938 2.938 0 0 1-1.646.472c-.464 0-.844-.078-1.139-.233a2.165 2.165 0 0 1-.686-.547 4.146 4.146 0 0 1-.382-.557h-.09v4.052h-1.486Zm1.456-6.682c0 .537.078 1.007.234 1.412.156.404.381.72.676.95.295.225.656.337 1.084.337.444 0 .815-.117 1.113-.353a2.19 2.19 0 0 0 .677-.97c.155-.407.233-.866.233-1.376 0-.504-.076-.956-.228-1.357a2.082 2.082 0 0 0-.677-.95c-.298-.232-.671-.348-1.118-.348-.431 0-.796.111-1.094.333-.295.222-.519.532-.671.93-.153.398-.229.861-.229 1.392Zm10.749-3.818v1.193h-4.171v-1.193h4.171Zm-3.053-1.83h1.487v7.224c0 .288.043.505.129.651.086.143.197.24.333.293.139.05.29.075.453.075.119 0 .223-.008.313-.025.089-.016.159-.03.209-.04l.268 1.228a2.497 2.497 0 0 1-.368.1 2.913 2.913 0 0 1-.596.06 2.613 2.613 0 0 1-1.094-.21 1.88 1.88 0 0 1-.821-.675c-.208-.305-.313-.688-.313-1.149v-7.532Z"/><path fill="#8B918A" d="M28.628 58.561v-1.016h7.09v1.016h-2.972V67H31.6v-8.439h-2.973Zm9.8 4.173V67h-1.09v-9.455h1.09v3.472h.092c.166-.366.415-.657.748-.873.335-.218.781-.327 1.338-.327.484 0 .907.097 1.27.29.363.191.645.485.845.882.203.394.305.896.305 1.505V67h-1.09v-4.432c0-.563-.146-.998-.439-1.306-.289-.311-.69-.467-1.205-.467a2.01 2.01 0 0 0-.96.227c-.28.15-.501.37-.665.66-.16.29-.24.64-.24 1.052Zm9.564 4.414c-.684 0-1.273-.151-1.768-.453a3.036 3.036 0 0 1-1.14-1.274c-.265-.548-.398-1.185-.398-1.911s.133-1.366.397-1.92c.268-.558.64-.992 1.117-1.302.48-.314 1.04-.471 1.68-.471.37 0 .735.061 1.095.184s.688.324.983.6c.296.275.531.638.707 1.09.175.453.263 1.01.263 1.671v.462h-5.466v-.942h4.358c0-.4-.08-.757-.24-1.07a1.809 1.809 0 0 0-.674-.744 1.887 1.887 0 0 0-1.025-.273c-.434 0-.81.108-1.127.324-.313.212-.555.489-.724.83a2.44 2.44 0 0 0-.254 1.1v.627c0 .536.092.99.277 1.362.188.37.448.65.78.845.332.19.719.286 1.159.286.286 0 .544-.04.775-.12a1.66 1.66 0 0 0 .605-.37c.17-.166.3-.372.392-.618l1.053.295c-.11.358-.297.672-.559.942a2.722 2.722 0 0 1-.97.628 3.594 3.594 0 0 1-1.296.222Zm10.927 0c-.591 0-1.113-.15-1.565-.448-.453-.302-.806-.726-1.062-1.274-.255-.551-.383-1.202-.383-1.953 0-.745.128-1.391.383-1.939s.611-.97 1.066-1.27c.456-.298.982-.447 1.58-.447.461 0 .826.077 1.093.23.271.151.477.324.619.518.145.19.257.347.337.47h.092v-3.49h1.09V67h-1.053v-1.09h-.129c-.08.13-.194.293-.342.49a2.029 2.029 0 0 1-.632.521c-.274.151-.639.227-1.094.227Zm.148-.979c.437 0 .806-.114 1.108-.342.301-.23.53-.549.687-.955.157-.41.236-.882.236-1.417 0-.53-.077-.993-.231-1.39-.154-.4-.382-.711-.683-.932-.302-.225-.674-.338-1.117-.338-.462 0-.847.119-1.154.356a2.128 2.128 0 0 0-.688.955 3.8 3.8 0 0 0-.227 1.349c0 .504.077.963.231 1.375.157.41.388.736.693.979.308.24.69.36 1.145.36Zm8.221.979c-.683 0-1.272-.151-1.768-.453a3.037 3.037 0 0 1-1.14-1.274c-.264-.548-.397-1.185-.397-1.911s.133-1.366.397-1.92c.268-.558.64-.992 1.117-1.302.48-.314 1.04-.471 1.68-.471.37 0 .735.061 1.095.184s.688.324.983.6c.296.275.531.638.707 1.09.175.453.263 1.01.263 1.671v.462h-5.466v-.942h4.358c0-.4-.08-.757-.24-1.07a1.81 1.81 0 0 0-.674-.744 1.887 1.887 0 0 0-1.025-.273c-.434 0-.81.108-1.127.324-.314.212-.555.489-.725.83-.169.342-.253.708-.253 1.1v.627c0 .536.092.99.277 1.362.187.37.447.65.78.845.332.19.718.286 1.159.286.286 0 .544-.04.775-.12a1.66 1.66 0 0 0 .605-.37c.17-.166.3-.372.392-.618l1.053.295c-.111.358-.297.672-.559.942a2.722 2.722 0 0 1-.97.628 3.594 3.594 0 0 1-1.296.222Zm4.594 2.511v-9.75h1.052v1.127h.13c.08-.124.19-.28.332-.471.145-.194.351-.367.619-.517.27-.154.637-.231 1.099-.231.596 0 1.123.149 1.578.448.456.298.811.721 1.067 1.27.255.547.383 1.193.383 1.938 0 .751-.128 1.402-.383 1.953-.256.548-.61.972-1.062 1.274-.453.299-.974.448-1.565.448-.456 0-.82-.076-1.094-.227a2.029 2.029 0 0 1-.633-.521 6.993 6.993 0 0 1-.341-.49h-.093v3.75h-1.09Zm1.07-6.205c0 .536.08 1.009.236 1.418.157.406.387.725.688.955.302.228.671.342 1.108.342.456 0 .836-.12 1.14-.36.308-.243.54-.57.693-.979a3.84 3.84 0 0 0 .235-1.375c0-.499-.077-.948-.23-1.349a2.083 2.083 0 0 0-.688-.955c-.305-.237-.688-.356-1.15-.356-.443 0-.815.113-1.117.337-.302.222-.53.533-.683.933-.154.397-.231.86-.231 1.39Zm6.852-5.909h1.09v7.608c0 .345.038.587.115.725.077.139.235.205.475.199.13-.007.225-.016.286-.028.065-.015.124-.03.176-.046l.221.942a2.814 2.814 0 0 1-.36.074 2.696 2.696 0 0 1-.452.036c-.517 0-.905-.141-1.163-.424-.259-.284-.388-.677-.388-1.182v-7.904Zm6.245 9.603c-.64 0-1.202-.153-1.685-.457a3.104 3.104 0 0 1-1.127-1.28c-.267-.547-.401-1.187-.401-1.92 0-.738.133-1.383.401-1.934.271-.55.647-.979 1.127-1.283.483-.305 1.045-.457 1.685-.457.64 0 1.2.152 1.68.457.483.304.859.732 1.127 1.283.27.551.406 1.196.406 1.934 0 .733-.136 1.373-.406 1.92a3.062 3.062 0 0 1-1.127 1.28c-.48.304-1.04.457-1.68.457Zm0-.979c.486 0 .886-.125 1.2-.374.314-.25.546-.577.697-.983.15-.406.226-.847.226-1.32 0-.474-.075-.916-.226-1.325-.15-.41-.383-.74-.697-.993-.314-.252-.714-.379-1.2-.379-.487 0-.887.127-1.2.379a2.233 2.233 0 0 0-.698.992c-.15.41-.226.852-.226 1.326 0 .473.076.914.226 1.32.151.406.383.734.698.983.313.25.713.374 1.2.374Zm5.324 3.49c-.185 0-.35-.015-.494-.046a1.303 1.303 0 0 1-.3-.083l.277-.96a2.1 2.1 0 0 0 .701.074.841.841 0 0 0 .54-.273c.16-.16.307-.42.439-.78l.203-.554-2.622-7.128h1.182l1.957 5.65h.074l1.957-5.65h1.182l-3.01 8.125c-.135.366-.303.67-.503.91-.2.243-.432.423-.697.54a2.15 2.15 0 0 1-.886.175Zm13.071-2.511c-.665 0-1.237-.157-1.717-.471a3.066 3.066 0 0 1-1.108-1.297c-.259-.551-.388-1.18-.388-1.888 0-.72.133-1.356.397-1.907a3.14 3.14 0 0 1 1.117-1.297c.48-.314 1.041-.471 1.681-.471.498 0 .948.092 1.348.277.4.184.728.443.983.775.256.333.414.72.476 1.164h-1.09a1.69 1.69 0 0 0-.554-.859c-.283-.252-.665-.379-1.145-.379-.424 0-.797.111-1.117.333a2.162 2.162 0 0 0-.743.928c-.176.397-.263.863-.263 1.399 0 .547.086 1.024.258 1.43.176.407.422.722.739.947.32.225.695.337 1.126.337.283 0 .54-.05.771-.148a1.588 1.588 0 0 0 .928-1.09h1.09a2.53 2.53 0 0 1-.457 1.132c-.24.332-.559.597-.956.794-.394.194-.853.29-1.376.29Zm7.262 0c-.64 0-1.202-.153-1.685-.457a3.099 3.099 0 0 1-1.126-1.28c-.268-.547-.402-1.187-.402-1.92 0-.738.134-1.383.402-1.934.27-.55.646-.979 1.126-1.283.483-.305 1.045-.457 1.685-.457.64 0 1.2.152 1.68.457.484.304.859.732 1.127 1.283.271.551.406 1.196.406 1.934 0 .733-.135 1.373-.406 1.92a3.06 3.06 0 0 1-1.127 1.28c-.48.304-1.04.457-1.68.457Zm0-.979c.486 0 .886-.125 1.2-.374.314-.25.547-.577.697-.983a3.76 3.76 0 0 0 .227-1.32 3.8 3.8 0 0 0-.227-1.325c-.15-.41-.383-.74-.697-.993-.314-.252-.714-.379-1.2-.379s-.886.127-1.2.379a2.226 2.226 0 0 0-.697.992 3.8 3.8 0 0 0-.227 1.326c0 .473.076.914.227 1.32.15.406.383.734.697.983.314.25.714.374 1.2.374Zm4.876.831v-7.09h1.053v1.107h.092a1.78 1.78 0 0 1 .716-.882c.329-.212.724-.318 1.186-.318.468 0 .857.106 1.168.318.314.21.559.504.734.882h.074c.181-.366.454-.657.817-.873.363-.218.799-.327 1.306-.327.634 0 1.153.198 1.556.595.403.394.605 1.008.605 1.842V67h-1.09v-4.746c0-.523-.143-.897-.429-1.121a1.588 1.588 0 0 0-1.011-.338c-.498 0-.885.151-1.159.453-.274.298-.41.677-.41 1.136V67h-1.108v-4.856c0-.404-.131-.728-.393-.975-.261-.249-.598-.373-1.011-.373-.283 0-.548.075-.794.226-.243.15-.44.36-.591.628a1.85 1.85 0 0 0-.221.918V67h-1.09Zm11.299 0v-7.09h1.053v1.107h.092c.148-.379.386-.672.715-.882.33-.212.725-.318 1.187-.318.468 0 .857.106 1.168.318.314.21.558.504.734.882h.074c.181-.366.454-.657.817-.873.363-.218.798-.327 1.306-.327.634 0 1.153.198 1.556.595.403.394.605 1.008.605 1.842V67h-1.09v-4.746c0-.523-.143-.897-.429-1.121a1.588 1.588 0 0 0-1.011-.338c-.499 0-.885.151-1.159.453-.274.298-.411.677-.411 1.136V67h-1.108v-4.856c0-.404-.13-.728-.392-.975-.262-.249-.599-.373-1.011-.373-.283 0-.548.075-.794.226-.243.15-.44.36-.591.628a1.85 1.85 0 0 0-.222.918V67h-1.089Zm13.976.148c-.591 0-1.112-.15-1.565-.448-.452-.302-.806-.726-1.061-1.274-.256-.551-.384-1.202-.384-1.953 0-.745.128-1.391.384-1.939.255-.548.61-.97 1.066-1.27.455-.298.982-.447 1.579-.447.461 0 .826.077 1.094.23.271.151.477.324.619.518.144.19.256.347.337.47h.092V59.91h1.089V67h-1.052v-1.09h-.129c-.081.13-.194.293-.342.49a2.034 2.034 0 0 1-.633.521c-.273.151-.638.227-1.094.227Zm.148-.979c.437 0 .806-.114 1.108-.342.302-.23.531-.549.688-.955.157-.41.235-.882.235-1.417 0-.53-.077-.993-.231-1.39-.153-.4-.381-.711-.683-.932-.301-.225-.674-.338-1.117-.338-.462 0-.846.119-1.154.356a2.127 2.127 0 0 0-.688.955c-.151.4-.226.85-.226 1.349 0 .504.077.963.231 1.375.157.41.387.736.692.979.308.24.69.36 1.145.36Zm6.338-3.435V67h-1.089v-7.09h1.053v1.107h.092c.166-.36.418-.65.757-.868.339-.221.776-.332 1.311-.332.48 0 .9.098 1.26.295.36.194.641.49.841.887.2.393.3.892.3 1.495V67h-1.09v-4.432c0-.557-.145-.99-.434-1.302-.289-.314-.686-.47-1.191-.47-.348 0-.658.075-.932.226-.271.15-.485.37-.642.66-.157.29-.236.64-.236 1.052Zm9.193 4.414c-.591 0-1.113-.15-1.565-.448-.452-.302-.806-.726-1.062-1.274-.255-.551-.383-1.202-.383-1.953 0-.745.128-1.391.383-1.939.256-.548.611-.97 1.067-1.27.455-.298.981-.447 1.579-.447.461 0 .826.077 1.094.23.27.151.477.324.618.518.145.19.257.347.337.47h.093v-3.49h1.089V67h-1.053v-1.09h-.129c-.08.13-.194.293-.341.49a2.034 2.034 0 0 1-.633.521c-.274.151-.638.227-1.094.227Zm.148-.979c.437 0 .806-.114 1.108-.342.301-.23.531-.549.688-.955.157-.41.235-.882.235-1.417 0-.53-.077-.993-.231-1.39-.154-.4-.381-.711-.683-.932-.302-.225-.674-.338-1.117-.338-.462 0-.847.119-1.154.356a2.127 2.127 0 0 0-.688.955c-.151.4-.226.85-.226 1.349 0 .504.077.963.23 1.375.157.41.388.736.693.979.308.24.689.36 1.145.36Zm10.271-4.672-.978.277a1.833 1.833 0 0 0-.273-.475 1.322 1.322 0 0 0-.48-.388c-.203-.102-.463-.153-.78-.153-.434 0-.796.1-1.085.3-.286.198-.429.448-.429.753 0 .27.098.485.295.642.197.157.505.287.924.392l1.052.259c.634.154 1.107.389 1.417.706.311.314.467.719.467 1.214a1.8 1.8 0 0 1-.351 1.09c-.231.32-.554.572-.97.757-.415.184-.898.277-1.449.277-.723 0-1.322-.157-1.796-.471-.474-.314-.774-.773-.9-1.376l1.034-.258c.098.381.285.667.558.858.277.191.639.287 1.085.287.508 0 .911-.108 1.21-.324.301-.218.452-.48.452-.785a.826.826 0 0 0-.258-.618c-.173-.17-.437-.296-.794-.379l-1.182-.277c-.649-.154-1.127-.392-1.431-.715-.302-.326-.453-.734-.453-1.224 0-.4.113-.754.337-1.061.228-.308.537-.55.928-.725.394-.175.84-.263 1.339-.263.702 0 1.253.154 1.653.461.403.308.689.714.858 1.22Zm8.51-1.588v.923h-3.675v-.923h3.675Zm-2.604-1.699h1.09v6.759c0 .308.044.538.133.692.093.151.21.253.351.305.145.05.297.074.457.074.12 0 .219-.006.296-.019l.184-.037.222.98a2.23 2.23 0 0 1-.309.082c-.133.03-.3.046-.503.046a2.19 2.19 0 0 1-.905-.198 1.796 1.796 0 0 1-.73-.605c-.191-.27-.286-.612-.286-1.025V58.21Zm5.484 4.524V67h-1.089v-9.455h1.089v3.472h.093a2 2 0 0 1 .748-.873c.335-.218.781-.327 1.338-.327.484 0 .907.097 1.27.29.363.191.645.485.845.882.203.394.304.896.304 1.505V67h-1.089v-4.432c0-.563-.146-.998-.439-1.306-.289-.311-.691-.467-1.205-.467a2.01 2.01 0 0 0-.96.227c-.28.15-.501.37-.665.66-.16.29-.24.64-.24 1.052Zm9.269 4.414c-.591 0-1.112-.15-1.565-.448-.452-.302-.806-.726-1.062-1.274-.255-.551-.383-1.202-.383-1.953 0-.745.128-1.391.383-1.939.256-.548.611-.97 1.067-1.27.455-.298.982-.447 1.579-.447.461 0 .826.077 1.094.23.271.151.477.324.618.518.145.19.257.347.337.47h.093V59.91h1.089V67h-1.052v-1.09h-.13c-.08.13-.194.293-.341.49a2.034 2.034 0 0 1-.633.521c-.274.151-.638.227-1.094.227Zm.148-.979c.437 0 .806-.114 1.108-.342.301-.23.531-.549.688-.955.157-.41.235-.882.235-1.417 0-.53-.077-.993-.231-1.39-.154-.4-.381-.711-.683-.932-.302-.225-.674-.338-1.117-.338-.462 0-.846.119-1.154.356a2.127 2.127 0 0 0-.688.955c-.151.4-.226.85-.226 1.349 0 .504.077.963.231 1.375.156.41.387.736.692.979.308.24.689.36 1.145.36Zm8.333-6.26v.923h-3.675v-.923h3.675Zm-2.604-1.699h1.089v6.759c0 .308.045.538.134.692.093.151.21.253.351.305.145.05.297.074.457.074.12 0 .219-.006.296-.019l.184-.037.222.98a2.23 2.23 0 0 1-.309.082c-.133.03-.3.046-.504.046a2.19 2.19 0 0 1-.904-.198 1.796 1.796 0 0 1-.73-.605c-.191-.27-.286-.612-.286-1.025V58.21Zm9.505 8.79-2.16-7.09h1.145l1.532 5.428h.074l1.514-5.429h1.164l1.495 5.41h.074l1.533-5.41h1.145L209.351 67h-1.071l-1.551-5.447h-.111L205.067 67h-1.071Zm8.956 0v-7.09h1.09V67h-1.09Zm.554-8.273a.775.775 0 0 1-.549-.217.696.696 0 0 1-.226-.521c0-.203.075-.377.226-.522a.774.774 0 0 1 .549-.217c.213 0 .394.072.545.217a.69.69 0 0 1 .231.522.69.69 0 0 1-.231.521.759.759 0 0 1-.545.217Zm2.531-1.181h1.09v7.607c0 .345.038.587.115.725.077.139.236.205.476.199.129-.007.224-.016.286-.028.064-.015.123-.03.175-.046l.222.942a2.859 2.859 0 0 1-.36.074 2.705 2.705 0 0 1-.453.036c-.517 0-.904-.141-1.163-.424-.259-.284-.388-.677-.388-1.182v-7.904Zm3.555 0h1.089v7.607c0 .345.039.587.116.725.077.139.235.205.475.199.13-.007.225-.016.287-.028.064-.015.123-.03.175-.046l.222.942a2.841 2.841 0 0 1-.361.074 2.684 2.684 0 0 1-.452.036c-.517 0-.905-.141-1.163-.424-.259-.284-.388-.677-.388-1.182v-7.904ZM226.76 67v-9.455h1.09v3.49h.092c.08-.123.191-.28.332-.47a1.95 1.95 0 0 1 .619-.517c.271-.154.637-.231 1.099-.231.597 0 1.123.149 1.578.448.456.298.811.721 1.067 1.27.255.547.383 1.193.383 1.938 0 .751-.128 1.402-.383 1.953-.256.548-.609.972-1.062 1.274-.452.299-.974.448-1.565.448-.455 0-.82-.076-1.094-.227a2.018 2.018 0 0 1-.632-.521 6.911 6.911 0 0 1-.342-.49h-.129V67h-1.053Zm1.071-3.545c0 .535.079 1.008.236 1.417.157.406.386.725.687.955.302.228.671.342 1.108.342.456 0 .836-.12 1.141-.36.307-.243.538-.57.692-.979a3.84 3.84 0 0 0 .236-1.375c0-.499-.077-.948-.231-1.349a2.083 2.083 0 0 0-.688-.955c-.305-.237-.688-.356-1.15-.356-.443 0-.815.113-1.117.337-.301.222-.529.533-.683.933-.154.397-.231.86-.231 1.39Zm9.829 3.693c-.684 0-1.273-.151-1.768-.453a3.036 3.036 0 0 1-1.141-1.274c-.264-.548-.397-1.185-.397-1.911s.133-1.366.397-1.92c.268-.558.64-.992 1.117-1.302.481-.314 1.041-.471 1.681-.471.369 0 .734.061 1.094.184.36.123.688.324.983.6.296.275.531.638.707 1.09.175.453.263 1.01.263 1.671v.462h-5.466v-.942h4.358c0-.4-.08-.757-.24-1.07a1.812 1.812 0 0 0-.674-.744 1.89 1.89 0 0 0-1.025-.273c-.434 0-.81.108-1.127.324-.314.212-.555.489-.724.83-.17.342-.254.708-.254 1.1v.627c0 .536.092.99.277 1.362.187.37.448.65.78.845.332.19.719.286 1.159.286.286 0 .544-.04.775-.12.234-.083.436-.206.605-.37.169-.166.3-.372.392-.618l1.053.295a2.332 2.332 0 0 1-.559.942 2.712 2.712 0 0 1-.969.628 3.594 3.594 0 0 1-1.297.222Zm8.249-.148v-7.09h1.053v1.07h.074c.126-.35.358-.635.697-.854a2.07 2.07 0 0 1 1.149-.328c.197 0 .37.023.517.07.148.046.277.109.388.189l-.369.923a1.047 1.047 0 0 0-.273-.092 1.516 1.516 0 0 0-.355-.037c-.345 0-.653.072-.923.217-.268.145-.48.341-.637.59-.154.25-.231.535-.231.855V67h-1.09Zm9.458-2.9v-4.19h1.09V67h-1.09v-1.2h-.074c-.166.36-.424.666-.775.918-.351.25-.794.374-1.33.374a2.37 2.37 0 0 1-1.182-.29 2.039 2.039 0 0 1-.812-.887c-.197-.397-.295-.897-.295-1.5v-4.506h1.089v4.432c0 .517.145.93.434 1.237.292.308.665.462 1.117.462.271 0 .546-.07.827-.208.283-.138.52-.35.71-.637.194-.286.291-.651.291-1.094Zm4.175-1.366V67h-1.09v-7.09h1.053v1.107h.092c.166-.36.419-.65.757-.868.339-.221.776-.332 1.311-.332.48 0 .901.098 1.261.295.36.194.64.49.84.887.2.393.3.892.3 1.495V67h-1.09v-4.432c0-.557-.144-.99-.434-1.302-.289-.314-.686-.47-1.191-.47-.347 0-.658.075-.932.226-.271.15-.485.37-.642.66-.157.29-.235.64-.235 1.052Zm13.255-2.825v.923h-3.675v-.923h3.675Zm-2.604-1.699h1.09v6.759c0 .308.044.538.133.692.093.151.21.253.351.305.145.05.297.074.457.074.12 0 .219-.006.296-.019l.184-.037.222.98a2.23 2.23 0 0 1-.309.082c-.133.03-.3.046-.503.046a2.19 2.19 0 0 1-.905-.198 1.796 1.796 0 0 1-.73-.605c-.19-.27-.286-.612-.286-1.025V58.21Zm7.047 8.938c-.64 0-1.202-.153-1.685-.457a3.106 3.106 0 0 1-1.126-1.28c-.268-.547-.402-1.187-.402-1.92 0-.738.134-1.383.402-1.934a3.1 3.1 0 0 1 1.126-1.283c.483-.305 1.045-.457 1.685-.457.64 0 1.2.152 1.681.457.483.304.858.732 1.126 1.283.271.551.406 1.196.406 1.934 0 .733-.135 1.373-.406 1.92a3.064 3.064 0 0 1-1.126 1.28c-.481.304-1.041.457-1.681.457Zm0-.979c.486 0 .887-.125 1.2-.374.314-.25.547-.577.698-.983.15-.406.226-.847.226-1.32 0-.474-.076-.916-.226-1.325a2.236 2.236 0 0 0-.698-.993c-.313-.252-.714-.379-1.2-.379s-.886.127-1.2.379a2.234 2.234 0 0 0-.697.992c-.151.41-.226.852-.226 1.326 0 .473.075.914.226 1.32.151.406.383.734.697.983.314.25.714.374 1.2.374Zm11.21.979c-.591 0-1.112-.15-1.565-.448-.452-.302-.806-.726-1.062-1.274-.255-.551-.383-1.202-.383-1.953 0-.745.128-1.391.383-1.939.256-.548.611-.97 1.067-1.27.455-.298.982-.447 1.579-.447.461 0 .826.077 1.094.23.271.151.477.324.618.518.145.19.257.347.337.47h.093v-3.49h1.089V67h-1.052v-1.09h-.13c-.08.13-.194.293-.341.49a2.034 2.034 0 0 1-.633.521c-.274.151-.638.227-1.094.227Zm.148-.979c.437 0 .806-.114 1.108-.342.301-.23.531-.549.688-.955.157-.41.235-.882.235-1.417 0-.53-.077-.993-.231-1.39-.154-.4-.381-.711-.683-.932-.302-.225-.674-.338-1.117-.338-.462 0-.847.119-1.154.356a2.127 2.127 0 0 0-.688.955c-.151.4-.226.85-.226 1.349 0 .504.077.963.23 1.375.157.41.388.736.693.979.308.24.689.36 1.145.36Zm8.222.979c-.683 0-1.273-.151-1.768-.453a3.036 3.036 0 0 1-1.141-1.274c-.264-.548-.397-1.185-.397-1.911s.133-1.366.397-1.92a3.136 3.136 0 0 1 1.118-1.302c.48-.314 1.04-.471 1.68-.471.369 0 .734.061 1.094.184.36.123.688.324.983.6.296.275.531.638.707 1.09.175.453.263 1.01.263 1.671v.462h-5.466v-.942h4.358c0-.4-.08-.757-.24-1.07a1.812 1.812 0 0 0-.674-.744 1.887 1.887 0 0 0-1.025-.273c-.434 0-.809.108-1.126.324-.314.212-.556.489-.725.83a2.445 2.445 0 0 0-.254 1.1v.627c0 .536.092.99.277 1.362.188.37.448.65.78.845.332.19.719.286 1.159.286.286 0 .545-.04.775-.12.234-.083.436-.206.605-.37.169-.166.3-.372.393-.618l1.052.295a2.332 2.332 0 0 1-.559.942 2.712 2.712 0 0 1-.969.628 3.594 3.594 0 0 1-1.297.222Zm4.593 2.511v-9.75h1.053v1.127h.129c.08-.124.191-.28.332-.471a1.95 1.95 0 0 1 .619-.517c.271-.154.637-.231 1.099-.231.597 0 1.123.149 1.579.448.455.298.811.721 1.066 1.27.255.547.383 1.193.383 1.938 0 .751-.128 1.402-.383 1.953-.255.548-.609.972-1.062 1.274-.452.299-.974.448-1.565.448-.455 0-.82-.076-1.094-.227a2.018 2.018 0 0 1-.632-.521 6.911 6.911 0 0 1-.342-.49h-.092v3.75h-1.09Zm1.071-6.205c0 .536.079 1.009.236 1.418.157.406.386.725.687.955.302.228.671.342 1.108.342.456 0 .836-.12 1.141-.36.307-.243.538-.57.692-.979a3.84 3.84 0 0 0 .236-1.375c0-.499-.077-.948-.231-1.349a2.083 2.083 0 0 0-.688-.955c-.305-.237-.688-.356-1.15-.356-.443 0-.815.113-1.117.337-.301.222-.529.533-.683.933-.154.397-.231.86-.231 1.39Zm6.851-5.909h1.09v7.608c0 .345.038.587.115.725.077.139.235.205.475.199.13-.007.225-.016.287-.028.064-.015.123-.03.175-.046l.222.942a2.859 2.859 0 0 1-.36.074 2.705 2.705 0 0 1-.453.036c-.517 0-.905-.141-1.163-.424-.259-.284-.388-.677-.388-1.182v-7.904Zm6.245 9.603c-.64 0-1.202-.153-1.685-.457a3.099 3.099 0 0 1-1.126-1.28c-.268-.547-.402-1.187-.402-1.92 0-.738.134-1.383.402-1.934.27-.55.646-.979 1.126-1.283.483-.305 1.045-.457 1.685-.457.64 0 1.2.152 1.68.457.484.304.859.732 1.127 1.283.271.551.406 1.196.406 1.934 0 .733-.135 1.373-.406 1.92a3.06 3.06 0 0 1-1.127 1.28c-.48.304-1.04.457-1.68.457Zm0-.979c.486 0 .886-.125 1.2-.374.314-.25.547-.577.697-.983a3.76 3.76 0 0 0 .227-1.32 3.8 3.8 0 0 0-.227-1.325c-.15-.41-.383-.74-.697-.993-.314-.252-.714-.379-1.2-.379s-.886.127-1.2.379a2.226 2.226 0 0 0-.697.992 3.8 3.8 0 0 0-.227 1.326c0 .473.076.914.227 1.32.15.406.383.734.697.983.314.25.714.374 1.2.374Zm5.324 3.49c-.185 0-.349-.015-.494-.046a1.29 1.29 0 0 1-.3-.083l.277-.96a2.1 2.1 0 0 0 .702.074.841.841 0 0 0 .54-.273c.16-.16.306-.42.438-.78l.203-.554-2.622-7.128h1.182l1.957 5.65h.074l1.958-5.65h1.182l-3.01 8.125c-.136.366-.304.67-.504.91-.2.243-.432.423-.697.54a2.148 2.148 0 0 1-.886.175Zm10.893 0c-.185 0-.35-.015-.494-.046a1.319 1.319 0 0 1-.301-.083l.277-.96c.265.067.499.092.702.074a.841.841 0 0 0 .54-.273c.16-.16.307-.42.439-.78l.203-.554-2.622-7.128h1.182l1.957 5.65h.074l1.957-5.65h1.182l-3.01 8.125c-.135.366-.303.67-.503.91-.2.243-.432.423-.697.54a2.15 2.15 0 0 1-.886.175Zm9.161-2.511c-.64 0-1.202-.153-1.685-.457a3.108 3.108 0 0 1-1.127-1.28c-.267-.547-.401-1.187-.401-1.92 0-.738.134-1.383.401-1.934.271-.55.647-.979 1.127-1.283.483-.305 1.045-.457 1.685-.457.64 0 1.2.152 1.68.457.484.304.859.732 1.127 1.283.271.551.406 1.196.406 1.934 0 .733-.135 1.373-.406 1.92a3.06 3.06 0 0 1-1.127 1.28c-.48.304-1.04.457-1.68.457Zm0-.979c.486 0 .886-.125 1.2-.374.314-.25.546-.577.697-.983a3.76 3.76 0 0 0 .226-1.32c0-.474-.075-.916-.226-1.325a2.234 2.234 0 0 0-.697-.993c-.314-.252-.714-.379-1.2-.379s-.886.127-1.2.379a2.226 2.226 0 0 0-.697.992 3.8 3.8 0 0 0-.227 1.326c0 .473.076.914.227 1.32.15.406.383.734.697.983.314.25.714.374 1.2.374Zm9.345-2.068v-4.192h1.089V67h-1.089v-1.2h-.074c-.166.36-.425.666-.776.918-.35.25-.794.374-1.329.374a2.37 2.37 0 0 1-1.182-.29 2.027 2.027 0 0 1-.812-.887c-.197-.397-.296-.897-.296-1.5v-4.506h1.09v4.432c0 .517.144.93.434 1.237.292.308.664.462 1.117.462.271 0 .546-.07.826-.208.283-.138.52-.35.711-.637.194-.286.291-.651.291-1.094ZM353.388 67v-7.09h1.052v1.07h.074a1.68 1.68 0 0 1 .697-.854 2.076 2.076 0 0 1 1.15-.328c.197 0 .369.023.517.07.148.046.277.109.388.189l-.37.923a1.04 1.04 0 0 0-.272-.092 1.525 1.525 0 0 0-.356-.037 1.93 1.93 0 0 0-.923.217c-.268.145-.48.341-.637.59-.154.25-.231.535-.231.855V67h-1.089Zm11.323.148c-.591 0-1.113-.15-1.565-.448-.453-.302-.806-.726-1.062-1.274-.255-.551-.383-1.202-.383-1.953 0-.745.128-1.391.383-1.939.256-.548.611-.97 1.066-1.27.456-.298.982-.447 1.579-.447.462 0 .827.077 1.094.23.271.151.477.324.619.518.145.19.257.347.337.47h.092V59.91h1.09V67h-1.053v-1.09h-.129c-.08.13-.194.293-.342.49a2.018 2.018 0 0 1-.632.521c-.274.151-.639.227-1.094.227Zm.148-.979c.437 0 .806-.114 1.108-.342.301-.23.53-.549.687-.955.157-.41.236-.882.236-1.417 0-.53-.077-.993-.231-1.39-.154-.4-.382-.711-.683-.932-.302-.225-.674-.338-1.117-.338-.462 0-.847.119-1.155.356a2.125 2.125 0 0 0-.687.955c-.151.4-.227.85-.227 1.349 0 .504.077.963.231 1.375.157.41.388.736.693.979.307.24.689.36 1.145.36Zm5.249 3.49v-9.75h1.052v1.127h.129c.08-.124.191-.28.333-.471.144-.194.351-.367.618-.517.271-.154.637-.231 1.099-.231.597 0 1.123.149 1.579.448.455.298.811.721 1.066 1.27.256.547.383 1.193.383 1.938 0 .751-.127 1.402-.383 1.953-.255.548-.609.972-1.062 1.274-.452.299-.974.448-1.564.448-.456 0-.821-.076-1.095-.227a2.03 2.03 0 0 1-.632-.521 6.911 6.911 0 0 1-.342-.49h-.092v3.75h-1.089Zm1.071-6.205c0 .536.078 1.009.235 1.418.157.406.386.725.688.955.301.228.671.342 1.108.342.455 0 .835-.12 1.14-.36.308-.243.539-.57.693-.979.156-.412.235-.87.235-1.375 0-.499-.077-.948-.231-1.349a2.083 2.083 0 0 0-.688-.955c-.304-.237-.688-.356-1.149-.356-.443 0-.816.113-1.117.337-.302.222-.53.533-.684.933-.154.397-.23.86-.23 1.39Zm6.85 6.205v-9.75h1.053v1.127h.129c.08-.124.191-.28.333-.471.144-.194.35-.367.618-.517.271-.154.637-.231 1.099-.231.597 0 1.123.149 1.579.448.455.298.811.721 1.066 1.27.256.547.383 1.193.383 1.938 0 .751-.127 1.402-.383 1.953-.255.548-.609.972-1.062 1.274-.452.299-.974.448-1.565.448-.455 0-.82-.076-1.094-.227a2.03 2.03 0 0 1-.632-.521 6.911 6.911 0 0 1-.342-.49h-.092v3.75h-1.09Zm1.071-6.205c0 .536.079 1.009.236 1.418.157.406.386.725.688.955.301.228.671.342 1.108.342.455 0 .835-.12 1.14-.36.308-.243.539-.57.692-.979a3.84 3.84 0 0 0 .236-1.375c0-.499-.077-.948-.231-1.349a2.083 2.083 0 0 0-.688-.955c-.305-.237-.688-.356-1.149-.356-.444 0-.816.113-1.118.337-.301.222-.529.533-.683.933-.154.397-.231.86-.231 1.39Z"/><g clip-path="url(#a)"><path fill="#FCFDFC" d="M28 102a6 6 0 0 1 6-6h352a6 6 0 0 1 6 6v148a6 6 0 0 1-6 6H34a6 6 0 0 1-6-6V102Z"/><path fill="#ECEFEC" d="M28 96h30v160H28z"/><path fill="#E0E4E0" d="M28 154h30v24H28z"/><path fill="#6B716A" d="M40.714 121.927h1.993v-7.16l-2.387 1.149v-1.231l2.374-1.13h1.283v8.372h1.967V123h-5.23v-1.073Zm.654 23.994h4.354V147h-5.757v-1.079c.791-.834 1.483-1.57 2.075-2.209.593-.639 1.001-1.09 1.226-1.352.423-.516.708-.933.857-1.251.148-.321.222-.649.222-.984 0-.528-.157-.943-.47-1.244-.309-.3-.734-.45-1.276-.45-.385 0-.79.069-1.212.209a6.8 6.8 0 0 0-1.346.635v-1.295a6.998 6.998 0 0 1 1.282-.47c.423-.106.84-.158 1.25-.158.928 0 1.672.247 2.235.742.567.491.85 1.136.85 1.936 0 .407-.095.813-.285 1.219-.186.406-.49.855-.914 1.346-.237.275-.582.656-1.035 1.142a199.98 199.98 0 0 1-2.056 2.184Zm2.558 20.007c.622.165 1.098.459 1.428.883.33.418.495.943.495 1.574 0 .872-.294 1.557-.882 2.056-.584.496-1.395.743-2.431.743-.436 0-.88-.04-1.333-.121a8.464 8.464 0 0 1-1.333-.349v-1.276c.431.225.857.392 1.276.502.419.11.835.165 1.25.165.703 0 1.242-.159 1.619-.476.376-.317.565-.775.565-1.371 0-.55-.189-.986-.565-1.308-.377-.326-.887-.489-1.53-.489h-.978v-1.053h.978c.588 0 1.047-.129 1.377-.387.33-.259.495-.618.495-1.08 0-.486-.154-.859-.463-1.117-.305-.262-.74-.393-1.308-.393a5.64 5.64 0 0 0-1.167.127 8.237 8.237 0 0 0-1.264.38v-1.18a15.66 15.66 0 0 1 1.365-.305 6.471 6.471 0 0 1 1.066-.101c.923 0 1.66.232 2.21.698.554.461.831 1.075.831 1.841 0 .52-.146.954-.438 1.301-.288.347-.709.592-1.263.736Zm-.26 20.763-2.99 5.008h2.99v-5.008Zm-.21-1.168h1.485v6.176h1.264v1.041H44.94V195h-1.276v-2.26h-4.017v-1.212l3.808-6.005Zm-3.142 24h4.799v1.079h-3.631v2.33c.182-.068.364-.117.546-.146.186-.034.372-.051.558-.051.982 0 1.76.29 2.336.869.576.58.864 1.365.864 2.355 0 .999-.303 1.786-.908 2.362-.601.575-1.424.863-2.47.863a8.79 8.79 0 0 1-1.383-.101 5.151 5.151 0 0 1-1.117-.305v-1.301c.389.211.78.37 1.174.476.394.101.796.152 1.206.152.707 0 1.25-.186 1.631-.559.386-.372.578-.901.578-1.587 0-.677-.199-1.203-.597-1.58-.393-.377-.943-.565-1.65-.565-.343 0-.677.04-1.003.121a3.85 3.85 0 0 0-.933.349v-4.761Z"/><path fill="#ECEFEC" d="M58 154h334v24H58z"/><path fill="#141E12" d="M72.393 119.318v2.755c.465-.012.829-.142 1.091-.387.263-.245.394-.58.394-1.003 0-.393-.119-.698-.356-.914-.237-.22-.613-.37-1.13-.451Zm-.635-1.206v-2.621c-.44.017-.785.144-1.035.381-.245.237-.368.554-.368.952 0 .364.114.651.343.863.233.212.586.353 1.06.425Zm.635 6.799h-.635L71.75 123a7.353 7.353 0 0 1-1.288-.178 7.676 7.676 0 0 1-1.257-.406v-1.143c.423.263.849.464 1.276.603.432.14.857.214 1.276.223v-2.908c-.846-.131-1.483-.389-1.91-.774-.428-.385-.642-.895-.642-1.53 0-.664.222-1.193.667-1.587.448-.397 1.076-.626 1.885-.685v-1.492h.635l.006 1.492a8.4 8.4 0 0 1 1.016.127c.342.063.691.15 1.047.26v1.098a5.9 5.9 0 0 0-1.054-.419 4.298 4.298 0 0 0-1.015-.178v2.736c.871.131 1.536.402 1.993.813.457.41.685.941.685 1.593s-.247 1.195-.742 1.631c-.491.436-1.134.673-1.93.711l-.006 1.924Zm10.251-2.247a4.382 4.382 0 0 1-2.095.52c-1.214 0-2.158-.429-2.83-1.288-.67-.86-1.004-2.068-1.004-3.625 0-1.549.337-2.755 1.01-3.618.677-.868 1.618-1.301 2.824-1.301.385 0 .75.044 1.092.133.343.084.677.214 1.003.387v1.314a3.536 3.536 0 0 0-1.01-.59 3.048 3.048 0 0 0-1.085-.203c-.833 0-1.458.321-1.872.964-.415.644-.622 1.615-.622 2.914 0 1.295.207 2.264.622 2.907.414.643 1.039.965 1.872.965.373 0 .737-.068 1.092-.203a3.45 3.45 0 0 0 1.003-.59v1.314Zm5.846-4.139c.33.085.612.245.845.482.232.233.522.701.87 1.403l1.288 2.59h-1.378l-1.13-2.393c-.326-.681-.62-1.119-.882-1.314-.258-.199-.597-.298-1.016-.298h-1.225V123h-1.288v-9.477h2.64c1.041 0 1.84.235 2.393.705.555.469.832 1.148.832 2.037 0 .626-.171 1.138-.514 1.536-.339.394-.817.635-1.435.724Zm-2.628-3.948v3.364h1.403c.614 0 1.07-.138 1.371-.413.3-.275.45-.696.45-1.263 0-.546-.16-.963-.481-1.25-.318-.292-.781-.438-1.39-.438h-1.353Zm6.888-1.054h5.624v1.079h-4.342v2.552h4.151v1.079h-4.151v3.688h4.462V123H92.75v-9.477Zm10.492 1.13-1.352 4.849h2.704l-1.352-4.849Zm-.774-1.13h1.555l2.901 9.477h-1.327l-.698-2.469h-3.32l-.685 2.469h-1.327l2.901-9.477Zm4.995 0h7.23v1.079h-2.964V123h-1.289v-8.398h-2.977v-1.079Zm8.786 0h5.624v1.079h-4.342v2.552h4.151v1.079h-4.151v3.688h4.462V123h-5.744v-9.477Zm14.352 10.683v1.079h-7.77v-1.079h7.77Zm4.887-5.681c.33.085.612.245.845.482.232.233.522.701.869 1.403l1.289 2.59h-1.378l-1.13-2.393c-.325-.681-.62-1.119-.882-1.314-.258-.199-.597-.298-1.016-.298h-1.225V123h-1.288v-9.477h2.64c1.041 0 1.839.235 2.393.705.555.469.832 1.148.832 2.037 0 .626-.171 1.138-.514 1.536-.339.394-.817.635-1.435.724Zm-2.628-3.948v3.364h1.403c.614 0 1.071-.138 1.371-.413.301-.275.451-.696.451-1.263 0-.546-.161-.963-.482-1.25-.318-.292-.781-.438-1.391-.438h-1.352Zm6.888-1.054h5.624v1.079h-4.342v2.552h4.151v1.079h-4.151v3.688h4.462V123h-5.744v-9.477Zm7.947 0h1.288v8.398h4.577V123h-5.865v-9.477Zm7.719 0h5.624v1.079h-4.342v2.552h4.151v1.079h-4.151v3.688h4.462V123h-5.744v-9.477Zm10.492 1.13-1.352 4.849h2.704l-1.352-4.849Zm-.774-1.13h1.555l2.901 9.477h-1.327l-.698-2.469h-3.32l-.685 2.469h-1.327l2.901-9.477Zm11.121.324v1.301a5.044 5.044 0 0 0-1.174-.565 3.79 3.79 0 0 0-1.181-.19c-.605 0-1.083.141-1.435.425-.351.279-.526.658-.526 1.136 0 .419.114.739.342.959.233.22.665.404 1.295.552l.673.152c.889.208 1.536.533 1.942.978.407.444.61 1.049.61 1.815 0 .902-.279 1.589-.838 2.063-.559.474-1.371.711-2.438.711-.444 0-.89-.049-1.339-.146a7.369 7.369 0 0 1-1.352-.425v-1.365c.487.309.946.535 1.377.679.436.144.874.216 1.314.216.648 0 1.151-.144 1.511-.432.36-.292.54-.698.54-1.218 0-.474-.125-.836-.375-1.086-.245-.249-.675-.442-1.288-.577l-.686-.159c-.88-.199-1.519-.499-1.917-.901-.398-.402-.597-.942-.597-1.619 0-.846.284-1.524.851-2.031.571-.512 1.329-.768 2.272-.768.364 0 .747.042 1.149.127.402.08.826.203 1.27.368Zm2.66-.324h5.624v1.079h-4.342v2.552h4.151v1.079h-4.151v3.688h4.462V123h-5.744v-9.477Zm-72.846 57.115a3.911 3.911 0 0 1-.971.406c-.33.094-.669.14-1.016.14-1.1 0-1.961-.33-2.583-.99-.618-.66-.927-1.574-.927-2.742s.309-2.082.927-2.743c.622-.66 1.483-.99 2.583-.99.343 0 .677.045 1.003.134.326.088.654.226.984.412v1.225a3.132 3.132 0 0 0-.933-.596 2.83 2.83 0 0 0-1.054-.185c-.732 0-1.295.237-1.688.711-.394.474-.591 1.151-.591 2.032 0 .876.197 1.553.591 2.031.397.474.96.711 1.688.711.406 0 .77-.062 1.092-.184.321-.127.62-.322.895-.584v1.212Zm3.104-6.722h2.99v6.176h2.317V171h-5.802v-.908h2.317v-5.268h-1.822v-.908Zm1.822-2.761h1.168v1.472h-1.168v-1.472Zm74.001 4.202a2.645 2.645 0 0 0-.762-.425 2.596 2.596 0 0 0-.851-.134c-.728 0-1.284.229-1.669.686-.385.457-.578 1.117-.578 1.98V171h-1.174v-7.109h1.174v1.39c.195-.504.493-.889.895-1.156.407-.27.887-.406 1.441-.406.288 0 .557.036.806.108.25.072.489.184.718.337v1.193Zm1.739 2.952v-4.406h1.168v4.406c0 .639.112 1.108.336 1.409.229.3.58.45 1.054.45.55 0 .971-.192 1.263-.577.292-.39.438-.946.438-1.67v-4.018h1.175V171h-1.175v-1.066c-.207.41-.491.721-.85.933-.356.211-.773.317-1.251.317-.728 0-1.269-.237-1.625-.711-.355-.478-.533-1.2-.533-2.164ZM200 166.595V171h-1.175v-4.405c0-.639-.112-1.109-.336-1.409-.225-.301-.576-.451-1.054-.451-.546 0-.967.195-1.263.584-.292.385-.438.939-.438 1.663V171h-1.168v-7.109h1.168v1.066c.207-.406.489-.713.844-.92.356-.212.777-.318 1.263-.318.724 0 1.263.239 1.619.718.36.473.54 1.193.54 2.158Zm14.821.857c0-.906-.144-1.589-.431-2.051-.288-.461-.713-.692-1.276-.692-.567 0-.997.233-1.289.699-.292.461-.438 1.142-.438 2.044 0 .897.146 1.578.438 2.044.292.465.722.698 1.289.698.563 0 .988-.231 1.276-.692.287-.461.431-1.145.431-2.05Zm-3.434-2.654c.186-.347.442-.613.768-.799.33-.187.711-.28 1.143-.28.855 0 1.528.33 2.018.99.491.656.737 1.562.737 2.717 0 1.172-.248 2.093-.743 2.762-.491.664-1.166.996-2.025.996-.423 0-.798-.091-1.123-.273a2.062 2.062 0 0 1-.775-.806V171h-1.168v-9.877h1.168v3.675Zm6.678 3.511v-4.406h1.168v4.406c0 .639.112 1.108.336 1.409.229.3.58.45 1.054.45.55 0 .971-.192 1.263-.577.292-.39.438-.946.438-1.67v-4.018h1.175V171h-1.175v-1.066c-.207.41-.491.721-.85.933-.356.211-.773.317-1.251.317-.728 0-1.269-.237-1.625-.711-.355-.478-.533-1.2-.533-2.164Zm8.601-4.393h2.99v6.176h2.317V171h-5.802v-.908h2.317v-5.268h-1.822v-.908Zm1.822-2.761h1.168v1.472h-1.168v-1.472Zm8.569 7.274c0 .525.095.921.286 1.187.194.267.48.4.857.4h1.364V171h-1.479c-.698 0-1.239-.222-1.625-.667-.38-.448-.571-1.083-.571-1.904v-6.43h-1.872v-.914h3.04v7.344Zm8.715-3.631v-3.675h1.168V171h-1.168v-.895a2.04 2.04 0 0 1-.78.806 2.23 2.23 0 0 1-1.117.273c-.86 0-1.537-.332-2.032-.996-.491-.669-.736-1.59-.736-2.762 0-1.155.247-2.061.743-2.717.495-.66 1.17-.99 2.025-.99.427 0 .804.093 1.129.28.326.182.582.448.768.799Zm-3.434 2.654c0 .905.144 1.589.432 2.05.288.461.713.692 1.276.692.563 0 .99-.233 1.282-.698.296-.466.444-1.147.444-2.044 0-.902-.148-1.583-.444-2.044-.292-.466-.719-.699-1.282-.699-.563 0-.988.231-1.276.692-.288.462-.432 1.145-.432 2.051ZM72.393 191.318v2.755c.465-.012.829-.142 1.091-.387.263-.245.394-.58.394-1.003 0-.393-.119-.698-.356-.914-.237-.22-.613-.37-1.13-.451Zm-.635-1.206v-2.621c-.44.017-.785.144-1.035.381-.245.237-.368.554-.368.952 0 .364.114.651.343.863.233.212.586.353 1.06.425Zm.635 6.799h-.635L71.75 195a7.353 7.353 0 0 1-1.288-.178 7.676 7.676 0 0 1-1.257-.406v-1.143c.423.263.849.464 1.276.603.432.14.857.214 1.276.223v-2.908c-.846-.131-1.483-.389-1.91-.774-.428-.385-.642-.895-.642-1.53 0-.664.222-1.193.667-1.587.448-.397 1.076-.626 1.885-.685v-1.492h.635l.006 1.492a8.4 8.4 0 0 1 1.016.127c.342.063.691.15 1.047.26v1.098a5.9 5.9 0 0 0-1.054-.419 4.298 4.298 0 0 0-1.015-.178v2.736c.871.131 1.536.402 1.993.813.457.41.685.941.685 1.593s-.247 1.195-.742 1.631c-.491.436-1.134.673-1.93.711l-.006 1.924Zm7.35-10.258-1.352 4.849h2.704l-1.352-4.849Zm-.774-1.13h1.555l2.9 9.477h-1.326l-.698-2.469h-3.32L77.394 195h-1.326l2.9-9.477Zm11.508 9.141a4.385 4.385 0 0 1-2.095.52c-1.214 0-2.158-.429-2.83-1.288-.67-.86-1.004-2.068-1.004-3.625 0-1.549.337-2.755 1.01-3.618.677-.868 1.618-1.301 2.824-1.301.385 0 .75.044 1.092.133a4.34 4.34 0 0 1 1.003.387v1.314a3.538 3.538 0 0 0-1.01-.59 3.048 3.048 0 0 0-1.085-.203c-.833 0-1.458.321-1.872.964-.415.644-.622 1.615-.622 2.914 0 1.295.207 2.264.622 2.907.414.643 1.039.965 1.872.965.373 0 .737-.068 1.092-.203a3.45 3.45 0 0 0 1.003-.59v1.314Zm1.32-9.141h7.23v1.079h-2.964V195h-1.289v-8.398h-2.977v-1.079Zm8.811 0h5.262v1.079h-1.987v7.319h1.987V195h-5.262v-1.079h1.987v-7.319h-1.987v-1.079Zm10.467 8.398 2.228-8.398h1.327L111.856 195h-1.555l-2.774-9.477h1.327l2.221 8.398Zm7.833-7.268-1.352 4.849h2.704l-1.352-4.849Zm-.774-1.13h1.555L122.59 195h-1.327l-.698-2.469h-3.32L116.56 195h-1.327l2.901-9.477Zm4.995 0h7.23v1.079h-2.964V195h-1.289v-8.398h-2.977v-1.079Zm8.786 0h5.624v1.079h-4.342v2.552h4.151v1.079h-4.151v3.688h4.462V195h-5.744v-9.477Zm14.352 10.683v1.079h-7.77v-1.079h7.77Zm4.887-5.681c.33.085.612.245.845.482.232.233.522.701.869 1.403l1.289 2.59h-1.378l-1.13-2.393c-.325-.681-.62-1.119-.882-1.314-.258-.199-.597-.298-1.016-.298h-1.225V195h-1.288v-9.477h2.64c1.041 0 1.839.235 2.393.705.555.469.832 1.148.832 2.037 0 .626-.171 1.138-.514 1.536-.339.394-.817.635-1.435.724Zm-2.628-3.948v3.364h1.403c.614 0 1.071-.138 1.371-.413.301-.275.451-.696.451-1.263 0-.546-.161-.963-.482-1.25-.318-.292-.781-.438-1.391-.438h-1.352Zm6.888-1.054h5.624v1.079h-4.342v2.552h4.151v1.079h-4.151v3.688h4.462V195h-5.744v-9.477Zm7.947 0h1.288v8.398h4.577V195h-5.865v-9.477Zm7.719 0h5.624v1.079h-4.342v2.552h4.151v1.079h-4.151v3.688h4.462V195h-5.744v-9.477Zm10.492 1.13-1.352 4.849h2.704l-1.352-4.849Zm-.774-1.13h1.555l2.901 9.477h-1.327l-.698-2.469h-3.32l-.685 2.469h-1.327l2.901-9.477Zm11.121.324v1.301a5.044 5.044 0 0 0-1.174-.565 3.79 3.79 0 0 0-1.181-.19c-.605 0-1.083.141-1.435.425-.351.279-.526.658-.526 1.136 0 .419.114.739.342.959.233.22.665.404 1.295.552l.673.152c.889.208 1.536.533 1.942.978.407.444.61 1.049.61 1.815 0 .902-.279 1.589-.838 2.063-.559.474-1.371.711-2.438.711-.444 0-.89-.049-1.339-.146a7.369 7.369 0 0 1-1.352-.425v-1.365c.487.309.946.535 1.377.679.436.144.874.216 1.314.216.648 0 1.151-.144 1.511-.432.36-.292.54-.698.54-1.218 0-.474-.125-.836-.375-1.086-.245-.249-.675-.442-1.288-.577l-.686-.159c-.88-.199-1.519-.499-1.917-.901-.398-.402-.597-.942-.597-1.619 0-.846.284-1.524.851-2.031.571-.512 1.329-.768 2.272-.768.364 0 .747.042 1.149.127.402.08.826.203 1.27.368Zm2.66-.324h5.624v1.079h-4.342v2.552h4.151v1.079h-4.151v3.688h4.462V195h-5.744v-9.477Z"/><path fill="#8E4EC6" d="M190.922 112.501a12.91 12.91 0 0 0-1.263 2.888 10.429 10.429 0 0 0-.412 2.895c0 .969.137 1.934.412 2.894.279.961.701 1.928 1.263 2.901h-1.015c-.639-1.007-1.115-1.987-1.428-2.939a9.107 9.107 0 0 1-.47-2.856c0-.944.156-1.894.47-2.85.313-.957.789-1.934 1.428-2.933h1.015Zm4.615 0h1.016c.639.999 1.115 1.976 1.428 2.933.313.956.47 1.906.47 2.85 0 .952-.157 1.906-.47 2.862-.313.957-.789 1.934-1.428 2.933h-1.016c.563-.982.982-1.953 1.257-2.913.279-.961.419-1.922.419-2.882 0-.965-.14-1.928-.419-2.888a12.76 12.76 0 0 0-1.257-2.895ZM74.671 166.595V171h-1.174v-4.405c0-.639-.112-1.109-.336-1.409-.225-.301-.576-.451-1.054-.451-.546 0-.967.195-1.263.584-.292.385-.438.939-.438 1.663V171h-1.168v-7.109h1.168v1.066c.207-.406.488-.713.844-.92.356-.212.776-.318 1.263-.318.724 0 1.263.239 1.619.718.36.473.54 1.193.54 2.158Zm3.542 3.51v3.599H77.04v-9.813h1.174v.907c.195-.351.453-.617.775-.799.326-.187.7-.28 1.123-.28.86 0 1.532.332 2.019.997.49.664.736 1.585.736 2.761 0 1.155-.245 2.063-.736 2.723-.491.656-1.164.984-2.019.984-.431 0-.81-.091-1.136-.273a1.975 1.975 0 0 1-.762-.806Zm3.428-2.653c0-.906-.144-1.589-.431-2.051-.284-.461-.707-.692-1.27-.692-.567 0-.997.233-1.289.699-.292.461-.438 1.142-.438 2.044 0 .897.146 1.578.438 2.044.292.465.722.698 1.289.698.563 0 .986-.231 1.27-.692.287-.461.431-1.145.431-2.05Zm6.316-2.838c.144-.304.326-.529.546-.673a1.43 1.43 0 0 1 .806-.222c.571 0 .973.222 1.206.667.237.44.356 1.271.356 2.494V171h-1.067v-4.069c0-1.003-.057-1.625-.171-1.866-.11-.246-.313-.368-.61-.368-.338 0-.57.131-.698.393-.123.258-.184.872-.184 1.841V171h-1.066v-4.069c0-1.015-.062-1.642-.184-1.879-.119-.237-.335-.355-.648-.355-.309 0-.525.131-.647.393-.119.258-.178.872-.178 1.841V171h-1.06v-7.109h1.06v.609a1.55 1.55 0 0 1 .52-.578c.212-.135.451-.203.718-.203.321 0 .588.074.8.222.215.149.382.373.501.673Zm38.346.629 2.641 3.548c.165-.207.288-.47.368-.787a4.69 4.69 0 0 0 .121-1.136c0-.136-.007-.352-.019-.648l-.007-.044h1.041v.247c0 .682-.078 1.28-.235 1.797a3.649 3.649 0 0 1-.711 1.326l1.08 1.454h-1.353l-.495-.692a3.7 3.7 0 0 1-1.117.66 3.642 3.642 0 0 1-1.263.216c-.914 0-1.669-.283-2.266-.851-.597-.571-.895-1.288-.895-2.151 0-.58.146-1.118.438-1.613.292-.495.732-.954 1.32-1.377a3.775 3.775 0 0 1-.47-.895 2.701 2.701 0 0 1-.152-.889c0-.635.21-1.136.629-1.504.423-.368 1-.552 1.732-.552.275 0 .551.025.826.076.279.051.567.125.863.222v1.162a2.764 2.764 0 0 0-.775-.362 2.798 2.798 0 0 0-.831-.121c-.411 0-.734.097-.971.292a.943.943 0 0 0-.356.775c0 .249.062.512.184.787.123.27.347.624.673 1.06Zm-.831.66c-.39.309-.682.637-.876.984a2.219 2.219 0 0 0-.286 1.098c0 .639.212 1.17.635 1.593.423.419.963.629 1.618.629.178 0 .364-.026.559-.077.195-.05.385-.124.571-.222a2.783 2.783 0 0 0 .495-.324l-2.716-3.681Zm8.664-.66 2.641 3.548c.165-.207.288-.47.368-.787a4.69 4.69 0 0 0 .121-1.136c0-.136-.007-.352-.019-.648l-.007-.044h1.041v.247c0 .682-.078 1.28-.235 1.797a3.649 3.649 0 0 1-.711 1.326l1.08 1.454h-1.353l-.495-.692a3.7 3.7 0 0 1-1.117.66 3.642 3.642 0 0 1-1.263.216c-.914 0-1.669-.283-2.266-.851-.597-.571-.895-1.288-.895-2.151 0-.58.146-1.118.438-1.613.292-.495.732-.954 1.32-1.377a3.775 3.775 0 0 1-.47-.895 2.701 2.701 0 0 1-.152-.889c0-.635.21-1.136.629-1.504.423-.368 1-.552 1.732-.552.276 0 .551.025.826.076.279.051.567.125.863.222v1.162a2.772 2.772 0 0 0-.774-.362 2.81 2.81 0 0 0-.832-.121c-.411 0-.734.097-.971.292a.943.943 0 0 0-.356.775c0 .249.062.512.184.787.123.27.347.624.673 1.06Zm-.831.66c-.39.309-.682.637-.876.984a2.219 2.219 0 0 0-.286 1.098c0 .639.212 1.17.635 1.593.423.419.963.629 1.618.629.178 0 .364-.026.559-.077.195-.05.385-.124.571-.222a2.783 2.783 0 0 0 .495-.324l-2.716-3.681Zm19.696.692V171h-1.174v-4.405c0-.639-.112-1.109-.336-1.409-.225-.301-.576-.451-1.054-.451-.546 0-.967.195-1.263.584-.292.385-.438.939-.438 1.663V171h-1.168v-7.109h1.168v1.066c.207-.406.489-.713.844-.92.356-.212.777-.318 1.263-.318.724 0 1.263.239 1.619.718.36.473.539 1.193.539 2.158Zm3.542 3.51v3.599h-1.174v-9.813h1.174v.907c.195-.351.453-.617.775-.799.326-.187.7-.28 1.123-.28.859 0 1.532.332 2.019.997.491.664.736 1.585.736 2.761 0 1.155-.245 2.063-.736 2.723-.491.656-1.164.984-2.019.984-.431 0-.81-.091-1.136-.273a1.985 1.985 0 0 1-.762-.806Zm3.428-2.653c0-.906-.144-1.589-.431-2.051-.284-.461-.707-.692-1.27-.692-.567 0-.997.233-1.289.699-.292.461-.438 1.142-.438 2.044 0 .897.146 1.578.438 2.044.292.465.722.698 1.289.698.563 0 .986-.231 1.27-.692.287-.461.431-1.145.431-2.05Zm6.316-2.838c.144-.304.326-.529.546-.673a1.43 1.43 0 0 1 .806-.222c.571 0 .973.222 1.206.667.237.44.356 1.271.356 2.494V171h-1.067v-4.069c0-1.003-.057-1.625-.171-1.866-.11-.246-.313-.368-.609-.368-.339 0-.572.131-.699.393-.122.258-.184.872-.184 1.841V171h-1.066v-4.069c0-1.015-.062-1.642-.184-1.879-.119-.237-.335-.355-.648-.355-.309 0-.524.131-.647.393-.119.258-.178.872-.178 1.841V171h-1.06v-7.109h1.06v.609c.14-.254.313-.446.521-.578.211-.135.45-.203.717-.203.321 0 .588.074.8.222.215.149.383.373.501.673Zm40.301 19.887a12.91 12.91 0 0 0-1.263 2.888 10.429 10.429 0 0 0-.412 2.895c0 .969.137 1.934.412 2.894.279.961.701 1.928 1.263 2.901h-1.015c-.639-1.007-1.115-1.987-1.428-2.939a9.107 9.107 0 0 1-.47-2.856c0-.944.156-1.894.47-2.85.313-.957.789-1.934 1.428-2.933h1.015Zm4.615 0h1.016c.639.999 1.115 1.976 1.428 2.933.313.956.47 1.906.47 2.85 0 .952-.157 1.906-.47 2.862-.313.957-.789 1.934-1.428 2.933h-1.016c.563-.982.982-1.953 1.257-2.913.279-.961.419-1.922.419-2.882 0-.965-.14-1.928-.419-2.888a12.76 12.76 0 0 0-1.257-2.895Z"/></g><path stroke="#001A00" stroke-opacity=".15" d="m386 95.5.335.009A6.5 6.5 0 0 1 392.5 102v148a6.5 6.5 0 0 1-6.5 6.5H34a6.5 6.5 0 0 1-6.5-6.5V102a6.5 6.5 0 0 1 6.5-6.5h352Z"/><defs><clipPath id="a"><path fill="#fff" d="M28 102a6 6 0 0 1 6-6h352a6 6 0 0 1 6 6v148a6 6 0 0 1-6 6H34a6 6 0 0 1-6-6V102Z"/></clipPath></defs></svg>