<svg fill="none" height="32" viewBox="0 0 144 32" width="144" xmlns="http://www.w3.org/2000/svg" xmlns:xlink="http://www.w3.org/1999/xlink"><mask id="a" height="14" maskUnits="userSpaceOnUse" width="89" x="28" y="9"><path d="m116.339 9h-88.0499v14h88.0499z" fill="#fff"/></mask><g clip-rule="evenodd" fill="#151715" fill-rule="evenodd" mask="url(#a)"><path d="m28.5608 22.4308v-2.6483c1.5073.4744 2.8411.7116 4.0013.7116 1.6019 0 2.403-.4234 2.403-1.2696 0-.3155-.1166-.5807-.3502-.7953-.239-.2277-.851-.5434-1.8346-.9478-1.7647-.7256-2.9154-1.3444-3.4507-1.8563-.6937-.6756-1.0405-1.5276-1.0405-2.5571 0-1.3259.5054-2.3364 1.5155-3.0309.9989-.68838 2.2997-1.03222 3.9043-1.03222.8841 0 2.1638.16272 3.8375.48859v2.54753c-1.2454-.4974-2.4014-.7457-3.4694-.7457-1.504 0-2.256.413-2.256 1.2408 0 .3094.1515.5617.4548.7574.2523.1583.9473.4927 2.0837 1.0043 1.6362.7266 2.7255 1.3583 3.2683 1.8956.644.6373.9666 1.462.9666 2.4728 0 1.4529-.632 2.5612-1.895 3.3249-1.0232.6193-2.35.9276-3.9796.9276-1.3763 0-2.7629-.1621-4.159-.4879z"/><path d="m40.7148 9.2373h3.7457v13.4098h-3.7457z"/><path d="m47.8906 22.6471v-13.4098h9.6068v2.4254h-5.9967v3.028h5.2198v2.2124h-5.2198v3.1822h6.1511v2.5618z"/><path d="m60.1016 22.6471v-13.4098h4.8564l3.374 8.5683 3.4586-8.5683h4.6128v13.4098h-3.5514v-9.4945l-3.9327 9.6306h-2.3217l-3.857-9.6306v9.4945z"/><path d="m79.8359 22.6471v-13.4098h9.6066v2.4254h-5.9962v3.028h5.2196v2.2124h-5.2196v3.1822h6.1517v2.5618z"/><path d="m92.0664 22.6471v-13.4098h4.3413l4.6053 8.9768v-8.9768h2.639v13.4098h-4.218l-4.7282-9.0976v9.0976z"/><path d="m106.309 22.4309v-2.6483c1.495.4744 2.828.7116 4.002.7116 1.602 0 2.403-.4234 2.403-1.2697 0-.3154-.114-.5806-.34-.7952-.24-.2277-.855-.5434-1.844-.9478-1.76-.7196-2.911-1.3382-3.451-1.8563-.694-.6696-1.04-1.5248-1.04-2.5663 0-1.3201.504-2.3273 1.516-3.0218.996-.68838 2.299-1.03222 3.903-1.03222.903 0 2.072.14326 3.506.4311l.331.05749v2.54753c-1.245-.4974-2.405-.7457-3.479-.7457-1.498 0-2.245.413-2.245 1.2408 0 .3094.151.5617.453.7574.24.1522.938.4868 2.094 1.0043 1.624.7266 2.711 1.3583 3.258 1.8956.645.6373.967 1.462.967 2.4728 0 1.4529-.629 2.5612-1.885 3.3249-1.029.6192-2.359.9276-3.989.9276-1.377.0001-2.765-.162-4.16-.4878z"/></g></svg>