<svg fill="none" height="32" viewBox="0 0 144 32" width="144" xmlns="http://www.w3.org/2000/svg"><g fill="#151715"><path d="m58.9803 15.2584c-1.923 0-2.0752-1.4649-2.0752-1.8958 0-.5121.1167-1.4648 1.3658-1.923 1.249-.4583 1.5188-.5123 2.4079-.7909v-.2158c0-.4317 0-.51221-.0991-.79086-.153-.49445-.6378-.82704-1.3118-.82704-.6379 0-1.1863.35919-1.4375.88988l-.3592-.21581c.2158-.79084 1.0332-1.58166 2.4353-1.58166.9704 0 1.6444.27864 2.0398.88988.2964.49445.3326 1.15887.3326 1.83291 0 .6112-.0362 1.2853-.0362 1.8329 0 .3592-.0363.7095-.0363.9076 0 .4945.0991.8899.4945.8899.1796 0 .2159-.0629.3592-.153l.2158.2786c-.3591.4944-.7908.8899-1.5003.8899-.5484 0-.9438-.2787-1.1049-.728-.2255.3148-.8101.7103-1.6904.7103zm1.6985-3.7287c-.9439.2787-1.2853.4317-1.5543.575-.4316.2159-.6112.6113-.6112 1.1234 0 .3955.153 1.0333 1.0695 1.0333.2963 0 .7279-.0628 1.1233-.3326v-2.4079h-.0265v.0088zm-15.8777 3.3518c0-.7095 0-1.3119-.0628-2.0399h.4316c0 .4582.1168.7908.3326 1.0067.2964.3326 1.0067.5484 1.6445.5484 1.3392 0 1.9771-.5122 1.9771-1.6171 0-.9438-.575-1.3385-1.3659-1.8957l-.1167-.0991-.8537-.575c-1.1862-.79081-1.7975-1.40205-1.7975-2.6511 0-.61123.2424-2.62372 3.1988-2.62372.7634 0 1.7338.09905 2.3185.17958 0 .09905-.0363.54842-.0363.94383 0 .45823 0 .575.0363 1.12343h-.36c0-.49447-.153-.79083-.3592-1.00666-.2786-.27863-.9076-.43164-1.5816-.43164-1.5817 0-1.7612.79082-1.7612 1.40206 0 .82706.4316 1.12342 1.3658 1.73384l1.0694.70949c.9076.61119 1.7613 1.18619 1.7613 2.71389 0 2.561-2.4079 2.8308-3.4146 2.8308-.9261.1248-1.6984-.0097-2.4264-.2521zm19.1392-6.51506c.3592.03624.9076 0 1.4375-.09906.4582-.09905.6113-.15301.9439-.29635l.1529.09905v.54843c.3592-.27865 1.0695-.67406 2.0754-.67406 1.2853 0 2.1115.61124 2.3451 1.67988.0628.27864.099.90757.099 1.28527v2.0753c0 1.1589.0628 1.5004.2786 1.7073.1168.0991.3592.2159.7095.2159v.3325c-.4582-.0362-1.2853-.0628-1.7612-.0628-.6378 0-1.3658.0363-1.7612.0628v-.3325c.3591-.0363.575-.1531.7095-.2424.2158-.2159.2424-.6113.2786-1.5003 0-.2787.0362-.8271.0362-1.2217 0-.5122 0-1.0695-.0628-1.6171-.0991-.90761-.575-1.33846-1.5003-1.33846-.6378 0-1.0332.15302-1.3384.29635v3.71981c0 1.1588.0628 1.5003.2786 1.7072.1168.0991.3954.2159.674.2159v.3326c-.575-.0362-1.2852-.0628-1.7338-.0628-.9439 0-1.249.0362-1.7975.0628v-.3504c.2964 0 .6112-.1167.7635-.2963.2158-.2424.2424-.8537.2424-2.0399v-2.1115c0-.88989-.0363-1.24907-.153-1.43752-.0991-.15303-.3326-.27863-.8271-.27863v-.39542h-.0628v.01772h-.0266zm8.815 6.49646c.2964 0 .6113-.099.7635-.2963.2158-.2424.2424-.8537.2424-2.0399v-3.54903h-.9076v-.3954c.3954-.15301.728-.3326.9076-.49447 0-.63781.0362-1.4375.1167-1.89572.2787-1.46488 1.2217-2.19208 2.8308-2.19208.7095 0 1.3658.2424 1.7974.575l.0363.15301-.7095.97041h-.1796c-.2424-.575-.6112-.9076-1.2491-.9076-.2158 0-.5122.06282-.7094.2424-.2964.29636-.3592.76345-.3592 1.6799v1.36582h1.5816v.8899h-1.5816v3.93556c0 .9439.0362 1.4021.153 1.5816.1796.2964.827.3327 1.1234.3327v.3591c-.5122-.0362-1.3384-.0628-1.9231-.0628-.8899 0-1.4649.0363-1.9231.0628zm8.1676.4494c-2.1567 0-3.4411-1.3384-3.4411-3.5941 0-1.76127.9438-3.80999 3.5941-3.80999 2.1566 0 3.4411 1.33846 3.4411 3.59409 0 1.7613-.9527 3.81-3.5941 3.81zm.0902-6.58588c-.4317 0-.7635.11676-1.0067.33261-.575.49445-.8536 1.33847-.8536 2.58747 0 .4945.0991 2.8661 1.8329 2.8661.4316 0 .7634-.1168 1.0066-.3326.575-.4944.8537-1.3384.8537-2.5875-.0089-.4855-.0902-2.86608-1.8329-2.86608zm4.2319-.39541c.4945.03623 1.0067-.03624 1.5543-.11678.4316-.06281.7095-.15301.8537-.2424l.1167.06282v.61124c.3326-.3326.8899-.67406 1.6445-.67406.5484 0 .9076.15301 1.249.43165v.21583l-.6112 1.10491h-.2964c-.1796-.33259-.5484-.63783-1.1862-.63783-.2964 0-.5484.06284-.7635.21581v3.6304c0 .9438.0363 1.3658.1531 1.5543.1795.2963.7908.3325 1.1234.2963v.3954c-.4945-.0362-1.3385-.0628-1.9231-.0628-.6741 0-1.3659 0-1.9231.0628v-.3592c.3954-.0362.6112-.1167.7634-.2963.2158-.2424.2424-.8271.2424-2.0399v-1.977c0-.88988 0-1.24907-.153-1.43752-.1168-.15302-.3592-.2424-.8271-.2424v-.45823zm9.9738-3.90016c.432 0 .9705-.09906 1.68-.21583.3955-.06281.6379-.15301.7636-.17959l.1167.06282c-.0629.575-.0629 1.89572-.0629 2.8307v5.78705c0 .8536 0 1.402.1167 1.5816.1171.153.3595.2787.827.2787v.3591c-.4579 0-.9701.0628-1.5187.153-.3591.0629-.638.1168-.7906.1796l-.18-.0628v-.6112c-.359.2786-1.033.674-1.9766.674-1.95 0-3.199-1.3392-3.199-3.4411 0-.7095.1168-1.3385.3592-1.92311.6112-1.28528 1.8327-2.01249 3.3783-2.01249.5751 0 1.0695.06282 1.3656.11677v-1.50111c0-.88988 0-1.33925-.1526-1.55427-.0994-.15301-.2424-.21582-.7637-.2424v-.2875h.0365zm-.2511 9.83935c.4944 0 .8271-.0628 1.1587-.2786v-4.74412c-.1166-.11678-.5481-.49449-1.402-.49449-1.3657 0-2.0401.94382-2.0401 2.90241-.0264.8174.216 2.6148 2.2834 2.6148zm-38.7641.2158c-.2158.2787-.7634.8271-1.9231.8271-1.1049 0-1.7073-.3954-1.977-1.2853-.1168-.3326-.1168-1.0332-.1168-1.4374 0-1.1235 0-2.04.0362-3.1094v-.49445h-.9519v-.27865c.3592-.15301.6379-.29636.8899-.49447.5484-.43165.9076-.94384 1.3119-1.70728h.2963v1.58165h2.4079v.88987h-2.4079v3.71983c0 1.1233.2159 1.7338 1.2491 1.7338.4945 0 .8271-.153 1.0066-.2786z"/><path d="m89.9824 21.1348c-.1168 0-.2786.0362-.3592.1168-.099.0628-.099.153-.099.2158 0 .1168.0362.2158.1168.4582l.674 1.7613c.099.2786.1796.4944.2158.6377l.8271-2.4078c.099-.2787.1168-.3326.1168-.4582 0-.0629-.0363-.1168-.0991-.1797-.099-.0627-.2158-.1168-.3592-.1168v-.2785c.0991 0 .2964 0 .3955.0362.099 0 .2786.0362.4316.0362.2963 0 .7281-.0362.9076-.0362v.2786c-.1166.0362-.3954-.0362-.6378.6741l-1.7339 4.6273c-.2424.6741-.575 1.5003-1.7612 1.5003-.4944 0-.8271-.1167-1.1049-.3591v-.1168l.4317-.5122h.1167c.1168.2786.3592.3954.7095.3954.5484 0 .7908-.4944 1.1589-1.4649l.099-.2786-1.456-3.8011c0-.0362-.0363-.0991-.0628-.153-.0362-.099-.1168-.2787-.1168-.2787-.0991-.1795-.2424-.2424-.4316-.2424v-.2786c.2786.0362.7634.0362 1.0066.0362.153 0 .3954 0 .6378-.0362.1168 0 .3326-.0362.4317-.0362v.2424h-.0363v.0177h-.0193zm-16.1378-.0628c.2964.0362.6378-.0363.9704-.0991.2787-.0628.4317-.099.5485-.153l.099.0362v.3955c.2159-.2159.5484-.4317 1.0332-.4317.3592 0 .575.0991.7909.2786v.1531l-.3592.7095h-.1796c-.1168-.2159-.3326-.3955-.7634-.3955-.1796 0-.3326.0629-.4945.1531v2.2911c0 .6112.0362.8898.099 1.0066.1168.1796.4945.2158.7095.2158v.2424c-.2963-.0362-.8536-.0362-1.2216-.0362-.4317 0-.8899 0-1.2217.0628v-.2424c.2424 0 .3954-.099.4945-.1795.153-.1531.153-.5123.153-1.3119v-1.2853c0-.5484 0-.7908-.0991-.9076-.0628-.0991-.2424-.153-.5122-.153v-.3326h-.0451zm-20.2892 4.4212c-1.2853 0-2.0398-.3954-2.3185-1.2491-.153-.4316-.153-.9704-.153-1.402v-2.4353c0-.728-.0362-.8537-.1796-.9704-.0628-.0628-.2158-.1168-.4316-.153v-.2424c.2963.0362.827.0628 1.1234.0628.5122 0 .827 0 1.1588-.0628v.2786c-.2158 0-.3592.0628-.4944.1796-.1531.153-.1531.4316-.1531 1.2216v2.1567c0 1.2853.1168 2.1116 1.5543 2.1116 1.4649 0 1.5543-.8537 1.5543-2.1567v-2.3724c0-.7281-.0362-.8537-.1796-.9705-.099-.0628-.2424-.1168-.4316-.153v-.2424c.2786 0 .6377.0362 1.0066.0362.3326 0 .674 0 1.0695-.0628v.2787c-.2159 0-.3592.0628-.4945.1796-.153.153-.153.4316-.153 1.2216v1.8329c0 .5751 0 1.2217-.1796 1.7339-.2859.7836-1.0228 1.179-2.2984 1.179zm8.6886-.2787c.2424-.0362.3954-.0628.5122-.1795.153-.1531.153-.5122.153-1.3119v-1.2853c0-.5484 0-.827-.099-.9438-.0629-.0991-.1797-.153-.5123-.1796v-.2787c.1796.0363.6741-.0362 1.0333-.099.1796-.0362.3591-.0991.4945-.153l.099.099c-.0363.2964-.0363.9439-.0363 1.7975v1.3119c0 .6112.0363.8898.0991 1.0066.0991.1168.2786.2158.5485.2158v.2159c-.2424-.0363-.7095-.0363-1.105-.0363-.4582 0-.9438.0363-1.1862.0628zm1.1234-5.2112c-.3591 0-.575-.2158-.575-.5484s.2424-.575.6112-.575c.3592 0 .5751.2158.5751.5484-.0097.3592-.2521.575-.6113.575zm18.1414 5.2112c.2424-.0362.3955-.0628.5122-.1795.153-.1531.153-.5122.153-1.3119v-1.2853c0-.5484 0-.827-.099-.9438-.0628-.0991-.1796-.153-.5122-.1796v-.2787c.1796.0363.6741-.0362 1.0332-.099.1796-.0362.3954-.0991.4945-.153l.099.099c-.0362.2964-.0362.9439-.0362 1.7975v1.3119c0 .6112.0362.8898.0991 1.0066.099.1168.2786.2158.5484.2158v.2159c-.2787-.0363-.728-.0363-1.1234-.0363-.4582 0-.9439.0363-1.1863.0628v-.2424zm1.1234-5.2112c-.3591 0-.575-.2158-.575-.5484s.2424-.575.6113-.575c.3592 0 .575.2158.575.5484 0 .3592-.2521.575-.6113.575zm-4.8157 5.2741c0-.4583-.0363-.9439-.0629-1.1863h.2964c0 .2424.0628.4582.1796.575.1796.2158.3954.2964.7908.2964h.0628c.4945 0 .7634-.2158.7634-.6379 0-.3325-.2158-.4944-.575-.7094l-.6377-.3954c-.3326-.2159-.728-.5122-.728-1.1589 0-.5122.2158-.9076.6378-1.1234.2786-.153.7094-.153.9076-.153.3591 0 .8898.0628 1.1862.1168-.0362.1167-.0362.4316-.0362.5484 0 .099 0 .5121.0362.6112h-.2964c0-.1796-.0628-.3592-.1796-.5122-.1167-.153-.3954-.2424-.7279-.2424-.4583 0-.7095.1796-.7095.575 0 .2964.2424.4582.4582.6113h.0362l.6112.3591c.3955.2424.9076.5485.9076 1.2491 0 1.1862-1.1048 1.3658-1.7338 1.3658-.3608-.0097-.7562-.0362-1.187-.1892zm9.5695-.2964c-.1529.153-.4944.5122-1.2216.5122-.7095 0-1.1049-.2424-1.2491-.8271-.0628-.2158-.0628-.674-.0628-.9076 0-.728 0-1.3119 0-1.9771v-.2963h-.6112v-.1796c.2424-.099.3954-.1795.575-.2963.3326-.2787.575-.6113.8536-1.1049h.2158v1.0066h1.5189v.5484h-1.5189v2.3725c0 .7095.1168 1.1234.7909 1.1234.2964 0 .5122-.099.6378-.1795zm-20.6129-4.0886c-.0991 0-.2963 0-.4317.0362-.2424 0-.4944.0363-.674.0363-.3326 0-.8271-.0363-.9704-.0363v.2787c.0628 0 .2964-.0363.4582.2786.0628.1168.0991.2158.1168.2787.0362.0628.0628.1167.0628.153l1.4649 3.6569.4582-.099 1.6171-3.5942c0-.0362.0362-.0628.0628-.1167.0363-.0363.0363-.0991.153-.2787.0991-.1796.2964-.2786.4583-.2786v-.2787c-.1797 0-.575.0363-.8899.0363-.153 0-.2964 0-.4583-.0363-.1167 0-.2963-.0362-.4316-.0362v.2424c.153 0 .2964.0628.3591.1168.0363.0362.0991.1167.0991.1795 0 .0991-.0362.1796-.1168.4583l-.8898 2.1566c-.0363-.1167-.0991-.2963-.1796-.5484l-.6113-1.6171c-.099-.2424-.1167-.3326-.1167-.4582 0-.0628 0-.1168.0628-.153.099-.0991.2424-.153.3954-.153v-.2424.0185zm-9.9562.1796c.2424.0362.575 0 .9076-.0628.2787-.0629.3955-.0991.6113-.1796l.099.0628v.3592c.2158-.1796.7095-.4317 1.3119-.4317.8271 0 1.3384.3954 1.5003 1.0695.0363.1796.0628.575.0628.827v1.3119c0 .728.0363.9438.1796 1.1049.0628.0628.2424.1168.4316.1168v.2158c-.2963 0-.827-.0362-1.1233-.0362-.4317 0-.8899.0362-1.1235.0628v-.2159c.2159-.0362.3592-.099.4583-.153.1167-.1167.1529-.3954.1795-.9438 0-.1796 0-.5122 0-.7908 0-.3326 0-.7095-.0362-1.0332-.0628-.575-.3592-.8537-.9438-.8537-.3955 0-.6741.0991-.8537.1796v2.3902c0 .728.0363.9438.1796 1.1049.0628.0628.2424.1168.4317.1168v.2158c-.3955-.0991-.8537-.0991-1.1589-.0991-.6112 0-.7908 0-1.1234.0629v-.2159c.1796 0 .3954-.0628.4944-.1796.1168-.153.1531-.5484.1531-1.3118v-1.2853c0-.5484 0-.7908-.0991-.9076-.0628-.0991-.2158-.1796-.5122-.153v-.3415h-.0266zm14.8083 4.4212c-1.3659 0-2.1116-.7908-2.1116-2.2284 0-.2424.0628-2.4707 2.1293-2.4707.6112 0 1.1588.2424 1.402.6741.2787.4317.2964.8536.2964 1.2217v.2786h-2.8307c0 .2424.0362.4317.0628.575.153.8899.6378 1.3119 1.5003 1.3119.4945 0 .7908-.0991 1.0695-.2787l.1168.2159c-.2868.4042-.898.7006-1.6348.7006zm-1.0961-3.0466h1.7612c0-.5484-.099-1.1588-.8898-1.1588-.6918.0363-.836.6918-.8714 1.1588z"/></g></svg>