<svg fill="none" height="32" viewBox="0 0 144 32" width="144" xmlns="http://www.w3.org/2000/svg" xmlns:xlink="http://www.w3.org/1999/xlink"><mask id="a" height="15" maskUnits="userSpaceOnUse" width="115" x="15" y="9"><path d="m129.514 9h-114.514v14.4h114.514z" fill="#fff"/></mask><g fill="#151715" mask="url(#a)"><path d="m26.7827 9c-3.1427 0-5.1059 1.571-5.8924 4.7129 1.1787-1.5703 2.5529-2.16 4.1239-1.7671.8962.2236 1.5373.8736 2.2457 1.5936 1.1554 1.1726 2.4925 2.5296 5.413 2.5296 3.1419 0 5.1051-1.5709 5.891-4.7122-1.178 1.5703-2.5529 2.16-4.1232 1.7664-.8969-.2235-1.538-.8736-2.2464-1.5936-1.1555-1.1719-2.4926-2.5296-5.4116-2.5296zm-5.8924 7.069c-3.1406 0-5.1052 1.571-5.8903 4.7129 1.1781-1.5709 2.5529-2.16 4.1232-1.767.8969.2235 1.5381.8736 2.2464 1.5936 1.1555 1.1725 2.4926 2.5296 5.4131 2.5296 3.1419 0 5.1051-1.5703 5.8902-4.7123-1.1781 1.5703-2.5522 2.16-4.1232 1.7671-.8962-.2242-1.5374-.875-2.2464-1.5943-1.1547-1.1725-2.4926-2.5296-5.413-2.5296z"/><path d="m50.3466 14.9579h-2.0571v3.9791c0 1.0616.6967 1.0451 2.0571.9786v1.6086c-2.7531.3312-3.8475-.4312-3.8475-2.5872v-3.9791h-1.5264v-1.7253h1.5257v-2.2265l1.7911-.5308v2.7573h2.0557v1.7253zm7.8377-1.7253h1.7897v8.2916h-1.7897v-1.1938c-.6308.8778-1.6087 1.4092-2.9026 1.4092-2.2546 0-4.1287-1.9063-4.1287-4.3612 0-2.4706 1.8741-4.3611 4.1287-4.3611 1.2933 0 2.2718.5307 2.9026 1.3934zm-2.6201 6.7988c1.4921 0 2.6194-1.1108 2.6194-2.6536 0-1.5415-1.1273-2.6524-2.6194-2.6524-1.4928 0-2.6201 1.1109-2.6201 2.653 0 1.5422 1.1273 2.6538 2.6194 2.6538zm7.3948-8.0413c-.3024-.0034-.5915-.1251-.8053-.339s-.3353-.5031-.3385-.8055c.0014-.3037.1227-.5952.3367-.8091.1059-.10621.2316-.19047.3701-.24796s.287-.08708.437-.08708c.1499 0 .2984.02959.4369.08708s.2643.14175.3701.24796c.214.2139.336.5054.3367.8091 0 .6137-.5143 1.1445-1.1437 1.1445zm-.8955 9.5349v-8.2924h1.791v8.2916zm3.8639 0v-12.10703h1.7904v12.10563h-1.7897zm13.416-8.2924h1.8905l-2.6036 8.2916h-1.7575l-1.7253-5.5885-1.741 5.5885h-1.7575l-2.6036-8.2916h1.8905l1.6087 5.7209 1.7417-5.7209h1.7074l1.7239 5.7209zm4.1116-1.2425c-.6309 0-1.1445-.5308-1.1445-1.1445.0014-.3037.1234-.5952.3374-.8091.1058-.10629.2316-.19062.37-.24817.1386-.05754.2871-.08716.4371-.08716s.2985.02962.4369.08716c.1385.05755.2644.14188.3701.24817.2147.2139.336.5054.3375.8091 0 .6137-.5144 1.1445-1.1445 1.1445zm-.8955 9.5349v-8.2924h1.791v8.2916zm8.2257-8.5077c1.857 0 3.1838 1.2603 3.1838 3.4162v5.0901h-1.7911v-4.9084c0-1.2603-.7296-1.9227-1.8568-1.9227-1.1775 0-2.1059.696-2.1059 2.3877v4.4434h-1.7911v-8.2896h1.7911v1.0601c.5472-.862 1.442-1.2768 2.57-1.2768zm11.6738-3.10081h1.791v11.60711h-1.791v-1.1938c-.63.879-1.608 1.4091-2.9017 1.4091-2.2552 0-4.1288-1.9063-4.1288-4.3611 0-2.4707 1.8736-4.3612 4.1288-4.3612 1.2937 0 2.2717.5307 2.9017 1.3934zm-2.6201 10.11491c1.4931 0 2.6201-1.1108 2.6201-2.6536 0-1.5415-1.127-2.6524-2.6201-2.6524-1.492 0-2.6192 1.1109-2.6192 2.653 0 1.5422 1.1272 2.653 2.6192 2.653zm10.4141 1.7075c-2.504 0-4.378-1.9063-4.378-4.3611 0-2.47 1.874-4.3605 4.378-4.3605 1.625 0 3.035.8455 3.698 2.1394l-1.543.8956c-.364-.7797-1.177-1.2775-2.172-1.2775-1.459 0-2.57 1.1108-2.57 2.6036 0 1.4922 1.111 2.6037 2.57 2.6037.995 0 1.808-.5143 2.205-1.2775l1.543.8791c-.696 1.3097-2.106 2.1552-3.731 2.1552zm6.683-6.2181c0 1.5093 4.46.5966 4.46 3.6652 0 1.6587-1.443 2.5536-3.234 2.5536-1.658 0-2.852-.7468-3.382-1.9406l1.542-.8948c.266.746.929 1.1931 1.84 1.1931.797 0 1.41-.2647 1.41-.9285 0-1.475-4.46-.6459-4.46-3.6137 0-1.5593 1.343-2.5378 3.034-2.5378 1.36 0 2.488.6308 3.068 1.7246l-1.509.8454c-.299-.6466-.88-.9449-1.559-.9449-.646 0-1.21.2812-1.21.8784zm7.644 0c0 1.5093 4.46.5966 4.46 3.6652 0 1.6587-1.442 2.5536-3.233 2.5536-1.659 0-2.851-.7468-3.382-1.9406l1.541-.8948c.266.746.929 1.1931 1.841 1.1931.796 0 1.409-.2647 1.409-.9285 0-1.475-4.46-.6459-4.46-3.6137 0-1.5593 1.344-2.5378 3.035-2.5378 1.359 0 2.487.6308 3.067 1.7246l-1.509.8454c-.297-.6466-.878-.9449-1.558-.9449-.647 0-1.211.2812-1.211.8784z"/></g></svg>