<svg fill="none" height="40" viewBox="0 0 144 40" width="144" xmlns="http://www.w3.org/2000/svg" xmlns:xlink="http://www.w3.org/1999/xlink"><clipPath id="a"><path d="m7.28516 3h129.153v34h-129.153z"/></clipPath><g clip-path="url(#a)" fill="#09131f"><path d="m52.5391 15.3721v-2.0306h8.9486v2.0306h-3.3292v11.3097h-2.3139v-11.3097zm14.7805 3.7306c-.2833-.0473-.6139-.0945-1.0861-.0945-1.4875 0-2.3611.9681-2.3611 2.9278v4.7222h-2.1958v-9.35h2.1486v1.3222h.0472c.425-.8027 1.3694-1.6291 2.6208-1.6291.3542 0 .5903.0236.8264.0472zm10.507 7.5555h-2.125v-1.1805h-.0473c-.6375.8027-1.6527 1.5347-3.2111 1.5347-2.1014 0-4.4861-1.6764-4.4861-5.0292 0-2.975 2.1014-4.9583 4.6514-4.9583 1.5583 0 2.5028.8264 3.0695 1.5583h.0472v-1.275h2.125v9.35zm-4.8167-1.5819c1.4403 0 2.7861-1.2514 2.7861-3.0459 0-1.8889-1.2278-3.1402-2.7625-3.1402-1.9361 0-2.8569 1.5583-2.8569 3.093 0 1.5583.8972 3.0931 2.8333 3.0931zm7.3667-7.7681h2.1722v1.1806h.0472c.732-1.0625 1.8181-1.4875 2.857-1.4875 1.9361 0 3.6361 1.275 3.6361 4.2736v5.3833h-2.1959v-5.2653c0-1.6055-.7555-2.4555-2.0069-2.4555-1.3695 0-2.3139.968-2.3139 2.7861v4.9583h-2.1958zm15.3472 2.4083c-.0945-.6847-.6139-1.1333-1.2514-1.1333-.7556 0-1.1806.4722-1.1806.9917 0 .5666.2834.968 1.9125 1.5111 2.007.6375 2.7153 1.6764 2.7153 2.9986 0 1.7236-1.2986 2.9278-3.4472 2.9278-2.2431 0-3.3528-1.2278-3.5181-2.975h2.0306c.0944.7791.5667 1.3694 1.5347 1.3694.8264 0 1.2986-.5194 1.2986-1.1569 0-.7084-.4014-1.157-1.9597-1.6764-1.7472-.5667-2.6444-1.4403-2.6444-2.9042 0-1.5347 1.2041-2.668 3.1875-2.668 2.0069 0 3.0694 1.1805 3.3055 2.7152zm4.1083-6.7055h2.4319v2.2194h-2.4319zm.1181 4.2972h2.1958v9.3736h-2.1958zm8.9718 2.4083c-.094-.6847-.613-1.1333-1.251-1.1333-.756 0-1.181.4722-1.181.9917 0 .5666.284.968 1.913 1.5111 2.007.6375 2.715 1.6764 2.715 2.9986 0 1.7236-1.298 2.9278-3.447 2.9278-2.243 0-3.353-1.2278-3.518-2.975h2.031c.094.7791.566 1.3694 1.534 1.3694.827 0 1.299-.5194 1.299-1.1569 0-.7084-.402-1.157-1.96-1.6764-1.747-.5667-2.644-1.4403-2.644-2.9042 0-1.5347 1.204-2.668 3.187-2.668 2.007 0 3.07 1.1805 3.306 2.7152zm3.141-2.4083h1.18v-2.9986h2.196v2.9986h2.338v1.8417h-2.362v4.1791c0 1.275.402 1.6292 1.299 1.6292.378 0 .803-.0708 1.133-.1653v1.7709c-.495.1416-1.109.2125-1.652.2125-2.338 0-2.952-1.4167-2.952-3.3292v-4.2972h-1.18zm11.687-.3069c2.928 0 5.006 2.1486 5.006 4.9819 0 2.7625-2.102 5.0292-5.006 5.0292-2.857 0-5.005-2.1959-5.005-5.0292 0-2.9042 2.172-4.9819 5.005-4.9819zm0 8.0514c1.653 0 2.786-1.3223 2.786-3.0695 0-1.6528-1.062-3.0458-2.786-3.0458-1.676 0-2.786 1.2986-2.786 3.0458 0 1.7945 1.275 3.0695 2.786 3.0695zm11.475-6.0445c-1.487 0-2.361.9681-2.361 2.9278v4.7222h-2.196v-9.35h2.149v1.3222h.047c.425-.8027 1.37-1.6291 2.621-1.6291.354 0 .59.0236.826.0472v2.0542c-.283-.0473-.614-.0945-1.086-.0945z"/><path d="m24.2822 31.3099c-.6139 0-1.1333-.4959-1.1333-1.1334v-20.35274c0-.61389.4958-1.13333 1.1333-1.13333.6139 0 1.1333.49583 1.1333 1.13333v20.35274c0 .6139-.5194 1.1334-1.1333 1.1334zm-4.7222-10.1764h-5.4306c-.6139 0-1.1333-.4958-1.1333-1.1333s.4958-1.1334 1.1333-1.1334h5.4306c.6139 0 1.1333.4959 1.1333 1.1334s-.5194 1.1333-1.1333 1.1333zm14.8986 0h-5.4542c-.6139 0-1.1333-.4958-1.1333-1.1333s.4958-1.1334 1.1333-1.1334h5.4306c.6139 0 1.1333.4959 1.1333 1.1334s-.4958 1.1333-1.1097 1.1333z"/><path d="m24.2852 37c-9.3737 0-17.00004-7.6264-17.00004-17s7.62634-17 17.00004-17c9.3736 0 17 7.6264 17 17s-7.6264 17-17 17zm0-31.73333c-8.1223 0-14.73338 6.61113-14.73338 14.73333s6.61108 14.7333 14.73338 14.7333c8.1222 0 14.7333-6.6111 14.7333-14.7333s-6.6111-14.73333-14.7333-14.73333z"/></g></svg>