<svg fill="none" height="32" viewBox="0 0 144 32" width="144" xmlns="http://www.w3.org/2000/svg"><g fill="#151715"><path d="m53.3125 10.2188h2.8247l-4.1142 12.4042h-3.2545l-3.0705-9.3339-3.0702 9.3952h-3.1932l-4.1143-12.4655h2.8861l2.9476 9.4566 3.0089-9.4566h3.0704l3.1318 9.5181z"/><path d="m68.2399 17.4659h-9.1496c.0614.6141.3071 1.2282.6754 1.7809.3685.4298.7984.7982 1.2896 1.0439.5527.2457 1.1053.3684 1.658.3684.6754 0 1.2896-.1227 1.9037-.3684.614-.2457 1.1665-.5528 1.7193-.9825l1.3509 1.9035c-.6754.6141-1.4738 1.044-2.3334 1.351-.9212.2457-1.8423.4299-2.7633.4299-1.1668 0-2.2721-.2457-3.316-.7983-.9826-.5527-1.7195-1.3509-2.2107-2.3335-.5527-1.0439-.7982-2.272-.7982-3.4388 0-1.1667.2455-2.3334.7982-3.4387.4912-.9825 1.2896-1.7808 2.2107-2.3335.9824-.5527 2.0879-.85971 3.1931-.7983 2.1494-.06141 4.1757 1.1667 5.0968 3.1318.4913 1.0439.7984 2.2106.7369 3.4387-.0614.3685-.0614.6755-.0614 1.0439zm-2.7019-2.0878c-.0615-.8597-.4912-1.658-1.0439-2.272-.5527-.5527-1.2896-.7983-2.0878-.7983-.7983-.0615-1.658.2456-2.2107.8597-.6141.6141-.9824 1.4123-1.0439 2.2106z"/><path d="m79.7833 10.7722c.9212.5527 1.7194 1.351 2.2106 2.3335 1.1054 2.0878 1.1054 4.6669 0 6.7548-.4912.9824-1.2894 1.7808-2.2106 2.3334-.9211.5527-2.0264.8597-3.1317.7984-.7984 0-1.5353-.1229-2.2107-.4299-.6755-.307-1.2281-.7369-1.658-1.3509v1.4737h-2.7634v-17.6852h2.702v6.7547c.921-1.1667 2.3948-1.84215 3.9301-1.78074 1.1053-.06141 2.1492.18424 3.1317.79824zm-1.4738 9.1497c.5526-.3685 1.044-.8597 1.2895-1.4124.307-.6141.4299-1.2895.4299-2.0264 0-.6755-.1229-1.4123-.4299-2.0264s-.7369-1.1054-1.2895-1.4124c-1.2282-.6755-2.7018-.6755-3.9301 0-.5526.3684-.9824.8597-1.2894 1.4124-.307.6141-.4913 1.3509-.4299 2.0264 0 .7369.1229 1.4123.4299 2.0264s.7368 1.1053 1.2894 1.4124c.6142.3685 1.2896.5526 1.9652.5526.7369 0 1.4123-.2456 1.9649-.5526z"/><path d="m96.2973 17.4659h-9.1495c.0615.6141.3072 1.2282.6756 1.7809.307.4298.7982.7982 1.2896 1.0439.5525.2457 1.1052.3684 1.6579.3684.6755 0 1.2895-.1227 1.9035-.3684.6143-.2457 1.1668-.5528 1.7195-.9825l1.3508 1.9035c-.6756.6141-1.4737 1.044-2.3947 1.351-.9211.2457-1.8422.4299-2.7633.4299-1.1667 0-2.2722-.2457-3.316-.7983-.9825-.5527-1.7193-1.3509-2.2106-2.3335-.5527-1.0439-.7984-2.272-.7984-3.4388 0-1.1667.2457-2.3334.7984-3.4387.4913-.9825 1.2894-1.7808 2.2106-2.3335.9825-.5527 2.0878-.85971 3.1932-.7983 2.2105-.06141 4.1757 1.1667 5.1584 3.1318.5526 1.0439.798 2.2106.798 3.4387-.0612.3071-.0612.6141-.123 1.0439zm-2.7631-2.0878c-.0613-.8597-.4912-1.658-1.044-2.272-.5525-.5527-1.3509-.8598-2.0878-.7983-.7982-.0615-1.658.2456-2.2105.8597-.6142.6141-.9826 1.4123-1.0441 2.2106z"/><path d="m109.255 22.6844h-3.317l-3.131-4.2984-3.0708 4.2984h-3.1932l4.667-6.3249-4.667-6.0792h3.3162l3.0088 4.1757 3.009-4.1757h3.193l-4.605 6.0792z"/></g></svg>